<?xml version="1.0" standalone="no"?>
<!DOCTYPE svg PUBLIC "-//W3C//DTD SVG 1.1//EN" "http://www.w3.org/Graphics/SVG/1.1/DTD/svg11.dtd" >
<svg xmlns="http://www.w3.org/2000/svg" xmlns:xlink="http://www.w3.org/1999/xlink" version="1.1">
<metadata>
Created by FontForge 20200314 at Sat Sep  5 05:16:08 2015
 By Unknown
(c) 2014 Adobe Systems Incorporated. All Rights Reserved.
</metadata>
<defs>
<font id="AcuminPro-BoldItalic" horiz-adv-x="400" >
  <font-face 
    font-family="Acumin Pro"
    font-weight="700"
    font-style="italic"
    font-stretch="normal"
    units-per-em="1000"
    panose-1="2 11 8 4 2 2 2 9 2 4"
    ascent="750"
    descent="-250"
    x-height="518"
    cap-height="689"
    bbox="-293 -261 1055 934"
    underline-thickness="50"
    underline-position="-100"
    slope="-12"
    unicode-range="U+0020-2122"
  />
<missing-glyph horiz-adv-x="500" 
d="M0 700h500v-700h-500v700zM420 650h-340l170 -255zM450 95v510l-170 -255zM420 50l-170 255l-170 -255h340zM50 95l170 255l-170 255v-510z" />
    <glyph glyph-name="f_f" unicode="ff" horiz-adv-x="614" 
d="M245 414l-86 -414h-135l86 414h-74l24 104h72l11 52q17 81 62 125.5t125 44.5q17 0 36 -2t28 -5l-24 -108q-5 1 -13.5 1.5t-16.5 0.5q-30 0 -43.5 -17t-18.5 -42l-11 -50h165l11 52q17 81 62 125.5t124 44.5q17 0 36.5 -2t27.5 -5l-23 -108q-5 1 -13.5 1.5t-16.5 0.5
q-31 0 -44 -17t-18 -42l-11 -50h88l-23 -104h-87l-86 -414h-137l86 414h-163z" />
    <glyph glyph-name=".notdef" horiz-adv-x="500" 
d="M0 700h500v-700h-500v700zM420 650h-340l170 -255zM450 95v510l-170 -255zM420 50l-170 255l-170 -255h340zM50 95l170 255l-170 255v-510z" />
    <glyph glyph-name=".null" horiz-adv-x="0" 
 />
    <glyph glyph-name="nonmarkingreturn" horiz-adv-x="333" 
 />
    <glyph glyph-name="space" unicode=" " horiz-adv-x="242" 
 />
    <glyph glyph-name="space" unicode="&#xa0;" horiz-adv-x="242" 
 />
    <glyph glyph-name="exclam" unicode="!" horiz-adv-x="314" 
d="M125 250l51 320l26 119h144l-26 -120l-85 -319h-110zM59 0l35 166h134l-35 -166h-134z" />
    <glyph glyph-name="quotedbl" unicode="&#x22;" horiz-adv-x="414" 
d="M99 437l29 201l20 92h123l-19 -93l-55 -200h-98zM291 437l30 201l20 92h123l-20 -93l-56 -200h-97z" />
    <glyph glyph-name="numbersign" unicode="#" horiz-adv-x="545" 
d="M285 173h-103l-57 -173h-95l58 173h-73l16 108h94l40 120h-79l14 108h101l54 160h92l-53 -160h103l54 160h93l-53 -160h70l-16 -108h-90l-40 -120h82l-16 -108h-102l-57 -173h-95zM361 401h-103l-40 -120h103z" />
    <glyph glyph-name="dollar" unicode="$" horiz-adv-x="532" 
d="M142 -87l18 85q-78 16 -117 65t-32 126h134q2 -93 103 -93q55 0 79.5 24t24.5 61q0 33 -21.5 54.5t-72.5 44.5q-46 21 -79 40.5t-54 40.5t-31 45.5t-10 55.5q0 43 15.5 79t44 62t69 41.5t90.5 18.5l12 56h104l-14 -64q73 -20 102.5 -70t24.5 -110h-130q-1 15 -5 30
t-14 27t-28 19.5t-46 7.5q-35 0 -60 -17.5t-25 -55.5q0 -14 5 -24.5t17 -21t33 -21.5t53 -26q81 -36 121 -78.5t40 -111.5q0 -48 -16.5 -86t-46.5 -65t-72.5 -42.5t-94.5 -18.5l-17 -78h-104z" />
    <glyph glyph-name="percent" unicode="%" horiz-adv-x="916" 
d="M282 668q64 0 103.5 -35t39.5 -107q0 -48 -13.5 -91t-40 -75.5t-65 -51.5t-89.5 -19q-71 0 -106.5 39.5t-35.5 104.5q0 42 13 83.5t39 75.5t65 55t90 21zM272 582q-25 0 -42 -15.5t-27.5 -37.5t-15.5 -47t-5 -43q0 -35 13.5 -49.5t37.5 -14.5t41 15.5t27.5 38t15 47.5
t4.5 43q0 35 -13 49t-36 14zM164 0l529 659h101l-528 -659h-102zM736 368q64 0 103.5 -35.5t39.5 -107.5q0 -48 -13.5 -91t-40 -75.5t-65 -51.5t-89.5 -19q-71 0 -106.5 40t-35.5 105q0 42 13 83.5t39.5 75.5t65 55t89.5 21zM726 282q-24 0 -41.5 -15.5t-28 -38t-15.5 -47.5
t-5 -43q0 -35 13.5 -49.5t37.5 -14.5q25 0 42 15.5t27.5 38t15 47.5t4.5 43q0 35 -13.5 49.5t-36.5 14.5z" />
    <glyph glyph-name="ampersand" unicode="&#x26;" horiz-adv-x="763" 
d="M271 113q32 0 59 11t59 40l-126 139q-40 -20 -62 -45t-22 -63q0 -32 23.5 -57t68.5 -25zM757 408l-205 -235l154 -173h-169l-71 78q-21 -21 -43 -37.5t-48.5 -28t-58 -17.5t-70.5 -6q-50 0 -88.5 15t-64.5 40.5t-39.5 59.5t-13.5 72q0 39 11.5 68.5t33.5 54t52.5 44.5
t68.5 39q-47 64 -47 130q0 39 12.5 73.5t37.5 59.5t62 39.5t86 14.5q48 0 82 -14t55 -37t30.5 -51.5t9.5 -56.5q0 -33 -9.5 -59t-28.5 -47.5t-46 -39.5t-63 -35l90 -101l129 150h151zM355 602q-18 0 -30.5 -6.5t-20.5 -16.5t-12 -23t-4 -26q0 -22 8 -45.5t34 -50.5
q42 23 61 50.5t19 56.5q0 21 -11.5 41t-43.5 20z" />
    <glyph glyph-name="quotesingle" unicode="'" horiz-adv-x="210" 
d="M86 437l31 201l20 92h135l-20 -93l-54 -200h-112z" />
    <glyph glyph-name="parenleft" unicode="(" horiz-adv-x="362" 
d="M424 728q-65 -63 -114 -124.5t-82 -128.5t-50 -141t-17 -161q0 -41 5 -88t14 -94t22 -90t29 -76h-118q-35 78 -53 164t-18 183q0 179 65.5 316.5t178.5 239.5h138z" />
    <glyph glyph-name="parenright" unicode=")" horiz-adv-x="362" 
d="M-53 -175q64 63 113.5 124.5t82.5 128.5t50 141t17 161q0 41 -5 88t-14.5 94t-22.5 90t-29 76h119q34 -78 52.5 -164t18.5 -183q0 -179 -65.5 -316.5t-179.5 -239.5h-137z" />
    <glyph glyph-name="asterisk" unicode="*" horiz-adv-x="430" 
d="M359 690l-49 -151l123 96l43 -88l-158 -58l131 -59l-61 -87l-99 98l-16 -153h-96l49 152l-121 -97l-43 87l156 60l-131 57l65 89l95 -98l16 152h96z" />
    <glyph glyph-name="plus" unicode="+" horiz-adv-x="710" 
d="M415 564v-222h218v-116h-218v-226h-117v226h-220v116h220v222h117z" />
    <glyph glyph-name="comma" unicode="," horiz-adv-x="254" 
d="M-69 -107q26 37 47 77.5t36.5 78.5t26.5 71t16 56h140q-10 -39 -25.5 -79t-35.5 -77t-43 -70t-47 -57h-115z" />
    <glyph glyph-name="hyphen" unicode="-" horiz-adv-x="374" 
d="M333 315l-25 -117h-267l25 117h267z" />
    <glyph glyph-name="period" unicode="." horiz-adv-x="245" 
d="M-7 0l37 176h147l-36 -176h-148z" />
    <glyph glyph-name="slash" unicode="/" horiz-adv-x="431" 
d="M-23 -31l397 730h116l-397 -730h-116z" />
    <glyph glyph-name="zero" unicode="0" horiz-adv-x="585" 
d="M364 670q50 0 87.5 -16.5t62 -46.5t36.5 -71t12 -89q0 -45 -6.5 -96.5t-21.5 -102.5t-39 -98t-58.5 -83t-80.5 -57.5t-105 -21.5q-50 0 -88 16t-63 45t-37.5 69.5t-12.5 90.5q0 43 7 94t22 102.5t39.5 99t59.5 84.5t81 59t105 22zM350 559q-28 0 -50.5 -17t-40 -45
t-30.5 -64t-21.5 -75t-12.5 -77.5t-4 -70.5q0 -48 16 -79.5t57 -31.5q30 0 53.5 19.5t41.5 51t30 71t20 79t11.5 75t3.5 59.5q0 48 -16 76.5t-58 28.5z" />
    <glyph glyph-name="one" unicode="1" horiz-adv-x="365" 
d="M81 0l108 495q-14 -5 -32.5 -8.5t-36.5 -6t-34 -4t-26 -2.5l25 106q30 4 57 12.5t49.5 20t40 23.5t28.5 22h96l-140 -658h-135z" />
    <glyph glyph-name="two" unicode="2" horiz-adv-x="530" 
d="M-15 0l5 23q8 37 24 74t45.5 74t73.5 75t108 79q38 24 64.5 42.5t43 36.5t23.5 37.5t7 44.5q0 29 -16 52t-57 23q-47 0 -70.5 -28.5t-35.5 -83.5h-132q7 40 22.5 80t44.5 71t72.5 50.5t106.5 19.5q57 0 96 -16.5t63 -42.5t34.5 -58.5t10.5 -64.5q0 -42 -10 -73t-31 -57.5
t-53 -51t-76 -52.5q-65 -40 -107.5 -71t-65.5 -70h308l-40 -113h-458z" />
    <glyph glyph-name="three" unicode="3" horiz-adv-x="535" 
d="M86 482q8 37 25.5 71t46 59.5t68.5 40.5t94 15q52 0 89.5 -13.5t62 -36t36 -52t11.5 -60.5q0 -60 -28.5 -98.5t-76.5 -56.5v-3q14 -7 28.5 -18.5t26.5 -28.5t19.5 -39.5t7.5 -50.5q0 -51 -18 -92t-51.5 -69.5t-81 -44t-105.5 -15.5q-59 0 -101 15.5t-68.5 43t-38.5 64
t-12 78.5h135q3 -40 24.5 -66t71.5 -26q53 0 79 31t26 76q0 19 -5 35t-17 27.5t-32.5 18t-51.5 6.5h-41l22 110h38q25 0 45.5 4t35.5 14t23 27t8 44q0 28 -15 47.5t-56 19.5q-20 0 -34.5 -6.5t-25 -17.5t-17 -24.5t-11.5 -28.5h-136z" />
    <glyph glyph-name="four" unicode="4" horiz-adv-x="547" 
d="M272 0l33 152h-288l28 123l336 383h159l-85 -396h81l-36 -110h-67l-33 -152h-128zM357 394q10 45 19 81t18 66q-14 -23 -42 -58t-60.5 -74t-65.5 -78t-57 -69h158z" />
    <glyph glyph-name="five" unicode="5" horiz-adv-x="546" 
d="M516 544h-257q-4 -15 -9 -32.5t-10.5 -35t-10 -33.5t-8.5 -28q22 16 49 23.5t63 7.5q42 0 75 -14t56.5 -39t35.5 -59.5t12 -75.5q0 -56 -17.5 -105t-51.5 -85t-84 -57t-114 -21q-102 0 -159 51.5t-59 142.5h134q3 -36 24.5 -60.5t68.5 -24.5q56 0 86.5 38.5t30.5 98.5
q0 45 -21.5 71.5t-69.5 26.5q-41 0 -65 -17.5t-41 -46.5l-112 27q12 34 27 82t29.5 99t27.5 99t21 81h392z" />
    <glyph glyph-name="six" unicode="6" horiz-adv-x="565" 
d="M423 495q-2 12 -6 23.5t-12.5 20.5t-23 14.5t-35.5 5.5q-27 0 -49.5 -13t-39.5 -35.5t-29.5 -54t-21.5 -68.5q23 23 57 38t83 15q83 0 130.5 -52.5t47.5 -141.5q0 -50 -17 -96.5t-49 -82.5t-80 -57.5t-109 -21.5q-59 0 -101 18t-68.5 50.5t-38.5 78t-12 99.5q0 36 6 82
t20 94t36.5 94t56.5 82t80 58t106 22q55 0 93.5 -15t62.5 -39t35 -55t11 -63h-133zM268 99q29 0 50.5 12t36 31.5t21.5 45t7 51.5q0 17 -4 34t-13.5 30.5t-26.5 22t-44 8.5q-29 0 -50 -10.5t-35 -28.5t-21 -41.5t-7 -48.5q0 -44 21 -75t65 -31z" />
    <glyph glyph-name="seven" unicode="7" horiz-adv-x="482" 
d="M539 658l-23 -109q-53 -55 -103 -121.5t-94.5 -138t-82.5 -145.5t-66 -144h-151q29 76 72 153.5t91 149.5t98 134t92 107h-304l25 114h446z" />
    <glyph glyph-name="eight" unicode="8" horiz-adv-x="539" 
d="M232 -12q-49 0 -89 13t-68.5 37.5t-44 59t-15.5 77.5q0 63 37.5 109.5t103.5 68.5q-26 15 -46 47t-20 74q0 43 16 79t45.5 62t72.5 40.5t97 14.5q94 0 146.5 -45t52.5 -117q0 -60 -29.5 -101.5t-71.5 -60.5q34 -18 56 -53t22 -84q0 -48 -18.5 -88.5t-53 -70t-83.5 -46
t-110 -16.5zM312 564q-43 0 -67.5 -25t-24.5 -67q0 -30 19.5 -50t58.5 -20q47 0 69 25.5t22 64.5q0 29 -17.5 50.5t-59.5 21.5zM247 95q27 0 48 9t35.5 25t22 36.5t7.5 44.5q0 44 -26 65t-68 21q-53 0 -83 -32t-30 -79q0 -41 24 -65.5t70 -24.5z" />
    <glyph glyph-name="nine" unicode="9" horiz-adv-x="564" 
d="M169 163q6 -28 23 -46.5t58 -18.5q28 0 51.5 13.5t41.5 38t31.5 58t22.5 72.5q-24 -26 -58.5 -37t-76.5 -11q-39 0 -73 12.5t-58.5 37t-39 60t-14.5 80.5q0 46 17 90.5t49.5 79t79 55.5t106.5 21q58 0 99 -18t67 -49.5t38 -74.5t12 -94q0 -37 -5 -84t-18.5 -96
t-35.5 -96.5t-56.5 -84t-82 -59t-110.5 -22.5q-57 0 -95 15.5t-60.5 40t-33 55.5t-12.5 62h133zM326 560q-27 0 -47.5 -10.5t-35 -28.5t-21.5 -41.5t-7 -50.5q0 -45 24 -67.5t62 -22.5q56 0 83.5 34.5t27.5 84.5q0 43 -19 72.5t-67 29.5z" />
    <glyph glyph-name="colon" unicode=":" horiz-adv-x="287" 
d="M89 346l36 167h144l-36 -167h-144zM17 0l34 167h144l-35 -167h-143z" />
    <glyph glyph-name="semicolon" unicode=";" horiz-adv-x="324" 
d="M116 338l38 175h147l-38 -175h-147zM-34 -107q24 40 43.5 79.5t34 76.5t24.5 69t16 58h140q-9 -37 -24.5 -77t-35 -78t-41 -71.5t-42.5 -56.5h-115z" />
    <glyph glyph-name="less" unicode="&#x3c;" horiz-adv-x="616" 
d="M79 341l458 232v-124l-333 -164l333 -168v-125l-458 236v113z" />
    <glyph glyph-name="equal" unicode="=" horiz-adv-x="713" 
d="M634 215v-116h-555v116h555zM634 471v-116h-555v116h555z" />
    <glyph glyph-name="greater" unicode="&#x3e;" horiz-adv-x="616" 
d="M537 224l-458 -232v125l334 164l-334 168v124l458 -236v-113z" />
    <glyph glyph-name="question" unicode="?" horiz-adv-x="509" 
d="M176 217l5 22q6 25 14 46.5t22.5 42.5t36.5 42t56 46q15 11 30.5 22.5t29 25t22 29t8.5 34.5q0 25 -14.5 43.5t-51.5 18.5q-41 0 -62 -23.5t-32 -63.5h-137q8 37 23.5 72.5t43.5 63t69.5 44.5t101.5 17q55 0 92.5 -14.5t60 -38t32.5 -52.5t10 -58q0 -34 -9.5 -62t-27 -52
t-41.5 -45t-54 -41q-21 -15 -35 -28t-23.5 -25.5t-15 -26t-8.5 -28.5l-2 -11h-144zM131 0l35 166h143l-35 -166h-143z" />
    <glyph glyph-name="at" unicode="@" horiz-adv-x="965" 
d="M701 -123q-35 -21 -95 -37.5t-148 -16.5q-84 0 -157 25.5t-127 74.5t-84.5 120.5t-30.5 162.5q0 99 35 184t98 148t149.5 98.5t188.5 35.5q73 0 141.5 -20t121.5 -61t85.5 -103.5t32.5 -147.5q0 -68 -18 -125t-51.5 -98t-81.5 -64t-109 -23q-43 0 -72 15t-37 47
q-27 -31 -59.5 -46t-79.5 -15q-64 0 -101.5 40.5t-37.5 118.5q0 58 18 108.5t48.5 88.5t70 60t82.5 22q46 0 71.5 -15.5t32.5 -40.5l14 46h121l-65 -264q-9 -38 -3.5 -52.5t30.5 -14.5t47 15.5t38.5 43.5t26 66t9.5 83q0 58 -20.5 103.5t-57.5 76.5t-90 47t-117 16
q-79 0 -143 -28t-109 -77.5t-69.5 -118t-24.5 -150.5q0 -63 20 -115t57.5 -89.5t91 -58t121.5 -20.5q64 0 118 9.5t100 32.5zM503 374q-23 0 -43 -15t-35 -39.5t-23.5 -55.5t-8.5 -63q0 -37 12.5 -54.5t41.5 -17.5q38 0 62 32.5t37 85.5q18 69 7 98t-50 29z" />
    <glyph glyph-name="A" unicode="A" horiz-adv-x="642" 
d="M189 163l-85 -163h-148l371 689h178l90 -689h-142l-21 163h-243zM426 279q-12 107 -19.5 181t-9.5 122h-1q-24 -52 -64 -131t-88 -172h182z" />
    <glyph glyph-name="B" unicode="B" horiz-adv-x="650" 
d="M170 689h263q52 0 90 -13t63.5 -36t38 -54.5t12.5 -67.5q0 -57 -31 -102t-91 -65q36 -15 62 -51.5t26 -84.5q0 -52 -19.5 -92t-55 -67.5t-85.5 -41.5t-110 -14h-309zM186 109h136q57 0 95 26.5t38 80.5q0 42 -26.5 65.5t-89.5 23.5h-112zM370 415q53 0 88 20.5t35 69.5
q0 23 -8 37.5t-21 23t-30 11.5t-34 3h-115l-35 -165h120z" />
    <glyph glyph-name="B" unicode="&#xe000;" horiz-adv-x="650" 
d="M170 689h263q52 0 90 -13t63.5 -36t38 -54.5t12.5 -67.5q0 -57 -31 -102t-91 -65q36 -15 62 -51.5t26 -84.5q0 -52 -19.5 -92t-55 -67.5t-85.5 -41.5t-110 -14h-309zM186 109h136q57 0 95 26.5t38 80.5q0 42 -26.5 65.5t-89.5 23.5h-112zM370 415q53 0 88 20.5t35 69.5
q0 23 -8 37.5t-21 23t-30 11.5t-34 3h-115l-35 -165h120z" />
    <glyph glyph-name="C" unicode="C" horiz-adv-x="670" 
d="M629 216q-36 -109 -113.5 -167.5t-202.5 -58.5q-127 0 -193.5 74t-66.5 204q0 45 9 94.5t28 97.5t48 91t70.5 76t95 52.5t120.5 19.5q116 0 183 -59.5t71 -168.5h-147q-1 22 -7 42.5t-20 37t-37 26.5t-59 10q-51 0 -89.5 -29.5t-64 -75.5t-38 -102.5t-12.5 -109.5
q0 -35 6.5 -65.5t21 -53t38.5 -35.5t59 -13q60 0 94.5 31.5t57.5 81.5h148z" />
    <glyph glyph-name="D" unicode="D" horiz-adv-x="716" 
d="M170 689h222q68 0 122.5 -19.5t93 -57t59.5 -92t21 -124.5q0 -83 -26.5 -155.5t-77 -126t-124.5 -84t-169 -30.5h-267zM189 113h107q56 0 101 19t76.5 55.5t48.5 88.5t17 118q0 92 -42.5 137.5t-121.5 45.5h-88z" />
    <glyph glyph-name="E" unicode="E" horiz-adv-x="596" 
d="M536 301h-310l-39 -185h353l-41 -116h-475l146 689h463l-25 -115h-324l-33 -157h310z" />
    <glyph glyph-name="E" unicode="&#xe001;" horiz-adv-x="596" 
d="M536 301h-310l-39 -185h353l-41 -116h-475l146 689h463l-25 -115h-324l-33 -157h310z" />
    <glyph glyph-name="F" unicode="F" horiz-adv-x="575" 
d="M170 689h461l-25 -115h-323l-36 -176h302l-25 -115h-302l-59 -283h-139z" />
    <glyph glyph-name="G" unicode="G" horiz-adv-x="712" 
d="M597 0h-110q-2 13 0.5 36t5.5 39q-35 -47 -81.5 -66t-111.5 -19q-61 0 -106.5 21t-76 58t-45.5 88.5t-15 111.5q0 76 23 153t69.5 138.5t117 100t166.5 38.5q61 0 109.5 -16.5t81.5 -46t50.5 -70t17.5 -88.5h-141q-1 19 -8.5 38t-23 35t-41 26t-62.5 10q-56 0 -96 -29
t-66 -74t-38.5 -99.5t-12.5 -105.5q0 -80 33 -128t106 -48q43 0 72.5 13.5t48.5 35.5t30 50.5t17 58.5l1 3h-159l26 123h293z" />
    <glyph glyph-name="H" unicode="H" horiz-adv-x="708" 
d="M170 689h141l-57 -267h268l57 267h141l-146 -689h-141l65 306h-268l-65 -306h-141z" />
    <glyph glyph-name="I" unicode="I" horiz-adv-x="298" 
d="M311 689l-146 -689h-141l146 689h141z" />
    <glyph glyph-name="J" unicode="J" horiz-adv-x="366" 
d="M243 689h141l-107 -502q-9 -42 -23 -78.5t-38.5 -62.5t-62.5 -41t-95 -15q-19 0 -47.5 3t-46.5 8l24 112q13 -4 28.5 -5.5t32.5 -1.5q23 0 38.5 6.5t25.5 18t15.5 28.5t10.5 38z" />
    <glyph glyph-name="K" unicode="K" horiz-adv-x="639" 
d="M170 689h139l-66 -307q21 22 60 58t85 78.5t94.5 87t88.5 83.5h173l-329 -293l197 -396h-155l-149 313l-94 -73l-50 -240h-140z" />
    <glyph glyph-name="L" unicode="L" horiz-adv-x="560" 
d="M170 689h141l-122 -573h331l-39 -116h-457z" />
    <glyph glyph-name="M" unicode="M" horiz-adv-x="848" 
d="M631 259q9 44 19.5 90.5t20.5 90.5t19 83.5t16 68.5h-4q-23 -52 -54.5 -120.5t-68 -146.5t-76.5 -161t-80 -164h-122q-4 64 -8.5 146t-8.5 165.5t-6.5 158.5t-2.5 124h-5q-4 -30 -11 -71.5t-15.5 -88t-18.5 -95t-19 -92.5l-53 -247h-130l146 689h213q4 -63 8 -135
t7 -141.5t5 -130t2 -98.5h1q13 35 40 92t60.5 125t70.5 142.5t71 145.5h213l-146 -689h-137z" />
    <glyph glyph-name="N" unicode="N" horiz-adv-x="724" 
d="M23 0l146 689h182q12 -40 26.5 -88.5t29.5 -99.5l30 -102t27 -96t21 -81.5t12 -58.5h2q4 30 10.5 66.5t14.5 77.5t17.5 84.5t18.5 85.5l45 212h132l-147 -689h-172q-11 36 -25 85.5t-29.5 104.5t-31 111t-28.5 105.5t-22 87.5t-12 58h-2q-10 -66 -28 -153.5t-38 -180.5
l-46 -218h-133z" />
    <glyph glyph-name="O" unicode="O" horiz-adv-x="739" 
d="M431 699q71 0 123.5 -22t86.5 -61t50.5 -91.5t16.5 -112.5q0 -80 -22.5 -155.5t-69 -135t-118.5 -95.5t-170 -36q-69 0 -120 21.5t-84.5 59t-50.5 88t-17 109.5q0 77 23.5 154t70.5 138.5t117 100t164 38.5zM422 587q-55 0 -96 -28.5t-68.5 -73.5t-41.5 -101t-14 -111
q0 -78 35.5 -124t108.5 -46q58 0 99.5 28.5t67.5 73t38.5 100t12.5 109.5q0 38 -8 69.5t-25 54.5t-44 36t-65 13z" />
    <glyph glyph-name="P" unicode="P" horiz-adv-x="633" 
d="M170 689h241q54 0 96 -14.5t71.5 -40t44.5 -61t15 -78.5q0 -60 -21 -104.5t-58.5 -74t-89.5 -44t-114 -14.5h-138l-54 -258h-139zM241 371h106q71 0 107.5 27.5t36.5 87.5q0 91 -109 91h-97z" />
    <glyph glyph-name="Q" unicode="Q" horiz-adv-x="739" 
d="M431 699q71 0 123.5 -22t86.5 -61t50.5 -91.5t16.5 -112.5q0 -48 -8 -95t-25 -90.5t-42.5 -82t-59.5 -68.5l142 -109l-85 -92l-177 133q-56 -18 -125 -18t-120 21.5t-84.5 59t-50.5 88t-17 109.5q0 77 23.5 154t70.5 138.5t117 100t164 38.5zM422 587q-55 0 -96 -28.5
t-68.5 -73.5t-41.5 -101t-14 -111q0 -78 35.5 -124t108.5 -46q58 0 99.5 28.5t67.5 73t38.5 100t12.5 109.5q0 38 -8 69.5t-25 54.5t-44 36t-65 13z" />
    <glyph glyph-name="R" unicode="R" horiz-adv-x="644" 
d="M223 281l-59 -281h-140l146 689h263q99 0 154.5 -47.5t55.5 -132.5q0 -72 -39 -117.5t-103 -62.5q10 -5 24 -14.5t24 -28.5t14 -48t-5 -73q-13 -61 -20 -101t-4 -64h-134q-3 23 1.5 62t18.5 103q12 57 -2 86.5t-71 29.5h-124zM246 394h116q61 0 99 23t38 78
q0 39 -23 60.5t-77 21.5h-114z" />
    <glyph glyph-name="S" unicode="S" horiz-adv-x="605" 
d="M158 212q5 -53 38 -83.5t99 -30.5q57 0 87.5 21.5t30.5 69.5q0 40 -28.5 64.5t-97.5 48.5q-53 18 -89.5 38t-59 43t-33 50.5t-10.5 59.5q0 42 15 79t46.5 65.5t79 45t113.5 16.5q120 0 183.5 -56t65.5 -147h-143q-1 16 -6 32.5t-17.5 30t-34 22t-55.5 8.5
q-44 0 -72.5 -19.5t-28.5 -60.5q0 -14 5 -26t17 -23.5t33.5 -22t54.5 -22.5q52 -18 91.5 -38.5t66 -45.5t39.5 -55.5t13 -69.5q0 -41 -14 -80t-46.5 -69t-86 -48.5t-133.5 -18.5q-129 0 -196 60.5t-70 161.5h143z" />
    <glyph glyph-name="S" unicode="&#xe002;" horiz-adv-x="605" 
d="M158 212q5 -53 38 -83.5t99 -30.5q57 0 87.5 21.5t30.5 69.5q0 40 -28.5 64.5t-97.5 48.5q-53 18 -89.5 38t-59 43t-33 50.5t-10.5 59.5q0 42 15 79t46.5 65.5t79 45t113.5 16.5q120 0 183.5 -56t65.5 -147h-143q-1 16 -6 32.5t-17.5 30t-34 22t-55.5 8.5
q-44 0 -72.5 -19.5t-28.5 -60.5q0 -14 5 -26t17 -23.5t33.5 -22t54.5 -22.5q52 -18 91.5 -38.5t66 -45.5t39.5 -55.5t13 -69.5q0 -41 -14 -80t-46.5 -69t-86 -48.5t-133.5 -18.5q-129 0 -196 60.5t-70 161.5h143z" />
    <glyph glyph-name="T" unicode="T" horiz-adv-x="556" 
d="M269 574h-202l25 115h543l-25 -115h-201l-121 -574h-141z" />
    <glyph glyph-name="U" unicode="U" horiz-adv-x="692" 
d="M301 689l-91 -425q-18 -85 13 -124t98 -39q71 0 104.5 35.5t50.5 116.5l92 436h142l-96 -447q-14 -63 -36.5 -110t-58.5 -78.5t-87.5 -47.5t-123.5 -16q-61 0 -111.5 15t-84 48.5t-46 87.5t4.5 132l89 416h141z" />
    <glyph glyph-name="V" unicode="V" horiz-adv-x="632" 
d="M168 0l-92 689h140l36 -318q4 -36 7.5 -73t6 -70t4 -59.5t1.5 -41.5h2q20 48 53 112.5t73 137.5l174 312h145l-390 -689h-160z" />
    <glyph glyph-name="W" unicode="W" horiz-adv-x="899" 
d="M116 0l-22 689h139q-1 -83 -1 -167.5t-0.5 -158.5t-2 -131.5t-4.5 -85.5h1q8 24 24.5 62.5t38 85.5t46 100t49.5 105.5t48 101.5t41 88h123q1 -33 3 -77.5t4 -95t4 -102.5t3 -100.5t1 -90t-1 -69.5h1q11 35 30 82t46.5 111.5t64 149t83.5 192.5h139l-330 -689h-143
q-1 51 -3.5 118t-4.5 136t-3.5 132.5t-1.5 108.5h-1q-16 -47 -45 -112t-61.5 -133.5t-65 -134.5t-56.5 -115h-143z" />
    <glyph glyph-name="X" unicode="X" horiz-adv-x="585" 
d="M398 0l-102 245h-1l-197 -245h-158l298 355l-148 334h150l97 -231h1l190 231h154l-287 -336l153 -353h-150z" />
    <glyph glyph-name="Y" unicode="Y" horiz-adv-x="577" 
d="M150 0l52 250q3 12 -1 23l-144 416h146q11 -39 24.5 -83.5t27 -88t24.5 -83t17 -67.5q17 27 45 67t60.5 84t65.5 89t60 82h151l-326 -424q-3 -5 -5.5 -9.5t-4.5 -12.5l-51 -243h-141z" />
    <glyph glyph-name="Z" unicode="Z" horiz-adv-x="568" 
d="M-13 103l443 471h-345l26 115h510l-25 -114l-430 -459h376l-42 -116h-534z" />
    <glyph glyph-name="bracketleft" unicode="[" horiz-adv-x="346" 
d="M-17 -175l192 903h234l-20 -95h-119l-152 -713h119l-20 -95h-234z" />
    <glyph glyph-name="backslash" unicode="\" horiz-adv-x="422" 
d="M331 -27h-107l-97 726h105z" />
    <glyph glyph-name="bracketright" unicode="]" horiz-adv-x="346" 
d="M369 728l-192 -903h-234l20 95h119l152 713h-119l21 95h233z" />
    <glyph glyph-name="asciicircum" unicode="^" horiz-adv-x="500" 
d="M362 302l-114 262l-109 -262h-108l168 367h102l168 -367h-107z" />
    <glyph glyph-name="underscore" unicode="_" horiz-adv-x="513" 
d="M439 -78l-11 -51h-508l11 51h508z" />
    <glyph glyph-name="grave" unicode="`" 
d="M230 736l98 -144h-117l-136 144h155z" />
    <glyph glyph-name="a" unicode="a" horiz-adv-x="557" 
d="M465 127q-5 -20 -9 -40.5t-7 -37.5t-5.5 -30t-2.5 -19h-132q1 11 3 28.5t4 29.5q-10 -12 -22 -24t-30 -22t-43 -16t-61 -6q-38 0 -65.5 12t-45 31.5t-26 43t-8.5 46.5q0 54 21.5 89.5t56 57t77 32.5t85.5 16q33 3 62.5 3.5t53.5 1.5l5 24q3 14 3 29.5t-6 28t-21 20.5
t-42 8q-24 0 -39.5 -6t-25 -15t-14.5 -19.5t-9 -19.5h-139q7 31 22.5 59t43 49.5t70 34t102.5 12.5q47 0 87 -10.5t66.5 -33t37 -58t-0.5 -86.5zM352 232q-26 0 -48 -1.5t-42 -3.5q-57 -9 -81.5 -28.5t-24.5 -52.5q0 -23 15 -38t48 -15q35 0 58 12.5t37.5 32t22.5 42.5
t13 44z" />
    <glyph glyph-name="b" unicode="b" horiz-adv-x="593" 
d="M166 730h136l-57 -270q24 29 60.5 48.5t90.5 19.5q40 0 71 -14.5t52 -41t32 -62t11 -77.5q0 -59 -16.5 -120t-51 -110.5t-86.5 -81t-124 -31.5q-54 0 -84.5 17.5t-42.5 41.5q-2 -11 -6 -26t-7 -23h-133q5 26 13 59.5t16 73.5zM276 101q39 0 67 22t45 55t25 71t8 70
q0 97 -86 97q-108 0 -139 -161q-15 -76 4 -115t76 -39z" />
    <glyph glyph-name="b" unicode="&#xe003;" horiz-adv-x="593" 
d="M166 730h136l-57 -270q24 29 60.5 48.5t90.5 19.5q40 0 71 -14.5t52 -41t32 -62t11 -77.5q0 -59 -16.5 -120t-51 -110.5t-86.5 -81t-124 -31.5q-54 0 -84.5 17.5t-42.5 41.5q-2 -11 -6 -26t-7 -23h-133q5 26 13 59.5t16 73.5zM276 101q39 0 67 22t45 55t25 71t8 70
q0 97 -86 97q-108 0 -139 -161q-15 -76 4 -115t76 -39z" />
    <glyph glyph-name="c" unicode="c" horiz-adv-x="533" 
d="M484 169q-11 -37 -30 -69.5t-49 -57t-72.5 -38.5t-99.5 -14q-99 0 -149.5 53.5t-50.5 147.5q0 56 16.5 116t50.5 109t86.5 80.5t124.5 31.5q63 0 103.5 -19.5t63.5 -48t31 -60.5t5 -57h-132q0 15 -3.5 29.5t-11.5 26t-22.5 18.5t-37.5 7q-36 0 -61.5 -24t-41.5 -58.5
t-23.5 -74t-7.5 -70.5q0 -54 20.5 -79t57.5 -25q66 0 97 76h136z" />
    <glyph glyph-name="d" unicode="d" horiz-adv-x="599" 
d="M632 730l-124 -590q-8 -35 -15.5 -70t-13.5 -70h-131q1 14 2.5 28t5.5 33q-25 -35 -62 -53t-88 -18q-84 0 -128 55t-44 150q0 59 17.5 118.5t52 107t86 77.5t118.5 30q56 0 90.5 -18t42.5 -37l55 257h136zM323 415q-36 0 -63.5 -19t-46 -48.5t-28 -66t-9.5 -70.5
q0 -52 20.5 -80t63.5 -28q62 0 97 48t49 127q13 66 -6.5 101.5t-76.5 35.5z" />
    <glyph glyph-name="e" unicode="e" horiz-adv-x="547" 
d="M173 228q-2 -8 -3 -15.5t-1 -15.5q0 -21 4 -39.5t14 -32.5t25.5 -22t38.5 -8q42 0 63 18.5t34 44.5h142q-11 -29 -29.5 -59t-48 -54t-72 -39.5t-100.5 -15.5q-52 0 -91 15.5t-64.5 43.5t-38.5 67t-13 86q0 51 15 108.5t48 106t86.5 80t130.5 31.5q57 0 96.5 -16
t63.5 -43.5t35 -63.5t11 -76q0 -32 -4 -55.5t-10 -45.5h-332zM387 319q2 7 2 12.5v10.5q0 34 -17.5 59t-62.5 25q-47 0 -75.5 -28t-42.5 -79h196z" />
    <glyph glyph-name="f" unicode="f" horiz-adv-x="314" 
d="M24 0l86 414h-73l23 103h73l11 51q18 80 64 126t126 46q18 0 39 -2t30 -5l-23 -109q-6 2 -15.5 2.5t-17.5 0.5q-30 0 -46 -15.5t-22 -45.5l-10 -49h87l-23 -103h-87l-86 -414h-136z" />
    <glyph glyph-name="g" unicode="g" horiz-adv-x="587" 
d="M484 75q-14 -63 -31.5 -115t-48.5 -89.5t-79.5 -58t-124.5 -20.5q-73 0 -115 17t-63.5 42.5t-27.5 53.5t-6 51h138q1 -23 19.5 -42.5t65.5 -19.5q29 0 50 9t36.5 28.5t27 49.5t20.5 71l3 16q-26 -32 -60 -47t-84 -15q-42 0 -74 14.5t-54 41t-33 63.5t-11 82
q0 57 18 114.5t51.5 103t82.5 74.5t111 29q60 0 93 -19t44 -43q3 12 9 28l9 24h130q-7 -29 -14.5 -63t-14.5 -67zM316 418q-35 0 -61.5 -18.5t-44 -47.5t-26.5 -65t-9 -70q0 -48 21 -74.5t63 -26.5q54 0 88 42t50 114q6 26 7 52t-7 47t-27.5 34t-53.5 13z" />
    <glyph glyph-name="h" unicode="h" horiz-adv-x="578" 
d="M165 730h136l-58 -278q12 14 26.5 28t33 24.5t42.5 17t54 6.5q34 0 63 -10.5t47.5 -33.5t24.5 -60.5t-5 -92.5l-70 -331h-135l65 312q11 51 -1 76.5t-57 25.5q-51 0 -80.5 -33.5t-41.5 -87.5l-62 -293h-136z" />
    <glyph glyph-name="i" unicode="i" horiz-adv-x="265" 
d="M121 518h136l-110 -518h-136zM165 730h136l-27 -128h-136z" />
    <glyph glyph-name="j" unicode="j" horiz-adv-x="265" 
d="M138 602l27 128h136l-27 -128h-136zM257 518l-118 -553q-20 -94 -65 -133.5t-123 -39.5q-17 0 -34 1t-29 3l30 113q5 -1 9 -1h8q35 0 49 17t21 52l116 541h136z" />
    <glyph glyph-name="k" unicode="k" horiz-adv-x="534" 
d="M209 307q18 18 45 44t57 54.5t61 58t57 54.5h164q-55 -53 -110.5 -103t-109.5 -99l120 -316h-152l-74 230l-87 -67l-34 -163h-136l155 730h135z" />
    <glyph glyph-name="l" unicode="l" horiz-adv-x="265" 
d="M11 0l154 730h136l-154 -730h-136z" />
    <glyph glyph-name="m" unicode="m" horiz-adv-x="846" 
d="M90 372q8 37 15.5 74t13.5 72h133q-2 -10 -4.5 -27.5t-5.5 -33.5q26 32 58 51.5t86 19.5q55 0 82.5 -23t35.5 -61q27 35 67 59.5t102 24.5q33 0 60.5 -10t45.5 -32.5t23.5 -59t-5.5 -89.5l-72 -337h-132l68 320q4 18 4.5 35t-5 30.5t-18.5 21.5t-37 8q-47 0 -71 -32
t-36 -92l-62 -291h-134l69 322q4 19 3.5 35.5t-6.5 29t-18.5 20t-34.5 7.5q-46 0 -71 -32t-39 -98l-60 -284h-134z" />
    <glyph glyph-name="n" unicode="n" horiz-adv-x="578" 
d="M93 386l14 66t12 66h133q0 -6 -1.5 -15t-3 -18.5t-3 -18t-2.5 -13.5q9 12 22.5 25t32 24t43.5 18.5t58 7.5q38 0 67.5 -12t46.5 -38t21 -67t-8 -98l-66 -313h-135l66 314q10 44 -2 72t-56 28q-97 0 -129 -146l-56 -268h-136z" />
    <glyph glyph-name="o" unicode="o" horiz-adv-x="567" 
d="M319 528q46 0 85.5 -13.5t68.5 -41t45 -69.5t16 -99q0 -45 -14.5 -100t-48.5 -103t-90 -80t-138 -32q-54 0 -93.5 15.5t-65.5 44t-38.5 68t-12.5 86.5q0 52 17 109t52 105t89 79t128 31zM308 422q-35 0 -60.5 -22.5t-42 -55.5t-24 -71t-7.5 -70q0 -54 21.5 -80.5
t61.5 -26.5q37 0 62.5 22.5t42 56t24 72.5t7.5 72q0 103 -85 103z" />
    <glyph glyph-name="p" unicode="p" horiz-adv-x="598" 
d="M89 368q11 53 18 88.5t11 61.5h135q0 -8 -4 -30t-7 -40q21 30 59 55t99 25q39 0 70 -14.5t52 -41t32.5 -64t11.5 -83.5q0 -61 -18.5 -121t-54 -107.5t-88.5 -77t-122 -29.5q-49 0 -81 17.5t-46 40.5l-52 -246h-135zM196 257q-6 -32 -6.5 -60.5t8.5 -49.5t28.5 -33.5
t51.5 -12.5q38 0 65.5 20.5t45.5 51.5t26.5 67.5t8.5 69.5q0 57 -23.5 81.5t-62.5 24.5q-28 0 -51 -12t-41 -33.5t-30.5 -50.5t-19.5 -63z" />
    <glyph glyph-name="q" unicode="q" horiz-adv-x="597" 
d="M356 59q-32 -38 -68.5 -53.5t-86.5 -15.5q-33 0 -63.5 11t-53.5 35t-37 61.5t-14 91.5q0 65 20 126t56 108.5t85.5 76t109.5 28.5q31 0 54.5 -5t39.5 -13.5t26 -18.5t15 -20q5 17 8 28t6 19h134q-7 -26 -16 -67t-22 -101l-117 -548h-131zM326 418q-38 0 -66 -21
t-46.5 -52.5t-28 -70t-9.5 -72.5q0 -48 19 -75.5t61 -27.5q61 0 96 48t50 125q6 31 6.5 58t-7.5 46.5t-26 30.5t-49 11z" />
    <glyph glyph-name="r" unicode="r" horiz-adv-x="384" 
d="M380 391q-72 -1 -119.5 -41t-65.5 -125l-48 -225h-136l78 364q8 38 15.5 78t14.5 76h131q-1 -10 -4.5 -36t-10.5 -58q13 23 29 42.5t36.5 33t46.5 21t60 7.5z" />
    <glyph glyph-name="s" unicode="s" horiz-adv-x="496" 
d="M145 160q6 -69 90 -69q40 0 57 16.5t17 42.5q0 25 -21.5 39.5t-70.5 29.5q-45 14 -75.5 29.5t-49 33t-26 37.5t-7.5 44q0 35 13.5 65t40 52.5t66 35t91.5 12.5q54 0 93 -13t64.5 -34.5t37 -49.5t10.5 -59h-138q-1 10 -4.5 20t-11.5 18t-22 12.5t-36 4.5q-26 0 -47 -10
t-21 -37q0 -21 21.5 -32t69.5 -27q45 -14 76.5 -30.5t50.5 -35.5t27.5 -41.5t8.5 -49.5q0 -45 -18.5 -77.5t-50 -54t-73 -32t-87.5 -10.5q-52 0 -92.5 11.5t-67.5 33t-40.5 53t-11.5 72.5h137z" />
    <glyph glyph-name="s" unicode="&#xe004;" horiz-adv-x="496" 
d="M145 160q6 -69 90 -69q40 0 57 16.5t17 42.5q0 25 -21.5 39.5t-70.5 29.5q-45 14 -75.5 29.5t-49 33t-26 37.5t-7.5 44q0 35 13.5 65t40 52.5t66 35t91.5 12.5q54 0 93 -13t64.5 -34.5t37 -49.5t10.5 -59h-138q-1 10 -4.5 20t-11.5 18t-22 12.5t-36 4.5q-26 0 -47 -10
t-21 -37q0 -21 21.5 -32t69.5 -27q45 -14 76.5 -30.5t50.5 -35.5t27.5 -41.5t8.5 -49.5q0 -45 -18.5 -77.5t-50 -54t-73 -32t-87.5 -10.5q-52 0 -92.5 11.5t-67.5 33t-40.5 53t-11.5 72.5h137z" />
    <glyph glyph-name="t" unicode="t" horiz-adv-x="346" 
d="M67 518h77l30 139h135l-29 -139h97l-23 -104h-97l-55 -261q-5 -24 0.5 -38.5t36.5 -14.5q12 0 22.5 0.5t21.5 2.5l-20 -98q-23 -8 -47 -9t-45 -1q-41 0 -65 11t-35.5 31t-12 48t6.5 62l56 267h-77z" />
    <glyph glyph-name="u" unicode="u" horiz-adv-x="571" 
d="M482 138q-8 -34 -15 -70t-12 -68h-133q0 5 1 14.5t2.5 20t3.5 20.5t4 17q-29 -43 -70.5 -62.5t-93.5 -19.5q-36 0 -63.5 12t-44.5 35t-22 57t4 79l73 345h135l-70 -327q-4 -20 -4 -36.5t6 -28t18.5 -18t34.5 -6.5q44 0 80.5 38t54.5 124l55 254h136z" />
    <glyph glyph-name="v" unicode="v" horiz-adv-x="501" 
d="M186 518q6 -81 11 -143t8 -109t4.5 -80.5t1.5 -58.5h1q12 29 29 64.5t40 82.5t53 107t68 137h142l-280 -518h-156l-56 518h134z" />
    <glyph glyph-name="w" unicode="w" horiz-adv-x="759" 
d="M195 518q1 -65 2 -124t1.5 -109t0 -88t-1.5 -61h2q9 22 20 48.5t29 68.5t46 105t72 160h129q1 -98 1 -162.5t-0.5 -107.5t-1.5 -69t-3 -47h1q8 20 20 51t31.5 77t48 109.5t67.5 148.5h141l-260 -518h-146q-5 130 -5 212.5t2 135.5h-1q-9 -25 -22 -56.5t-32 -72.5t-44 -95
t-57 -124h-146l-29 518h135z" />
    <glyph glyph-name="x" unicode="x" horiz-adv-x="469" 
d="M185 518q10 -24 20 -49t18.5 -47t15 -39.5t10.5 -25.5h1q10 13 21 28t25.5 34t32.5 43.5t41 55.5h155l-213 -253l112 -265h-147q-11 25 -20.5 50.5t-18 47.5t-15 38.5t-10.5 24.5h-1q-6 -9 -18.5 -25.5t-29 -38.5t-35.5 -47l-38 -50h-152l213 262l-111 256h144z" />
    <glyph glyph-name="y" unicode="y" horiz-adv-x="506" 
d="M184 518q14 -167 21 -266.5t8 -140.5h1q20 43 65.5 143.5t125.5 263.5h142l-282 -541q-33 -63 -61 -100t-57 -55.5t-61.5 -24t-72.5 -5.5q-11 0 -32.5 2t-36.5 5l25 112q7 -2 18 -3t27 -1q24 0 40 4.5t27 12.5t19 20t16 26l-68 548h136z" />
    <glyph glyph-name="y" unicode="&#xe006;" horiz-adv-x="506" 
d="M184 518q14 -167 21 -266.5t8 -140.5h1q20 43 65.5 143.5t125.5 263.5h142l-282 -541q-33 -63 -61 -100t-57 -55.5t-61.5 -24t-72.5 -5.5q-11 0 -32.5 2t-36.5 5l25 112q7 -2 18 -3t27 -1q24 0 40 4.5t27 12.5t19 20t16 26l-68 548h136z" />
    <glyph glyph-name="z" unicode="z" horiz-adv-x="469" 
d="M2 103l295 309h-232l23 106h388l-23 -108l-288 -304h257l-39 -106h-403z" />
    <glyph glyph-name="braceleft" unicode="{" horiz-adv-x="372" 
d="M41 333q34 0 55.5 7t35 20t21 32t12.5 43l26 122q10 49 29.5 82t46 52.5t59 28t69.5 8.5h41l-20 -96h-15q-44 0 -63.5 -18.5t-28.5 -62.5l-28 -134q-13 -62 -47 -100t-95 -43q57 -11 74.5 -52t3.5 -105l-19 -91q-6 -31 -6.5 -51.5t6 -32.5t19 -17t32.5 -5h15l-20 -96h-23
q-33 0 -64.5 8.5t-53.5 30t-30.5 58.5t3.5 94l23 110q4 22 5 40.5t-6.5 32t-26 21t-52.5 7.5z" />
    <glyph glyph-name="bar" unicode="|" horiz-adv-x="314" 
d="M214 781v-1042h-124v1042h124z" />
    <glyph glyph-name="braceright" unicode="}" horiz-adv-x="372" 
d="M340 219q-34 0 -56 -7t-35.5 -20t-21 -32t-12.5 -43l-25 -122q-11 -49 -30 -82t-45.5 -52.5t-59 -28t-69.5 -8.5h-42l21 96h15q43 0 62.5 18.5t28.5 62.5l29 134q13 62 47 100t94 43q-57 11 -74 52t-3 105l19 91q13 61 0.5 83.5t-52.5 22.5h-15l21 96h22q33 0 64.5 -8.5
t53.5 -30t31 -58.5t-3 -94l-23 -110q-5 -23 -5.5 -41t7 -31.5t26 -20.5t52.5 -7z" />
    <glyph glyph-name="asciitilde" unicode="~" horiz-adv-x="694" 
d="M86 194v37q0 43 11 72t29 46t40.5 24t45.5 7q38 0 75.5 -13.5t71.5 -30t62.5 -30t47.5 -13.5q20 0 30 13t10 51v17h99v-25q0 -49 -10.5 -80.5t-28 -50t-40 -25.5t-46.5 -7q-37 0 -74 13.5t-70.5 30t-62.5 30t-50 13.5q-17 0 -28 -13t-11 -45v-21h-101z" />
    <glyph glyph-name="exclamdown" unicode="&#xa1;" horiz-adv-x="271" 
d="M182 268l-50 -320l-26 -120h-145l26 121l85 319h110zM249 518l-35 -166h-135l35 166h135z" />
    <glyph glyph-name="cent" unicode="&#xa2;" horiz-adv-x="540" 
d="M499 237q-18 -67 -63.5 -110.5t-126.5 -55.5l-16 -73h-115l17 75q-68 16 -100 67t-32 123q0 56 15.5 109t45.5 96t75 72t104 37l13 62h113l-15 -68q38 -11 62 -31t37 -45t17 -51t1 -48h-129q0 34 -15 58t-59 24q-35 0 -59.5 -22.5t-39.5 -54.5t-22 -68.5t-7 -64.5
q0 -54 19.5 -77.5t54.5 -23.5q34 0 55 18t36 52h134z" />
    <glyph glyph-name="sterling" unicode="&#xa3;" horiz-adv-x="524" 
d="M-19 0l21 101q49 19 68 64t29 116h-85l20 97h76q2 17 4 36t6 42q17 106 69.5 159.5t150.5 53.5q58 0 94.5 -18t56.5 -45t26 -58t4 -58h-122q-2 33 -16 54.5t-49 21.5q-38 0 -54 -27t-24 -76q-4 -24 -7 -44.5t-5 -40.5h132l-21 -97h-124q-8 -53 -23.5 -97t-42.5 -71h317
l-39 -113h-462z" />
    <glyph glyph-name="currency" unicode="&#xa4;" horiz-adv-x="530" 
d="M315 548q59 0 102 -32l86 74l53 -76l-87 -76q14 -44 5 -100q-5 -30 -15.5 -58t-26.5 -51l60 -75l-82 -72l-56 72q-23 -14 -50.5 -21.5t-58.5 -7.5q-60 0 -100 31l-82 -74l-55 78l82 71q-15 45 -6 105q5 31 16 59t28 52l-52 72l82 71l51 -69q23 13 50 20t56 7zM295 446
q-39 0 -67 -26t-37 -83q-5 -32 -0.5 -54t15 -35t25 -18.5t30.5 -5.5q35 0 64 24.5t40 89.5q8 55 -11.5 81.5t-58.5 26.5z" />
    <glyph glyph-name="yen" unicode="&#xa5;" horiz-adv-x="487" 
d="M286 161l-34 -161h-132l34 161h-119l17 77h118l10 48h-119l17 77h99l-101 295h145q14 -55 23.5 -95t15.5 -68t9 -46l5 -30h1q6 11 16 28.5t28 45t45 68t67 97.5h148l-230 -295h102l-17 -77h-122l-10 -48h122l-17 -77h-121z" />
    <glyph glyph-name="brokenbar" unicode="&#xa6;" horiz-adv-x="255" 
d="M185 689v-356h-115v356h115zM185 179v-358h-115v358h115z" />
    <glyph glyph-name="section" unicode="&#xa7;" horiz-adv-x="589" 
d="M217 369q-24 -12 -42.5 -34t-18.5 -53q0 -23 15 -45.5t63 -47.5q38 -20 67 -35t46 -26q23 14 37 38.5t14 51.5q0 34 -20.5 56t-64.5 45q-26 14 -51.5 26.5t-44.5 23.5zM424 519q0 13 -3 27t-12.5 25.5t-26.5 19t-44 7.5q-35 0 -58.5 -15.5t-23.5 -47.5q0 -26 24.5 -43.5
t84.5 -46.5q40 -20 71 -39.5t51 -42.5t30.5 -51.5t10.5 -65.5q0 -63 -26.5 -109t-83.5 -81q8 -11 15 -30t7 -47q0 -94 -62 -142t-174 -48q-113 0 -171.5 53.5t-49.5 147.5h136q-5 -48 22 -73.5t75 -25.5q41 0 65.5 17.5t24.5 52.5q0 13 -5.5 24t-18.5 22t-34.5 23t-53.5 27
q-46 22 -77 43.5t-50.5 44.5t-28 49t-8.5 57q0 60 30.5 107.5t87.5 76.5q-10 15 -15 34.5t-5 38.5q0 39 12 73.5t38 60.5t67.5 41.5t100.5 15.5q63 0 105 -15.5t66.5 -41t32.5 -58t4 -65.5h-130z" />
    <glyph glyph-name="dieresis" unicode="&#xa8;" 
d="M106 601l27 127h111l-27 -127h-111zM295 601l27 127h111l-27 -127h-111z" />
    <glyph glyph-name="copyright" unicode="&#xa9;" horiz-adv-x="786" 
d="M411 698q72 0 135 -26t109.5 -72.5t73 -111.5t26.5 -144q0 -80 -26 -145t-72.5 -111.5t-109.5 -72t-136 -25.5t-136.5 25t-110 71t-73 111.5t-26.5 146.5q0 77 26 142t72.5 112t110 73.5t137.5 26.5zM410 635q-59 0 -109 -20t-87 -57.5t-58 -91.5t-21 -123q0 -62 21 -115
t58 -91.5t87 -60.5t109 -22q58 0 108 18.5t87 55.5t58.5 90.5t21.5 124.5q0 65 -21 119t-58 92.5t-87.5 59.5t-108.5 21zM581 291q-11 -62 -52 -99.5t-118 -37.5q-81 0 -127.5 50.5t-46.5 141.5q0 88 46.5 142t134.5 54q42 0 72 -12t49.5 -31.5t29.5 -45.5t12 -53h-90
q-6 29 -22.5 46.5t-54.5 17.5q-35 0 -58.5 -26t-23.5 -86q0 -56 21 -88t60 -32q59 0 76 59h92z" />
    <glyph glyph-name="ordfeminine" unicode="&#xaa;" horiz-adv-x="377" 
d="M352 342q-5 -26 -10 -50t-6 -32h-95q1 7 2.5 19.5t3.5 20.5q-13 -18 -37 -32t-66 -14q-25 0 -43.5 8t-30.5 20.5t-17.5 29t-5.5 33.5q0 36 14.5 59t37.5 37t52.5 20t59.5 9q18 2 37.5 2.5t35.5 0.5l2 12q2 17 -4.5 31.5t-37.5 14.5q-27 0 -37.5 -9t-15.5 -26h-99
q4 17 13.5 35.5t28 34t46.5 25.5t69 10q70 0 107 -28.5t24 -93.5zM269 410q-14 0 -26 -0.5t-23 -1.5q-32 -3 -50.5 -13.5t-18.5 -35.5q0 -13 10 -21t28 -8t31.5 7t23.5 17.5t16 23.5t8 26z" />
    <glyph glyph-name="guillemotleft" unicode="&#xab;" horiz-adv-x="592" 
d="M174 251l94 -188h-115l-101 198l181 197h129zM399 252l94 -189h-116l-100 198l180 197h130z" />
    <glyph glyph-name="logicalnot" unicode="&#xac;" horiz-adv-x="713" 
d="M633 420v-348h-117v234h-438v114h555z" />
    <glyph glyph-name="uni00AD" unicode="&#xad;" horiz-adv-x="374" 
d="M333 315l-25 -117h-267l25 117h267z" />
    <glyph glyph-name="registered" unicode="&#xae;" horiz-adv-x="357" 
d="M242 699q39 0 70 -13.5t53 -37t34 -55t12 -67.5q0 -39 -12 -71t-34.5 -55.5t-53.5 -36t-69 -12.5q-36 0 -67 13.5t-53.5 36.5t-35 55t-12.5 70q0 37 12 69t34.5 55t53 36t68.5 13zM242 660q-30 0 -53 -10.5t-39.5 -28.5t-25 -42.5t-8.5 -52.5q0 -29 9.5 -53.5t26.5 -42.5
t40 -28t50 -10q62 0 94.5 36t32.5 97t-35 98t-92 37zM170 446v166h82q13 0 25.5 -2t22.5 -7.5t16.5 -14.5t6.5 -24q0 -17 -8.5 -26.5t-19.5 -12.5q14 -5 18.5 -15.5t4.5 -27.5v-17.5t2 -18.5h-53q-2 5 -2.5 17t-0.5 17q0 14 -6 19.5t-20 5.5h-15v-59h-53zM225 542h20
q22 0 22 18q0 9 -6 12t-17 3h-19v-33z" />
    <glyph glyph-name="macron" unicode="&#xaf;" 
d="M431 709l-23 -105h-288l23 105h288z" />
    <glyph glyph-name="degree" unicode="&#xb0;" horiz-adv-x="331" 
d="M241 679q60 0 91.5 -34.5t31.5 -85.5q0 -35 -11.5 -64.5t-32.5 -51.5t-50 -34t-64 -12q-56 0 -88 33.5t-32 89.5q0 34 11.5 63.5t32 50.5t49 33t62.5 12zM234 617q-37 0 -57 -28t-20 -65q0 -29 15 -47t44 -18q34 0 54.5 26t20.5 66q0 29 -12.5 47.5t-44.5 18.5z" />
    <glyph glyph-name="plusminus" unicode="&#xb1;" horiz-adv-x="713" 
d="M411 687v-205h223v-105h-223v-206h-107v206h-225v105h225v205h107zM80 0v105h555v-105h-555z" />
    <glyph glyph-name="two.sups" unicode="&#xb2;" horiz-adv-x="366" 
d="M17 428l3 12q6 24 15 48t26.5 48t46 48t72.5 48q49 27 67.5 41t18.5 34q0 16 -10 27t-33 11t-38 -13t-24 -42h-99q30 140 173 140q37 0 63.5 -10.5t43.5 -27.5t25 -38t8 -42q0 -23 -5.5 -41t-19 -34t-35 -31t-52.5 -31q-26 -13 -52.5 -29t-39.5 -36h181l-31 -82h-304z
" />
    <glyph glyph-name="three.sups" unicode="&#xb3;" horiz-adv-x="378" 
d="M138 550q2 -18 15 -34t43 -16q23 0 41 10.5t18 39.5q0 18 -13.5 29.5t-43.5 11.5h-36l19 84h30q32 0 44.5 12.5t12.5 31.5q0 14 -9.5 24t-31.5 10q-26 0 -38 -11.5t-18 -28.5h-99q4 18 14.5 39t29.5 38t48.5 28.5t73.5 11.5q67 0 102.5 -29.5t35.5 -73.5
q0 -36 -19.5 -57.5t-51.5 -31.5q7 -2 17 -8t19.5 -16t16 -24.5t6.5 -33.5q0 -60 -45 -96t-130 -36q-47 0 -78 13t-49 32.5t-24 41.5t-4 39h104z" />
    <glyph glyph-name="acute" unicode="&#xb4;" 
d="M517 736l-206 -144h-132l161 144h177z" />
    <glyph glyph-name="uni00B5" unicode="&#xb5;" horiz-adv-x="568" 
d="M116 518h135l-66 -309q-5 -23 -5.5 -42.5t5 -34t18.5 -22.5t36 -8q22 0 41.5 7.5t35.5 25.5t28.5 47t21.5 72l57 264h135l-77 -364q-12 -59 -19.5 -96.5t-9.5 -57.5h-128q-1 9 0.5 26.5t4.5 37.5q-25 -41 -56.5 -57.5t-71.5 -16.5q-13 0 -32.5 4.5t-32.5 15.5
q-1 -6 -6 -28.5t-11.5 -53.5t-14 -66t-13.5 -67h-131q7 33 18 81.5t22.5 102t23 104.5t19.5 89z" />
    <glyph glyph-name="paragraph" unicode="&#xb6;" horiz-adv-x="620" 
d="M319 -152l60 281h-93q-67 0 -113.5 23t-73.5 62t-33.5 91t5.5 111q23 111 97.5 170t192.5 59h127q5 15 11.5 33.5t11.5 27.5h88q-4 -14 -8 -31.5t-7 -31.5l-170 -795h-95zM401 235l67 315h-45q-25 0 -43.5 -12.5t-31.5 -33.5t-21.5 -48t-14.5 -55q-8 -37 -9.5 -67.5
t5 -52.5t21.5 -34t41 -12h31z" />
    <glyph glyph-name="periodcentered" unicode="&#xb7;" horiz-adv-x="245" 
d="M28 200l37 176h147l-36 -176h-148z" />
    <glyph glyph-name="cedilla" unicode="&#xb8;" 
d="M198 0l-44 -43q30 -9 55 -30t25 -59q0 -28 -11 -48.5t-30.5 -34.5t-45.5 -21t-57 -7q-35 0 -60.5 5t-41.5 10l19 74q12 -4 31 -6t33 -2q16 0 33 4t17 22q0 9 -8 15t-21.5 9.5t-30 5.5t-33.5 3l8 35l73 78z" />
    <glyph glyph-name="one.sups" unicode="&#xb9;" horiz-adv-x="260" 
d="M72 427l61 289q-20 -2 -37.5 -1t-29.5 1l17 75q35 2 64 13t44 25h75l-86 -402h-108z" />
    <glyph glyph-name="ordmasculine" unicode="&#xba;" horiz-adv-x="389" 
d="M256 601q72 0 110 -38.5t38 -97.5q0 -46 -14.5 -84.5t-40.5 -66.5t-63.5 -43.5t-83.5 -15.5q-65 0 -105.5 37t-40.5 103q0 40 13.5 77.5t39.5 66t63 45.5t84 17zM246 524q-22 0 -37.5 -12.5t-26 -31t-15.5 -41t-5 -42.5q0 -32 13.5 -49t38.5 -17q23 0 39 13t26.5 32.5
t15.5 42t5 42.5q0 63 -54 63z" />
    <glyph glyph-name="guillemotright" unicode="&#xbb;" horiz-adv-x="592" 
d="M421 270l-94 188h115l101 -198l-181 -197h-129zM196 269l-94 189h116l100 -198l-180 -197h-130z" />
    <glyph glyph-name="onequarter" unicode="&#xbc;" horiz-adv-x="813" 
d="M74 0l532 658h98l-527 -658h-103zM94 260l61 289q-20 -2 -37.5 -1t-29.5 1l17 75q35 2 64 13t44 25h75l-86 -402h-108zM589 1l20 93h-191l17 77l202 226h135l-49 -228h57l-24 -75h-49l-19 -93h-99zM624 169l14 59q4 16 10 42.5t11 45.5q-8 -11 -22.5 -28.5t-32.5 -38
t-36.5 -41.5t-33.5 -39h90z" />
    <glyph glyph-name="onehalf" unicode="&#xbd;" horiz-adv-x="852" 
d="M70 0l532 658h98l-527 -658h-103zM91 260l61 289q-20 -2 -37.5 -1t-29.5 1l17 75q35 2 64 13t44 25h75l-86 -402h-108zM458 0l3 12q6 24 15 48t26.5 48t46 48t72.5 48q49 27 67.5 41t18.5 34q0 16 -10 27t-33 11t-38 -13t-24 -42h-99q30 140 173 140q37 0 63.5 -10.5
t43.5 -27.5t25 -38t8 -42q0 -23 -5.5 -41t-19 -34t-35 -31t-52.5 -31q-26 -13 -52.5 -29t-39.5 -36h181l-31 -82h-304z" />
    <glyph glyph-name="threequarters" unicode="&#xbe;" horiz-adv-x="921" 
d="M186 0l532 658h98l-527 -658h-103zM695 -2l20 93h-191l17 77l202 226h135l-49 -228h57l-24 -75h-49l-19 -93h-99zM730 166l14 59q4 16 10 42.5t11 45.5q-8 -11 -22.5 -28.5t-32.5 -38t-36.5 -41.5t-33.5 -39h90zM151 383q2 -18 15 -34t43 -16q23 0 41 10.5t18 39.5
q0 18 -13.5 29.5t-43.5 11.5h-36l19 84h30q32 0 44.5 12.5t12.5 31.5q0 14 -9.5 24t-31.5 10q-26 0 -38 -11.5t-18 -28.5h-99q4 18 14.5 39t29.5 38t48.5 28.5t73.5 11.5q67 0 102.5 -29.5t35.5 -73.5q0 -36 -19.5 -57.5t-51.5 -31.5q7 -2 17 -8t19.5 -16t16 -24.5
t6.5 -33.5q0 -60 -45 -96t-130 -36q-47 0 -78 13t-49 32.5t-24 41.5t-4 39h104z" />
    <glyph glyph-name="questiondown" unicode="&#xbf;" horiz-adv-x="504" 
d="M344 300l-4 -22q-6 -25 -14 -46.5t-22.5 -42.5t-36.5 -42t-56 -46q-15 -11 -30.5 -22.5t-29 -24.5t-22 -28.5t-8.5 -34.5q0 -26 14.5 -44.5t51.5 -18.5q41 0 62 24t32 64h137q-8 -37 -24 -72.5t-43.5 -63.5t-69 -45t-101.5 -17q-55 0 -92.5 14.5t-60 38t-32.5 53
t-10 58.5q0 33 9.5 61t27 52t41.5 45t54 42q21 14 35 27t23.5 25.5t15 26t8.5 29.5l2 10h143zM390 518l-35 -166h-143l35 166h143z" />
    <glyph glyph-name="Agrave" unicode="&#xc0;" horiz-adv-x="642" 
d="M189 163l-85 -163h-148l371 689h178l90 -689h-142l-21 163h-243zM426 279q-12 107 -19.5 181t-9.5 122h-1q-24 -52 -64 -131t-88 -172h182zM351 887l143 -139h-133l-183 139h173z" />
    <glyph glyph-name="Aacute" unicode="&#xc1;" horiz-adv-x="642" 
d="M189 163l-85 -163h-148l371 689h178l90 -689h-142l-21 163h-243zM426 279q-12 107 -19.5 181t-9.5 122h-1q-24 -52 -64 -131t-88 -172h182zM713 887l-228 -139h-139l176 139h191z" />
    <glyph glyph-name="Acircumflex" unicode="&#xc2;" horiz-adv-x="642" 
d="M189 163l-85 -163h-148l371 689h178l90 -689h-142l-21 163h-243zM426 279q-12 107 -19.5 181t-9.5 122h-1q-24 -52 -64 -131t-88 -172h182zM510 876l100 -137h-125l-51 70l-78 -70h-136l161 137h129z" />
    <glyph glyph-name="Atilde" unicode="&#xc3;" horiz-adv-x="642" 
d="M189 163l-85 -163h-148l371 689h178l90 -689h-142l-21 163h-243zM426 279q-12 107 -19.5 181t-9.5 122h-1q-24 -52 -64 -131t-88 -172h182zM246 741l6 32q5 31 15 51t24 32t31.5 17t38.5 5q22 0 42.5 -6.5t39.5 -14.5t34.5 -14.5t27.5 -6.5t20 6.5t11 27.5l1 8h88l-5 -30
q-6 -33 -16 -54.5t-24.5 -34t-32.5 -17t-39 -4.5q-23 0 -43.5 6.5t-38.5 14t-33 14t-27 6.5q-11 0 -19 -5t-10 -19l-2 -14h-89z" />
    <glyph glyph-name="Adieresis" unicode="&#xc4;" horiz-adv-x="642" 
d="M189 163l-85 -163h-148l371 689h178l90 -689h-142l-21 163h-243zM426 279q-12 107 -19.5 181t-9.5 122h-1q-24 -52 -64 -131t-88 -172h182zM262 753l27 127h111l-27 -127h-111zM467 753l27 127h111l-27 -127h-111z" />
    <glyph glyph-name="Aring" unicode="&#xc5;" horiz-adv-x="642" 
d="M189 163l-85 -163h-148l371 689h178l90 -689h-142l-21 163h-243zM426 279q-12 107 -19.5 181t-9.5 122h-1q-24 -52 -64 -131t-88 -172h182zM419 729q-51 0 -78 25.5t-27 64.5q0 26 10 47t27.5 36t41.5 23.5t51 8.5q51 0 77 -27t26 -65q0 -51 -36 -82t-92 -31zM424 788
q17 0 35 12t18 38q0 16 -9 27t-31 11q-19 0 -35.5 -12.5t-16.5 -38.5q0 -11 9 -24t30 -13z" />
    <glyph glyph-name="AE" unicode="&#xc6;" horiz-adv-x="948" 
d="M985 689l-24 -115h-324l-34 -157h311l-25 -115h-311l-38 -186h352l-42 -116h-473l43 204h-203l-153 -204h-152l527 689h546zM445 320l55 260h-3l-192 -260h140z" />
    <glyph glyph-name="Ccedilla" unicode="&#xc7;" horiz-adv-x="670" 
d="M629 216q-36 -109 -113.5 -167.5t-202.5 -58.5q-127 0 -193.5 74t-66.5 204q0 45 9 94.5t28 97.5t48 91t70.5 76t95 52.5t120.5 19.5q116 0 183 -59.5t71 -168.5h-147q-1 22 -7 42.5t-20 37t-37 26.5t-59 10q-51 0 -89.5 -29.5t-64 -75.5t-38 -102.5t-12.5 -109.5
q0 -35 6.5 -65.5t21 -53t38.5 -35.5t59 -13q60 0 94.5 31.5t57.5 81.5h148zM364 1l-44 -43q30 -9 55 -30t25 -59q0 -28 -11 -48.5t-30.5 -34.5t-45.5 -21t-57 -7q-35 0 -60.5 5t-41.5 10l19 74q12 -4 31 -6t33 -2q16 0 33 4t17 22q0 9 -8 15t-21.5 9.5t-30 5.5t-33.5 3l8 35
l73 78z" />
    <glyph glyph-name="Egrave" unicode="&#xc8;" horiz-adv-x="596" 
d="M536 301h-310l-39 -185h353l-41 -116h-475l146 689h463l-25 -115h-324l-33 -157h310zM337 888l143 -139h-133l-183 139h173z" />
    <glyph glyph-name="Eacute" unicode="&#xc9;" horiz-adv-x="596" 
d="M536 301h-310l-39 -185h353l-41 -116h-475l146 689h463l-25 -115h-324l-33 -157h310zM692 888l-228 -139h-139l176 139h191z" />
    <glyph glyph-name="Ecircumflex" unicode="&#xca;" horiz-adv-x="596" 
d="M536 301h-310l-39 -185h353l-41 -116h-475l146 689h463l-25 -115h-324l-33 -157h310zM498 886l100 -137h-125l-51 70l-78 -70h-136l161 137h129z" />
    <glyph glyph-name="Edieresis" unicode="&#xcb;" horiz-adv-x="596" 
d="M536 301h-310l-39 -185h353l-41 -116h-475l146 689h463l-25 -115h-324l-33 -157h310zM252 759l27 127h111l-27 -127h-111zM457 759l27 127h111l-27 -127h-111z" />
    <glyph glyph-name="Igrave" unicode="&#xcc;" horiz-adv-x="298" 
d="M311 689l-146 -689h-141l146 689h141zM177 887l143 -139h-133l-183 139h173z" />
    <glyph glyph-name="Iacute" unicode="&#xcd;" horiz-adv-x="298" 
d="M311 689l-146 -689h-141l146 689h141zM536 887l-228 -139h-139l176 139h191z" />
    <glyph glyph-name="Icircumflex" unicode="&#xce;" horiz-adv-x="298" 
d="M311 689l-146 -689h-141l146 689h141zM347 885l100 -137h-125l-51 70l-78 -70h-136l161 137h129z" />
    <glyph glyph-name="Idieresis" unicode="&#xcf;" horiz-adv-x="298" 
d="M311 689l-146 -689h-141l146 689h141zM94 759l27 127h111l-27 -127h-111zM299 759l27 127h111l-27 -127h-111z" />
    <glyph glyph-name="Eth" unicode="&#xd0;" horiz-adv-x="726" 
d="M119 399l61 290h222q68 0 122.5 -19.5t93 -57t59.5 -92t21 -124.5q0 -83 -26.5 -155.5t-77 -126t-124.5 -84t-169 -30.5h-267l65 308h-80l19 91h81zM259 399h159l-20 -91h-158l-41 -195h107q56 0 101 19t76.5 55.5t48.5 88.5t17 118q0 92 -42.5 137.5t-121.5 45.5h-88z
" />
    <glyph glyph-name="Ntilde" unicode="&#xd1;" horiz-adv-x="724" 
d="M23 0l146 689h182q12 -40 26.5 -88.5t29.5 -99.5l30 -102t27 -96t21 -81.5t12 -58.5h2q4 30 10.5 66.5t14.5 77.5t17.5 84.5t18.5 85.5l45 212h132l-147 -689h-172q-11 36 -25 85.5t-29.5 104.5t-31 111t-28.5 105.5t-22 87.5t-12 58h-2q-10 -66 -28 -153.5t-38 -180.5
l-46 -218h-133zM283 752l6 32q5 31 15 51t24 32t31.5 17t38.5 5q22 0 42.5 -6.5t39.5 -14.5t34.5 -14.5t27.5 -6.5t20 6.5t11 27.5l1 8h88l-5 -30q-6 -33 -16 -54.5t-24.5 -34t-32.5 -17t-39 -4.5q-23 0 -43.5 6.5t-38.5 14t-33 14t-27 6.5q-11 0 -19 -5t-10 -19l-2 -14h-89
z" />
    <glyph glyph-name="Ograve" unicode="&#xd2;" horiz-adv-x="739" 
d="M431 699q71 0 123.5 -22t86.5 -61t50.5 -91.5t16.5 -112.5q0 -80 -22.5 -155.5t-69 -135t-118.5 -95.5t-170 -36q-69 0 -120 21.5t-84.5 59t-50.5 88t-17 109.5q0 77 23.5 154t70.5 138.5t117 100t164 38.5zM422 587q-55 0 -96 -28.5t-68.5 -73.5t-41.5 -101t-14 -111
q0 -78 35.5 -124t108.5 -46q58 0 99.5 28.5t67.5 73t38.5 100t12.5 109.5q0 38 -8 69.5t-25 54.5t-44 36t-65 13zM402 889l143 -139h-133l-183 139h173z" />
    <glyph glyph-name="Oacute" unicode="&#xd3;" horiz-adv-x="739" 
d="M431 699q71 0 123.5 -22t86.5 -61t50.5 -91.5t16.5 -112.5q0 -80 -22.5 -155.5t-69 -135t-118.5 -95.5t-170 -36q-69 0 -120 21.5t-84.5 59t-50.5 88t-17 109.5q0 77 23.5 154t70.5 138.5t117 100t164 38.5zM422 587q-55 0 -96 -28.5t-68.5 -73.5t-41.5 -101t-14 -111
q0 -78 35.5 -124t108.5 -46q58 0 99.5 28.5t67.5 73t38.5 100t12.5 109.5q0 38 -8 69.5t-25 54.5t-44 36t-65 13zM711 889l-228 -139h-139l176 139h191z" />
    <glyph glyph-name="Ocircumflex" unicode="&#xd4;" horiz-adv-x="739" 
d="M431 699q71 0 123.5 -22t86.5 -61t50.5 -91.5t16.5 -112.5q0 -80 -22.5 -155.5t-69 -135t-118.5 -95.5t-170 -36q-69 0 -120 21.5t-84.5 59t-50.5 88t-17 109.5q0 77 23.5 154t70.5 138.5t117 100t164 38.5zM422 587q-55 0 -96 -28.5t-68.5 -73.5t-41.5 -101t-14 -111
q0 -78 35.5 -124t108.5 -46q58 0 99.5 28.5t67.5 73t38.5 100t12.5 109.5q0 38 -8 69.5t-25 54.5t-44 36t-65 13zM547 886l100 -137h-125l-51 70l-78 -70h-136l161 137h129z" />
    <glyph glyph-name="Otilde" unicode="&#xd5;" horiz-adv-x="739" 
d="M431 699q71 0 123.5 -22t86.5 -61t50.5 -91.5t16.5 -112.5q0 -80 -22.5 -155.5t-69 -135t-118.5 -95.5t-170 -36q-69 0 -120 21.5t-84.5 59t-50.5 88t-17 109.5q0 77 23.5 154t70.5 138.5t117 100t164 38.5zM422 587q-55 0 -96 -28.5t-68.5 -73.5t-41.5 -101t-14 -111
q0 -78 35.5 -124t108.5 -46q58 0 99.5 28.5t67.5 73t38.5 100t12.5 109.5q0 38 -8 69.5t-25 54.5t-44 36t-65 13zM268 753l6 32q5 31 15 51t24 32t31.5 17t38.5 5q22 0 42.5 -6.5t39.5 -14.5t34.5 -14.5t27.5 -6.5t20 6.5t11 27.5l1 8h88l-5 -30q-6 -33 -16 -54.5t-24.5 -34
t-32.5 -17t-39 -4.5q-23 0 -43.5 6.5t-38.5 14t-33 14t-27 6.5q-11 0 -19 -5t-10 -19l-2 -14h-89z" />
    <glyph glyph-name="Odieresis" unicode="&#xd6;" horiz-adv-x="739" 
d="M431 699q71 0 123.5 -22t86.5 -61t50.5 -91.5t16.5 -112.5q0 -80 -22.5 -155.5t-69 -135t-118.5 -95.5t-170 -36q-69 0 -120 21.5t-84.5 59t-50.5 88t-17 109.5q0 77 23.5 154t70.5 138.5t117 100t164 38.5zM422 587q-55 0 -96 -28.5t-68.5 -73.5t-41.5 -101t-14 -111
q0 -78 35.5 -124t108.5 -46q58 0 99.5 28.5t67.5 73t38.5 100t12.5 109.5q0 38 -8 69.5t-25 54.5t-44 36t-65 13zM300 760l27 127h111l-27 -127h-111zM505 760l27 127h111l-27 -127h-111z" />
    <glyph glyph-name="multiply" unicode="&#xd7;" horiz-adv-x="713" 
d="M556 0l-199 207l-199 -207l-75 80l199 206l-199 207l73 77l201 -207l200 207l75 -77l-200 -208l200 -205z" />
    <glyph glyph-name="Oslash" unicode="&#xd8;" horiz-adv-x="739" 
d="M438 699q101 0 169 -51l36 41h90l-79 -88q55 -75 55 -188q0 -79 -23.5 -155t-71.5 -135.5t-121 -96t-172 -36.5q-51 0 -92 13.5t-73 37.5l-36 -41h-91l80 90q-26 36 -39 81.5t-13 96.5q0 82 24.5 159.5t73 138t119.5 97t164 36.5zM423 589q-54 0 -96.5 -28.5t-71 -73.5
t-43.5 -100.5t-15 -109.5q0 -40 11 -76l313 351q-18 17 -42 27t-56 10zM341 100q58 0 101 29t71 74.5t42 101.5t14 109q0 42 -12 78l-313 -353q36 -39 97 -39z" />
    <glyph glyph-name="Ugrave" unicode="&#xd9;" horiz-adv-x="692" 
d="M301 689l-91 -425q-18 -85 13 -124t98 -39q71 0 104.5 35.5t50.5 116.5l92 436h142l-96 -447q-14 -63 -36.5 -110t-58.5 -78.5t-87.5 -47.5t-123.5 -16q-61 0 -111.5 15t-84 48.5t-46 87.5t4.5 132l89 416h141zM372 879l143 -139h-133l-183 139h173z" />
    <glyph glyph-name="Uacute" unicode="&#xda;" horiz-adv-x="692" 
d="M301 689l-91 -425q-18 -85 13 -124t98 -39q71 0 104.5 35.5t50.5 116.5l92 436h142l-96 -447q-14 -63 -36.5 -110t-58.5 -78.5t-87.5 -47.5t-123.5 -16q-61 0 -111.5 15t-84 48.5t-46 87.5t4.5 132l89 416h141zM710 879l-228 -139h-139l176 139h191z" />
    <glyph glyph-name="Ucircumflex" unicode="&#xdb;" horiz-adv-x="692" 
d="M301 689l-91 -425q-18 -85 13 -124t98 -39q71 0 104.5 35.5t50.5 116.5l92 436h142l-96 -447q-14 -63 -36.5 -110t-58.5 -78.5t-87.5 -47.5t-123.5 -16q-61 0 -111.5 15t-84 48.5t-46 87.5t4.5 132l89 416h141zM534 885l100 -137h-125l-51 70l-78 -70h-136l161 137h129z
" />
    <glyph glyph-name="Udieresis" unicode="&#xdc;" horiz-adv-x="692" 
d="M301 689l-91 -425q-18 -85 13 -124t98 -39q71 0 104.5 35.5t50.5 116.5l92 436h142l-96 -447q-14 -63 -36.5 -110t-58.5 -78.5t-87.5 -47.5t-123.5 -16q-61 0 -111.5 15t-84 48.5t-46 87.5t4.5 132l89 416h141zM280 759l27 127h111l-27 -127h-111zM485 759l27 127h111
l-27 -127h-111z" />
    <glyph glyph-name="Yacute" unicode="&#xdd;" horiz-adv-x="577" 
d="M150 0l52 250q3 12 -1 23l-144 416h146q11 -39 24.5 -83.5t27 -88t24.5 -83t17 -67.5q17 27 45 67t60.5 84t65.5 89t60 82h151l-326 -424q-3 -5 -5.5 -9.5t-4.5 -12.5l-51 -243h-141zM651 886l-228 -139h-139l176 139h191z" />
    <glyph glyph-name="Thorn" unicode="&#xde;" horiz-adv-x="628" 
d="M167 689h141l-27 -128h114q40 0 79 -11.5t69.5 -34.5t49.5 -58.5t19 -84.5q0 -65 -23 -110t-62.5 -73t-93.5 -41t-117 -13h-125l-28 -135h-142zM215 248h113q62 0 100.5 26.5t38.5 82.5q0 41 -25.5 66t-81.5 25h-103z" />
    <glyph glyph-name="germandbls" unicode="&#xdf;" horiz-adv-x="619" 
d="M145 0h-136l112 519q13 63 36.5 105.5t56.5 68t76.5 36.5t96.5 11q61 0 105 -15.5t73 -40t43 -56.5t14 -65q0 -17 -2 -33.5t-8 -33.5l-164 -95l-1 -2l40 -41q45 -45 66 -84t21 -86q0 -38 -12.5 -73.5t-39 -63.5t-67 -44.5t-97.5 -16.5q-99 0 -163 52l25 115
q29 -27 66 -43.5t75 -16.5q36 0 56.5 19t20.5 54q0 19 -8.5 42t-40.5 55l-55 55q-39 39 -35.5 76.5t60.5 75.5l126 74q1 5 1 14q0 12 -5 24.5t-17 22.5t-32.5 16.5t-50.5 6.5q-23 0 -42.5 -5t-35.5 -18.5t-28 -37.5t-20 -62z" />
    <glyph glyph-name="agrave" unicode="&#xe0;" horiz-adv-x="557" 
d="M465 127q-5 -20 -9 -40.5t-7 -37.5t-5.5 -30t-2.5 -19h-132q1 11 3 28.5t4 29.5q-10 -12 -22 -24t-30 -22t-43 -16t-61 -6q-38 0 -65.5 12t-45 31.5t-26 43t-8.5 46.5q0 54 21.5 89.5t56 57t77 32.5t85.5 16q33 3 62.5 3.5t53.5 1.5l5 24q3 14 3 29.5t-6 28t-21 20.5
t-42 8q-24 0 -39.5 -6t-25 -15t-14.5 -19.5t-9 -19.5h-139q7 31 22.5 59t43 49.5t70 34t102.5 12.5q47 0 87 -10.5t66.5 -33t37 -58t-0.5 -86.5zM352 232q-26 0 -48 -1.5t-42 -3.5q-57 -9 -81.5 -28.5t-24.5 -52.5q0 -23 15 -38t48 -15q35 0 58 12.5t37.5 32t22.5 42.5
t13 44zM320 736l98 -144h-117l-136 144h155z" />
    <glyph glyph-name="aacute" unicode="&#xe1;" horiz-adv-x="557" 
d="M465 127q-5 -20 -9 -40.5t-7 -37.5t-5.5 -30t-2.5 -19h-132q1 11 3 28.5t4 29.5q-10 -12 -22 -24t-30 -22t-43 -16t-61 -6q-38 0 -65.5 12t-45 31.5t-26 43t-8.5 46.5q0 54 21.5 89.5t56 57t77 32.5t85.5 16q33 3 62.5 3.5t53.5 1.5l5 24q3 14 3 29.5t-6 28t-21 20.5
t-42 8q-24 0 -39.5 -6t-25 -15t-14.5 -19.5t-9 -19.5h-139q7 31 22.5 59t43 49.5t70 34t102.5 12.5q47 0 87 -10.5t66.5 -33t37 -58t-0.5 -86.5zM352 232q-26 0 -48 -1.5t-42 -3.5q-57 -9 -81.5 -28.5t-24.5 -52.5q0 -23 15 -38t48 -15q35 0 58 12.5t37.5 32t22.5 42.5
t13 44zM595 736l-206 -144h-132l161 144h177z" />
    <glyph glyph-name="acircumflex" unicode="&#xe2;" horiz-adv-x="557" 
d="M465 127q-5 -20 -9 -40.5t-7 -37.5t-5.5 -30t-2.5 -19h-132q1 11 3 28.5t4 29.5q-10 -12 -22 -24t-30 -22t-43 -16t-61 -6q-38 0 -65.5 12t-45 31.5t-26 43t-8.5 46.5q0 54 21.5 89.5t56 57t77 32.5t85.5 16q33 3 62.5 3.5t53.5 1.5l5 24q3 14 3 29.5t-6 28t-21 20.5
t-42 8q-24 0 -39.5 -6t-25 -15t-14.5 -19.5t-9 -19.5h-139q7 31 22.5 59t43 49.5t70 34t102.5 12.5q47 0 87 -10.5t66.5 -33t37 -58t-0.5 -86.5zM352 232q-26 0 -48 -1.5t-42 -3.5q-57 -9 -81.5 -28.5t-24.5 -52.5q0 -23 15 -38t48 -15q35 0 58 12.5t37.5 32t22.5 42.5
t13 44zM435 722l75 -140h-120l-34 73l-61 -73h-127l139 140h128z" />
    <glyph glyph-name="atilde" unicode="&#xe3;" horiz-adv-x="557" 
d="M465 127q-5 -20 -9 -40.5t-7 -37.5t-5.5 -30t-2.5 -19h-132q1 11 3 28.5t4 29.5q-10 -12 -22 -24t-30 -22t-43 -16t-61 -6q-38 0 -65.5 12t-45 31.5t-26 43t-8.5 46.5q0 54 21.5 89.5t56 57t77 32.5t85.5 16q33 3 62.5 3.5t53.5 1.5l5 24q3 14 3 29.5t-6 28t-21 20.5
t-42 8q-24 0 -39.5 -6t-25 -15t-14.5 -19.5t-9 -19.5h-139q7 31 22.5 59t43 49.5t70 34t102.5 12.5q47 0 87 -10.5t66.5 -33t37 -58t-0.5 -86.5zM352 232q-26 0 -48 -1.5t-42 -3.5q-57 -9 -81.5 -28.5t-24.5 -52.5q0 -23 15 -38t48 -15q35 0 58 12.5t37.5 32t22.5 42.5
t13 44zM175 589l7 39q6 31 16 50.5t23 30.5t29.5 15t35.5 4q22 0 40 -7t34 -16t29 -16t24 -7q24 0 32 38l2 9h87l-6 -31q-6 -34 -16.5 -55.5t-24.5 -34t-31.5 -17t-38.5 -4.5q-22 0 -39.5 7t-32.5 15t-27.5 15t-23.5 7q-22 0 -28 -27l-3 -15h-88z" />
    <glyph glyph-name="adieresis" unicode="&#xe4;" horiz-adv-x="557" 
d="M465 127q-5 -20 -9 -40.5t-7 -37.5t-5.5 -30t-2.5 -19h-132q1 11 3 28.5t4 29.5q-10 -12 -22 -24t-30 -22t-43 -16t-61 -6q-38 0 -65.5 12t-45 31.5t-26 43t-8.5 46.5q0 54 21.5 89.5t56 57t77 32.5t85.5 16q33 3 62.5 3.5t53.5 1.5l5 24q3 14 3 29.5t-6 28t-21 20.5
t-42 8q-24 0 -39.5 -6t-25 -15t-14.5 -19.5t-9 -19.5h-139q7 31 22.5 59t43 49.5t70 34t102.5 12.5q47 0 87 -10.5t66.5 -33t37 -58t-0.5 -86.5zM352 232q-26 0 -48 -1.5t-42 -3.5q-57 -9 -81.5 -28.5t-24.5 -52.5q0 -23 15 -38t48 -15q35 0 58 12.5t37.5 32t22.5 42.5
t13 44zM185 601l27 127h111l-27 -127h-111zM374 601l27 127h111l-27 -127h-111z" />
    <glyph glyph-name="aring" unicode="&#xe5;" horiz-adv-x="557" 
d="M465 127q-5 -20 -9 -40.5t-7 -37.5t-5.5 -30t-2.5 -19h-132q1 11 3 28.5t4 29.5q-10 -12 -22 -24t-30 -22t-43 -16t-61 -6q-38 0 -65.5 12t-45 31.5t-26 43t-8.5 46.5q0 54 21.5 89.5t56 57t77 32.5t85.5 16q33 3 62.5 3.5t53.5 1.5l5 24q3 14 3 29.5t-6 28t-21 20.5
t-42 8q-24 0 -39.5 -6t-25 -15t-14.5 -19.5t-9 -19.5h-139q7 31 22.5 59t43 49.5t70 34t102.5 12.5q47 0 87 -10.5t66.5 -33t37 -58t-0.5 -86.5zM352 232q-26 0 -48 -1.5t-42 -3.5q-57 -9 -81.5 -28.5t-24.5 -52.5q0 -23 15 -38t48 -15q35 0 58 12.5t37.5 32t22.5 42.5
t13 44zM340 563q-51 0 -78 25.5t-27 64.5q0 26 10 47t27.5 36t41.5 23.5t51 8.5q51 0 77 -27t26 -65q0 -51 -36 -82t-92 -31zM345 622q17 0 35 12t18 38q0 16 -9 27t-31 11q-19 0 -35.5 -12.5t-16.5 -38.5q0 -11 9 -24t30 -13z" />
    <glyph glyph-name="ae" unicode="&#xe6;" horiz-adv-x="855" 
d="M633 528q53 0 90 -16t60 -43t33.5 -61.5t10.5 -71.5q0 -31 -4 -52.5t-11 -50.5h-333q-2 -8 -3 -18.5t-1 -18.5q0 -42 19 -72t65 -30q42 0 66 20t38 52h136q-12 -36 -30 -68t-47.5 -56t-72 -38t-102.5 -14q-41 0 -69 8t-47.5 19.5t-31 25.5t-18.5 26q-37 -42 -81.5 -60.5
t-113.5 -18.5q-80 0 -124 39t-44 106q0 96 69.5 142.5t195.5 46.5h90l3 17q3 16 4.5 32.5t-3.5 29.5t-18.5 21t-39.5 8q-33 0 -54.5 -16.5t-31.5 -53.5h-146q11 45 33 77t52.5 51.5t68.5 28.5t80 9q67 0 101.5 -17t48.5 -39q9 8 23.5 18t34.5 18.5t45.5 14t58.5 5.5z
M353 232h-76q-24 0 -45 -4t-37.5 -14t-26 -25.5t-9.5 -38.5q0 -19 14 -36.5t49 -17.5q31 0 52.5 10.5t36.5 27t24 38t14 43.5zM696 324q2 8 2.5 13.5t0.5 12.5q0 33 -19 54t-60 21q-50 0 -78.5 -27.5t-42.5 -73.5h197z" />
    <glyph glyph-name="ccedilla" unicode="&#xe7;" horiz-adv-x="533" 
d="M484 169q-11 -37 -30 -69.5t-49 -57t-72.5 -38.5t-99.5 -14q-99 0 -149.5 53.5t-50.5 147.5q0 56 16.5 116t50.5 109t86.5 80.5t124.5 31.5q63 0 103.5 -19.5t63.5 -48t31 -60.5t5 -57h-132q0 15 -3.5 29.5t-11.5 26t-22.5 18.5t-37.5 7q-36 0 -61.5 -24t-41.5 -58.5
t-23.5 -74t-7.5 -70.5q0 -54 20.5 -79t57.5 -25q66 0 97 76h136zM290 4l-44 -43q30 -9 55 -30t25 -59q0 -28 -11 -48.5t-30.5 -34.5t-45.5 -21t-57 -7q-35 0 -60.5 5t-41.5 10l19 74q12 -4 31 -6t33 -2q16 0 33 4t17 22q0 9 -8 15t-21.5 9.5t-30 5.5t-33.5 3l8 35l73 78z
" />
    <glyph glyph-name="egrave" unicode="&#xe8;" horiz-adv-x="547" 
d="M173 228q-2 -8 -3 -15.5t-1 -15.5q0 -21 4 -39.5t14 -32.5t25.5 -22t38.5 -8q42 0 63 18.5t34 44.5h142q-11 -29 -29.5 -59t-48 -54t-72 -39.5t-100.5 -15.5q-52 0 -91 15.5t-64.5 43.5t-38.5 67t-13 86q0 51 15 108.5t48 106t86.5 80t130.5 31.5q57 0 96.5 -16
t63.5 -43.5t35 -63.5t11 -76q0 -32 -4 -55.5t-10 -45.5h-332zM387 319q2 7 2 12.5v10.5q0 34 -17.5 59t-62.5 25q-47 0 -75.5 -28t-42.5 -79h196zM312 736l98 -144h-117l-136 144h155z" />
    <glyph glyph-name="eacute" unicode="&#xe9;" horiz-adv-x="547" 
d="M173 228q-2 -8 -3 -15.5t-1 -15.5q0 -21 4 -39.5t14 -32.5t25.5 -22t38.5 -8q42 0 63 18.5t34 44.5h142q-11 -29 -29.5 -59t-48 -54t-72 -39.5t-100.5 -15.5q-52 0 -91 15.5t-64.5 43.5t-38.5 67t-13 86q0 51 15 108.5t48 106t86.5 80t130.5 31.5q57 0 96.5 -16
t63.5 -43.5t35 -63.5t11 -76q0 -32 -4 -55.5t-10 -45.5h-332zM387 319q2 7 2 12.5v10.5q0 34 -17.5 59t-62.5 25q-47 0 -75.5 -28t-42.5 -79h196zM590 736l-206 -144h-132l161 144h177z" />
    <glyph glyph-name="ecircumflex" unicode="&#xea;" horiz-adv-x="547" 
d="M173 228q-2 -8 -3 -15.5t-1 -15.5q0 -21 4 -39.5t14 -32.5t25.5 -22t38.5 -8q42 0 63 18.5t34 44.5h142q-11 -29 -29.5 -59t-48 -54t-72 -39.5t-100.5 -15.5q-52 0 -91 15.5t-64.5 43.5t-38.5 67t-13 86q0 51 15 108.5t48 106t86.5 80t130.5 31.5q57 0 96.5 -16
t63.5 -43.5t35 -63.5t11 -76q0 -32 -4 -55.5t-10 -45.5h-332zM387 319q2 7 2 12.5v10.5q0 34 -17.5 59t-62.5 25q-47 0 -75.5 -28t-42.5 -79h196zM430 728l75 -140h-120l-34 73l-61 -73h-127l139 140h128z" />
    <glyph glyph-name="edieresis" unicode="&#xeb;" horiz-adv-x="547" 
d="M173 228q-2 -8 -3 -15.5t-1 -15.5q0 -21 4 -39.5t14 -32.5t25.5 -22t38.5 -8q42 0 63 18.5t34 44.5h142q-11 -29 -29.5 -59t-48 -54t-72 -39.5t-100.5 -15.5q-52 0 -91 15.5t-64.5 43.5t-38.5 67t-13 86q0 51 15 108.5t48 106t86.5 80t130.5 31.5q57 0 96.5 -16
t63.5 -43.5t35 -63.5t11 -76q0 -32 -4 -55.5t-10 -45.5h-332zM387 319q2 7 2 12.5v10.5q0 34 -17.5 59t-62.5 25q-47 0 -75.5 -28t-42.5 -79h196zM180 601l27 127h111l-27 -127h-111zM369 601l27 127h111l-27 -127h-111z" />
    <glyph glyph-name="igrave" unicode="&#xec;" horiz-adv-x="265" 
d="M121 518h136l-110 -518h-136zM164 736l98 -144h-117l-136 144h155z" />
    <glyph glyph-name="iacute" unicode="&#xed;" horiz-adv-x="265" 
d="M121 518h136l-110 -518h-136zM469 736l-206 -144h-132l161 144h177z" />
    <glyph glyph-name="icircumflex" unicode="&#xee;" horiz-adv-x="265" 
d="M121 518h136l-110 -518h-136zM290 731l75 -140h-120l-34 73l-61 -73h-127l139 140h128z" />
    <glyph glyph-name="idieresis" unicode="&#xef;" horiz-adv-x="265" 
d="M121 518h136l-110 -518h-136zM50 601l27 127h111l-27 -127h-111zM239 601l27 127h111l-27 -127h-111z" />
    <glyph glyph-name="eth" unicode="&#xf0;" horiz-adv-x="552" 
d="M162 741q108 -9 195 -61l110 66l31 -61l-84 -50q49 -47 77.5 -113t28.5 -154q0 -60 -14 -126.5t-47.5 -122.5t-90.5 -92.5t-142 -36.5q-100 0 -151.5 54t-51.5 149q0 54 18.5 107t53.5 94t85 66.5t114 25.5q29 0 49 -4.5t30 -10.5q-8 54 -63 102l-125 -74l-31 59l92 55
q-44 22 -106 33zM300 382q-33 0 -58.5 -17.5t-43 -45.5t-26.5 -62t-9 -67q0 -39 17.5 -66.5t61.5 -27.5q37 0 63.5 22.5t43 54.5t24 67.5t7.5 61.5q0 39 -19 59.5t-61 20.5z" />
    <glyph glyph-name="ntilde" unicode="&#xf1;" horiz-adv-x="578" 
d="M93 386l14 66t12 66h133q0 -6 -1.5 -15t-3 -18.5t-3 -18t-2.5 -13.5q9 12 22.5 25t32 24t43.5 18.5t58 7.5q38 0 67.5 -12t46.5 -38t21 -67t-8 -98l-66 -313h-135l66 314q10 44 -2 72t-56 28q-97 0 -129 -146l-56 -268h-136zM188 589l7 39q6 31 16 50.5t23 30.5t29.5 15
t35.5 4q22 0 40 -7t34 -16t29 -16t24 -7q24 0 32 38l2 9h87l-6 -31q-6 -34 -16.5 -55.5t-24.5 -34t-31.5 -17t-38.5 -4.5q-22 0 -39.5 7t-32.5 15t-27.5 15t-23.5 7q-22 0 -28 -27l-3 -15h-88z" />
    <glyph glyph-name="ograve" unicode="&#xf2;" horiz-adv-x="567" 
d="M319 528q46 0 85.5 -13.5t68.5 -41t45 -69.5t16 -99q0 -45 -14.5 -100t-48.5 -103t-90 -80t-138 -32q-54 0 -93.5 15.5t-65.5 44t-38.5 68t-12.5 86.5q0 52 17 109t52 105t89 79t128 31zM308 422q-35 0 -60.5 -22.5t-42 -55.5t-24 -71t-7.5 -70q0 -54 21.5 -80.5
t61.5 -26.5q37 0 62.5 22.5t42 56t24 72.5t7.5 72q0 103 -85 103zM325 736l98 -144h-117l-136 144h155z" />
    <glyph glyph-name="oacute" unicode="&#xf3;" horiz-adv-x="567" 
d="M319 528q46 0 85.5 -13.5t68.5 -41t45 -69.5t16 -99q0 -45 -14.5 -100t-48.5 -103t-90 -80t-138 -32q-54 0 -93.5 15.5t-65.5 44t-38.5 68t-12.5 86.5q0 52 17 109t52 105t89 79t128 31zM308 422q-35 0 -60.5 -22.5t-42 -55.5t-24 -71t-7.5 -70q0 -54 21.5 -80.5
t61.5 -26.5q37 0 62.5 22.5t42 56t24 72.5t7.5 72q0 103 -85 103zM602 736l-206 -144h-132l161 144h177z" />
    <glyph glyph-name="ocircumflex" unicode="&#xf4;" horiz-adv-x="567" 
d="M319 528q46 0 85.5 -13.5t68.5 -41t45 -69.5t16 -99q0 -45 -14.5 -100t-48.5 -103t-90 -80t-138 -32q-54 0 -93.5 15.5t-65.5 44t-38.5 68t-12.5 86.5q0 52 17 109t52 105t89 79t128 31zM308 422q-35 0 -60.5 -22.5t-42 -55.5t-24 -71t-7.5 -70q0 -54 21.5 -80.5
t61.5 -26.5q37 0 62.5 22.5t42 56t24 72.5t7.5 72q0 103 -85 103zM440 722l75 -140h-120l-34 73l-61 -73h-127l139 140h128z" />
    <glyph glyph-name="otilde" unicode="&#xf5;" horiz-adv-x="567" 
d="M319 528q46 0 85.5 -13.5t68.5 -41t45 -69.5t16 -99q0 -45 -14.5 -100t-48.5 -103t-90 -80t-138 -32q-54 0 -93.5 15.5t-65.5 44t-38.5 68t-12.5 86.5q0 52 17 109t52 105t89 79t128 31zM308 422q-35 0 -60.5 -22.5t-42 -55.5t-24 -71t-7.5 -70q0 -54 21.5 -80.5
t61.5 -26.5q37 0 62.5 22.5t42 56t24 72.5t7.5 72q0 103 -85 103zM182 589l7 39q6 31 16 50.5t23 30.5t29.5 15t35.5 4q22 0 40 -7t34 -16t29 -16t24 -7q24 0 32 38l2 9h87l-6 -31q-6 -34 -16.5 -55.5t-24.5 -34t-31.5 -17t-38.5 -4.5q-22 0 -39.5 7t-32.5 15t-27.5 15
t-23.5 7q-22 0 -28 -27l-3 -15h-88z" />
    <glyph glyph-name="odieresis" unicode="&#xf6;" horiz-adv-x="567" 
d="M319 528q46 0 85.5 -13.5t68.5 -41t45 -69.5t16 -99q0 -45 -14.5 -100t-48.5 -103t-90 -80t-138 -32q-54 0 -93.5 15.5t-65.5 44t-38.5 68t-12.5 86.5q0 52 17 109t52 105t89 79t128 31zM308 422q-35 0 -60.5 -22.5t-42 -55.5t-24 -71t-7.5 -70q0 -54 21.5 -80.5
t61.5 -26.5q37 0 62.5 22.5t42 56t24 72.5t7.5 72q0 103 -85 103zM190 601l27 127h111l-27 -127h-111zM379 601l27 127h111l-27 -127h-111z" />
    <glyph glyph-name="divide" unicode="&#xf7;" horiz-adv-x="713" 
d="M298 -1v137h118v-137h-118zM79 226v116h555v-116h-555zM298 431v138h118v-138h-118z" />
    <glyph glyph-name="oslash" unicode="&#xf8;" horiz-adv-x="567" 
d="M323 528q76 0 129 -36l23 27h75l-58 -65q42 -56 42 -144q0 -47 -15 -102.5t-49.5 -104t-91 -81t-138.5 -32.5q-76 0 -126 36l-33 -37h-74l67 76q-41 58 -41 140q0 54 17 111t52 104.5t90 77.5t131 30zM310 426q-35 0 -62 -19.5t-45 -51t-27.5 -72.5t-9.5 -84
q0 -8 0.5 -14.5t1.5 -13.5l206 233q-25 22 -64 22zM254 91q37 0 64.5 23.5t46.5 59t28.5 77t9.5 78.5q0 6 -0.5 11.5t-1.5 10.5l-209 -236q22 -24 62 -24z" />
    <glyph glyph-name="ugrave" unicode="&#xf9;" horiz-adv-x="571" 
d="M482 138q-8 -34 -15 -70t-12 -68h-133q0 5 1 14.5t2.5 20t3.5 20.5t4 17q-29 -43 -70.5 -62.5t-93.5 -19.5q-36 0 -63.5 12t-44.5 35t-22 57t4 79l73 345h135l-70 -327q-4 -20 -4 -36.5t6 -28t18.5 -18t34.5 -6.5q44 0 80.5 38t54.5 124l55 254h136zM316 736l98 -144
h-117l-136 144h155z" />
    <glyph glyph-name="uacute" unicode="&#xfa;" horiz-adv-x="571" 
d="M482 138q-8 -34 -15 -70t-12 -68h-133q0 5 1 14.5t2.5 20t3.5 20.5t4 17q-29 -43 -70.5 -62.5t-93.5 -19.5q-36 0 -63.5 12t-44.5 35t-22 57t4 79l73 345h135l-70 -327q-4 -20 -4 -36.5t6 -28t18.5 -18t34.5 -6.5q44 0 80.5 38t54.5 124l55 254h136zM603 736l-206 -144
h-132l161 144h177z" />
    <glyph glyph-name="ucircumflex" unicode="&#xfb;" horiz-adv-x="571" 
d="M482 138q-8 -34 -15 -70t-12 -68h-133q0 5 1 14.5t2.5 20t3.5 20.5t4 17q-29 -43 -70.5 -62.5t-93.5 -19.5q-36 0 -63.5 12t-44.5 35t-22 57t4 79l73 345h135l-70 -327q-4 -20 -4 -36.5t6 -28t18.5 -18t34.5 -6.5q44 0 80.5 38t54.5 124l55 254h136zM443 722l75 -140
h-120l-34 73l-61 -73h-127l139 140h128z" />
    <glyph glyph-name="udieresis" unicode="&#xfc;" horiz-adv-x="571" 
d="M482 138q-8 -34 -15 -70t-12 -68h-133q0 5 1 14.5t2.5 20t3.5 20.5t4 17q-29 -43 -70.5 -62.5t-93.5 -19.5q-36 0 -63.5 12t-44.5 35t-22 57t4 79l73 345h135l-70 -327q-4 -20 -4 -36.5t6 -28t18.5 -18t34.5 -6.5q44 0 80.5 38t54.5 124l55 254h136zM193 601l27 127h111
l-27 -127h-111zM382 601l27 127h111l-27 -127h-111z" />
    <glyph glyph-name="yacute" unicode="&#xfd;" horiz-adv-x="506" 
d="M184 518q14 -167 21 -266.5t8 -140.5h1q20 43 65.5 143.5t125.5 263.5h142l-282 -541q-33 -63 -61 -100t-57 -55.5t-61.5 -24t-72.5 -5.5q-11 0 -32.5 2t-36.5 5l25 112q7 -2 18 -3t27 -1q24 0 40 4.5t27 12.5t19 20t16 26l-68 548h136zM556 729l-206 -144h-132l161 144
h177z" />
    <glyph glyph-name="thorn" unicode="&#xfe;" horiz-adv-x="596" 
d="M164 730h135l-59 -281q11 15 25.5 29t34 25t44.5 18t55 7q79 0 123 -49.5t44 -143.5q0 -62 -18.5 -124t-54.5 -111t-89 -79.5t-122 -30.5q-48 0 -82 16t-44 37l-52 -241h-135zM196 257q-8 -34 -9.5 -62.5t7.5 -49.5t28.5 -32.5t53.5 -11.5q38 0 66 21.5t46 54t27 70.5
t9 71q0 55 -23.5 76.5t-62.5 21.5q-28 0 -50.5 -13t-40.5 -34.5t-30.5 -50.5t-20.5 -61z" />
    <glyph glyph-name="ydieresis" unicode="&#xff;" horiz-adv-x="506" 
d="M184 518q14 -167 21 -266.5t8 -140.5h1q20 43 65.5 143.5t125.5 263.5h142l-282 -541q-33 -63 -61 -100t-57 -55.5t-61.5 -24t-72.5 -5.5q-11 0 -32.5 2t-36.5 5l25 112q7 -2 18 -3t27 -1q24 0 40 4.5t27 12.5t19 20t16 26l-68 548h136zM150 601l27 127h111l-27 -127
h-111zM339 601l27 127h111l-27 -127h-111z" />
    <glyph glyph-name="OE" unicode="&#x152;" horiz-adv-x="1017" 
d="M566 571q-8 3 -20.5 5t-26 3t-26.5 1.5t-22 0.5q-60 0 -108.5 -21t-82.5 -58t-52.5 -87t-18.5 -108q0 -98 50 -146.5t138 -48.5q22 0 40 1t32 4zM1030 574h-324l-33 -157h310l-25 -116h-310l-40 -185h353l-42 -116h-438q-6 0 -18.5 -0.5t-28.5 -1t-32.5 -1t-29.5 -0.5
q-78 0 -136.5 23.5t-97 64.5t-58 96t-19.5 118q0 77 27 149t81 127.5t135.5 88.5t190.5 33q24 0 46.5 -1.5t41.5 -3t32 -2.5t19 -1h421z" />
    <glyph glyph-name="oe" unicode="&#x153;" horiz-adv-x="900" 
d="M592 -10q-59 0 -96.5 21t-59.5 57q-33 -35 -80.5 -56.5t-113.5 -21.5q-52 0 -91 16t-65 45.5t-39 69.5t-13 88q0 52 17 108.5t52 103t89.5 77t128.5 30.5q54 0 97 -19.5t69 -58.5q31 35 75 56.5t105 21.5q56 0 95 -16t63 -43.5t35 -63.5t11 -76q0 -32 -4 -55.5t-10 -45.5
h-332q-2 -8 -2.5 -15t-0.5 -15q0 -21 4 -39.5t13.5 -32.5t25.5 -22.5t39 -8.5q41 0 62 18.5t34 44.5h142q-11 -29 -29.5 -59t-48 -54t-72 -39.5t-100.5 -15.5zM739 319q2 7 2 12.5v10.5q0 34 -18 59t-60 25q-49 0 -77.5 -30.5t-42.5 -76.5h196zM311 422q-35 0 -61 -23
t-42.5 -56t-24.5 -70t-8 -66q0 -54 21.5 -82.5t61.5 -28.5q36 0 62 23t42.5 56.5t24 72t7.5 68.5q0 51 -20.5 78.5t-62.5 27.5z" />
    <glyph glyph-name="Ydieresis" unicode="&#x178;" horiz-adv-x="577" 
d="M150 0l52 250q3 12 -1 23l-144 416h146q11 -39 24.5 -83.5t27 -88t24.5 -83t17 -67.5q17 27 45 67t60.5 84t65.5 89t60 82h151l-326 -424q-3 -5 -5.5 -9.5t-4.5 -12.5l-51 -243h-141zM202 747l27 127h111l-27 -127h-111zM407 747l27 127h111l-27 -127h-111z" />
    <glyph glyph-name="uni02BC" unicode="&#x2bc;" horiz-adv-x="388" 
d="M137 438q17 31 34 68.5t32 76.5t27 77t19 70h139q-9 -36 -23.5 -76t-33 -79t-39 -74.5t-40.5 -62.5h-115z" />
    <glyph glyph-name="tilde" unicode="&#x2dc;" 
d="M99 589l7 39q6 31 16 50.5t23 30.5t29.5 15t35.5 4q22 0 40 -7t34 -16t29 -16t24 -7q24 0 32 38l2 9h87l-6 -31q-6 -34 -16.5 -55.5t-24.5 -34t-31.5 -17t-38.5 -4.5q-22 0 -39.5 7t-32.5 15t-27.5 15t-23.5 7q-22 0 -28 -27l-3 -15h-88z" />
    <glyph glyph-name="endash" unicode="&#x2013;" horiz-adv-x="472" 
d="M432 315l-25 -117h-366l25 117h366z" />
    <glyph glyph-name="emdash" unicode="&#x2014;" horiz-adv-x="871" 
d="M830 315l-25 -117h-764l25 117h764z" />
    <glyph glyph-name="quoteleft" unicode="&#x2018;" horiz-adv-x="254" 
d="M324 730q-17 -31 -34 -68.5t-32 -76.5t-27 -77t-19 -70h-140q9 36 24 76t33.5 79t39 74.5t40.5 62.5h115z" />
    <glyph glyph-name="quoteright" unicode="&#x2019;" horiz-adv-x="254" 
d="M60 438q17 31 34 68.5t32 76.5t27 77t19 70h139q-9 -36 -23.5 -76t-33 -79t-39 -74.5t-40.5 -62.5h-115z" />
    <glyph glyph-name="quotedblleft" unicode="&#x201c;" horiz-adv-x="456" 
d="M525 730q-37 -75 -65.5 -148t-41.5 -144h-134q9 43 24 84.5t33 79t37 70.5t37 58h110zM316 730q-35 -70 -64.5 -146.5t-43.5 -145.5h-133q10 43 25.5 85.5t33 80.5t36.5 70.5t36 55.5h110z" />
    <glyph glyph-name="quotedblright" unicode="&#x201d;" horiz-adv-x="457" 
d="M62 438q37 75 65.5 148t41.5 144h134q-10 -43 -25 -84.5t-32.5 -79.5t-37 -70.5t-37.5 -57.5h-109zM271 438q35 70 64.5 146.5t42.5 145.5h134q-10 -43 -25.5 -85.5t-33.5 -81t-37 -70.5t-36 -55h-109z" />
    <glyph glyph-name="quotedblbase" unicode="&#x201e;" horiz-adv-x="444" 
d="M-70 -136q37 75 65 148.5t42 144.5h133q-9 -43 -24 -85t-32.5 -79.5t-37 -70.5t-37.5 -58h-109zM139 -136q35 71 64 147t43 146h133q-10 -44 -25 -86.5t-33 -80.5t-37 -70.5t-36 -55.5h-109z" />
    <glyph glyph-name="bullet" unicode="&#x2022;" horiz-adv-x="415" 
d="M345 379l-52 -241h-229l52 241h229z" />
    <glyph glyph-name="ellipsis" unicode="&#x2026;" horiz-adv-x="883" 
d="M8 0l37 176h147l-36 -176h-148zM306 0l37 176h147l-36 -176h-148zM602 0l37 176h147l-36 -176h-148z" />
    <glyph glyph-name="guilsinglleft" unicode="&#x2039;" horiz-adv-x="378" 
d="M179 254l109 -191h-119l-117 198l192 197h138z" />
    <glyph glyph-name="guilsinglright" unicode="&#x203a;" horiz-adv-x="386" 
d="M212 267l-108 191h118l117 -198l-192 -197h-138z" />
    <glyph glyph-name="Euro" unicode="&#x20ac;" horiz-adv-x="561" 
d="M515 165q-29 -88 -87 -132t-154 -44q-52 0 -88.5 16.5t-60 46.5t-34 71.5t-10.5 91.5v21h-68l17 76h57q2 14 4 26.5t4 26.5h-53l16 77h57q15 46 38 87t55 72t73.5 49t94.5 18q54 0 91.5 -16.5t60.5 -43t32.5 -59.5t7.5 -67h-126q-2 42 -22 63t-55 21q-42 0 -71.5 -35
t-48.5 -89h173l-17 -77h-177q-6 -25 -9 -53h176l-17 -76h-164v-10q0 -61 17 -96.5t59 -35.5q37 0 58.5 20t37.5 51h133z" />
    <glyph glyph-name="trademark" unicode="&#x2122;" horiz-adv-x="501" 
d="M298 689v-61h-74v-180h-72v180h-75v61h221zM546 448v64q0 47 2 79t3 49h-2q-13 -54 -25.5 -97.5t-26.5 -93.5h-62q-11 44 -23 91.5t-23 99.5h-3q1 -17 2.5 -50.5t1.5 -89.5v-52h-65v241h110q11 -38 19.5 -72t15.5 -68h1q3 13 8 30.5t11 36.5t11.5 38t10.5 35h100v-241
h-66z" />
    <glyph glyph-name="dotlessi" horiz-adv-x="265" 
d="M121 518h136l-110 -518h-136z" />
    <glyph glyph-name="zero.slash" horiz-adv-x="585" 
d="M372 670q46 0 81.5 -15.5t59.5 -44t36.5 -67.5t12.5 -86q0 -49 -7 -103t-22 -106t-39.5 -99t-59.5 -83t-81 -57t-104 -21q-98 0 -147.5 59t-49.5 168q0 46 8 98t25 102.5t42.5 96.5t61.5 81t81.5 56t101.5 21zM355 559q-39 0 -70.5 -31t-53.5 -78.5t-35 -104.5t-16 -108
l239 291q-20 31 -64 31zM263 99q30 0 54.5 18t43 47t32.5 66.5t23.5 75.5t14 74.5t5.5 63.5l-244 -300q10 -21 28 -33t43 -12z" />
    <glyph glyph-name="zero.slashtab" horiz-adv-x="569" 
d="M362 670q46 0 81.5 -15.5t59.5 -44t36.5 -67.5t12.5 -86q0 -49 -7 -103t-22 -106t-39.5 -99t-59.5 -83t-81 -57t-104 -21q-98 0 -147.5 59t-49.5 168q0 46 8 98t25 102.5t42.5 96.5t61.5 81t81.5 56t101.5 21zM345 559q-39 0 -70.5 -31t-53.5 -78.5t-35 -104.5t-16 -108
l239 291q-20 31 -64 31zM253 99q30 0 54.5 18t43 47t32.5 66.5t23.5 75.5t14 74.5t5.5 63.5l-244 -300q10 -21 28 -33t43 -12z" />
    <glyph glyph-name="zero.tab" horiz-adv-x="569" 
d="M356 670q50 0 87.5 -16.5t62 -46.5t36.5 -71t12 -89q0 -45 -6.5 -96.5t-21.5 -102.5t-39 -98t-58.5 -83t-80.5 -57.5t-105 -21.5q-50 0 -88 16t-63 45t-37.5 69.5t-12.5 90.5q0 43 7 94t22 102.5t39.5 99t59.5 84.5t81 59t105 22zM342 559q-28 0 -50.5 -17t-40 -45
t-30.5 -64t-21.5 -75t-12.5 -77.5t-4 -70.5q0 -48 16 -79.5t57 -31.5q30 0 53.5 19.5t41.5 51t30 71t20 79t11.5 75t3.5 59.5q0 48 -16 76.5t-58 28.5z" />
    <glyph glyph-name="one.tab" horiz-adv-x="569" 
d="M35 0l25 115h140l82 384q-11 -3 -27.5 -5t-35 -3.5t-36 -2t-28.5 -0.5l25 104q59 6 105.5 24.5t73.5 41.5h90l-114 -543h138l-25 -115h-413z" />
    <glyph glyph-name="two.tab" horiz-adv-x="569" 
d="M6 0l5 23q8 37 24 74t45.5 74t73.5 75t108 79q38 24 64.5 42.5t43 36.5t23.5 37.5t7 44.5q0 29 -16 52t-57 23q-47 0 -70.5 -28.5t-35.5 -83.5h-132q7 40 22.5 80t44.5 71t72.5 50.5t106.5 19.5q57 0 96 -16.5t63 -42.5t34.5 -58.5t10.5 -64.5q0 -42 -10 -73t-31 -57.5
t-53 -51t-76 -52.5q-65 -40 -107.5 -71t-65.5 -70h308l-40 -113h-458z" />
    <glyph glyph-name="three.tab" horiz-adv-x="569" 
d="M100 482q8 37 25.5 71t46 59.5t68.5 40.5t94 15q52 0 89.5 -13.5t62 -36t36 -52t11.5 -60.5q0 -60 -28.5 -98.5t-76.5 -56.5v-3q14 -7 28.5 -18.5t26.5 -28.5t19.5 -39.5t7.5 -50.5q0 -51 -18 -92t-51.5 -69.5t-81 -44t-105.5 -15.5q-59 0 -101 15.5t-68.5 43t-38.5 64
t-12 78.5h135q3 -40 24.5 -66t71.5 -26q53 0 79 31t26 76q0 19 -5 35t-17 27.5t-32.5 18t-51.5 6.5h-41l22 110h38q25 0 45.5 4t35.5 14t23 27t8 44q0 28 -15 47.5t-56 19.5q-20 0 -34.5 -6.5t-25 -17.5t-17 -24.5t-11.5 -28.5h-136z" />
    <glyph glyph-name="four.tab" horiz-adv-x="569" 
d="M277 0l33 152h-288l28 123l336 383h159l-85 -396h81l-36 -110h-67l-33 -152h-128zM362 394q10 45 19 81t18 66q-14 -23 -42 -58t-60.5 -74t-65.5 -78t-57 -69h158z" />
    <glyph glyph-name="five.tab" horiz-adv-x="569" 
d="M508 544h-257q-4 -15 -9 -32.5t-10.5 -35t-10 -33.5t-8.5 -28q22 16 49 23.5t63 7.5q42 0 75 -14t56.5 -39t35.5 -59.5t12 -75.5q0 -56 -17.5 -105t-51.5 -85t-84 -57t-114 -21q-102 0 -159 51.5t-59 142.5h134q3 -36 24.5 -60.5t68.5 -24.5q56 0 86.5 38.5t30.5 98.5
q0 45 -21.5 71.5t-69.5 26.5q-41 0 -65 -17.5t-41 -46.5l-112 27q12 34 27 82t29.5 99t27.5 99t21 81h392z" />
    <glyph glyph-name="six.tab" horiz-adv-x="569" 
d="M424 495q-2 12 -6 23.5t-12.5 20.5t-23 14.5t-35.5 5.5q-27 0 -49.5 -13t-39.5 -35.5t-29.5 -54t-21.5 -68.5q23 23 57 38t83 15q83 0 130.5 -52.5t47.5 -141.5q0 -50 -17 -96.5t-49 -82.5t-80 -57.5t-109 -21.5q-59 0 -101 18t-68.5 50.5t-38.5 78t-12 99.5q0 36 6 82
t20 94t36.5 94t56.5 82t80 58t106 22q55 0 93.5 -15t62.5 -39t35 -55t11 -63h-133zM269 99q29 0 50.5 12t36 31.5t21.5 45t7 51.5q0 17 -4 34t-13.5 30.5t-26.5 22t-44 8.5q-29 0 -50 -10.5t-35 -28.5t-21 -41.5t-7 -48.5q0 -44 21 -75t65 -31z" />
    <glyph glyph-name="seven.tab" horiz-adv-x="569" 
d="M587 658l-23 -109q-53 -55 -103 -121.5t-94.5 -138t-82.5 -145.5t-66 -144h-151q29 76 72 153.5t91 149.5t98 134t92 107h-304l25 114h446z" />
    <glyph glyph-name="eight.tab" horiz-adv-x="569" 
d="M245 -12q-49 0 -89 13t-68.5 37.5t-44 59t-15.5 77.5q0 63 37.5 109.5t103.5 68.5q-26 15 -46 47t-20 74q0 43 16 79t45.5 62t72.5 40.5t97 14.5q94 0 146.5 -45t52.5 -117q0 -60 -29.5 -101.5t-71.5 -60.5q34 -18 56 -53t22 -84q0 -48 -18.5 -88.5t-53 -70t-83.5 -46
t-110 -16.5zM325 564q-43 0 -67.5 -25t-24.5 -67q0 -30 19.5 -50t58.5 -20q47 0 69 25.5t22 64.5q0 29 -17.5 50.5t-59.5 21.5zM260 95q27 0 48 9t35.5 25t22 36.5t7.5 44.5q0 44 -26 65t-68 21q-53 0 -83 -32t-30 -79q0 -41 24 -65.5t70 -24.5z" />
    <glyph glyph-name="nine.tab" horiz-adv-x="569" 
d="M164 163q6 -28 23 -46.5t58 -18.5q28 0 51.5 13.5t41.5 38t31.5 58t22.5 72.5q-24 -26 -58.5 -37t-76.5 -11q-39 0 -73 12.5t-58.5 37t-39 60t-14.5 80.5q0 46 17 90.5t49.5 79t79 55.5t106.5 21q58 0 99 -18t67 -49.5t38 -74.5t12 -94q0 -37 -5 -84t-18.5 -96
t-35.5 -96.5t-56.5 -84t-82 -59t-110.5 -22.5q-57 0 -95 15.5t-60.5 40t-33 55.5t-12.5 62h133zM321 560q-27 0 -47.5 -10.5t-35 -28.5t-21.5 -41.5t-7 -50.5q0 -45 24 -67.5t62 -22.5q56 0 83.5 34.5t27.5 84.5q0 43 -19 72.5t-67 29.5z" />
    <glyph glyph-name="zero.slashcap" horiz-adv-x="612" 
d="M378 700q103 0 156.5 -63t53.5 -175q0 -47 -7 -100t-23 -105.5t-41.5 -101t-62 -85t-85 -58.5t-109.5 -22q-103 0 -155.5 63t-52.5 180q0 47 8.5 99.5t25.5 104.5t43.5 99.5t62.5 84t82.5 58t103.5 21.5zM370 593q-27 0 -51 -15t-44 -41.5t-36 -61t-27 -74t-17.5 -80.5
t-7.5 -80l256 310q-20 42 -73 42zM274 97q31 0 56 18.5t45 49.5t35.5 70t25.5 79.5t15 79.5t6 69l-258 -314q21 -52 75 -52z" />
    <glyph glyph-name="zero.cap" horiz-adv-x="612" 
d="M378 700q103 0 156.5 -63t53.5 -175q0 -47 -7 -100t-23 -105.5t-41 -101t-61.5 -85t-84.5 -58.5t-109 -22q-106 0 -158 63t-52 180q0 47 8 99.5t25 104.5t43 99.5t62 84t83 58t105 21.5zM368 587q-42 0 -74.5 -37t-54 -92.5t-32.5 -119t-11 -116.5q0 -57 20 -88t62 -31
q31 0 55.5 20.5t43.5 53t32.5 73.5t22 82.5t12.5 79.5t4 65q0 54 -18.5 82t-61.5 28z" />
    <glyph glyph-name="one.cap" horiz-adv-x="380" 
d="M97 0l113 520q-14 -6 -33 -10t-38.5 -7t-38 -4.5t-31.5 -1.5l26 107q31 4 60.5 13.5t55.5 21.5t47 25t35 25h91l-148 -689h-139z" />
    <glyph glyph-name="two.cap" horiz-adv-x="555" 
d="M-16 0l4 19q9 41 24.5 80t45.5 79t77.5 81.5t119.5 86.5q41 25 69 44.5t45 38.5t24.5 39t7.5 47q0 28 -17 50.5t-61 22.5q-24 0 -42.5 -8.5t-32 -23t-22.5 -34t-15 -40.5h-137q9 43 27 82t49.5 69t76.5 48t108 18q58 0 98 -16.5t65 -42.5t36 -60t11 -68
q0 -45 -12.5 -78.5t-36 -61t-57.5 -52t-78 -52.5q-41 -26 -71.5 -47t-53 -39.5t-37 -35.5t-23.5 -33h330l-41 -113h-481z" />
    <glyph glyph-name="three.cap" horiz-adv-x="561" 
d="M91 511q9 37 27 71t48 60t72.5 41.5t99.5 15.5q54 0 93 -14t63.5 -37t36.5 -54t12 -65q0 -61 -30 -101.5t-83 -57.5l-1 -1q38 -17 65 -54t27 -97q0 -51 -19 -93t-53.5 -72t-83.5 -46.5t-110 -16.5q-60 0 -103.5 16.5t-72 44.5t-42.5 66t-14 82h135q4 -45 30 -72t77 -27
q56 0 84.5 32.5t28.5 81.5q0 21 -5.5 38.5t-19 30t-35.5 19.5t-56 7h-42l23 116h39q58 0 89.5 20.5t31.5 71.5q0 31 -17 51.5t-59 20.5q-23 0 -39.5 -7t-27.5 -18.5t-18.5 -25.5t-12.5 -27h-138z" />
    <glyph glyph-name="four.cap" horiz-adv-x="572" 
d="M285 0l35 162h-302l29 125l351 402h167l-89 -414h85l-38 -113h-70l-34 -162h-134zM374 413q4 17 8.5 38t10 42.5t10.5 41.5t10 35q-15 -24 -45 -61t-65.5 -79t-70.5 -83t-60 -72h170z" />
    <glyph glyph-name="five.cap" horiz-adv-x="577" 
d="M549 573h-277q-5 -17 -10.5 -36.5t-11.5 -38.5t-11 -35.5t-9 -28.5q23 16 51.5 24.5t66.5 8.5q44 0 79 -14.5t59.5 -40.5t37.5 -62.5t13 -81.5q0 -57 -17.5 -107.5t-53 -88.5t-89 -60t-125.5 -22q-48 0 -89 12.5t-71 37.5t-46.5 62.5t-16.5 87.5h136q1 -16 7 -31.5
t18 -28t30.5 -20.5t44.5 -8q33 0 57 12.5t40.5 33t24.5 46t8 52.5q0 52 -23.5 80t-74.5 28q-43 0 -71.5 -21.5t-44.5 -50.5l-116 29q13 36 28.5 86.5t31.5 104t29.5 103.5t21.5 84h406z" />
    <glyph glyph-name="six.cap" horiz-adv-x="590" 
d="M445 515q-2 14 -6.5 27.5t-14.5 24t-25.5 17t-39.5 6.5q-54 0 -91.5 -48.5t-55.5 -137.5q26 27 63.5 42t86.5 15q40 0 74 -13.5t59 -39t39 -61t14 -80.5q0 -56 -18 -106.5t-52.5 -88.5t-85 -60.5t-114.5 -22.5q-112 0 -169 66.5t-57 189.5q0 39 6 88t20.5 99t38 98.5
t58.5 85.5t82 60t109 23q61 0 101.5 -17.5t64.5 -44.5t34 -59.5t10 -62.5h-131zM284 100q30 0 53 13t38.5 34t23 48.5t7.5 56.5q0 19 -4 37.5t-14.5 32.5t-28.5 23t-46 9q-30 0 -52.5 -11t-38 -30.5t-23 -46t-7.5 -57.5q0 -22 5 -41.5t16 -34.5t28.5 -24t42.5 -9z" />
    <glyph glyph-name="seven.cap" horiz-adv-x="504" 
d="M562 689l-25 -112q-55 -60 -107 -130.5t-98 -146t-85 -152t-68 -148.5h-153q29 79 72.5 162t92.5 159t99.5 141.5t94.5 110.5h-314l27 116h464z" />
    <glyph glyph-name="eight.cap" horiz-adv-x="563" 
d="M246 -13q-51 0 -93 13t-72.5 37.5t-47 60t-16.5 80.5q0 66 38 115t107 73q-27 16 -46.5 48t-19.5 77q0 42 16 79.5t46.5 66t75 45.5t101.5 17q49 0 88 -12t66.5 -34.5t42 -53.5t14.5 -68q0 -67 -32 -111t-78 -61q35 -19 59 -54.5t24 -86.5q0 -50 -18.5 -92t-53.5 -73
t-85.5 -48.5t-115.5 -17.5zM329 593q-48 0 -74.5 -28.5t-26.5 -72.5q0 -33 20 -55t62 -22q49 0 76 26.5t27 70.5q0 15 -4 29.5t-13.5 26t-26 18.5t-40.5 7zM256 97q62 0 93 34.5t31 84.5q0 46 -27.5 69t-73.5 23q-54 0 -88 -32.5t-34 -86.5q0 -41 24 -66.5t75 -25.5z" />
    <glyph glyph-name="nine.cap" horiz-adv-x="590" 
d="M172 173q5 -32 25 -53t64 -21q31 0 55 15t42 41.5t31.5 62.5t22.5 78q-25 -28 -60.5 -39.5t-80.5 -11.5q-43 0 -78.5 14.5t-61 40.5t-39.5 63t-14 82q0 49 17.5 94.5t51 81t82.5 57t112 21.5q60 0 103 -19.5t70.5 -53t40 -79.5t12.5 -98q0 -34 -5 -81.5t-17.5 -98.5
t-34.5 -101t-57 -89.5t-84.5 -64t-115.5 -24.5q-62 0 -103 17t-66 43t-35.5 58.5t-11.5 64.5h135zM332 589q-28 0 -49 -11t-35.5 -29t-22 -42.5t-7.5 -51.5q0 -45 23.5 -73t71.5 -28q30 0 51.5 10.5t35.5 28.5t20.5 42t6.5 50q0 45 -22 74.5t-73 29.5z" />
    <glyph glyph-name="zero.sups" horiz-adv-x="398" 
d="M254 830q73 0 109.5 -41.5t36.5 -110.5q0 -48 -12.5 -94t-38 -82t-64.5 -57.5t-93 -21.5q-72 0 -109.5 41.5t-37.5 115.5q0 41 12.5 85.5t38 81t65 60t93.5 23.5zM244 743q-26 0 -43 -18.5t-27 -44.5t-14.5 -54t-4.5 -48q0 -37 13.5 -53t36.5 -16q25 0 42 19.5t27 47
t14 56.5t4 47q0 33 -12.5 48.5t-35.5 15.5z" />
    <glyph glyph-name="four.sups" horiz-adv-x="379" 
d="M192 429l20 93h-191l17 77l202 226h135l-49 -228h57l-24 -75h-49l-19 -93h-99zM227 597l14 59q4 16 10 42.5t11 45.5q-8 -11 -22.5 -28.5t-32.5 -38t-36.5 -41.5t-33.5 -39h90z" />
    <glyph glyph-name="five.sups" horiz-adv-x="383" 
d="M367 742h-178q-5 -16 -10 -34t-9 -32q13 7 30.5 12.5t44.5 5.5q30 0 53 -9.5t38 -25.5t22.5 -37t7.5 -43q0 -39 -14.5 -68t-39 -48.5t-57.5 -29t-70 -9.5q-41 0 -69.5 11t-46.5 28t-26.5 39t-8.5 43h103q2 -18 15 -31t39 -13q29 0 47 17.5t18 47.5q0 19 -10 35.5
t-40 16.5q-23 0 -37.5 -8t-24.5 -22l-90 14l16 48t18 57t17.5 60.5t15.5 57.5h273z" />
    <glyph glyph-name="six.sups" horiz-adv-x="387" 
d="M289 716q-2 15 -13.5 25t-34.5 10q-31 0 -51.5 -24t-28.5 -64q36 30 93 30q56 0 89 -32t33 -86q0 -31 -11.5 -58.5t-34 -48.5t-55.5 -33t-75 -12q-69 0 -112.5 41.5t-43.5 123.5q0 40 11.5 83t36.5 78.5t63.5 58t92.5 22.5q67 0 105 -31.5t39 -82.5h-103zM204 504
q26 0 44 17t18 48q0 23 -12.5 37t-38.5 14t-44 -18t-18 -46q0 -20 11.5 -36t39.5 -16z" />
    <glyph glyph-name="seven.sups" horiz-adv-x="352" 
d="M390 825l-15 -74q-30 -30 -59.5 -68t-56 -80t-49.5 -86.5t-41 -88.5h-121q17 46 42.5 92t54.5 87.5t58.5 76.5t55.5 58h-181l16 83h296z" />
    <glyph glyph-name="eight.sups" horiz-adv-x="377" 
d="M191 423q-38 0 -66.5 9t-48 24t-29 34.5t-9.5 40.5q0 38 21.5 63.5t61.5 40.5q-19 12 -29 31t-10 40q0 30 12 53t34 38.5t51.5 24t64.5 8.5q36 0 63 -9t45 -23t27 -33t9 -38q0 -30 -17 -54.5t-52 -37.5q20 -11 36 -31t16 -49q0 -34 -15 -58.5t-40 -41t-57.5 -24.5
t-67.5 -8zM238 759q-22 0 -39 -13t-17 -38q0 -17 11.5 -28t34.5 -11q21 0 39 12t18 37q0 17 -11 29t-36 12zM201 494q27 0 46.5 13.5t19.5 42.5q0 20 -14 33t-43 13t-47.5 -14t-18.5 -42q0 -19 15.5 -32.5t41.5 -13.5z" />
    <glyph glyph-name="nine.sups" horiz-adv-x="385" 
d="M144 541q2 -17 14 -28.5t36 -11.5q17 0 30 8.5t22 21.5t14.5 28.5t8.5 29.5q-18 -15 -40 -19.5t-48 -4.5t-48.5 7.5t-39 22t-26.5 35.5t-10 48q0 32 12.5 60t35 48.5t54 32t69.5 11.5q78 0 119 -43t41 -115q0 -41 -10 -85t-33.5 -80.5t-62.5 -60t-97 -23.5
q-38 0 -65.5 9.5t-46 26t-28 37.5t-10.5 45h109zM225 752q-26 0 -43.5 -16.5t-17.5 -44.5q0 -24 14 -37t40 -13q27 0 43.5 15t16.5 41q0 21 -11.5 38t-41.5 17z" />
    <glyph glyph-name="parenleft.sups" horiz-adv-x="236" 
d="M290 871q-69 -65 -104 -137t-35 -173q0 -54 9 -105.5t23 -87.5h-85q-14 30 -25.5 79.5t-11.5 108.5q0 88 32 170.5t104 144.5h93z" />
    <glyph glyph-name="parenright.sups" horiz-adv-x="236" 
d="M-10 368q34 35 60.5 69.5t43.5 72t26 79.5t9 93q0 54 -9 104.5t-23 84.5h85q13 -31 25.5 -80.5t12.5 -107.5q0 -44 -8.5 -88t-26 -85t-43 -77.5t-59.5 -64.5h-93z" />
    <glyph glyph-name="period.sups" horiz-adv-x="184" 
d="M25 424l28 129h108l-27 -129h-109z" />
    <glyph glyph-name="comma.sups" horiz-adv-x="184" 
d="M-19 352q23 43 41.5 94t27.5 104h109q-7 -28 -16.5 -56t-20.5 -54t-24 -49t-26 -39h-91z" />
    <glyph glyph-name="dollar.sups" horiz-adv-x="405" 
d="M123 363l14 64q-53 12 -78.5 43.5t-27.5 77.5h110q2 -28 21.5 -40t49.5 -12q10 0 21 1.5t20.5 6t15.5 12.5t6 20q0 16 -15 24.5t-59 20.5q-72 19 -102.5 46.5t-30.5 69.5q0 58 42.5 91t111.5 37l9 45h91l-11 -54q27 -7 44.5 -19.5t28 -28t14.5 -32t5 -32.5h-106
q-2 20 -16.5 33.5t-50.5 13.5q-20 0 -37.5 -7.5t-17.5 -29.5q0 -14 17 -22t59 -19q75 -20 104.5 -48.5t29.5 -72.5q0 -30 -12 -53t-33 -39.5t-50 -26t-63 -12.5l-13 -58h-91z" />
    <glyph glyph-name="cent.sups" horiz-adv-x="404" 
d="M391 576q-25 -95 -140 -110l-12 -57h-91l13 58q-54 11 -79.5 47t-25.5 85q0 75 47.5 124t125.5 59l9 45h91l-10 -49q28 -8 46 -21t27.5 -29t13 -32t3.5 -29h-107q-2 20 -14.5 32t-41.5 12q-19 0 -34.5 -8.5t-27 -23.5t-17.5 -34.5t-6 -41.5q0 -32 14 -49.5t46 -17.5
q27 0 41 11.5t24 28.5h105z" />
    <glyph glyph-name="hyphen.sups" horiz-adv-x="234" 
d="M236 665l-20 -88h-170l20 88h170z" />
    <glyph glyph-name="zero.subs" horiz-adv-x="398" 
d="M127 230q73 0 109.5 -41.5t36.5 -110.5q0 -48 -12.5 -94t-38 -82t-64.5 -57.5t-93 -21.5q-72 0 -109.5 41.5t-37.5 115.5q0 41 12.5 85.5t38 81t65 60t93.5 23.5zM117 143q-26 0 -43 -18.5t-27 -44.5t-14.5 -54t-4.5 -48q0 -37 13.5 -53t36.5 -16q25 0 42 19.5t27 47
t14 56.5t4 47q0 33 -12.5 48.5t-35.5 15.5z" />
    <glyph glyph-name="one.subs" horiz-adv-x="260" 
d="M-55 -173l61 289q-20 -2 -37.5 -1t-29.5 1l17 75q35 2 64 13t44 25h75l-86 -402h-108z" />
    <glyph glyph-name="two.subs" horiz-adv-x="366" 
d="M-110 -172l3 12q6 24 15 48t26.5 48t46 48t72.5 48q49 27 67.5 41t18.5 34q0 16 -10 27t-33 11t-38 -13t-24 -42h-99q30 140 173 140q37 0 63.5 -10.5t43.5 -27.5t25 -38t8 -42q0 -23 -5.5 -41t-19 -34t-35 -31t-52.5 -31q-26 -13 -52.5 -29t-39.5 -36h181l-31 -82h-304z
" />
    <glyph glyph-name="three.subs" horiz-adv-x="378" 
d="M11 -50q2 -18 15 -34t43 -16q23 0 41 10.5t18 39.5q0 18 -13.5 29.5t-43.5 11.5h-36l19 84h30q32 0 44.5 12.5t12.5 31.5q0 14 -9.5 24t-31.5 10q-26 0 -38 -11.5t-18 -28.5h-99q4 18 14.5 39t29.5 38t48.5 28.5t73.5 11.5q67 0 102.5 -29.5t35.5 -73.5
q0 -36 -19.5 -57.5t-51.5 -31.5q7 -2 17 -8t19.5 -16t16 -24.5t6.5 -33.5q0 -60 -45 -96t-130 -36q-47 0 -78 13t-49 32.5t-24 41.5t-4 39h104z" />
    <glyph glyph-name="four.subs" horiz-adv-x="379" 
d="M65 -171l20 93h-191l17 77l202 226h135l-49 -228h57l-24 -75h-49l-19 -93h-99zM100 -3l14 59q4 16 10 42.5t11 45.5q-8 -11 -22.5 -28.5t-32.5 -38t-36.5 -41.5t-33.5 -39h90z" />
    <glyph glyph-name="five.subs" horiz-adv-x="383" 
d="M240 142h-178q-5 -16 -10 -34t-9 -32q13 7 30.5 12.5t44.5 5.5q30 0 53 -9.5t38 -25.5t22.5 -37t7.5 -43q0 -39 -14.5 -68t-39 -48.5t-57.5 -29t-70 -9.5q-41 0 -69.5 11t-46.5 28t-26.5 39t-8.5 43h103q2 -18 15 -31t39 -13q29 0 47 17.5t18 47.5q0 19 -10 35.5
t-40 16.5q-23 0 -37.5 -8t-24.5 -22l-90 14l16 48t18 57t17.5 60.5t15.5 57.5h273z" />
    <glyph glyph-name="six.subs" horiz-adv-x="387" 
d="M162 116q-2 15 -13.5 25t-34.5 10q-31 0 -51.5 -24t-28.5 -64q36 30 93 30q56 0 89 -32t33 -86q0 -31 -11.5 -58.5t-34 -48.5t-55.5 -33t-75 -12q-69 0 -112.5 41.5t-43.5 123.5q0 40 11.5 83t36.5 78.5t63.5 58t92.5 22.5q67 0 105 -31.5t39 -82.5h-103zM77 -96
q26 0 44 17t18 48q0 23 -12.5 37t-38.5 14t-44 -18t-18 -46q0 -20 11.5 -36t39.5 -16z" />
    <glyph glyph-name="seven.subs" horiz-adv-x="352" 
d="M263 225l-15 -74q-30 -30 -59.5 -68t-56 -80t-49.5 -86.5t-41 -88.5h-121q17 46 42.5 92t54.5 87.5t58.5 76.5t55.5 58h-181l16 83h296z" />
    <glyph glyph-name="eight.subs" horiz-adv-x="377" 
d="M64 -177q-38 0 -66.5 9t-48 24t-29 34.5t-9.5 40.5q0 38 21.5 63.5t61.5 40.5q-19 12 -29 31t-10 40q0 30 12 53t34 38.5t51.5 24t64.5 8.5q36 0 63 -9t45 -23t27 -33t9 -38q0 -30 -17 -54.5t-52 -37.5q20 -11 36 -31t16 -49q0 -34 -15 -58.5t-40 -41t-57.5 -24.5
t-67.5 -8zM111 159q-22 0 -39 -13t-17 -38q0 -17 11.5 -28t34.5 -11q21 0 39 12t18 37q0 17 -11 29t-36 12zM74 -106q27 0 46.5 13.5t19.5 42.5q0 20 -14 33t-43 13t-47.5 -14t-18.5 -42q0 -19 15.5 -32.5t41.5 -13.5z" />
    <glyph glyph-name="nine.subs" horiz-adv-x="385" 
d="M17 -59q2 -17 14 -28.5t36 -11.5q17 0 30 8.5t22 21.5t14.5 28.5t8.5 29.5q-18 -15 -40 -19.5t-48 -4.5t-48.5 7.5t-39 22t-26.5 35.5t-10 48q0 32 12.5 60t35 48.5t54 32t69.5 11.5q78 0 119 -43t41 -115q0 -41 -10 -85t-33.5 -80.5t-62.5 -60t-97 -23.5
q-38 0 -65.5 9.5t-46 26t-28 37.5t-10.5 45h109zM98 152q-26 0 -43.5 -16.5t-17.5 -44.5q0 -24 14 -37t40 -13q27 0 43.5 15t16.5 41q0 21 -11.5 38t-41.5 17z" />
    <glyph glyph-name="parenleft.subs" horiz-adv-x="236" 
d="M163 271q-69 -65 -104 -137t-35 -173q0 -54 9 -105.5t23 -87.5h-85q-14 30 -25.5 79.5t-11.5 108.5q0 88 32 170.5t104 144.5h93z" />
    <glyph glyph-name="parenright.subs" horiz-adv-x="236" 
d="M-137 -232q34 35 60.5 69.5t43.5 72t26 79.5t9 93q0 54 -9 104.5t-23 84.5h85q13 -31 25.5 -80.5t12.5 -107.5q0 -44 -8.5 -88t-26 -85t-43 -77.5t-59.5 -64.5h-93z" />
    <glyph glyph-name="period.subs" horiz-adv-x="184" 
d="M-102 -176l28 129h108l-27 -129h-109z" />
    <glyph glyph-name="comma.subs" horiz-adv-x="184" 
d="M-146 -248q23 43 41.5 94t27.5 104h109q-7 -28 -16.5 -56t-20.5 -54t-24 -49t-26 -39h-91z" />
    <glyph glyph-name="dollar.subs" horiz-adv-x="405" 
d="M-4 -237l14 64q-53 12 -78.5 43.5t-27.5 77.5h110q2 -28 21.5 -40t49.5 -12q10 0 21 1.5t20.5 6t15.5 12.5t6 20q0 16 -15 24.5t-59 20.5q-72 19 -102.5 46.5t-30.5 69.5q0 58 42.5 91t111.5 37l9 45h91l-11 -54q27 -7 44.5 -19.5t28 -28t14.5 -32t5 -32.5h-106
q-2 20 -16.5 33.5t-50.5 13.5q-20 0 -37.5 -7.5t-17.5 -29.5q0 -14 17 -22t59 -19q75 -20 104.5 -48.5t29.5 -72.5q0 -30 -12 -53t-33 -39.5t-50 -26t-63 -12.5l-13 -58h-91z" />
    <glyph glyph-name="cent.subs" horiz-adv-x="404" 
d="M264 -24q-25 -95 -140 -110l-12 -57h-91l13 58q-54 11 -79.5 47t-25.5 85q0 75 47.5 124t125.5 59l9 45h91l-10 -49q28 -8 46 -21t27.5 -29t13 -32t3.5 -29h-107q-2 20 -14.5 32t-41.5 12q-19 0 -34.5 -8.5t-27 -23.5t-17.5 -34.5t-6 -41.5q0 -32 14 -49.5t46 -17.5
q27 0 41 11.5t24 28.5h105z" />
    <glyph glyph-name="hyphen.subs" horiz-adv-x="234" 
d="M109 65l-20 -88h-170l20 88h170z" />
    <glyph glyph-name="zero.numr" horiz-adv-x="398" 
d="M273 663q73 0 109.5 -41.5t36.5 -110.5q0 -48 -12.5 -94t-38 -82t-64.5 -57.5t-93 -21.5q-72 0 -109.5 41.5t-37.5 115.5q0 41 12.5 85.5t38 81t65 60t93.5 23.5zM263 576q-26 0 -43 -18.5t-27 -44.5t-14.5 -54t-4.5 -48q0 -37 13.5 -53t36.5 -16q25 0 42 19.5t27 47
t14 56.5t4 47q0 33 -12.5 48.5t-35.5 15.5z" />
    <glyph glyph-name="one.numr" horiz-adv-x="260" 
d="M91 260l61 289q-20 -2 -37.5 -1t-29.5 1l17 75q35 2 64 13t44 25h75l-86 -402h-108z" />
    <glyph glyph-name="two.numr" horiz-adv-x="366" 
d="M36 261l3 12q6 24 15 48t26.5 48t46 48t72.5 48q49 27 67.5 41t18.5 34q0 16 -10 27t-33 11t-38 -13t-24 -42h-99q30 140 173 140q37 0 63.5 -10.5t43.5 -27.5t25 -38t8 -42q0 -23 -5.5 -41t-19 -34t-35 -31t-52.5 -31q-26 -13 -52.5 -29t-39.5 -36h181l-31 -82h-304z
" />
    <glyph glyph-name="three.numr" horiz-adv-x="378" 
d="M157 383q2 -18 15 -34t43 -16q23 0 41 10.5t18 39.5q0 18 -13.5 29.5t-43.5 11.5h-36l19 84h30q32 0 44.5 12.5t12.5 31.5q0 14 -9.5 24t-31.5 10q-26 0 -38 -11.5t-18 -28.5h-99q4 18 14.5 39t29.5 38t48.5 28.5t73.5 11.5q67 0 102.5 -29.5t35.5 -73.5
q0 -36 -19.5 -57.5t-51.5 -31.5q7 -2 17 -8t19.5 -16t16 -24.5t6.5 -33.5q0 -60 -45 -96t-130 -36q-47 0 -78 13t-49 32.5t-24 41.5t-4 39h104z" />
    <glyph glyph-name="four.numr" horiz-adv-x="379" 
d="M211 262l20 93h-191l17 77l202 226h135l-49 -228h57l-24 -75h-49l-19 -93h-99zM246 430l14 59q4 16 10 42.5t11 45.5q-8 -11 -22.5 -28.5t-32.5 -38t-36.5 -41.5t-33.5 -39h90z" />
    <glyph glyph-name="five.numr" horiz-adv-x="383" 
d="M386 575h-178q-5 -16 -10 -34t-9 -32q13 7 30.5 12.5t44.5 5.5q30 0 53 -9.5t38 -25.5t22.5 -37t7.5 -43q0 -39 -14.5 -68t-39 -48.5t-57.5 -29t-70 -9.5q-41 0 -69.5 11t-46.5 28t-26.5 39t-8.5 43h103q2 -18 15 -31t39 -13q29 0 47 17.5t18 47.5q0 19 -10 35.5
t-40 16.5q-23 0 -37.5 -8t-24.5 -22l-90 14l16 48t18 57t17.5 60.5t15.5 57.5h273z" />
    <glyph glyph-name="six.numr" horiz-adv-x="387" 
d="M308 549q-2 15 -13.5 25t-34.5 10q-31 0 -51.5 -24t-28.5 -64q36 30 93 30q56 0 89 -32t33 -86q0 -31 -11.5 -58.5t-34 -48.5t-55.5 -33t-75 -12q-69 0 -112.5 41.5t-43.5 123.5q0 40 11.5 83t36.5 78.5t63.5 58t92.5 22.5q67 0 105 -31.5t39 -82.5h-103zM223 337
q26 0 44 17t18 48q0 23 -12.5 37t-38.5 14t-44 -18t-18 -46q0 -20 11.5 -36t39.5 -16z" />
    <glyph glyph-name="seven.numr" horiz-adv-x="352" 
d="M409 658l-15 -74q-30 -30 -59.5 -68t-56 -80t-49.5 -86.5t-41 -88.5h-121q17 46 42.5 92t54.5 87.5t58.5 76.5t55.5 58h-181l16 83h296z" />
    <glyph glyph-name="eight.numr" horiz-adv-x="377" 
d="M210 256q-38 0 -66.5 9t-48 24t-29 34.5t-9.5 40.5q0 38 21.5 63.5t61.5 40.5q-19 12 -29 31t-10 40q0 30 12 53t34 38.5t51.5 24t64.5 8.5q36 0 63 -9t45 -23t27 -33t9 -38q0 -30 -17 -54.5t-52 -37.5q20 -11 36 -31t16 -49q0 -34 -15 -58.5t-40 -41t-57.5 -24.5
t-67.5 -8zM257 592q-22 0 -39 -13t-17 -38q0 -17 11.5 -28t34.5 -11q21 0 39 12t18 37q0 17 -11 29t-36 12zM220 327q27 0 46.5 13.5t19.5 42.5q0 20 -14 33t-43 13t-47.5 -14t-18.5 -42q0 -19 15.5 -32.5t41.5 -13.5z" />
    <glyph glyph-name="nine.numr" horiz-adv-x="385" 
d="M163 374q2 -17 14 -28.5t36 -11.5q17 0 30 8.5t22 21.5t14.5 28.5t8.5 29.5q-18 -15 -40 -19.5t-48 -4.5t-48.5 7.5t-39 22t-26.5 35.5t-10 48q0 32 12.5 60t35 48.5t54 32t69.5 11.5q78 0 119 -43t41 -115q0 -41 -10 -85t-33.5 -80.5t-62.5 -60t-97 -23.5
q-38 0 -65.5 9.5t-46 26t-28 37.5t-10.5 45h109zM244 585q-26 0 -43.5 -16.5t-17.5 -44.5q0 -24 14 -37t40 -13q27 0 43.5 15t16.5 41q0 21 -11.5 38t-41.5 17z" />
    <glyph glyph-name="parenleft.numr" horiz-adv-x="236" 
d="M309 704q-69 -65 -104 -137t-35 -173q0 -54 9 -105.5t23 -87.5h-85q-14 30 -25.5 79.5t-11.5 108.5q0 88 32 170.5t104 144.5h93z" />
    <glyph glyph-name="parenright.numr" horiz-adv-x="236" 
d="M9 201q34 35 60.5 69.5t43.5 72t26 79.5t9 93q0 54 -9 104.5t-23 84.5h85q13 -31 25.5 -80.5t12.5 -107.5q0 -44 -8.5 -88t-26 -85t-43 -77.5t-59.5 -64.5h-93z" />
    <glyph glyph-name="period.numr" horiz-adv-x="184" 
d="M44 257l28 129h108l-27 -129h-109z" />
    <glyph glyph-name="comma.numr" horiz-adv-x="184" 
d="M0 185q23 43 41.5 94t27.5 104h109q-7 -28 -16.5 -56t-20.5 -54t-24 -49t-26 -39h-91z" />
    <glyph glyph-name="dollar.numr" horiz-adv-x="405" 
d="M142 196l14 64q-53 12 -78.5 43.5t-27.5 77.5h110q2 -28 21.5 -40t49.5 -12q10 0 21 1.5t20.5 6t15.5 12.5t6 20q0 16 -15 24.5t-59 20.5q-72 19 -102.5 46.5t-30.5 69.5q0 58 42.5 91t111.5 37l9 45h91l-11 -54q27 -7 44.5 -19.5t28 -28t14.5 -32t5 -32.5h-106
q-2 20 -16.5 33.5t-50.5 13.5q-20 0 -37.5 -7.5t-17.5 -29.5q0 -14 17 -22t59 -19q75 -20 104.5 -48.5t29.5 -72.5q0 -30 -12 -53t-33 -39.5t-50 -26t-63 -12.5l-13 -58h-91z" />
    <glyph glyph-name="cent.numr" horiz-adv-x="404" 
d="M410 409q-25 -95 -140 -110l-12 -57h-91l13 58q-54 11 -79.5 47t-25.5 85q0 75 47.5 124t125.5 59l9 45h91l-10 -49q28 -8 46 -21t27.5 -29t13 -32t3.5 -29h-107q-2 20 -14.5 32t-41.5 12q-19 0 -34.5 -8.5t-27 -23.5t-17.5 -34.5t-6 -41.5q0 -32 14 -49.5t46 -17.5
q27 0 41 11.5t24 28.5h105z" />
    <glyph glyph-name="hyphen.numr" horiz-adv-x="234" 
d="M255 498l-20 -88h-170l20 88h170z" />
    <glyph glyph-name="zero.dnom" horiz-adv-x="398" 
d="M216 402q73 0 109.5 -41.5t36.5 -110.5q0 -48 -12.5 -94t-38 -82t-64.5 -57.5t-93 -21.5q-72 0 -109.5 41.5t-37.5 115.5q0 41 12.5 85.5t38 81t65 60t93.5 23.5zM206 315q-26 0 -43 -18.5t-27 -44.5t-14.5 -54t-4.5 -48q0 -37 13.5 -53t36.5 -16q25 0 42 19.5t27 47
t14 56.5t4 47q0 33 -12.5 48.5t-35.5 15.5z" />
    <glyph glyph-name="one.dnom" horiz-adv-x="260" 
d="M34 -1l61 289q-20 -2 -37.5 -1t-29.5 1l17 75q35 2 64 13t44 25h75l-86 -402h-108z" />
    <glyph glyph-name="two.dnom" horiz-adv-x="366" 
d="M-21 0l3 12q6 24 15 48t26.5 48t46 48t72.5 48q49 27 67.5 41t18.5 34q0 16 -10 27t-33 11t-38 -13t-24 -42h-99q30 140 173 140q37 0 63.5 -10.5t43.5 -27.5t25 -38t8 -42q0 -23 -5.5 -41t-19 -34t-35 -31t-52.5 -31q-26 -13 -52.5 -29t-39.5 -36h181l-31 -82h-304z" />
    <glyph glyph-name="three.dnom" horiz-adv-x="378" 
d="M100 122q2 -18 15 -34t43 -16q23 0 41 10.5t18 39.5q0 18 -13.5 29.5t-43.5 11.5h-36l19 84h30q32 0 44.5 12.5t12.5 31.5q0 14 -9.5 24t-31.5 10q-26 0 -38 -11.5t-18 -28.5h-99q4 18 14.5 39t29.5 38t48.5 28.5t73.5 11.5q67 0 102.5 -29.5t35.5 -73.5
q0 -36 -19.5 -57.5t-51.5 -31.5q7 -2 17 -8t19.5 -16t16 -24.5t6.5 -33.5q0 -60 -45 -96t-130 -36q-47 0 -78 13t-49 32.5t-24 41.5t-4 39h104z" />
    <glyph glyph-name="four.dnom" horiz-adv-x="379" 
d="M154 1l20 93h-191l17 77l202 226h135l-49 -228h57l-24 -75h-49l-19 -93h-99zM189 169l14 59q4 16 10 42.5t11 45.5q-8 -11 -22.5 -28.5t-32.5 -38t-36.5 -41.5t-33.5 -39h90z" />
    <glyph glyph-name="five.dnom" horiz-adv-x="383" 
d="M329 314h-178q-5 -16 -10 -34t-9 -32q13 7 30.5 12.5t44.5 5.5q30 0 53 -9.5t38 -25.5t22.5 -37t7.5 -43q0 -39 -14.5 -68t-39 -48.5t-57.5 -29t-70 -9.5q-41 0 -69.5 11t-46.5 28t-26.5 39t-8.5 43h103q2 -18 15 -31t39 -13q29 0 47 17.5t18 47.5q0 19 -10 35.5
t-40 16.5q-23 0 -37.5 -8t-24.5 -22l-90 14l16 48t18 57t17.5 60.5t15.5 57.5h273z" />
    <glyph glyph-name="six.dnom" horiz-adv-x="387" 
d="M251 288q-2 15 -13.5 25t-34.5 10q-31 0 -51.5 -24t-28.5 -64q36 30 93 30q56 0 89 -32t33 -86q0 -31 -11.5 -58.5t-34 -48.5t-55.5 -33t-75 -12q-69 0 -112.5 41.5t-43.5 123.5q0 40 11.5 83t36.5 78.5t63.5 58t92.5 22.5q67 0 105 -31.5t39 -82.5h-103zM166 76
q26 0 44 17t18 48q0 23 -12.5 37t-38.5 14t-44 -18t-18 -46q0 -20 11.5 -36t39.5 -16z" />
    <glyph glyph-name="seven.dnom" horiz-adv-x="352" 
d="M352 397l-15 -74q-30 -30 -59.5 -68t-56 -80t-49.5 -86.5t-41 -88.5h-121q17 46 42.5 92t54.5 87.5t58.5 76.5t55.5 58h-181l16 83h296z" />
    <glyph glyph-name="eight.dnom" horiz-adv-x="377" 
d="M153 -5q-38 0 -66.5 9t-48 24t-29 34.5t-9.5 40.5q0 38 21.5 63.5t61.5 40.5q-19 12 -29 31t-10 40q0 30 12 53t34 38.5t51.5 24t64.5 8.5q36 0 63 -9t45 -23t27 -33t9 -38q0 -30 -17 -54.5t-52 -37.5q20 -11 36 -31t16 -49q0 -34 -15 -58.5t-40 -41t-57.5 -24.5
t-67.5 -8zM200 331q-22 0 -39 -13t-17 -38q0 -17 11.5 -28t34.5 -11q21 0 39 12t18 37q0 17 -11 29t-36 12zM163 66q27 0 46.5 13.5t19.5 42.5q0 20 -14 33t-43 13t-47.5 -14t-18.5 -42q0 -19 15.5 -32.5t41.5 -13.5z" />
    <glyph glyph-name="nine.dnom" horiz-adv-x="385" 
d="M106 113q2 -17 14 -28.5t36 -11.5q17 0 30 8.5t22 21.5t14.5 28.5t8.5 29.5q-18 -15 -40 -19.5t-48 -4.5t-48.5 7.5t-39 22t-26.5 35.5t-10 48q0 32 12.5 60t35 48.5t54 32t69.5 11.5q78 0 119 -43t41 -115q0 -41 -10 -85t-33.5 -80.5t-62.5 -60t-97 -23.5
q-38 0 -65.5 9.5t-46 26t-28 37.5t-10.5 45h109zM187 324q-26 0 -43.5 -16.5t-17.5 -44.5q0 -24 14 -37t40 -13q27 0 43.5 15t16.5 41q0 21 -11.5 38t-41.5 17z" />
    <glyph glyph-name="parenleft.dnom" horiz-adv-x="236" 
d="M252 443q-69 -65 -104 -137t-35 -173q0 -54 9 -105.5t23 -87.5h-85q-14 30 -25.5 79.5t-11.5 108.5q0 88 32 170.5t104 144.5h93z" />
    <glyph glyph-name="parenright.dnom" horiz-adv-x="236" 
d="M-48 -60q34 35 60.5 69.5t43.5 72t26 79.5t9 93q0 54 -9 104.5t-23 84.5h85q13 -31 25.5 -80.5t12.5 -107.5q0 -44 -8.5 -88t-26 -85t-43 -77.5t-59.5 -64.5h-93z" />
    <glyph glyph-name="period.dnom" horiz-adv-x="184" 
d="M-13 -4l28 129h108l-27 -129h-109z" />
    <glyph glyph-name="comma.dnom" horiz-adv-x="184" 
d="M-57 -76q23 43 41.5 94t27.5 104h109q-7 -28 -16.5 -56t-20.5 -54t-24 -49t-26 -39h-91z" />
    <glyph glyph-name="dollar.dnom" horiz-adv-x="405" 
d="M85 -65l14 64q-53 12 -78.5 43.5t-27.5 77.5h110q2 -28 21.5 -40t49.5 -12q10 0 21 1.5t20.5 6t15.5 12.5t6 20q0 16 -15 24.5t-59 20.5q-72 19 -102.5 46.5t-30.5 69.5q0 58 42.5 91t111.5 37l9 45h91l-11 -54q27 -7 44.5 -19.5t28 -28t14.5 -32t5 -32.5h-106
q-2 20 -16.5 33.5t-50.5 13.5q-20 0 -37.5 -7.5t-17.5 -29.5q0 -14 17 -22t59 -19q75 -20 104.5 -48.5t29.5 -72.5q0 -30 -12 -53t-33 -39.5t-50 -26t-63 -12.5l-13 -58h-91z" />
    <glyph glyph-name="cent.dnom" horiz-adv-x="404" 
d="M353 148q-25 -95 -140 -110l-12 -57h-91l13 58q-54 11 -79.5 47t-25.5 85q0 75 47.5 124t125.5 59l9 45h91l-10 -49q28 -8 46 -21t27.5 -29t13 -32t3.5 -29h-107q-2 20 -14.5 32t-41.5 12q-19 0 -34.5 -8.5t-27 -23.5t-17.5 -34.5t-6 -41.5q0 -32 14 -49.5t46 -17.5
q27 0 41 11.5t24 28.5h105z" />
    <glyph glyph-name="hyphen.dnom" horiz-adv-x="234" 
d="M198 237l-20 -88h-170l20 88h170z" />
    <glyph glyph-name="a.sups" horiz-adv-x="377" 
d="M352 342q-5 -26 -10 -50t-6 -32h-95q1 7 2.5 19.5t3.5 20.5q-13 -18 -37 -32t-66 -14q-25 0 -43.5 8t-30.5 20.5t-17.5 29t-5.5 33.5q0 36 14.5 59t37.5 37t52.5 20t59.5 9q18 2 37.5 2.5t35.5 0.5l2 12q2 17 -4.5 31.5t-37.5 14.5q-27 0 -37.5 -9t-15.5 -26h-99
q4 17 13.5 35.5t28 34t46.5 25.5t69 10q70 0 107 -28.5t24 -93.5zM269 410q-14 0 -26 -0.5t-23 -1.5q-32 -3 -50.5 -13.5t-18.5 -35.5q0 -13 10 -21t28 -8t31.5 7t23.5 17.5t16 23.5t8 26z" />
    <glyph glyph-name="b.sups" horiz-adv-x="398" 
d="M40 261q7 30 14 64t14 67l73 341h101l-38 -176q11 13 34.5 28.5t67.5 15.5q22 0 41.5 -8t34.5 -23t23.5 -38t8.5 -53q0 -39 -11 -79t-33.5 -72t-57 -52t-81.5 -20q-33 0 -54.5 13t-28.5 30q-2 -7 -5 -18.5t-5 -19.5h-98zM222 338q23 0 39 11t26.5 28t15 38t4.5 42
q0 60 -51 60q-36 0 -55.5 -26t-26.5 -64q-3 -18 -2.5 -34t6 -28t16.5 -19.5t28 -7.5z" />
    <glyph glyph-name="c.sups" horiz-adv-x="364" 
d="M373 378q-19 -57 -62.5 -90t-114.5 -33q-69 0 -104.5 38.5t-35.5 100.5q0 36 11.5 73t35.5 67t60 48.5t85 18.5q41 0 68 -11.5t43 -30t21.5 -40.5t4.5 -43h-100q1 24 -9.5 36t-35.5 12q-23 0 -38 -14t-24 -34t-13 -42t-4 -38q0 -28 10 -46.5t38 -18.5q41 0 63 47h101z
" />
    <glyph glyph-name="d.sups" horiz-adv-x="401" 
d="M376 355q-5 -30 -10 -54.5t-7 -39.5h-93q0 6 0.5 17.5t2.5 19.5q-18 -21 -41.5 -32t-58.5 -11q-50 0 -82 34.5t-32 103.5q0 39 12 76t35.5 66.5t56.5 47.5t75 18q41 0 60.5 -11.5t26.5 -22.5l35 166h101zM250 525q-23 0 -39.5 -12.5t-27.5 -31.5t-16.5 -42t-5.5 -44
q0 -34 12.5 -49t37.5 -15q62 0 83 100q11 50 -0.5 72t-43.5 22z" />
    <glyph glyph-name="e.sups" horiz-adv-x="367" 
d="M157 405q-1 -3 -1 -8v-10q0 -24 12.5 -40t37.5 -16q27 0 37 9t19 21h100q-19 -48 -59.5 -76.5t-110.5 -28.5q-36 0 -61.5 11t-42 29.5t-24.5 43t-8 51.5q0 39 12.5 77t37.5 67.5t61 47.5t83 18q69 0 104 -34.5t35 -90.5q0 -19 -4.5 -38t-9.5 -33h-218zM290 465
q7 30 -4.5 47.5t-43.5 17.5q-28 0 -45 -18t-25 -47h118z" />
    <glyph glyph-name="f.sups" horiz-adv-x="207" 
d="M48 261l54 254h-44l17 79h44l6 26q6 27 15.5 48.5t24.5 37.5t36.5 24.5t50.5 8.5q34 0 53 -7l-16 -75q-5 2 -12.5 2.5t-12.5 0.5q-20 0 -28.5 -12.5t-13.5 -35.5l-4 -18h54l-17 -79h-54l-54 -254h-99z" />
    <glyph glyph-name="g.sups" horiz-adv-x="399" 
d="M364 301q-9 -44 -22.5 -77.5t-35.5 -56.5t-55.5 -34.5t-82.5 -11.5q-41 0 -68 11t-43 28.5t-22.5 39t-5.5 42.5h101q1 -20 13 -34.5t39 -14.5q35 0 52 21.5t26 61.5l6 25q-36 -37 -93 -37q-48 0 -81 32t-33 98q0 38 12 75t34.5 66t54.5 47t72 18q32 0 57 -10t33 -32
q8 25 13 37h95q-5 -17 -11 -41.5t-14 -59.5zM249 525q-22 0 -37.5 -13t-26 -31.5t-15.5 -40t-5 -38.5q0 -63 49 -63q18 0 31.5 8t23.5 21t16.5 30t10.5 34q10 45 -2 69t-45 24z" />
    <glyph glyph-name="h.sups" horiz-adv-x="392" 
d="M141 733h101l-37 -175q17 19 40.5 31t58.5 12q23 0 43 -7.5t33 -24t17.5 -41.5t-3.5 -61l-44 -206h-99l39 188q7 30 1.5 49.5t-34.5 19.5q-31 0 -51 -22.5t-28 -62.5l-37 -172h-101z" />
    <glyph glyph-name="i.sups" horiz-adv-x="182" 
d="M40 261l71 333h101l-71 -333h-101zM123 648l18 85h101l-18 -85h-101z" />
    <glyph glyph-name="j.sups" horiz-adv-x="184" 
d="M-9 207q29 -3 38.5 11t14.5 38l71 338h100l-69 -326q-8 -35 -17.5 -62t-24.5 -46t-38.5 -29t-57.5 -10q-8 0 -18.5 1t-16.5 2zM126 648l18 85h101l-18 -85h-101z" />
    <glyph glyph-name="k.sups" horiz-adv-x="361" 
d="M181 455q13 14 30 31.5t35 36l36 37t33 34.5h114q-35 -33 -69.5 -65.5t-69.5 -65.5l79 -202h-106l-49 146q-11 -10 -27 -23.5t-26 -21.5l-22 -101h-99l101 472h99z" />
    <glyph glyph-name="l.sups" horiz-adv-x="181" 
d="M40 261l101 472h101l-101 -472h-101z" />
    <glyph glyph-name="m.sups" horiz-adv-x="582" 
d="M200 594q1 -5 1 -19t-2 -23q18 21 44 35t58 14q37 0 56 -15t25 -37q17 19 44 35.5t67 16.5q24 0 44.5 -7.5t33 -24.5t16.5 -43.5t-4 -64.5l-42 -200h-94l42 197q5 23 -1 41.5t-36 18.5q-24 0 -43 -18t-27 -57l-40 -182h-102l44 200q4 21 0 39t-32 18q-26 0 -45.5 -20.5
t-27.5 -57.5l-38 -179h-101l49 228q11 51 14.5 72.5t5.5 32.5h91z" />
    <glyph glyph-name="n.sups" horiz-adv-x="391" 
d="M88 486q9 42 14 68.5t7 39.5h96q1 -5 0.5 -16t-2.5 -23q13 16 37 31t69 15q19 0 38 -7.5t32 -23t18 -40.5t-2 -60l-45 -209h-100l41 194q6 28 0 45t-33 17q-23 0 -46 -17t-33 -64l-38 -175h-101z" />
    <glyph glyph-name="o.sups" horiz-adv-x="389" 
d="M256 601q72 0 110 -38.5t38 -97.5q0 -46 -14.5 -84.5t-40.5 -66.5t-63.5 -43.5t-83.5 -15.5q-65 0 -105.5 37t-40.5 103q0 40 13.5 77.5t39.5 66t63 45.5t84 17zM246 524q-22 0 -37.5 -12.5t-26 -31t-15.5 -41t-5 -42.5q0 -32 13.5 -49t38.5 -17q23 0 39 13t26.5 32.5
t15.5 42t5 42.5q0 63 -54 63z" />
    <glyph glyph-name="p.sups" horiz-adv-x="397" 
d="M91 499q8 34 12.5 57.5t6.5 37.5h95q0 -5 -1 -18.5t-3 -22.5q17 20 40 34t64 14q20 0 39 -8t34 -24.5t24 -41t9 -57.5q0 -43 -12.5 -81.5t-36 -68t-57 -47t-76.5 -17.5q-33 0 -54 11t-28 24l-33 -158h-101zM217 335q22 0 38.5 11t27 28.5t15.5 40.5t5 47q0 31 -13.5 44
t-34.5 13q-17 0 -30.5 -8t-23.5 -21.5t-17 -30t-10 -34.5q-3 -15 -3.5 -30.5t4 -29t14.5 -22t28 -8.5z" />
    <glyph glyph-name="q.sups" horiz-adv-x="395" 
d="M262 293q-18 -19 -40 -28.5t-57 -9.5q-47 0 -78.5 34.5t-31.5 97.5q0 39 12 77.5t35 69t56.5 49t76.5 18.5q34 0 55 -12.5t28 -29.5q6 24 12 35h97q-5 -17 -12.5 -49t-16.5 -77l-71 -335h-98zM247 521q-21 0 -37 -12t-26.5 -30t-16 -39.5t-5.5 -41.5q0 -63 50 -63
q29 0 49.5 22.5t30.5 70.5q19 93 -45 93z" />
    <glyph glyph-name="r.sups" horiz-adv-x="270" 
d="M87 482q9 41 14 68t8 44h97q-1 -10 -3 -26t-5 -33q40 66 121 66l-25 -102q-26 1 -46.5 -4t-35.5 -18t-25.5 -34t-17.5 -53l-28 -129h-101z" />
    <glyph glyph-name="s.sups" horiz-adv-x="327" 
d="M136 368q0 -20 16 -31t39 -11q20 0 32.5 7t12.5 21q0 12 -12 20t-48 19q-55 17 -76.5 42t-21.5 53q0 27 10.5 48.5t29.5 35.5t44 21.5t55 7.5q36 0 61 -9t40.5 -23.5t22.5 -33.5t7 -40h-86q-3 16 -13 26.5t-36 10.5q-16 0 -27.5 -5.5t-11.5 -20.5q0 -8 9.5 -15.5
t32.5 -15.5q33 -11 55 -21t35.5 -22.5t19.5 -27.5t6 -35q0 -55 -42 -84.5t-108 -29.5q-72 0 -105.5 32.5t-32.5 80.5h92z" />
    <glyph glyph-name="t.sups" horiz-adv-x="231" 
d="M122 594l22 92h98l-20 -92h64l-17 -79h-64l-30 -142q-5 -20 -0.5 -30t25.5 -10q6 0 11.5 0.5t13.5 1.5l-16 -70q-13 -5 -31 -7t-33 -2q-52 0 -68 24.5t-5 75.5l34 159h-48l17 79h47z" />
    <glyph glyph-name="u.sups" horiz-adv-x="389" 
d="M370 362q-17 -76 -20 -101h-97q0 6 1 18.5t3 22.5q-15 -18 -38 -32t-62 -14q-24 0 -43.5 7.5t-32.5 23t-17.5 39t2.5 56.5l45 212h101l-40 -189q-6 -28 -1 -46t34 -18q23 0 44.5 17t30.5 60l38 176h101z" />
    <glyph glyph-name="v.sups" horiz-adv-x="346" 
d="M171 594q2 -49 3.5 -87t3 -68.5t2.5 -54.5t1 -45h1q7 18 22.5 51t34.5 70.5t37.5 73.5t30.5 60h104l-183 -333h-124l-36 333h103z" />
    <glyph glyph-name="w.sups" horiz-adv-x="521" 
d="M180 594v-71.5v-69.5t-0.5 -59t-1.5 -39h1q6 16 13.5 33.5t19 44t28.5 65t43 96.5h95v-90v-67.5t-0.5 -48.5t-1.5 -34h1q4 12 10.5 28t18 42.5t29 67t44.5 102.5h103l-167 -333h-111q1 85 -0.5 134.5t-1.5 84.5h-1q-7 -18 -15 -36.5t-19 -43t-26.5 -58t-37.5 -81.5h-112
l-18 333h107z" />
    <glyph glyph-name="x.sups" horiz-adv-x="325" 
d="M176 594q12 -32 22.5 -58.5t15.5 -40.5h1q12 17 30.5 42t44.5 57h112l-143 -160l74 -173h-107q-15 42 -25.5 67t-14.5 38h-1q-11 -17 -28 -39.5t-51 -65.5h-112l147 167l-75 166h110z" />
    <glyph glyph-name="y.sups" horiz-adv-x="347" 
d="M187 594q9 -95 12 -151.5t2 -79.5h1q12 29 40.5 88t70.5 143h104l-184 -332q-24 -42 -43.5 -69t-38.5 -42.5t-39.5 -21.5t-44.5 -6q-20 0 -36.5 2t-22.5 4l19 85q8 -2 16.5 -3t17.5 -1q21 0 37 11.5t31 42.5l-57 330h115z" />
    <glyph glyph-name="z.sups" horiz-adv-x="321" 
d="M32 321q9 10 32.5 34.5t52 53.5t57 59t48.5 50h-148l17 76h272l-14 -62q-4 -4 -16.5 -17.5t-29.5 -32t-37 -39.5t-39.5 -41.5t-36.5 -38t-27 -28.5h164l-29 -74h-279z" />
    <glyph glyph-name="egrave.sups" horiz-adv-x="367" 
d="M257 730l63 -96h-92l-91 96h120zM157 405q-1 -3 -1 -8v-10q0 -24 12.5 -40t37.5 -16q27 0 37 9t19 21h100q-19 -48 -59.5 -76.5t-110.5 -28.5q-36 0 -61.5 11t-42 29.5t-24.5 43t-8 51.5q0 39 12.5 77t37.5 67.5t61 47.5t83 18q69 0 104 -34.5t35 -90.5q0 -19 -4.5 -38
t-9.5 -33h-218zM290 465q7 30 -4.5 47.5t-43.5 17.5q-28 0 -45 -18t-25 -47h118z" />
    <glyph glyph-name="eacute.sups" horiz-adv-x="367" 
d="M442 730l-141 -96h-100l104 96h137zM157 405q-1 -3 -1 -8v-10q0 -24 12.5 -40t37.5 -16q27 0 37 9t19 21h100q-19 -48 -59.5 -76.5t-110.5 -28.5q-36 0 -61.5 11t-42 29.5t-24.5 43t-8 51.5q0 39 12.5 77t37.5 67.5t61 47.5t83 18q69 0 104 -34.5t35 -90.5
q0 -19 -4.5 -38t-9.5 -33h-218zM290 465q7 30 -4.5 47.5t-43.5 17.5q-28 0 -45 -18t-25 -47h118z" />
    <glyph glyph-name="currency.cap" horiz-adv-x="530" 
d="M315 561q58 0 102 -33l87 76l53 -76l-88 -78q14 -45 5 -101q-5 -30 -15 -57.5t-25 -50.5l58 -73l-81 -72l-55 71q-48 -28 -108 -28q-59 0 -101 31l-84 -74l-54 78l83 72q-17 48 -8 107q5 30 16 58t28 52l-51 69l82 72l50 -70q24 13 50.5 20t55.5 7zM298 460
q-39 0 -68 -26t-38 -83q-5 -32 -1 -54t14.5 -35t25.5 -18.5t31 -5.5q17 0 33.5 5.5t30.5 19t24 35t15 54.5q9 55 -9 81.5t-58 26.5z" />
    <glyph glyph-name="dollar.cap" horiz-adv-x="557" 
d="M148 -86l18 86q-78 18 -119 71t-36 131h140q2 -52 31 -78.5t81 -26.5q53 0 81.5 27t28.5 66q0 35 -22.5 57.5t-76.5 45.5q-49 20 -84.5 40.5t-58 43t-33 49.5t-10.5 61q0 44 15.5 81t44.5 64t71.5 43t96.5 19l14 62h112l-17 -74q37 -11 63.5 -30t42.5 -43.5t22.5 -53.5
t3.5 -60h-136q0 15 -3.5 31.5t-14 30.5t-29.5 23t-51 9q-41 0 -66 -21t-25 -59q0 -13 4.5 -24t17 -22.5t34.5 -23.5t57 -27q90 -38 130.5 -85t40.5 -114q0 -50 -17 -89.5t-48 -67t-74.5 -44t-97.5 -20.5l-17 -78h-114z" />
    <glyph glyph-name="sterling.cap" horiz-adv-x="547" 
d="M-20 0l21 101q25 10 42.5 27.5t29 42.5t19 57.5t13.5 71.5q0 2 0.5 3t0.5 3h-89l21 99h80q2 16 4.5 34t5.5 38q17 110 73 166t159 56q62 0 99.5 -18.5t57.5 -46.5t25.5 -62.5t3.5 -65.5h-127q1 37 -13.5 62t-51.5 25t-56 -27.5t-29 -79.5q-4 -23 -7 -42t-5 -39h137
l-21 -99h-130q-12 -72 -27 -118t-48 -76h335l-39 -112h-484z" />
    <glyph glyph-name="yen.cap" horiz-adv-x="510" 
d="M299 173l-36 -173h-138l37 173h-125l17 78h124l11 51h-123l16 79h103l-105 308h143q15 -57 25.5 -99t18 -71.5t12 -48.5t6.5 -31h1q6 11 17.5 29t31.5 47t49.5 71.5t71.5 102.5h150l-241 -308h106l-16 -79h-129l-10 -51h128l-17 -78h-128z" />
    <glyph glyph-name="Euro.cap" horiz-adv-x="587" 
d="M537 181q-30 -92 -90 -142t-161 -50q-54 0 -92 18t-62 49.5t-35.5 74.5t-11.5 93v15.5t1 15.5h-60l17 76h50q3 25 9 51h-49l17 76h53q16 49 41 93t59.5 77t79 52t99.5 19t92.5 -16t60.5 -43t31.5 -62.5t4.5 -74.5h-125q1 48 -16 71t-59 23q-48 0 -82 -39.5t-56 -99.5h192
l-18 -76h-195l-9 -51h195l-18 -76h-183q-1 -8 -1 -15v-15q0 -64 20 -97t64 -33q38 0 63 20.5t44 65.5h130z" />
    <glyph glyph-name="cent.cap" horiz-adv-x="565" 
d="M523 254q-22 -73 -69 -119.5t-131 -59.5l-18 -84h-121l19 85q-70 17 -103 70.5t-33 127.5q0 60 16 115.5t47.5 100t78.5 74.5t108 39l13 61h118l-14 -65q41 -10 65.5 -30.5t37.5 -46t16.5 -52.5t2.5 -49h-135q1 35 -15 57t-58 22q-37 0 -63 -22.5t-43 -55.5t-25 -71.5
t-8 -70.5q0 -57 19.5 -81t57.5 -24q35 0 58.5 19t39.5 60h139z" />
    <glyph glyph-name="at.cap" horiz-adv-x="965" 
d="M712 -65q-35 -21 -95 -37.5t-148 -16.5q-84 0 -157 25.5t-127 74.5t-84.5 120.5t-30.5 162.5q0 99 35 184t98 148t149.5 98.5t188.5 35.5q73 0 141.5 -20t121.5 -61t85.5 -103.5t32.5 -147.5q0 -68 -18 -125t-51.5 -98t-81.5 -64t-109 -23q-43 0 -72 15t-37 47
q-27 -31 -59.5 -46t-79.5 -15q-64 0 -101.5 40.5t-37.5 118.5q0 58 18 108.5t48.5 88.5t70 60t82.5 22q46 0 71.5 -15.5t32.5 -40.5l14 46h121l-65 -264q-9 -38 -3.5 -52.5t30.5 -14.5t47 15.5t38.5 43.5t26 66t9.5 83q0 58 -20.5 103.5t-57.5 76.5t-90 47t-117 16
q-79 0 -143 -28t-109 -77.5t-69.5 -118t-24.5 -150.5q0 -63 20 -115t57.5 -89.5t91 -58t121.5 -20.5q64 0 118 9.5t100 32.5zM514 432q-23 0 -43 -15t-35 -39.5t-23.5 -55.5t-8.5 -63q0 -37 12.5 -54.5t41.5 -17.5q38 0 62 32.5t37 85.5q18 69 7 98t-50 29z" />
    <glyph glyph-name="emdash.cap" horiz-adv-x="871" 
d="M845 415l-25 -117h-764l25 117h764z" />
    <glyph glyph-name="endash.cap" horiz-adv-x="472" 
d="M447 415l-25 -117h-366l25 117h366z" />
    <glyph glyph-name="hyphen.cap" horiz-adv-x="374" 
d="M348 415l-25 -117h-267l25 117h267z" />
    <glyph glyph-name="uni00AD.cap" horiz-adv-x="374" 
d="M348 415l-25 -117h-267l25 117h267z" />
    <glyph glyph-name="exclamdown.cap" horiz-adv-x="271" 
d="M216 441l-50 -320l-26 -120h-145l26 121l85 319h110zM283 691l-35 -166h-135l35 166h135z" />
    <glyph glyph-name="questiondown.cap" horiz-adv-x="504" 
d="M373 472l-4 -22q-6 -25 -14 -46.5t-22.5 -42.5t-36.5 -42t-56 -46q-15 -11 -30.5 -22.5t-29 -24.5t-22 -28.5t-8.5 -34.5q0 -26 14.5 -44.5t51.5 -18.5q41 0 62 24t32 64h137q-8 -37 -24 -72.5t-43.5 -63.5t-69 -45t-101.5 -17q-55 0 -92.5 14.5t-60 38t-32.5 53
t-10 58.5q0 33 9.5 61t27 52t41.5 45t54 42q21 14 35 27t23.5 25.5t15 26t8.5 29.5l2 10h143zM419 690l-35 -166h-143l35 166h143z" />
    <glyph glyph-name="guillemotleft.cap" horiz-adv-x="592" 
d="M195 332l94 -188h-115l-101 198l181 197h129zM420 333l94 -189h-116l-100 198l180 197h130z" />
    <glyph glyph-name="guillemotright.cap" horiz-adv-x="592" 
d="M438 351l-94 188h115l101 -198l-181 -197h-129zM213 350l-94 189h116l100 -198l-180 -197h-130z" />
    <glyph glyph-name="guilsinglleft.cap" horiz-adv-x="378" 
d="M190 335l109 -191h-119l-117 198l192 197h138z" />
    <glyph glyph-name="guilsinglright.cap" horiz-adv-x="386" 
d="M226 348l-108 191h118l117 -198l-192 -197h-138z" />
    <glyph glyph-name="parenleft.cap" horiz-adv-x="362" 
d="M447 787q-65 -63 -114 -124.5t-82 -128.5t-50 -141t-17 -161q0 -41 5 -88t14 -94t22 -90t29 -76h-118q-35 78 -53 164t-18 183q0 179 65.5 316.5t178.5 239.5h138z" />
    <glyph glyph-name="parenright.cap" horiz-adv-x="362" 
d="M-46 -115q64 63 113.5 124.5t82.5 128.5t50 141t17 161q0 41 -5 88t-14.5 94t-22.5 90t-29 76h119q34 -78 52.5 -164t18.5 -183q0 -179 -65.5 -316.5t-179.5 -239.5h-137z" />
    <glyph glyph-name="braceleft.cap" horiz-adv-x="372" 
d="M49 392q34 0 55.5 7t35 20t21 32t12.5 43l26 122q10 49 29.5 82t46 52.5t59 28t69.5 8.5h41l-20 -96h-15q-44 0 -63.5 -18.5t-28.5 -62.5l-28 -134q-13 -62 -47 -100t-95 -43q57 -11 74.5 -52t3.5 -105l-19 -91q-6 -31 -6.5 -51.5t6 -32.5t19 -17t32.5 -5h15l-20 -96h-23
q-33 0 -64.5 8.5t-53.5 30t-30.5 58.5t3.5 94l23 110q4 22 5 40.5t-6.5 32t-26 21t-52.5 7.5z" />
    <glyph glyph-name="braceright.cap" horiz-adv-x="372" 
d="M350 278q-34 0 -56 -7t-35.5 -20t-21 -32t-12.5 -43l-25 -122q-11 -49 -30 -82t-45.5 -52.5t-59 -28t-69.5 -8.5h-42l21 96h15q43 0 62.5 18.5t28.5 62.5l29 134q13 62 47 100t94 43q-57 11 -74 52t-3 105l19 91q13 61 0.5 83.5t-52.5 22.5h-15l21 96h22q33 0 64.5 -8.5
t53.5 -30t31 -58.5t-3 -94l-23 -110q-5 -23 -5.5 -41t7 -31.5t26 -20.5t52.5 -7z" />
    <glyph glyph-name="bracketleft.cap" horiz-adv-x="346" 
d="M-14 -175l192 903h234l-20 -95h-119l-152 -713h119l-20 -95h-234z" />
    <glyph glyph-name="bracketright.cap" horiz-adv-x="346" 
d="M375 728l-192 -903h-234l20 95h119l152 713h-119l21 95h233z" />
    <glyph glyph-name="bullet.cap" horiz-adv-x="415" 
d="M360 470l-52 -241h-229l52 241h229z" />
    <glyph glyph-name="periodcentered.cap" horiz-adv-x="245" 
d="M40 265l37 176h147l-36 -176h-148z" />
    <glyph glyph-name="fraction" horiz-adv-x="228" 
d="M-184 0l532 658h98l-527 -658h-103z" />
    <glyph glyph-name="slash.frac" horiz-adv-x="228" 
d="M-184 0l532 658h98l-527 -658h-103z" />
    <glyph glyph-name="percent.alt" horiz-adv-x="548" 
d="M462 625h60l-345 -402h-63zM192 574q-13 0 -23 -8.5t-16.5 -21.5t-9.5 -28.5t-3 -28.5q0 -37 28 -37q14 0 24 9t16.5 22.5t9.5 29t3 28.5q0 18 -8 26.5t-21 8.5zM159 393q-44 0 -68 26.5t-24 68.5q0 25 9 51t25.5 46t41 33t56.5 13q45 0 68.5 -26.5t23.5 -68.5
q0 -26 -8 -52t-24.5 -46t-41 -32.5t-58.5 -12.5zM469 397q-13 0 -23 -8.5t-16.5 -21.5t-10 -28.5t-3.5 -28.5q0 -20 8 -28.5t21 -8.5q14 0 24 9t16 22.5t9 29t3 28.5q0 35 -28 35zM436 216q-44 0 -68 26.5t-24 68.5q0 25 8.5 50.5t25.5 46t41 33.5t56 13q45 0 69 -26.5
t24 -68.5q0 -26 -8 -52t-24.5 -46t-41 -32.5t-58.5 -12.5z" />
    <glyph glyph-name="grave.cap" 
d="M240 887l143 -139h-133l-183 139h173z" />
    <glyph glyph-name="acute.cap" 
d="M560 887l-228 -139h-139l176 139h191z" />
    <glyph glyph-name="circumflex.cap" 
d="M388 885l100 -137h-125l-51 70l-78 -70h-136l161 137h129z" />
    <glyph glyph-name="tilde.cap" 
d="M120 752l6 32q5 31 15 51t24 32t31.5 17t38.5 5q22 0 42.5 -6.5t39.5 -14.5t34.5 -14.5t27.5 -6.5t20 6.5t11 27.5l1 8h88l-5 -30q-6 -33 -16 -54.5t-24.5 -34t-32.5 -17t-39 -4.5q-23 0 -43.5 6.5t-38.5 14t-33 14t-27 6.5q-11 0 -19 -5t-10 -19l-2 -14h-89z" />
    <glyph glyph-name="dieresis.cap" 
d="M130 759l27 127h111l-27 -127h-111zM335 759l27 127h111l-27 -127h-111z" />
    <glyph glyph-name="macron.cap" 
d="M464 862l-21 -101h-296l21 101h296z" />
    <glyph glyph-name="uni0300" horiz-adv-x="0" 
d="M27 736l98 -144h-117l-136 144h155z" />
    <glyph glyph-name="uni0301" horiz-adv-x="0" 
d="M221 736l-206 -144h-132l161 144h177z" />
    <glyph glyph-name="uni0302" horiz-adv-x="0" 
d="M110 722l75 -140h-120l-34 73l-61 -73h-127l139 140h128z" />
    <glyph glyph-name="uni0303" horiz-adv-x="0" 
d="M-148 589l7 39q6 31 16 50.5t23 30.5t29.5 15t35.5 4q22 0 40 -7t34 -16t29 -16t24 -7q24 0 32 38l2 9h87l-6 -31q-6 -34 -16.5 -55.5t-24.5 -34t-31.5 -17t-38.5 -4.5q-22 0 -39.5 7t-32.5 15t-27.5 15t-23.5 7q-22 0 -28 -27l-3 -15h-88z" />
    <glyph glyph-name="uni0304" horiz-adv-x="0" 
d="M184 709l-23 -105h-288l23 105h288z" />
    <glyph glyph-name="uni0308" horiz-adv-x="0" 
d="M-141 601l27 127h111l-27 -127h-111zM48 601l27 127h111l-27 -127h-111z" />
    <glyph glyph-name="uni030A" horiz-adv-x="0" 
d="M14 562q-51 0 -78 25.5t-27 64.5q0 26 10 47t27.5 36t41.5 23.5t51 8.5q51 0 77 -27t26 -65q0 -51 -36 -82t-92 -31zM19 621q17 0 35 12t18 38q0 16 -9 27t-31 11q-19 0 -35.5 -12.5t-16.5 -38.5q0 -11 9 -24t30 -13z" />
    <glyph glyph-name="uni0327" horiz-adv-x="0" 
d="M-49 0l-44 -43q30 -9 55 -30t25 -59q0 -28 -11 -48.5t-30.5 -34.5t-45.5 -21t-57 -7q-35 0 -60.5 5t-41.5 10l19 74q12 -4 31 -6t33 -2q16 0 33 4t17 22q0 9 -8 15t-21.5 9.5t-30 5.5t-33.5 3l8 35l73 78z" />
    <glyph glyph-name="uni0331" horiz-adv-x="0" 
d="M18 -75l-23 -105h-288l23 105h288z" />
    </font>
</defs>
</svg>
