<?xml version="1.0" standalone="no"?>
<!DOCTYPE svg PUBLIC "-//W3C//DTD SVG 1.1//EN" "http://www.w3.org/Graphics/SVG/1.1/DTD/svg11.dtd" >
<svg xmlns="http://www.w3.org/2000/svg" xmlns:xlink="http://www.w3.org/1999/xlink" version="1.1">
<metadata>
Created by FontForge 20190801 at Mon Feb  8 08:49:45 2016
 By Unknown
(c) 1999-2016 Typodermic Fonts Inc.
</metadata>
<defs>
<font id="LibelSuitRg-Regular" horiz-adv-x="395" >
  <font-face 
    font-family="Libel Suit Rg"
    font-weight="400"
    font-stretch="normal"
    units-per-em="1000"
    panose-1="2 11 6 8 2 2 2 2 2 4"
    ascent="789"
    descent="-211"
    x-height="611"
    cap-height="783"
    bbox="-387 -210 756 1207"
    underline-thickness="20"
    underline-position="-133"
    unicode-range="U+0017-E000"
  />
<missing-glyph horiz-adv-x="521" 
d="M393 869q96 0 96 -83v-833q0 -83 -96 -83h-266q-95 0 -95 83v833q0 83 95 83h266zM91 616h107v32q0 20 12 29t32 9q21 0 30 -11.5t9 -42.5q0 -19 -3 -35t-9 -32t-14.5 -33.5t-19.5 -38.5q-15 -29 -26.5 -52.5t-19 -44.5t-11.5 -41t-4 -44q0 -35 9 -84h65q2 38 5.5 63
t11.5 48t23 50.5t40 70.5q18 32 31 57t21.5 46.5t12 42t3.5 42.5q0 80 -41 118t-105 38q-34 0 -63 -10t-50.5 -29.5t-33.5 -47t-12 -61.5v-39zM215 133q-33 0 -49 -19.5t-16 -48.5t16 -49t49 -20t49 20t16 49t-16 48.5t-49 19.5z" />
    <glyph glyph-name=".notdef" horiz-adv-x="521" 
d="M393 869q96 0 96 -83v-833q0 -83 -96 -83h-266q-95 0 -95 83v833q0 83 95 83h266zM91 616h107v32q0 20 12 29t32 9q21 0 30 -11.5t9 -42.5q0 -19 -3 -35t-9 -32t-14.5 -33.5t-19.5 -38.5q-15 -29 -26.5 -52.5t-19 -44.5t-11.5 -41t-4 -44q0 -35 9 -84h65q2 38 5.5 63
t11.5 48t23 50.5t40 70.5q18 32 31 57t21.5 46.5t12 42t3.5 42.5q0 80 -41 118t-105 38q-34 0 -63 -10t-50.5 -29.5t-33.5 -47t-12 -61.5v-39zM215 133q-33 0 -49 -19.5t-16 -48.5t16 -49t49 -20t49 20t16 49t-16 48.5t-49 19.5z" />
    <glyph glyph-name="uni0017" horiz-adv-x="186" 
 />
    <glyph glyph-name="space" unicode=" " horiz-adv-x="186" 
 />
    <glyph glyph-name="exclam" unicode="!" horiz-adv-x="183" 
d="M145 797l-28 -588h-50l-29 588h107zM91 107q27 0 40 -16t13 -39t-13 -39t-40 -16q-26 0 -38.5 16t-12.5 39t12.5 39t38.5 16z" />
    <glyph glyph-name="quotedbl" unicode="&#x22;" horiz-adv-x="274" 
d="M28 542zM246 797l-11 -255h-59l-12 255h82zM110 797l-11 -255h-59l-12 255h82z" />
    <glyph glyph-name="numbersign" unicode="#" horiz-adv-x="519" 
d="M122 301l26 182h-90l10 70h90l34 230h70l-34 -230h108l34 230h70l-34 -230h90l-10 -70h-90l-26 -182h90l-10 -70h-90l-33 -231h-70l33 231h-108l-33 -231h-70l33 231h-90l10 70h90zM192 301h108l26 182h-108z" />
    <glyph glyph-name="dollar" unicode="$" horiz-adv-x="393" 
d="M219 803v-100q67 -5 98 -43t31 -90v-40h-81v28q0 62 -67 62q-35 0 -51.5 -16t-16.5 -43q0 -16 7 -33t30 -41q14 -15 32.5 -32t38 -34.5t37.5 -35.5t31 -34q25 -31 34 -62t9 -61q0 -63 -31.5 -103.5t-100.5 -46.5v-98h-36v97q-67 4 -104.5 41t-37.5 101v69l81 -21v-41
q0 -29 18.5 -46.5t56.5 -17.5q71 0 71 69q0 21 -7.5 37.5t-27.5 39.5q-17 19 -36 37t-37.5 35t-35.5 33t-30 31q-27 32 -37.5 62.5t-10.5 59.5q0 63 37 97.5t100 39.5v100h36z" />
    <glyph glyph-name="percent" unicode="%" horiz-adv-x="612" 
d="M46 0zM519 783l-361 -783h-66l363 783h64zM565 79q0 -41 -28 -64t-69 -23q-42 0 -70 23t-28 64v273q0 41 28 63.5t70 22.5q41 0 69 -22.5t28 -63.5v-273zM428 79q0 -17 11 -26.5t29 -9.5t29 9.5t11 26.5v272q0 17 -11 26t-29 9t-29 -9t-11 -26v-272zM241 431
q0 -41 -28 -64t-69 -23q-42 0 -70 23t-28 64v273q0 41 28 63.5t70 22.5q41 0 69 -22.5t28 -63.5v-273zM104 431q0 -17 11 -26.5t29 -9.5t29 9.5t11 26.5v272q0 17 -11 26t-29 9t-29 -9t-11 -26v-272z" />
    <glyph glyph-name="ampersand" unicode="&#x26;" horiz-adv-x="428" 
d="M128 520q0 -39 15.5 -54.5t52.5 -15.5h208v-76h-75v-241q0 -57 39 -57q18 0 35 16l15 -76q-29 -24 -70 -24q-28 0 -47.5 10.5t-32.5 27.5q-19 -19 -45 -29.5t-58 -10.5q-27 0 -51 10.5t-42 30t-28.5 47t-10.5 62.5v157q0 51 16.5 78.5t48.5 38.5q-28 11 -42 36.5
t-14 73.5v145q0 35 11 63.5t31 48.5t47.5 31t60.5 11q32 0 59.5 -10.5t47.5 -30t31.5 -47t11.5 -62.5v-26h-81v21q0 32 -17.5 49.5t-47.5 17.5q-33 0 -50.5 -19t-17.5 -52v-144zM243 95q-2 7 -2 13.5v14.5v251h-50q-39 0 -55.5 -17t-16.5 -57v-155q0 -32 18.5 -49.5
t41.5 -17.5t38 4.5t26 12.5z" />
    <glyph glyph-name="quotesingle" unicode="'" horiz-adv-x="138" 
d="M110 797l-11 -255h-59l-12 255h82z" />
    <glyph glyph-name="parenleft" unicode="(" horiz-adv-x="287" 
d="M273 886q-29 -5 -50 -14.5t-35 -26.5t-21 -44.5t-7 -68.5v-715q0 -41 7 -68.5t21 -44.5t35 -26.5t50 -14.5v-73q-40 5 -74 19.5t-59 41.5t-39 67.5t-14 97.5v717q0 57 14 97.5t39 67.5t59 41.5t74 19.5v-73z" />
    <glyph glyph-name="parenright" unicode=")" horiz-adv-x="287" 
d="M14 -137q29 5 50 14.5t35 26.5t21 44.5t7 68.5v715q0 41 -7 68.5t-21 44.5t-35 26.5t-50 14.5v73q40 -5 74 -19.5t59 -41.5t39 -67.5t14 -97.5v-717q0 -57 -14 -97.5t-39 -67.5t-59 -41.5t-74 -19.5v73z" />
    <glyph glyph-name="asterisk" unicode="*" horiz-adv-x="441" 
d="M199 617l-8 166h57l-8 -164l140 89l29 -50l-147 -76l147 -75l-28 -50l-139 90l8 -165h-57l8 164l-139 -91l-29 50l146 76l-147 75l28 50z" />
    <glyph glyph-name="plus" unicode="+" horiz-adv-x="531" 
d="M302 599v-183h183v-73h-183v-183h-74v183h-182v73h182v183h74z" />
    <glyph glyph-name="comma" unicode="," horiz-adv-x="160" 
d="M51 -149h-32l9 201q1 24 13 39.5t38 15.5q27 0 40 -16t13 -38q0 -18 -11 -41z" />
    <glyph glyph-name="hyphen" unicode="-" horiz-adv-x="306" 
d="M278 416v-73h-251v73h251z" />
    <glyph glyph-name="period" unicode="." horiz-adv-x="160" 
d="M79 107q27 0 40 -16t13 -39t-13 -39t-40 -16q-26 0 -38.5 16t-12.5 39t12.5 39t38.5 16z" />
    <glyph glyph-name="slash" unicode="/" horiz-adv-x="353" 
d="M347 869l-267 -989h-74l267 989h74z" />
    <glyph glyph-name="zero" unicode="0" horiz-adv-x="404" 
d="M41 0zM363 143q0 -37 -12.5 -66t-34.5 -49.5t-51.5 -31t-62.5 -10.5q-34 0 -63.5 10.5t-51 31t-34 49.5t-12.5 66v497q0 37 12.5 66t34 49t51 31t63.5 11q33 0 62.5 -11t51.5 -31t34.5 -49t12.5 -66v-497zM132 144q0 -34 19.5 -51.5t50.5 -17.5t50.5 17.5t19.5 51.5v495
q0 34 -19.5 51.5t-50.5 17.5t-50.5 -17.5t-19.5 -51.5v-495z" />
    <glyph glyph-name="one" unicode="1" horiz-adv-x="237" 
d="M53 718q25 0 35.5 17.5t10.5 47.5h92v-783h-92v641h-84v77h38z" />
    <glyph glyph-name="two" unicode="2" horiz-adv-x="363" 
d="M185 797q70 0 112.5 -41t42.5 -132q0 -42 -9.5 -71.5t-26.5 -60.5q-13 -22 -31 -48.5t-37.5 -54.5t-38 -55t-33.5 -51q-11 -18 -18 -32.5t-11 -28.5t-5.5 -30t-1.5 -38v-65h212v-89h-304v154q0 38 8.5 75.5t31.5 78.5q13 22 32 49.5t39 55.5t39.5 55t32.5 50
q17 30 23.5 56t6.5 53q0 45 -17 63t-49 18q-33 0 -51 -17t-18 -51v-24h-85v26q0 72 40.5 113.5t115.5 41.5z" />
    <glyph glyph-name="three" unicode="3" horiz-adv-x="385" 
d="M185 797q39 0 68.5 -13t49.5 -35.5t30 -53.5t10 -67v-109q0 -48 -14 -74.5t-43 -38.5q32 -12 49 -40t17 -80v-146q0 -36 -12.5 -64.5t-34.5 -48.5t-51.5 -30.5t-63.5 -10.5t-63 10.5t-50 31t-32.5 49t-11.5 64.5v40l85 -22v-16q0 -34 19.5 -51t51.5 -17q33 0 52.5 17
t19.5 51v144q0 42 -16 59.5t-56 17.5h-55v79h49q38 0 54 16t16 57v113q0 37 -16 58t-53 21q-34 0 -50 -18.5t-16 -53.5v-20h-85v26q0 72 41 113.5t111 41.5z" />
    <glyph glyph-name="four" unicode="4" horiz-adv-x="390" 
d="M316 783v-439h52v-90h-52v-254h-85v254h-209v84l97 294h81l-95 -288h126v439h85z" />
    <glyph glyph-name="five" unicode="5" horiz-adv-x="380" 
d="M336 783v-89h-203l-13 -132q20 14 45.5 24t57.5 10q24 0 45 -6.5t37.5 -22.5t26 -43t9.5 -68v-315q0 -36 -12 -64.5t-33 -49t-49 -31t-60 -10.5q-33 0 -61.5 10.5t-49.5 31t-33.5 49t-12.5 64.5v40l85 -22v-16q0 -33 19 -50.5t48 -17.5q30 0 49 17.5t19 50.5v314
q0 33 -14.5 46.5t-40.5 13.5q-31 0 -52.5 -15t-35.5 -36l-74 25l22 292h281z" />
    <glyph glyph-name="six" unicode="6" horiz-adv-x="393" 
d="M132 507q20 17 44.5 27.5t53.5 10.5q51 0 86.5 -35t35.5 -107v-262q0 -36 -12.5 -64.5t-33.5 -49t-49.5 -31t-61.5 -10.5q-32 0 -60 10.5t-49 31t-33 49t-12 64.5v501q0 36 12 64.5t33 49t50 31t64 10.5q70 0 111 -41.5t41 -113.5v-26h-85v24q0 34 -17.5 51t-48.5 17
q-32 0 -50.5 -17t-18.5 -51v-133zM206 461q-23 0 -41 -10t-33 -28v-280q0 -34 18.5 -51t48.5 -17t49 17t19 51v242q0 35 -13.5 55.5t-47.5 20.5z" />
    <glyph glyph-name="seven" unicode="7" horiz-adv-x="327" 
d="M305 783v-79l-151 -704h-96l161 694h-197v89h283z" />
    <glyph glyph-name="eight" unicode="8" horiz-adv-x="388" 
d="M37 628q0 36 10 67t29.5 53.5t48.5 35.5t67 13t66.5 -13t48 -35.5t29.5 -53.5t10 -67v-95q0 -52 -16 -82t-47 -44q34 -13 53 -43t19 -85v-139q0 -36 -12.5 -64.5t-34 -48.5t-51.5 -30.5t-65 -10.5q-36 0 -66 10.5t-51.5 30.5t-34 48.5t-12.5 64.5v139q0 55 18.5 85
t53.5 43q-32 14 -47.5 44.5t-15.5 81.5v95zM113 150q0 -39 22.5 -58.5t56.5 -19.5t56.5 19.5t22.5 58.5v139q0 42 -20 59.5t-59 17.5q-40 0 -59.5 -17.5t-19.5 -59.5v-139zM121 513q0 -40 16.5 -56t54.5 -16q37 0 53.5 16t16.5 56v119q0 37 -17.5 58t-52.5 21
q-36 0 -53.5 -21t-17.5 -58v-119z" />
    <glyph glyph-name="nine" unicode="9" horiz-adv-x="393" 
d="M192 75q32 0 50.5 17t18.5 51v159q-20 -18 -44.5 -28t-53.5 -10q-51 0 -86.5 35t-35.5 107v236q0 36 12.5 64.5t33.5 49t49.5 31t61.5 10.5q32 0 60 -10.5t49 -31t33 -49t12 -64.5v-501q0 -36 -12 -64.5t-33 -49t-50 -31t-64 -10.5q-70 0 -111 41.5t-41 113.5v40l85 -22
v-16q0 -34 17.5 -51t48.5 -17zM126 424q0 -35 13.5 -55.5t47.5 -20.5q23 0 40.5 9.5t33.5 28.5v254q0 34 -18.5 51t-48.5 17t-49 -17t-19 -51v-216z" />
    <glyph glyph-name="colon" unicode=":" horiz-adv-x="206" 
d="M51 47zM102 441q27 0 40 -16t13 -39t-13 -39t-40 -16q-26 0 -38.5 16t-12.5 39t12.5 39t38.5 16zM102 157q27 0 40 -16t13 -39t-13 -39t-40 -16q-26 0 -38.5 16t-12.5 39t12.5 39t38.5 16z" />
    <glyph glyph-name="semicolon" unicode=";" horiz-adv-x="206" 
d="M42 0zM74 -99h-32l9 201q1 24 13 39.5t38 15.5q27 0 40 -16t13 -38q0 -18 -11 -41zM102 441q27 0 40 -16t13 -39t-13 -39t-40 -16q-26 0 -38.5 16t-12.5 39t12.5 39t38.5 16z" />
    <glyph glyph-name="less" unicode="&#x3c;" horiz-adv-x="531" 
d="M485 576v-76l-353 -121l353 -121v-76l-439 161v72z" />
    <glyph glyph-name="equal" unicode="=" horiz-adv-x="531" 
d="M485 515v-73h-439v73h439zM485 316v-73h-439v73h439z" />
    <glyph glyph-name="greater" unicode="&#x3e;" horiz-adv-x="531" 
d="M46 182v76l353 121l-353 121v76l439 -161v-72z" />
    <glyph glyph-name="question" unicode="?" horiz-adv-x="357" 
d="M185 803q64 0 105 -38t41 -118q0 -23 -4 -44t-12.5 -43.5t-22 -47.5t-31.5 -56q-26 -44 -41.5 -73.5t-24 -55t-11.5 -52.5t-4 -66h-52q-6 40 -6 71q0 27 4 50t12.5 46t21.5 49t31 58q13 24 23 43t16.5 37t10 35.5t3.5 37.5q0 43 -16.5 61t-48.5 18t-52 -16.5t-20 -48.5
v-34h-81v39q0 34 12 61.5t33.5 47t50.5 29.5t63 10zM155 107q26 0 39 -16t13 -39t-13 -39t-39 -16t-39 16t-13 39t13 39t39 16z" />
    <glyph glyph-name="at" unicode="@" horiz-adv-x="686" 
d="M457 479v-349q0 -19 7.5 -29t29.5 -10q55 0 81 61.5t26 171.5q0 166 -58.5 246t-171.5 80q-70 0 -123 -28t-89 -79t-54.5 -122t-18.5 -157t17 -151t44.5 -113t62.5 -81t71 -54l-27 -54q-42 24 -82 61t-71.5 91t-50.5 128t-19 173q0 97 20.5 178.5t63 140t107 91.5
t152.5 33q74 0 127 -24t87 -71t50 -115.5t16 -158.5q0 -141 -39 -221.5t-120 -80.5q-60 0 -82 42q-17 -19 -38 -30.5t-46 -11.5q-35 0 -59 24.5t-24 75.5v230q0 51 24.5 75.5t57.5 24.5q21 0 41 -9t35 -24v30zM301 142q0 -23 8 -37t32 -14q20 0 35 9.5t28 26.5v247
q-14 17 -30.5 27t-34.5 10q-22 0 -30 -14t-8 -37v-218z" />
    <glyph glyph-name="A" unicode="A" 
d="M241 783l136 -783h-89l-18 113h-146l-17 -113h-89l132 783h91zM136 190h122l-62 392z" />
    <glyph glyph-name="B" unicode="B" horiz-adv-x="402" 
d="M205 783q72 0 113.5 -41t41.5 -114v-109q0 -48 -14 -74.5t-43 -38.5q32 -12 49 -40t17 -80v-125q0 -78 -42 -119.5t-114 -41.5h-167v783h159zM136 87h70q72 0 72 80v120q0 42 -16 59.5t-56 17.5h-70v-277zM136 443h64q38 0 54 16t16 57v101q0 37 -17 58t-55 21h-62v-253z
" />
    <glyph glyph-name="C" unicode="C" horiz-adv-x="379" 
d="M132 143q0 -34 18.5 -51t48.5 -17t49 17t19 51v16l85 22v-40q0 -36 -12.5 -64.5t-33.5 -49t-49.5 -31t-61.5 -10.5q-32 0 -60 10.5t-49 31t-33 49t-12 64.5v501q0 36 12 64.5t33 49t50 31t64 10.5q70 0 111 -41.5t41 -113.5v-26h-85v24q0 34 -17.5 51t-48.5 17
q-32 0 -50.5 -17t-18.5 -51v-497z" />
    <glyph glyph-name="D" unicode="D" horiz-adv-x="405" 
d="M208 783q72 0 114 -44t42 -136v-423q0 -92 -42 -136t-114 -44h-162v783h162zM138 89h63q72 0 72 85v435q0 85 -72 85h-63v-605z" />
    <glyph glyph-name="E" unicode="E" horiz-adv-x="334" 
d="M305 783v-89h-167v-246h118v-89h-118v-270h167v-89h-259v783h259z" />
    <glyph glyph-name="F" unicode="F" horiz-adv-x="336" 
d="M316 783v-89h-178v-272h131v-89h-131v-333h-92v783h270z" />
    <glyph glyph-name="G" unicode="G" horiz-adv-x="393" 
d="M130 143q0 -34 18.5 -51t48.5 -17t51 17t21 51v208h-78v83h158v-434h-57l-4 34q-19 -21 -46 -34.5t-62 -13.5q-60 0 -99.5 41.5t-39.5 113.5v501q0 36 11.5 64.5t32.5 49t50 31t64 10.5q69 0 111 -41.5t42 -113.5v-26h-85v24q0 34 -18.5 51t-48.5 17q-32 0 -51 -17
t-19 -51v-497z" />
    <glyph glyph-name="H" unicode="H" horiz-adv-x="415" 
d="M138 783v-341h139v341h92v-783h-92v354h-139v-354h-92v783h92z" />
    <glyph glyph-name="I" unicode="I" horiz-adv-x="184" 
d="M138 783v-783h-92v783h92z" />
    <glyph glyph-name="J" unicode="J" horiz-adv-x="375" 
d="M331 783v-642q0 -36 -11.5 -64.5t-32.5 -49t-49.5 -31t-62.5 -10.5t-62.5 10.5t-49 31t-32 49t-11.5 64.5v40l85 -22v-16q0 -34 18.5 -51t48.5 -17q31 0 49.5 17t18.5 51v640h91z" />
    <glyph glyph-name="K" unicode="K" horiz-adv-x="387" 
d="M362 783l-146 -320l158 -463h-96l-140 423v-423h-92v783h92v-291l130 291h94z" />
    <glyph glyph-name="L" unicode="L" horiz-adv-x="305" 
d="M138 783v-694h147v-89h-239v783h92z" />
    <glyph glyph-name="M" unicode="M" horiz-adv-x="535" 
d="M146 783l122 -621l129 621h92v-783h-82v505l-96 -505h-85l-98 512v-512h-82v783h100z" />
    <glyph glyph-name="N" unicode="N" horiz-adv-x="405" 
d="M146 783l133 -540v540h80v-783h-82l-151 576v-576h-80v783h100z" />
    <glyph glyph-name="O" unicode="O" horiz-adv-x="404" 
d="M363 143q0 -37 -12.5 -66t-34.5 -49.5t-51.5 -31t-62.5 -10.5q-34 0 -63.5 10.5t-51 31t-34 49.5t-12.5 66v497q0 37 12.5 66t34 49t51 31t63.5 11q33 0 62.5 -11t51.5 -31t34.5 -49t12.5 -66v-497zM132 144q0 -34 19.5 -51.5t50.5 -17.5t50.5 17.5t19.5 51.5v495
q0 34 -19.5 51.5t-50.5 17.5t-50.5 -17.5t-19.5 -51.5v-495z" />
    <glyph glyph-name="P" unicode="P" 
d="M208 783q72 0 114 -44t42 -136v-114q0 -92 -42 -136t-114 -44h-70v-309h-92v783h162zM138 398h63q72 0 72 85v126q0 85 -72 85h-63v-296z" />
    <glyph glyph-name="Q" unicode="Q" horiz-adv-x="404" 
d="M363 151q0 -60 -33 -101l68 -90l-65 -49l-70 93q-14 -5 -29.5 -7.5t-31.5 -2.5q-34 0 -63.5 10.5t-51 31t-34 49.5t-12.5 66v489q0 37 12.5 66t34 49t51 31t63.5 11q33 0 62.5 -11t51.5 -31t34.5 -49t12.5 -66v-489zM132 146q0 -34 19.5 -51.5t50.5 -17.5t50.5 17.5
t19.5 51.5v493q0 34 -19.5 51.5t-50.5 17.5t-50.5 -17.5t-19.5 -51.5v-493z" />
    <glyph glyph-name="R" unicode="R" horiz-adv-x="404" 
d="M205 783q72 0 113.5 -41t41.5 -114v-109q0 -47 -14 -73t-41 -38q29 -12 45 -39t16 -75v-294h-91v297q0 37 -14.5 52.5t-56.5 15.5h-68v-365h-90v783h159zM136 444h62q41 0 56.5 16.5t15.5 54.5v102q0 79 -72 79h-62v-252z" />
    <glyph glyph-name="S" unicode="S" horiz-adv-x="376" 
d="M191 797q71 0 111 -42t40 -111v-28h-85v21q0 34 -18 54t-50 20q-37 0 -54.5 -24.5t-17.5 -59.5q0 -29 10.5 -54.5t30.5 -53.5q13 -19 32.5 -44t40 -52.5t39.5 -54t33 -48.5q23 -37 33.5 -70t10.5 -76q0 -87 -38 -137.5t-119 -50.5q-39 0 -69.5 12t-51.5 32.5t-32.5 48.5
t-11.5 60v42l85 -22v-19q0 -28 19.5 -49t54.5 -21q38 0 56.5 24t18.5 68q0 27 -8.5 55t-30.5 62q-11 17 -27.5 38t-34.5 44t-35.5 46.5t-31.5 45.5q-34 54 -46.5 95.5t-12.5 79.5q0 78 43.5 123.5t115.5 45.5z" />
    <glyph glyph-name="T" unicode="T" horiz-adv-x="308" 
d="M288 783v-89h-88v-694h-92v694h-88v89h268z" />
    <glyph glyph-name="U" unicode="U" horiz-adv-x="410" 
d="M136 783v-639q0 -34 19.5 -51.5t49.5 -17.5q32 0 51.5 17.5t19.5 51.5v639h90v-640q0 -37 -12.5 -66t-34.5 -49.5t-51.5 -31t-63.5 -10.5t-63 10.5t-50.5 31t-34 49.5t-12.5 66v640h92z" />
    <glyph glyph-name="V" unicode="V" 
d="M108 783l89 -582l91 582h89l-135 -783h-91l-133 783h90z" />
    <glyph glyph-name="W" unicode="W" horiz-adv-x="577" 
d="M110 783l48 -551l85 551h88l79 -554l56 554h89l-89 -783h-92l-87 590l-95 -590h-89l-81 783h88z" />
    <glyph glyph-name="X" unicode="X" horiz-adv-x="408" 
d="M383 783l-134 -376l146 -407h-97l-100 286l-98 -286h-87l139 416l-128 367h93l87 -248l90 248h89z" />
    <glyph glyph-name="Y" unicode="Y" horiz-adv-x="412" 
d="M106 783l101 -304l103 304h89l-147 -417v-366h-92v366l-147 417h93z" />
    <glyph glyph-name="Z" unicode="Z" horiz-adv-x="360" 
d="M332 783v-71l-210 -623h210v-89h-304v85l209 609h-205v89h300z" />
    <glyph glyph-name="bracketleft" unicode="[" horiz-adv-x="287" 
d="M273 959v-73h-113v-1023h113v-73h-186v1169h186z" />
    <glyph glyph-name="backslash" unicode="\" horiz-adv-x="346" 
d="M80 869l267 -989h-74l-267 989h74z" />
    <glyph glyph-name="bracketright" unicode="]" horiz-adv-x="287" 
d="M14 -210v73h113v1023h-113v73h186v-1169h-186z" />
    <glyph glyph-name="asciicircum" unicode="^" horiz-adv-x="453" 
d="M262 783l161 -439h-76l-121 353l-121 -353h-76l161 439h72z" />
    <glyph glyph-name="underscore" unicode="_" horiz-adv-x="425" 
d="M428 -66v-59h-428v59h428z" />
    <glyph glyph-name="grave" unicode="`" horiz-adv-x="271" 
d="M172 817l88 -158h-79l-106 158h97z" />
    <glyph glyph-name="a" unicode="a" horiz-adv-x="384" 
d="M53 551q22 32 60 50t82 18q73 0 109 -46.5t36 -119.5v-453h-56l-16 34q-23 -19 -51.5 -30.5t-60.5 -11.5q-25 0 -48.5 8.5t-41.5 27t-28.5 48.5t-10.5 74q0 34 7 62t22.5 53t39.5 49t57 49q22 16 48 33.5t55 35.5v19q0 38 -18 62t-55 24q-26 0 -47 -12.5t-34 -34.5z
M182 76q21 0 39 9t35 26v235q-18 -11 -32 -20.5t-27 -19.5q-47 -37 -64 -71t-17 -72q0 -47 18 -67t48 -20z" />
    <glyph glyph-name="b" unicode="b" 
d="M135 815v-231q21 17 46.5 26t51.5 9q25 0 48 -9t40 -27.5t27.5 -46.5t10.5 -65v-331q0 -38 -10.5 -65.5t-27.5 -46t-40 -27.5t-48 -9q-31 0 -59.5 12t-51.5 34l-15 -38h-61v793zM208 531q-40 0 -73 -35v-381q33 -35 73 -35q32 0 47 20.5t15 58.5v293q0 38 -15 58.5
t-47 20.5z" />
    <glyph glyph-name="c" unicode="c" horiz-adv-x="370" 
d="M127 145q0 -32 18 -48.5t46 -16.5q29 0 47 16.5t18 48.5v37l81 21v-63q0 -35 -11.5 -62t-32 -46.5t-47.5 -29.5t-58 -10t-57.5 10t-46.5 29.5t-31.5 46.5t-11.5 62v331q0 34 11.5 61.5t31.5 47t46.5 29.5t57.5 10t58 -10t47.5 -29.5t32 -47t11.5 -61.5v-26h-81v21
q0 32 -18 48.5t-47 16.5q-28 0 -46 -16.5t-18 -48.5v-321z" />
    <glyph glyph-name="d" unicode="d" horiz-adv-x="400" 
d="M354 815v-815h-61l-15 38q-23 -22 -52 -34t-59 -12q-25 0 -48 9t-40 27.5t-27.5 46t-10.5 65.5v331q0 37 10.5 65t27.5 46.5t40 27.5t48 9q26 0 51 -9t47 -26v209zM130 159q0 -38 14.5 -58.5t47.5 -20.5q40 0 73 35v381q-33 35 -73 35q-33 0 -47.5 -20.5t-14.5 -58.5
v-293z" />
    <glyph glyph-name="e" unicode="e" horiz-adv-x="375" 
d="M241 274q-21 -18 -49.5 -38.5t-64.5 -43.5v-49q0 -32 18 -48.5t46 -16.5q29 0 47 16.5t18 48.5v39l81 21v-63q0 -35 -11.5 -62t-32 -46.5t-47.5 -29.5t-58 -10t-57.5 10t-46.5 29.5t-31.5 46.5t-11.5 62v331q0 34 11.5 61.5t31.5 47t47 29.5t58 10q27 0 54 -8t48 -27
t34.5 -49.5t13.5 -76.5q0 -57 -23.5 -99.5t-74.5 -84.5zM127 278q45 29 69 52q31 29 44 57t13 65q0 48 -19.5 66.5t-45.5 18.5q-29 0 -45 -18.5t-16 -51.5v-189z" />
    <glyph glyph-name="f" unicode="f" horiz-adv-x="309" 
d="M80 611v54q0 69 34.5 113.5t104.5 44.5q46 0 84 -20l-24 -78q-24 16 -50 16q-32 0 -48 -21t-16 -56v-53h101v-75h-101v-536h-85v536h-68v75h68z" />
    <glyph glyph-name="g" unicode="g" horiz-adv-x="392" 
d="M42 471q0 34 12 61.5t32.5 47t48 29.5t59.5 10q46 0 81 -21l111 6l-50 -77q10 -28 10 -56v-162q0 -35 -12 -62t-32.5 -46.5t-48.5 -29.5t-59 -10q-19 0 -35 3q-24 -20 -24 -48q0 -19 12 -30.5t39 -11.5h175l-35 -76h-171q-33 0 -47 -13.5t-14 -33.5t12.5 -33.5
t37.5 -13.5h140l-35 -75h-122q-31 0 -54 9.5t-38.5 26t-23.5 38t-8 44.5q0 36 18 65.5t56 44.5q-14 20 -14 50q0 26 12 44.5t32 32.5q-30 18 -47.5 50t-17.5 75v162zM126 310q0 -33 19 -50t49 -17q29 0 48.5 17t19.5 50v160q0 34 -19.5 50.5t-48.5 16.5q-30 0 -49 -16.5
t-19 -50.5v-160z" />
    <glyph glyph-name="h" unicode="h" horiz-adv-x="403" 
d="M135 815v-228q43 32 96 32q26 0 49.5 -9t41 -27.5t27.5 -46.5t10 -65v-471h-89v452q0 38 -15 58.5t-49 20.5q-37 0 -71 -32v-499h-89v793z" />
    <glyph glyph-name="i" unicode="i" horiz-adv-x="181" 
d="M38 0zM135 611v-611h-89v611h89zM89 806q27 0 40 -15.5t13 -38.5t-13 -39.5t-40 -16.5q-26 0 -38.5 16.5t-12.5 39.5t12.5 38.5t38.5 15.5z" />
    <glyph glyph-name="j" unicode="j" horiz-adv-x="194" 
d="M0 0zM148 611v-637q0 -32 -8 -60.5t-24.5 -50t-42.5 -34t-62 -12.5q-23 0 -44 6t-38 18l24 77q23 -17 45 -17q29 0 46.5 19.5t17.5 53.5v637h86zM105 806q27 0 40 -15.5t13 -38.5t-13 -39.5t-40 -16.5q-26 0 -38.5 16.5t-12.5 39.5t12.5 38.5t38.5 15.5z" />
    <glyph glyph-name="k" unicode="k" horiz-adv-x="375" 
d="M350 611l-140 -250l152 -361h-92l-135 329v-329h-89v793l89 22v-431l124 227h91z" />
    <glyph glyph-name="l" unicode="l" horiz-adv-x="181" 
d="M135 815v-815h-89v793z" />
    <glyph glyph-name="m" unicode="m" horiz-adv-x="611" 
d="M107 611l14 -34q47 42 105 42q31 0 57 -13.5t43 -39.5q23 26 53.5 39.5t62.5 13.5q25 0 48 -9t40 -27.5t27 -46.5t10 -65v-471h-89v452q0 38 -14 58.5t-47 20.5q-36 0 -68 -32q1 -7 1.5 -13.5t0.5 -14.5v-471h-89v452q0 38 -14 58.5t-47 20.5q-36 0 -66 -30v-501h-89v611
h61z" />
    <glyph glyph-name="n" unicode="n" horiz-adv-x="403" 
d="M107 611l14 -35q23 21 52 32t58 11q26 0 49.5 -9t41 -27.5t27.5 -46.5t10 -65v-471h-89v452q0 38 -15 58.5t-49 20.5q-37 0 -71 -32v-499h-89v611h61z" />
    <glyph glyph-name="o" unicode="o" horiz-adv-x="386" 
d="M345 140q0 -35 -12 -62t-32.5 -46.5t-48.5 -29.5t-59 -10q-32 0 -59.5 10t-48 29.5t-32.5 46.5t-12 62v331q0 34 12 61.5t32.5 47t48 29.5t59.5 10q31 0 59 -10t48.5 -29.5t32.5 -47t12 -61.5v-331zM127 145q0 -32 18.5 -48.5t47.5 -16.5t47 16.5t18 48.5v321
q0 32 -18 48.5t-47 16.5t-47.5 -16.5t-18.5 -48.5v-321z" />
    <glyph glyph-name="p" unicode="p" horiz-adv-x="400" 
d="M107 611l15 -38q23 22 51.5 34t59.5 12q25 0 48 -9t40 -27.5t27.5 -46.5t10.5 -65v-331q0 -38 -10.5 -65.5t-27.5 -46t-40 -27.5t-48 -9q-55 0 -98 35v-198h-89v782h61zM208 531q-40 0 -73 -35v-381q33 -35 73 -35q32 0 47 20.5t15 58.5v293q0 38 -15 58.5t-47 20.5z" />
    <glyph glyph-name="q" unicode="q" horiz-adv-x="400" 
d="M354 611v-782h-89v198q-44 -35 -98 -35q-25 0 -48 9t-40 27.5t-27.5 46t-10.5 65.5v331q0 37 10.5 65t27.5 46.5t40 27.5t48 9q30 0 59 -12t52 -34l15 38h61zM130 159q0 -38 14.5 -58.5t47.5 -20.5q40 0 73 35v381q-33 35 -73 35q-33 0 -47.5 -20.5t-14.5 -58.5v-293z
" />
    <glyph glyph-name="r" unicode="r" horiz-adv-x="312" 
d="M276 514q-28 17 -56 17q-50 0 -85 -52v-479h-89v611h61l17 -51q39 59 103 59q20 0 39 -6t35 -20z" />
    <glyph glyph-name="s" unicode="s" horiz-adv-x="365" 
d="M187 619q38 0 66 -10.5t46 -28.5t26.5 -42.5t8.5 -52.5v-40h-81v28q0 62 -67 62q-35 0 -51.5 -16t-16.5 -43q0 -16 7 -33t30 -41q14 -15 32.5 -32t38 -34.5t37.5 -35.5t31 -34q25 -31 34 -62t9 -61q0 -67 -37 -109t-117 -42q-73 0 -114.5 37.5t-41.5 104.5v69l81 -21v-41
q0 -29 18.5 -46.5t56.5 -17.5q71 0 71 69q0 21 -7.5 37.5t-27.5 39.5q-17 19 -36 37t-37.5 35t-35.5 33t-30 31q-27 32 -37.5 62.5t-10.5 59.5q0 67 42 102.5t113 35.5z" />
    <glyph glyph-name="t" unicode="t" horiz-adv-x="308" 
d="M78 611v107l86 36v-143h102v-75h-102v-386q0 -35 18 -54.5t47 -19.5q23 0 45 16l24 -76q-17 -12 -38.5 -18t-44.5 -6q-36 0 -62 12.5t-42.5 34t-24.5 50.5t-8 61v386h-66v75h66z" />
    <glyph glyph-name="u" unicode="u" horiz-adv-x="399" 
d="M353 611v-611h-61l-15 34q-45 -42 -106 -42q-26 0 -49 9t-40.5 27.5t-27.5 46t-10 65.5v471h89v-452q0 -79 63 -79q36 0 68 31v500h89z" />
    <glyph glyph-name="v" unicode="v" horiz-adv-x="378" 
d="M105 611l83 -454l87 454h85l-129 -611h-87l-125 611h86z" />
    <glyph glyph-name="w" unicode="w" horiz-adv-x="542" 
d="M105 611l44 -431l80 431h82l74 -432l51 432h84l-83 -611h-87l-81 461l-88 -461h-84l-75 611h83z" />
    <glyph glyph-name="x" unicode="x" horiz-adv-x="417" 
d="M392 611l-137 -293l149 -318h-99l-103 223l-100 -223h-89l143 324l-132 287h95l89 -193l92 193h92z" />
    <glyph glyph-name="y" unicode="y" horiz-adv-x="399" 
d="M353 611v-782h-89v204q-41 -31 -93 -31q-26 0 -49 9t-40.5 27.5t-27.5 46t-10 65.5v461h89v-442q0 -79 63 -79q36 0 68 31v490h89z" />
    <glyph glyph-name="z" unicode="z" horiz-adv-x="348" 
d="M321 611v-62l-200 -474h200v-75h-294v73l200 463h-196v75h290z" />
    <glyph glyph-name="braceleft" unicode="{" horiz-adv-x="287" 
d="M273 886q-24 0 -39.5 -3t-24.5 -12t-12.5 -25t-3.5 -41v-345q0 -18 -5.5 -32.5t-14.5 -25.5t-20 -18t-21 -8q10 -2 21 -9.5t20 -20t14.5 -28t5.5 -33.5v-341q0 -26 3.5 -41.5t12.5 -24.5t24.5 -12t39.5 -3v-73q-41 0 -70 7t-47.5 24.5t-27 47.5t-8.5 75v334
q0 29 -12 44.5t-40 15.5h-36v72h36q28 0 40 14t12 43v338q0 45 8.5 75t27 47.5t47.5 24.5t70 7v-73z" />
    <glyph glyph-name="bar" unicode="|" horiz-adv-x="247" 
d="M160 909v-1069h-73v1069h73z" />
    <glyph glyph-name="braceright" unicode="}" horiz-adv-x="287" 
d="M14 -137q24 0 39.5 3t24.5 12t12.5 25t3.5 41v345q0 18 5.5 32.5t14.5 25.5t20 17.5t21 8.5q-10 1 -21 9t-20 20.5t-14.5 28t-5.5 33.5v341q0 25 -3.5 41t-12.5 25t-24.5 12t-39.5 3v73q41 0 70 -7t47.5 -24.5t27 -47.5t8.5 -75v-334q0 -29 12 -44.5t40 -15.5h36v-72h-36
q-28 0 -40 -14t-12 -43v-338q0 -45 -8.5 -75t-27 -47.5t-47.5 -24.5t-70 -7v73z" />
    <glyph glyph-name="asciitilde" unicode="~" horiz-adv-x="531" 
d="M46 377q18 26 45.5 43t75.5 17q30 0 56 -7t51 -16q23 -9 45.5 -15.5t45.5 -6.5q41 0 69 19.5t51 54.5v-86q-20 -27 -47 -44t-74 -17q-30 0 -55.5 7t-51.5 17q-24 9 -45 15t-46 6q-41 0 -69 -18.5t-51 -54.5v86z" />
    <glyph glyph-name="nonbreakingspace" unicode="&#xa0;" horiz-adv-x="186" 
 />
    <glyph glyph-name="exclamdown" unicode="&#xa1;" horiz-adv-x="183" 
d="M32 -136l28 588h50l29 -588h-107zM86 554q-27 0 -40 16t-13 39t13 39t40 16q26 0 38.5 -16t12.5 -39t-12.5 -39t-38.5 -16z" />
    <glyph glyph-name="cent" unicode="&#xa2;" horiz-adv-x="393" 
d="M134 230q0 -32 18 -48.5t46 -16.5q29 0 47 16.5t18 48.5v37l81 21v-63q0 -64 -37 -102.5t-93 -44.5v-98h-36v98q-56 5 -93 43.5t-37 103.5v331q0 64 37 102.5t93 44.5v100h36v-100q56 -6 93 -44.5t37 -102.5v-26h-81v21q0 32 -18 48.5t-47 16.5q-28 0 -46 -16.5
t-18 -48.5v-321z" />
    <glyph glyph-name="sterling" unicode="&#xa3;" horiz-adv-x="437" 
d="M85 471v171q0 36 12 64.5t33 49t50 31t64 10.5q70 0 111 -41.5t41 -113.5v-26h-85v24q0 34 -17.5 51t-48.5 17q-32 0 -50.5 -17t-18.5 -51v-169h186v-73h-186v-309h210v-89h-346v89h45v309h-54v73h54z" />
    <glyph glyph-name="currency" unicode="&#xa4;" horiz-adv-x="699" 
d="M192 587q62 60 157 60t157 -59l114 114l52 -52l-123 -123q19 -43 19 -93v-109q0 -51 -20 -93l124 -124l-52 -51l-115 114q-62 -57 -156 -57q-46 0 -86 15t-69 43l-115 -115l-52 52l124 124q-9 20 -14 43t-5 49v109q0 51 18 92l-123 124l52 51zM198 336q0 -34 11.5 -61.5
t32 -46.5t48 -29t59.5 -10t60 10t48.5 29t32.5 46.5t12 61.5v87q0 34 -12 62t-32.5 47t-48.5 29.5t-60 10.5t-59.5 -10.5t-48 -29.5t-32 -47t-11.5 -62v-87z" />
    <glyph glyph-name="yen" unicode="&#xa5;" horiz-adv-x="494" 
d="M200 186v81h-173v59h173v40l-147 417h93l101 -304l103 304h89l-147 -417v-40h174v-59h-174v-81h174v-59h-174v-127h-92v127h-173v59h173z" />
    <glyph glyph-name="brokenbar" unicode="&#xa6;" horiz-adv-x="247" 
d="M160 909v-469h-73v469h73zM160 309v-469h-73v469h73z" />
    <glyph glyph-name="section" unicode="&#xa7;" horiz-adv-x="388" 
d="M213 797q62 0 96.5 -36.5t34.5 -96.5v-25h-74v19q0 29 -15 46.5t-44 17.5q-32 0 -47 -21.5t-15 -51.5q0 -25 9 -47.5t26 -46.5q12 -17 28.5 -39t34.5 -45.5t34.5 -46.5t28.5 -42q20 -32 29.5 -61t9.5 -67q0 -58 -19.5 -97.5t-61.5 -55.5q30 -47 41 -79t11 -69
q0 -75 -33.5 -119t-103.5 -44q-33 0 -59.5 10.5t-45 28.5t-28.5 42t-10 52v37l74 -20v-16q0 -24 16.5 -42.5t47.5 -18.5q32 0 48.5 21t16.5 59q0 23 -7 48t-27 54q-10 15 -24 33t-29.5 38t-31 40.5t-27.5 39.5q-30 47 -40.5 83.5t-10.5 69.5q0 53 23 88.5t64 49.5
q-25 37 -41.5 77t-16.5 86q0 68 37.5 107.5t100.5 39.5zM155 254q12 -18 29.5 -41t36.5 -48q51 9 51 79q0 23 -7 48t-27 54q-13 19 -27.5 37t-28.5 38q-30 -2 -46 -23t-16 -50q0 -25 9 -47.5t26 -46.5z" />
    <glyph glyph-name="dieresis" unicode="&#xa8;" horiz-adv-x="327" 
d="M246 806q27 0 40 -15.5t13 -38.5t-13 -39.5t-40 -16.5q-26 0 -38.5 16.5t-12.5 39.5t12.5 38.5t38.5 15.5zM79 806q27 0 40 -15.5t13 -38.5t-13 -39.5t-40 -16.5q-26 0 -38.5 16.5t-12.5 39.5t12.5 38.5t38.5 15.5z" />
    <glyph glyph-name="copyright" unicode="&#xa9;" horiz-adv-x="751" 
d="M44 473q0 75 25.5 135t70 102t105 64.5t129.5 22.5t130 -22.5t106 -64.5t71 -102t26 -135v-166q0 -74 -26 -133.5t-71 -101t-106 -64t-130 -22.5t-129.5 22.5t-105 64t-70 101t-25.5 133.5v166zM83 307q0 -65 22.5 -117t62 -89t92.5 -56.5t114 -19.5t114 19.5t93 56.5
t63 89t23 117v166q0 66 -23 118.5t-63 89.5t-93 56.5t-114 19.5t-114 -19.5t-92.5 -56.5t-62 -89.5t-22.5 -118.5v-166zM328 233q0 -22 12 -33.5t32 -11.5t32.5 11.5t12.5 33.5v11l56 14v-26q0 -48 -30 -75t-73 -27t-72.5 27t-29.5 75v331q0 48 29.5 75t75.5 27t73 -27
t27 -75v-17h-56v15q0 45 -43 45q-21 0 -33.5 -11t-12.5 -34v-328z" />
    <glyph glyph-name="ordfeminine" unicode="&#xaa;" horiz-adv-x="305" 
d="M59 753q14 21 38 32.5t53 11.5q48 0 70 -29.5t22 -76.5v-291h-42l-8 18q-30 -24 -68 -24q-32 0 -57 23t-25 79q0 40 16 71t53 61q17 13 35.5 25.5t36.5 23.5v12q0 24 -8.5 36.5t-31.5 12.5q-16 0 -27 -6t-21 -20zM144 454q20 0 39 16v144q-19 -12 -35 -26
q-26 -20 -34.5 -39t-8.5 -43q0 -29 10 -40.5t29 -11.5z" />
    <glyph glyph-name="guillemotleft" unicode="&#xab;" horiz-adv-x="373" 
d="M18 0zM354 611l-105 -306l105 -305h-79l-104 305l104 306h79zM201 611l-105 -306l105 -305h-79l-104 305l104 306h79z" />
    <glyph glyph-name="logicalnot" unicode="&#xac;" horiz-adv-x="531" 
d="M484 427v-427h-73v354h-365v73h438z" />
    <glyph glyph-name="softhyphen" unicode="&#xad;" horiz-adv-x="306" 
d="M27 343zM278 416v-73h-251v73h251z" />
    <glyph glyph-name="registered" unicode="&#xae;" horiz-adv-x="751" 
d="M44 473q0 75 25.5 135t70 102t105 64.5t129.5 22.5t130 -22.5t106 -64.5t71 -102t26 -135v-166q0 -74 -26 -133.5t-71 -101t-106 -64t-130 -22.5t-129.5 22.5t-105 64t-70 101t-25.5 133.5v166zM83 307q0 -65 22.5 -117t62 -89t92.5 -56.5t114 -19.5t114 19.5t93 56.5
t63 89t23 117v166q0 66 -23 118.5t-63 89.5t-93 56.5t-114 19.5t-114 -19.5t-92.5 -56.5t-62 -89.5t-22.5 -118.5v-166zM376 656q48 0 75.5 -27.5t27.5 -75.5v-71q0 -31 -9.5 -48.5t-26.5 -25.5q19 -8 29.5 -25.5t10.5 -49.5v-194h-61v196q0 24 -9.5 34.5t-36.5 10.5h-45
v-241h-60v517h105zM331 432h41q26 0 36.5 10.5t10.5 36.5v67q0 52 -47 52h-41v-166z" />
    <glyph glyph-name="macron" unicode="&#xaf;" horiz-adv-x="380" 
d="M352 779v-67h-324v67h324z" />
    <glyph glyph-name="degree" unicode="&#xb0;" horiz-adv-x="338" 
d="M52 683q0 54 33.5 84t82.5 30t83 -30t34 -84v-92q0 -53 -34 -83t-83 -30t-82.5 30t-33.5 83v92zM115 592q0 -23 14.5 -37.5t39.5 -14.5q24 0 38.5 14.5t14.5 37.5v91q0 23 -14.5 37.5t-38.5 14.5q-25 0 -39.5 -14.5t-14.5 -37.5v-91z" />
    <glyph glyph-name="plusminus" unicode="&#xb1;" horiz-adv-x="531" 
d="M46 12zM302 599v-183h183v-73h-183v-183h-74v183h-182v73h182v183h74zM485 85v-73h-439v73h439z" />
    <glyph glyph-name="twosuperior" unicode="&#xb2;" horiz-adv-x="257" 
d="M36 352zM36 705q0 40 24.5 62.5t69.5 22.5t70 -22.5t25 -74.5q0 -21 -5 -38t-16 -34q-7 -11 -17.5 -25.5t-22.5 -30l-24 -31t-21 -28.5q-7 -10 -11 -17t-6.5 -14.5t-3 -16.5t-0.5 -21v-34h127v-51h-186v85q0 20 5 40.5t20 43.5q7 12 19 27t25 30.5t24.5 31t19.5 27.5
q9 16 12 29t3 28q0 26 -8 35t-30 9q-20 0 -30 -7.5t-10 -26.5v-13h-53v14z" />
    <glyph glyph-name="threesuperior" unicode="&#xb3;" horiz-adv-x="270" 
d="M39 344zM39 705q0 40 24.5 62.5t66.5 22.5q48 0 72 -25.5t24 -67.5v-60q0 -26 -8.5 -40t-24.5 -21q19 -8 29 -23.5t10 -43.5v-80q0 -40 -28 -62.5t-70 -22.5t-68.5 22.5t-26.5 63.5v22l53 -13v-9q0 -35 42 -35q19 0 30 8.5t11 26.5v80q0 23 -9 32t-33 9h-33v46h30
q23 0 31 8t8 30v63q0 20 -8.5 30t-30.5 10q-38 0 -38 -36v-11h-53v14z" />
    <glyph glyph-name="acute" unicode="&#xb4;" horiz-adv-x="271" 
d="M197 817l-107 -158h-78l88 158h97z" />
    <glyph glyph-name="paragraph" unicode="&#xb6;" horiz-adv-x="460" 
d="M427 783l-14 -66h-34v-837h-65v837h-109v-837h-65v679q-26 1 -47 11t-35 25.5t-21.5 34t-7.5 38.5q0 24 8.5 45t27 36.5t47 24.5t68.5 9h247z" />
    <glyph glyph-name="periodcentered" unicode="&#xb7;" horiz-adv-x="160" 
d="M28 333zM79 443q27 0 40 -16t13 -39t-13 -39t-40 -16q-26 0 -38.5 16t-12.5 39t12.5 39t38.5 16z" />
    <glyph glyph-name="cedilla" unicode="&#xb8;" horiz-adv-x="191" 
d="M151 -20l-44 -190h-70l26 190h88z" />
    <glyph glyph-name="onesuperior" unicode="&#xb9;" horiz-adv-x="195" 
d="M28 352zM48 741q20 0 28 9.5t8 32.5h59v-431h-59v344h-56v45h20z" />
    <glyph glyph-name="ordmasculine" unicode="&#xba;" horiz-adv-x="301" 
d="M246 490q0 -45 -28 -70t-70 -25t-69.5 25t-27.5 70v212q0 45 27.5 70t69.5 25t70 -25t28 -70v-212zM112 496q0 -20 9.5 -30t26.5 -10t27 10t10 30v200q0 19 -10 29t-27 10t-26.5 -10t-9.5 -29v-200z" />
    <glyph glyph-name="guillemotright" unicode="&#xbb;" horiz-adv-x="373" 
d="M18 0zM250 611l104 -306l-104 -305h-79l105 305l-105 306h79zM97 611l104 -306l-104 -305h-79l105 305l-105 306h79z" />
    <glyph glyph-name="onequarter" unicode="&#xbc;" horiz-adv-x="612" 
d="M72 0zM502 783l-361 -783h-66l363 783h64zM92 741q20 0 28 9.5t8 32.5h59v-431h-59v344h-56v45h20zM512 431v-246h35v-52h-35v-133h-54v133h-120v48l54 165h50l-51 -161h67v246h54z" />
    <glyph glyph-name="onehalf" unicode="&#xbd;" horiz-adv-x="612" 
d="M70 0zM500 783l-361 -783h-66l363 783h64zM90 741q20 0 28 9.5t8 32.5h59v-431h-59v344h-56v45h20zM360 353q0 40 24.5 62.5t69.5 22.5t70 -22.5t25 -74.5q0 -21 -5 -38t-16 -34q-7 -11 -17.5 -25.5t-22.5 -30l-24 -31t-21 -28.5q-7 -10 -11 -17t-6.5 -14.5t-3 -16.5
t-0.5 -21v-34h127v-51h-186v85q0 20 5 40.5t20 43.5q7 12 19 27t25 30.5t24.5 31t19.5 27.5q9 16 12 29t3 28q0 26 -8 35t-30 9q-20 0 -30 -7.5t-10 -26.5v-13h-53v14z" />
    <glyph glyph-name="threequarters" unicode="&#xbe;" horiz-adv-x="612" 
d="M46 0zM520 783l-361 -783h-66l363 783h64zM530 431v-246h35v-52h-35v-133h-54v133h-120v48l54 165h50l-51 -161h67v246h54zM46 705q0 40 24.5 62.5t66.5 22.5q48 0 72 -25.5t24 -67.5v-60q0 -26 -8.5 -40t-24.5 -21q19 -8 29 -23.5t10 -43.5v-80q0 -40 -28 -62.5
t-70 -22.5t-68.5 22.5t-26.5 63.5v22l53 -13v-9q0 -35 42 -35q19 0 30 8.5t11 26.5v80q0 23 -9 32t-33 9h-33v46h30q23 0 31 8t8 30v63q0 20 -8.5 30t-30.5 10q-38 0 -38 -36v-11h-53v14z" />
    <glyph glyph-name="questiondown" unicode="&#xbf;" horiz-adv-x="357" 
d="M172 -142q-64 0 -105 38t-41 118q0 23 4 44t12.5 43.5t22 47.5t31.5 56q25 44 41 73.5t24.5 55t11.5 52.5t4 66h52q6 -41 6 -71q0 -27 -4 -50t-12.5 -46t-21.5 -49t-31 -58q-26 -47 -39.5 -80t-13.5 -73q0 -43 16.5 -61t48.5 -18t52 16.5t20 48.5v34h81v-39
q0 -35 -12 -62t-33.5 -46.5t-50.5 -29.5t-63 -10zM202 554q-26 0 -39 16t-13 39t13 39t39 16t39 -16t13 -39t-13 -39t-39 -16z" />
    <glyph glyph-name="Agrave" unicode="&#xc0;" 
d="M18 0zM241 783l136 -783h-89l-18 113h-146l-17 -113h-89l132 783h91zM136 190h122l-62 392zM193 989l88 -158h-79l-106 158h97z" />
    <glyph glyph-name="Aacute" unicode="&#xc1;" 
d="M18 0zM241 783l136 -783h-89l-18 113h-146l-17 -113h-89l132 783h91zM136 190h122l-62 392zM298 989l-107 -158h-78l88 158h97z" />
    <glyph glyph-name="Acircumflex" unicode="&#xc2;" 
d="M18 0zM241 783l136 -783h-89l-18 113h-146l-17 -113h-89l132 783h91zM136 190h122l-62 392zM245 989l99 -158h-75l-72 115l-72 -115h-74l98 158h96z" />
    <glyph glyph-name="Atilde" unicode="&#xc3;" 
d="M18 0zM241 783l136 -783h-89l-18 113h-146l-17 -113h-89l132 783h91zM136 190h122l-62 392zM26 899q18 37 42.5 56.5t61.5 19.5q24 0 41 -7.5t32 -16.5t29.5 -16.5t33.5 -7.5t35.5 10t30.5 39l36 -32q-19 -38 -43.5 -57.5t-57.5 -19.5q-23 0 -39.5 7.5t-32 16.5
t-31.5 16.5t-36 7.5q-19 0 -35.5 -9.5t-30.5 -38.5z" />
    <glyph glyph-name="Adieresis" unicode="&#xc4;" 
d="M18 0zM241 783l136 -783h-89l-18 113h-146l-17 -113h-89l132 783h91zM136 190h122l-62 392zM279 978q27 0 40 -15.5t13 -38.5t-13 -39.5t-40 -16.5q-26 0 -38.5 16.5t-12.5 39.5t12.5 38.5t38.5 15.5zM112 978q27 0 40 -15.5t13 -38.5t-13 -39.5t-40 -16.5
q-26 0 -38.5 16.5t-12.5 39.5t12.5 38.5t38.5 15.5z" />
    <glyph glyph-name="Aring" unicode="&#xc5;" 
d="M18 0zM241 783l136 -783h-89l-18 113h-146l-17 -113h-89l132 783h91zM136 190h122l-62 392zM210 989q42 0 65 -25.5t23 -63.5t-23 -64t-65 -26h-28q-41 0 -64 26t-23 64t23 63.5t64 25.5h28zM182 940q-17 0 -27.5 -11t-10.5 -30q0 -18 10.5 -29t27.5 -11h28q17 0 28 11
t11 29q0 19 -11 30t-28 11h-28z" />
    <glyph glyph-name="AE" unicode="&#xc6;" horiz-adv-x="537" 
d="M508 783v-89h-167v-246h118v-89h-118v-270h167v-89h-259v113h-127l-15 -113h-89l117 783h373zM200 694l-68 -504h117v504h-49z" />
    <glyph glyph-name="Ccedilla" unicode="&#xc7;" horiz-adv-x="379" 
d="M41 0zM132 143q0 -34 18.5 -51t48.5 -17t49 17t19 51v16l85 22v-40q0 -36 -12.5 -64.5t-33.5 -49t-49.5 -31t-61.5 -10.5q-32 0 -60 10.5t-49 31t-33 49t-12 64.5v501q0 36 12 64.5t33 49t50 31t64 10.5q70 0 111 -41.5t41 -113.5v-26h-85v24q0 34 -17.5 51t-48.5 17
q-32 0 -50.5 -17t-18.5 -51v-497zM235 -20l-44 -190h-70l26 190h88z" />
    <glyph glyph-name="Egrave" unicode="&#xc8;" horiz-adv-x="334" 
d="M46 0zM305 783v-89h-167v-246h118v-89h-118v-270h167v-89h-259v783h259zM173 989l88 -158h-79l-106 158h97z" />
    <glyph glyph-name="Eacute" unicode="&#xc9;" horiz-adv-x="334" 
d="M46 0zM305 783v-89h-167v-246h118v-89h-118v-270h167v-89h-259v783h259zM280 989l-107 -158h-78l88 158h97z" />
    <glyph glyph-name="Ecircumflex" unicode="&#xca;" horiz-adv-x="334" 
d="M31 0zM305 783v-89h-167v-246h118v-89h-118v-270h167v-89h-259v783h259zM225 989l99 -158h-75l-72 115l-72 -115h-74l98 158h96z" />
    <glyph glyph-name="Edieresis" unicode="&#xcb;" horiz-adv-x="334" 
d="M40 0zM305 783v-89h-167v-246h118v-89h-118v-270h167v-89h-259v783h259zM258 978q27 0 40 -15.5t13 -38.5t-13 -39.5t-40 -16.5q-26 0 -38.5 16.5t-12.5 39.5t12.5 38.5t38.5 15.5zM91 978q27 0 40 -15.5t13 -38.5t-13 -39.5t-40 -16.5q-26 0 -38.5 16.5t-12.5 39.5
t12.5 38.5t38.5 15.5z" />
    <glyph glyph-name="Igrave" unicode="&#xcc;" horiz-adv-x="205" 
d="M12 0zM159 783v-783h-92v783h92zM109 989l88 -158h-79l-106 158h97z" />
    <glyph glyph-name="Iacute" unicode="&#xcd;" horiz-adv-x="209" 
d="M14 0zM138 783v-783h-92v783h92zM199 989l-107 -158h-78l88 158h97z" />
    <glyph glyph-name="Icircumflex" unicode="&#xce;" horiz-adv-x="258" 
d="M0 0zM175 783v-783h-92v783h92zM177 989l99 -158h-75l-72 115l-72 -115h-74l98 158h96z" />
    <glyph glyph-name="Idieresis" unicode="&#xcf;" horiz-adv-x="234" 
d="M0 0zM163 783v-783h-92v783h92zM200 978q27 0 40 -15.5t13 -38.5t-13 -39.5t-40 -16.5q-26 0 -38.5 16.5t-12.5 39.5t12.5 38.5t38.5 15.5zM33 978q27 0 40 -15.5t13 -38.5t-13 -39.5t-40 -16.5q-26 0 -38.5 16.5t-12.5 39.5t12.5 38.5t38.5 15.5z" />
    <glyph glyph-name="Eth" unicode="&#xd0;" horiz-adv-x="417" 
d="M220 783q72 0 114 -44t42 -136v-423q0 -92 -42 -136t-114 -44h-162v359h-49v89h49v335h162zM150 448h82v-89h-82v-270h63q72 0 72 85v435q0 85 -72 85h-63v-246z" />
    <glyph glyph-name="Ntilde" unicode="&#xd1;" horiz-adv-x="405" 
d="M31 0zM146 783l133 -540v540h80v-783h-82l-151 576v-576h-80v783h100zM31 899q18 37 42.5 56.5t61.5 19.5q24 0 41 -7.5t32 -16.5t29.5 -16.5t33.5 -7.5t35.5 10t30.5 39l36 -32q-19 -38 -43.5 -57.5t-57.5 -19.5q-23 0 -39.5 7.5t-32 16.5t-31.5 16.5t-36 7.5
q-19 0 -35.5 -9.5t-30.5 -38.5z" />
    <glyph glyph-name="Ograve" unicode="&#xd2;" horiz-adv-x="404" 
d="M41 0zM363 143q0 -37 -12.5 -66t-34.5 -49.5t-51.5 -31t-62.5 -10.5q-34 0 -63.5 10.5t-51 31t-34 49.5t-12.5 66v497q0 37 12.5 66t34 49t51 31t63.5 11q33 0 62.5 -11t51.5 -31t34.5 -49t12.5 -66v-497zM132 144q0 -34 19.5 -51.5t50.5 -17.5t50.5 17.5t19.5 51.5v495
q0 34 -19.5 51.5t-50.5 17.5t-50.5 -17.5t-19.5 -51.5v-495zM199 989l88 -158h-79l-106 158h97z" />
    <glyph glyph-name="Oacute" unicode="&#xd3;" horiz-adv-x="404" 
d="M41 0zM363 143q0 -37 -12.5 -66t-34.5 -49.5t-51.5 -31t-62.5 -10.5q-34 0 -63.5 10.5t-51 31t-34 49.5t-12.5 66v497q0 37 12.5 66t34 49t51 31t63.5 11q33 0 62.5 -11t51.5 -31t34.5 -49t12.5 -66v-497zM132 144q0 -34 19.5 -51.5t50.5 -17.5t50.5 17.5t19.5 51.5v495
q0 34 -19.5 51.5t-50.5 17.5t-50.5 -17.5t-19.5 -51.5v-495zM303 989l-107 -158h-78l88 158h97z" />
    <glyph glyph-name="Ocircumflex" unicode="&#xd4;" horiz-adv-x="404" 
d="M41 0zM363 143q0 -37 -12.5 -66t-34.5 -49.5t-51.5 -31t-62.5 -10.5q-34 0 -63.5 10.5t-51 31t-34 49.5t-12.5 66v497q0 37 12.5 66t34 49t51 31t63.5 11q33 0 62.5 -11t51.5 -31t34.5 -49t12.5 -66v-497zM132 144q0 -34 19.5 -51.5t50.5 -17.5t50.5 17.5t19.5 51.5v495
q0 34 -19.5 51.5t-50.5 17.5t-50.5 -17.5t-19.5 -51.5v-495zM249 989l99 -158h-75l-72 115l-72 -115h-74l98 158h96z" />
    <glyph glyph-name="Otilde" unicode="&#xd5;" horiz-adv-x="404" 
d="M31 0zM363 143q0 -37 -12.5 -66t-34.5 -49.5t-51.5 -31t-62.5 -10.5q-34 0 -63.5 10.5t-51 31t-34 49.5t-12.5 66v497q0 37 12.5 66t34 49t51 31t63.5 11q33 0 62.5 -11t51.5 -31t34.5 -49t12.5 -66v-497zM132 144q0 -34 19.5 -51.5t50.5 -17.5t50.5 17.5t19.5 51.5v495
q0 34 -19.5 51.5t-50.5 17.5t-50.5 -17.5t-19.5 -51.5v-495zM31 899q18 37 42.5 56.5t61.5 19.5q24 0 41 -7.5t32 -16.5t29.5 -16.5t33.5 -7.5t35.5 10t30.5 39l36 -32q-19 -38 -43.5 -57.5t-57.5 -19.5q-23 0 -39.5 7.5t-32 16.5t-31.5 16.5t-36 7.5q-19 0 -35.5 -9.5
t-30.5 -38.5z" />
    <glyph glyph-name="Odieresis" unicode="&#xd6;" horiz-adv-x="404" 
d="M41 0zM363 143q0 -37 -12.5 -66t-34.5 -49.5t-51.5 -31t-62.5 -10.5q-34 0 -63.5 10.5t-51 31t-34 49.5t-12.5 66v497q0 37 12.5 66t34 49t51 31t63.5 11q33 0 62.5 -11t51.5 -31t34.5 -49t12.5 -66v-497zM132 144q0 -34 19.5 -51.5t50.5 -17.5t50.5 17.5t19.5 51.5v495
q0 34 -19.5 51.5t-50.5 17.5t-50.5 -17.5t-19.5 -51.5v-495zM285 978q27 0 40 -15.5t13 -38.5t-13 -39.5t-40 -16.5q-26 0 -38.5 16.5t-12.5 39.5t12.5 38.5t38.5 15.5zM118 978q27 0 40 -15.5t13 -38.5t-13 -39.5t-40 -16.5q-26 0 -38.5 16.5t-12.5 39.5t12.5 38.5
t38.5 15.5z" />
    <glyph glyph-name="multiply" unicode="&#xd7;" horiz-adv-x="531" 
d="M265 431l146 146l52 -52l-146 -145l146 -147l-52 -51l-146 146l-145 -146l-52 52l145 146l-145 145l52 52z" />
    <glyph glyph-name="Oslash" unicode="&#xd8;" horiz-adv-x="404" 
d="M377 843l-38 -116q24 -38 24 -87v-497q0 -37 -12.5 -66t-34.5 -49.5t-51.5 -31t-62.5 -10.5q-58 0 -99 29l-24 -75h-53l38 116q-23 37 -23 87v497q0 37 12.5 66t34 49t51 31t63.5 11q56 0 97 -29l25 75h53zM202 75q31 0 50.5 17.5t19.5 51.5v381l-136 -410
q8 -20 25.5 -30t40.5 -10zM132 260l135 409q-8 19 -25 29t-40 10q-31 0 -50.5 -17.5t-19.5 -51.5v-379z" />
    <glyph glyph-name="Ugrave" unicode="&#xd9;" horiz-adv-x="410" 
d="M44 0zM136 783v-639q0 -34 19.5 -51.5t49.5 -17.5q32 0 51.5 17.5t19.5 51.5v639h90v-640q0 -37 -12.5 -66t-34.5 -49.5t-51.5 -31t-63.5 -10.5t-63 10.5t-50.5 31t-34 49.5t-12.5 66v640h92zM202 989l88 -158h-79l-106 158h97z" />
    <glyph glyph-name="Uacute" unicode="&#xda;" horiz-adv-x="410" 
d="M44 0zM136 783v-639q0 -34 19.5 -51.5t49.5 -17.5q32 0 51.5 17.5t19.5 51.5v639h90v-640q0 -37 -12.5 -66t-34.5 -49.5t-51.5 -31t-63.5 -10.5t-63 10.5t-50.5 31t-34 49.5t-12.5 66v640h92zM305 989l-107 -158h-78l88 158h97z" />
    <glyph glyph-name="Ucircumflex" unicode="&#xdb;" horiz-adv-x="410" 
d="M44 0zM136 783v-639q0 -34 19.5 -51.5t49.5 -17.5q32 0 51.5 17.5t19.5 51.5v639h90v-640q0 -37 -12.5 -66t-34.5 -49.5t-51.5 -31t-63.5 -10.5t-63 10.5t-50.5 31t-34 49.5t-12.5 66v640h92zM252 989l99 -158h-75l-72 115l-72 -115h-74l98 158h96z" />
    <glyph glyph-name="Udieresis" unicode="&#xdc;" horiz-adv-x="410" 
d="M44 0zM136 783v-639q0 -34 19.5 -51.5t49.5 -17.5q32 0 51.5 17.5t19.5 51.5v639h90v-640q0 -37 -12.5 -66t-34.5 -49.5t-51.5 -31t-63.5 -10.5t-63 10.5t-50.5 31t-34 49.5t-12.5 66v640h92zM287 978q27 0 40 -15.5t13 -38.5t-13 -39.5t-40 -16.5q-26 0 -38.5 16.5
t-12.5 39.5t12.5 38.5t38.5 15.5zM120 978q27 0 40 -15.5t13 -38.5t-13 -39.5t-40 -16.5q-26 0 -38.5 16.5t-12.5 39.5t12.5 38.5t38.5 15.5z" />
    <glyph glyph-name="Yacute" unicode="&#xdd;" horiz-adv-x="412" 
d="M13 0zM106 783l101 -304l103 304h89l-147 -417v-366h-92v366l-147 417h93zM307 989l-107 -158h-78l88 158h97z" />
    <glyph glyph-name="Thorn" unicode="&#xde;" horiz-adv-x="403" 
d="M138 783v-133h70q72 0 114 -44t42 -136v-148q0 -92 -42 -136t-114 -44h-70v-142h-92v783h92zM138 231h63q72 0 72 85v160q0 85 -72 85h-63v-330z" />
    <glyph glyph-name="germandbls" unicode="&#xdf;" horiz-adv-x="446" 
d="M130 0h-84v657q0 36 8.5 66.5t27 52.5t48 34.5t70.5 12.5t68.5 -12t44 -32.5t23.5 -48t7 -57.5v-141q0 -69 -21 -99q42 -11 63.5 -41t21.5 -90v-146q0 -33 -8 -63t-26 -52.5t-46 -35.5t-68 -13t-66 14t-43 32l27 74q11 -17 28 -26.5t40 -9.5q36 0 55.5 22t19.5 58v142
q0 51 -22 68t-77 17h-29v71h9q38 0 49 16.5t11 54.5v142q0 30 -15 49t-49 19t-50.5 -19t-16.5 -53v-663z" />
    <glyph glyph-name="agrave" unicode="&#xe0;" horiz-adv-x="384" 
d="M27 0zM53 551q22 32 60 50t82 18q73 0 109 -46.5t36 -119.5v-453h-56l-16 34q-23 -19 -51.5 -30.5t-60.5 -11.5q-25 0 -48.5 8.5t-41.5 27t-28.5 48.5t-10.5 74q0 34 7 62t22.5 53t39.5 49t57 49q22 16 48 33.5t55 35.5v19q0 38 -18 62t-55 24q-26 0 -47 -12.5t-34 -34.5
zM182 76q21 0 39 9t35 26v235q-18 -11 -32 -20.5t-27 -19.5q-47 -37 -64 -71t-17 -72q0 -47 18 -67t48 -20zM188 817l88 -158h-79l-106 158h97z" />
    <glyph glyph-name="aacute" unicode="&#xe1;" horiz-adv-x="384" 
d="M27 0zM53 551q22 32 60 50t82 18q73 0 109 -46.5t36 -119.5v-453h-56l-16 34q-23 -19 -51.5 -30.5t-60.5 -11.5q-25 0 -48.5 8.5t-41.5 27t-28.5 48.5t-10.5 74q0 34 7 62t22.5 53t39.5 49t57 49q22 16 48 33.5t55 35.5v19q0 38 -18 62t-55 24q-26 0 -47 -12.5t-34 -34.5
zM182 76q21 0 39 9t35 26v235q-18 -11 -32 -20.5t-27 -19.5q-47 -37 -64 -71t-17 -72q0 -47 18 -67t48 -20zM294 817l-107 -158h-78l88 158h97z" />
    <glyph glyph-name="acircumflex" unicode="&#xe2;" horiz-adv-x="384" 
d="M27 0zM53 551q22 32 60 50t82 18q73 0 109 -46.5t36 -119.5v-453h-56l-16 34q-23 -19 -51.5 -30.5t-60.5 -11.5q-25 0 -48.5 8.5t-41.5 27t-28.5 48.5t-10.5 74q0 34 7 62t22.5 53t39.5 49t57 49q22 16 48 33.5t55 35.5v19q0 38 -18 62t-55 24q-26 0 -47 -12.5t-34 -34.5
zM182 76q21 0 39 9t35 26v235q-18 -11 -32 -20.5t-27 -19.5q-47 -37 -64 -71t-17 -72q0 -47 18 -67t48 -20zM239 817l99 -158h-75l-72 115l-72 -115h-74l98 158h96z" />
    <glyph glyph-name="atilde" unicode="&#xe3;" horiz-adv-x="384" 
d="M21 0zM53 551q22 32 60 50t82 18q73 0 109 -46.5t36 -119.5v-453h-56l-16 34q-23 -19 -51.5 -30.5t-60.5 -11.5q-25 0 -48.5 8.5t-41.5 27t-28.5 48.5t-10.5 74q0 34 7 62t22.5 53t39.5 49t57 49q22 16 48 33.5t55 35.5v19q0 38 -18 62t-55 24q-26 0 -47 -12.5t-34 -34.5
zM182 76q21 0 39 9t35 26v235q-18 -11 -32 -20.5t-27 -19.5q-47 -37 -64 -71t-17 -72q0 -47 18 -67t48 -20zM21 727q18 37 42.5 56.5t61.5 19.5q24 0 41 -7.5t32 -16.5t29.5 -16.5t33.5 -7.5t35.5 10t30.5 39l36 -32q-19 -38 -43.5 -57.5t-57.5 -19.5q-23 0 -39.5 7.5
t-32 16.5t-31.5 16.5t-36 7.5q-19 0 -35.5 -9.5t-30.5 -38.5z" />
    <glyph glyph-name="adieresis" unicode="&#xe4;" horiz-adv-x="384" 
d="M27 0zM53 551q22 32 60 50t82 18q73 0 109 -46.5t36 -119.5v-453h-56l-16 34q-23 -19 -51.5 -30.5t-60.5 -11.5q-25 0 -48.5 8.5t-41.5 27t-28.5 48.5t-10.5 74q0 34 7 62t22.5 53t39.5 49t57 49q22 16 48 33.5t55 35.5v19q0 38 -18 62t-55 24q-26 0 -47 -12.5t-34 -34.5
zM182 76q21 0 39 9t35 26v235q-18 -11 -32 -20.5t-27 -19.5q-47 -37 -64 -71t-17 -72q0 -47 18 -67t48 -20zM275 806q27 0 40 -15.5t13 -38.5t-13 -39.5t-40 -16.5q-26 0 -38.5 16.5t-12.5 39.5t12.5 38.5t38.5 15.5zM108 806q27 0 40 -15.5t13 -38.5t-13 -39.5t-40 -16.5
q-26 0 -38.5 16.5t-12.5 39.5t12.5 38.5t38.5 15.5z" />
    <glyph glyph-name="aring" unicode="&#xe5;" horiz-adv-x="384" 
d="M27 0zM53 551q22 32 60 50t82 18q73 0 109 -46.5t36 -119.5v-453h-56l-16 34q-23 -19 -51.5 -30.5t-60.5 -11.5q-25 0 -48.5 8.5t-41.5 27t-28.5 48.5t-10.5 74q0 34 7 62t22.5 53t39.5 49t57 49q22 16 48 33.5t55 35.5v19q0 38 -18 62t-55 24q-26 0 -47 -12.5t-34 -34.5
zM182 76q21 0 39 9t35 26v235q-18 -11 -32 -20.5t-27 -19.5q-47 -37 -64 -71t-17 -72q0 -47 18 -67t48 -20zM205 817q42 0 65 -25.5t23 -63.5t-23 -64t-65 -26h-28q-41 0 -64 26t-23 64t23 63.5t64 25.5h28zM177 768q-17 0 -27.5 -11t-10.5 -30q0 -18 10.5 -29t27.5 -11h28
q17 0 28 11t11 29q0 19 -11 30t-28 11h-28z" />
    <glyph glyph-name="ae" unicode="&#xe6;" horiz-adv-x="588" 
d="M53 551q22 32 60 50t82 18q65 0 102 -39q42 39 106 39q26 0 52.5 -8t48 -27t35 -49.5t13.5 -76.5q0 -40 -12 -73.5t-37.5 -64.5t-66 -62t-96.5 -66v-49q0 -32 18 -48.5t46 -16.5q29 0 47 16.5t18 48.5v39l81 21v-63q0 -35 -11.5 -62t-32 -46.5t-47.5 -29.5t-58 -10
q-37 0 -68 14.5t-51 41.5q-23 -25 -56 -40.5t-70 -15.5q-25 0 -48.5 8.5t-41.5 27t-28.5 49t-10.5 74.5t12 78t39 65.5t70.5 63.5t105.5 72v41q0 32 -20.5 49t-50.5 17q-26 0 -47 -12.5t-34 -34.5zM181 76q22 0 40 9.5t35 26.5q-2 7 -2 13.5v14.5v205q-41 -27 -68 -49.5
t-42.5 -43.5t-21.5 -42t-6 -46q0 -48 18 -68t47 -20zM340 278q36 23 60 43.5t38.5 40.5t21 41.5t6.5 46.5q0 50 -19.5 68.5t-45.5 18.5q-29 0 -45 -18.5t-16 -51.5v-189z" />
    <glyph glyph-name="ccedilla" unicode="&#xe7;" horiz-adv-x="370" 
d="M41 0zM127 145q0 -32 18 -48.5t46 -16.5q29 0 47 16.5t18 48.5v37l81 21v-63q0 -35 -11.5 -62t-32 -46.5t-47.5 -29.5t-58 -10t-57.5 10t-46.5 29.5t-31.5 46.5t-11.5 62v331q0 34 11.5 61.5t31.5 47t46.5 29.5t57.5 10t58 -10t47.5 -29.5t32 -47t11.5 -61.5v-26h-81v21
q0 32 -18 48.5t-47 16.5q-28 0 -46 -16.5t-18 -48.5v-321zM230 -20l-44 -190h-70l26 190h88z" />
    <glyph glyph-name="egrave" unicode="&#xe8;" horiz-adv-x="375" 
d="M41 0zM241 274q-21 -18 -49.5 -38.5t-64.5 -43.5v-49q0 -32 18 -48.5t46 -16.5q29 0 47 16.5t18 48.5v39l81 21v-63q0 -35 -11.5 -62t-32 -46.5t-47.5 -29.5t-58 -10t-57.5 10t-46.5 29.5t-31.5 46.5t-11.5 62v331q0 34 11.5 61.5t31.5 47t47 29.5t58 10q27 0 54 -8
t48 -27t34.5 -49.5t13.5 -76.5q0 -57 -23.5 -99.5t-74.5 -84.5zM127 278q45 29 69 52q31 29 44 57t13 65q0 48 -19.5 66.5t-45.5 18.5q-29 0 -45 -18.5t-16 -51.5v-189zM184 817l88 -158h-79l-106 158h97z" />
    <glyph glyph-name="eacute" unicode="&#xe9;" horiz-adv-x="375" 
d="M41 0zM241 274q-21 -18 -49.5 -38.5t-64.5 -43.5v-49q0 -32 18 -48.5t46 -16.5q29 0 47 16.5t18 48.5v39l81 21v-63q0 -35 -11.5 -62t-32 -46.5t-47.5 -29.5t-58 -10t-57.5 10t-46.5 29.5t-31.5 46.5t-11.5 62v331q0 34 11.5 61.5t31.5 47t47 29.5t58 10q27 0 54 -8
t48 -27t34.5 -49.5t13.5 -76.5q0 -57 -23.5 -99.5t-74.5 -84.5zM127 278q45 29 69 52q31 29 44 57t13 65q0 48 -19.5 66.5t-45.5 18.5q-29 0 -45 -18.5t-16 -51.5v-189zM290 817l-107 -158h-78l88 158h97z" />
    <glyph glyph-name="ecircumflex" unicode="&#xea;" horiz-adv-x="375" 
d="M41 0zM241 274q-21 -18 -49.5 -38.5t-64.5 -43.5v-49q0 -32 18 -48.5t46 -16.5q29 0 47 16.5t18 48.5v39l81 21v-63q0 -35 -11.5 -62t-32 -46.5t-47.5 -29.5t-58 -10t-57.5 10t-46.5 29.5t-31.5 46.5t-11.5 62v331q0 34 11.5 61.5t31.5 47t47 29.5t58 10q27 0 54 -8
t48 -27t34.5 -49.5t13.5 -76.5q0 -57 -23.5 -99.5t-74.5 -84.5zM127 278q45 29 69 52q31 29 44 57t13 65q0 48 -19.5 66.5t-45.5 18.5q-29 0 -45 -18.5t-16 -51.5v-189zM235 817l99 -158h-75l-72 115l-72 -115h-74l98 158h96z" />
    <glyph glyph-name="edieresis" unicode="&#xeb;" horiz-adv-x="375" 
d="M41 0zM241 274q-21 -18 -49.5 -38.5t-64.5 -43.5v-49q0 -32 18 -48.5t46 -16.5q29 0 47 16.5t18 48.5v39l81 21v-63q0 -35 -11.5 -62t-32 -46.5t-47.5 -29.5t-58 -10t-57.5 10t-46.5 29.5t-31.5 46.5t-11.5 62v331q0 34 11.5 61.5t31.5 47t47 29.5t58 10q27 0 54 -8
t48 -27t34.5 -49.5t13.5 -76.5q0 -57 -23.5 -99.5t-74.5 -84.5zM127 278q45 29 69 52q31 29 44 57t13 65q0 48 -19.5 66.5t-45.5 18.5q-29 0 -45 -18.5t-16 -51.5v-189zM270 806q27 0 40 -15.5t13 -38.5t-13 -39.5t-40 -16.5q-26 0 -38.5 16.5t-12.5 39.5t12.5 38.5
t38.5 15.5zM103 806q27 0 40 -15.5t13 -38.5t-13 -39.5t-40 -16.5q-26 0 -38.5 16.5t-12.5 39.5t12.5 38.5t38.5 15.5z" />
    <glyph glyph-name="igrave" unicode="&#xec;" horiz-adv-x="200" 
d="M9 0zM106 817l88 -158h-79l-106 158h97zM154 611v-611h-89v611h89z" />
    <glyph glyph-name="iacute" unicode="&#xed;" horiz-adv-x="205" 
d="M12 0zM197 817l-107 -158h-78l88 158h97zM135 611v-611h-89v611h89z" />
    <glyph glyph-name="icircumflex" unicode="&#xee;" horiz-adv-x="270" 
d="M0 0zM179 611v-611h-89v611h89zM182 817l99 -158h-75l-72 115l-72 -115h-74l98 158h96z" />
    <glyph glyph-name="idieresis" unicode="&#xef;" horiz-adv-x="263" 
d="M0 0zM214 806q27 0 40 -15.5t13 -38.5t-13 -39.5t-40 -16.5q-26 0 -38.5 16.5t-12.5 39.5t12.5 38.5t38.5 15.5zM47 806q27 0 40 -15.5t13 -38.5t-13 -39.5t-40 -16.5q-26 0 -38.5 16.5t-12.5 39.5t12.5 38.5t38.5 15.5zM177 611v-611h-89v611h89z" />
    <glyph glyph-name="eth" unicode="&#xf0;" horiz-adv-x="377" 
d="M58 755q22 32 60 50t82 18q27 0 48.5 -7t38.5 -19l45 53l30 -27l-47 -55q30 -44 30 -111v-513q0 -35 -11.5 -63.5t-32 -48t-48 -30t-58.5 -10.5q-32 0 -60 10.5t-48.5 30t-32.5 48t-12 63.5v220q0 35 9.5 61t26 43.5t38.5 26t46 8.5q31 0 56 -13t45 -33v199q0 12 -2 22.5
t-5 19.5l-118 -139l-29 27l123 146q-17 12 -41 12q-26 0 -48 -13.5t-36 -35.5zM194 80q29 0 49 17t20 50v226q-34 47 -78 47q-31 0 -45.5 -19.5t-14.5 -54.5v-199q0 -33 20 -50t49 -17z" />
    <glyph glyph-name="ntilde" unicode="&#xf1;" horiz-adv-x="403" 
d="M30 0zM107 611l14 -35q23 21 52 32t58 11q26 0 49.5 -9t41 -27.5t27.5 -46.5t10 -65v-471h-89v452q0 38 -15 58.5t-49 20.5q-37 0 -71 -32v-499h-89v611h61zM30 727q18 37 42.5 56.5t61.5 19.5q24 0 41 -7.5t32 -16.5t29.5 -16.5t33.5 -7.5t35.5 10t30.5 39l36 -32
q-19 -38 -43.5 -57.5t-57.5 -19.5q-23 0 -39.5 7.5t-32 16.5t-31.5 16.5t-36 7.5q-19 0 -35.5 -9.5t-30.5 -38.5z" />
    <glyph glyph-name="ograve" unicode="&#xf2;" horiz-adv-x="386" 
d="M41 0zM345 140q0 -35 -12 -62t-32.5 -46.5t-48.5 -29.5t-59 -10q-32 0 -59.5 10t-48 29.5t-32.5 46.5t-12 62v331q0 34 12 61.5t32.5 47t48 29.5t59.5 10q31 0 59 -10t48.5 -29.5t32.5 -47t12 -61.5v-331zM127 145q0 -32 18.5 -48.5t47.5 -16.5t47 16.5t18 48.5v321
q0 32 -18 48.5t-47 16.5t-47.5 -16.5t-18.5 -48.5v-321zM189 817l88 -158h-79l-106 158h97z" />
    <glyph glyph-name="oacute" unicode="&#xf3;" horiz-adv-x="386" 
d="M41 0zM345 140q0 -35 -12 -62t-32.5 -46.5t-48.5 -29.5t-59 -10q-32 0 -59.5 10t-48 29.5t-32.5 46.5t-12 62v331q0 34 12 61.5t32.5 47t48 29.5t59.5 10q31 0 59 -10t48.5 -29.5t32.5 -47t12 -61.5v-331zM127 145q0 -32 18.5 -48.5t47.5 -16.5t47 16.5t18 48.5v321
q0 32 -18 48.5t-47 16.5t-47.5 -16.5t-18.5 -48.5v-321zM293 817l-107 -158h-78l88 158h97z" />
    <glyph glyph-name="ocircumflex" unicode="&#xf4;" horiz-adv-x="386" 
d="M41 0zM345 140q0 -35 -12 -62t-32.5 -46.5t-48.5 -29.5t-59 -10q-32 0 -59.5 10t-48 29.5t-32.5 46.5t-12 62v331q0 34 12 61.5t32.5 47t48 29.5t59.5 10q31 0 59 -10t48.5 -29.5t32.5 -47t12 -61.5v-331zM127 145q0 -32 18.5 -48.5t47.5 -16.5t47 16.5t18 48.5v321
q0 32 -18 48.5t-47 16.5t-47.5 -16.5t-18.5 -48.5v-321zM240 817l99 -158h-75l-72 115l-72 -115h-74l98 158h96z" />
    <glyph glyph-name="otilde" unicode="&#xf5;" horiz-adv-x="386" 
d="M22 0zM345 140q0 -35 -12 -62t-32.5 -46.5t-48.5 -29.5t-59 -10q-32 0 -59.5 10t-48 29.5t-32.5 46.5t-12 62v331q0 34 12 61.5t32.5 47t48 29.5t59.5 10q31 0 59 -10t48.5 -29.5t32.5 -47t12 -61.5v-331zM127 145q0 -32 18.5 -48.5t47.5 -16.5t47 16.5t18 48.5v321
q0 32 -18 48.5t-47 16.5t-47.5 -16.5t-18.5 -48.5v-321zM22 727q18 37 42.5 56.5t61.5 19.5q24 0 41 -7.5t32 -16.5t29.5 -16.5t33.5 -7.5t35.5 10t30.5 39l36 -32q-19 -38 -43.5 -57.5t-57.5 -19.5q-23 0 -39.5 7.5t-32 16.5t-31.5 16.5t-36 7.5q-19 0 -35.5 -9.5
t-30.5 -38.5z" />
    <glyph glyph-name="odieresis" unicode="&#xf6;" horiz-adv-x="386" 
d="M41 0zM345 140q0 -35 -12 -62t-32.5 -46.5t-48.5 -29.5t-59 -10q-32 0 -59.5 10t-48 29.5t-32.5 46.5t-12 62v331q0 34 12 61.5t32.5 47t48 29.5t59.5 10q31 0 59 -10t48.5 -29.5t32.5 -47t12 -61.5v-331zM127 145q0 -32 18.5 -48.5t47.5 -16.5t47 16.5t18 48.5v321
q0 32 -18 48.5t-47 16.5t-47.5 -16.5t-18.5 -48.5v-321zM275 806q27 0 40 -15.5t13 -38.5t-13 -39.5t-40 -16.5q-26 0 -38.5 16.5t-12.5 39.5t12.5 38.5t38.5 15.5zM108 806q27 0 40 -15.5t13 -38.5t-13 -39.5t-40 -16.5q-26 0 -38.5 16.5t-12.5 39.5t12.5 38.5t38.5 15.5z
" />
    <glyph glyph-name="divide" unicode="&#xf7;" horiz-adv-x="531" 
d="M46 121zM485 416v-73h-439v73h439zM264 231q27 0 40 -16t13 -39t-13 -39t-40 -16q-26 0 -38.5 16t-12.5 39t12.5 39t38.5 16zM264 639q27 0 40 -16t13 -39t-13 -39t-40 -16q-26 0 -38.5 16t-12.5 39t12.5 39t38.5 16z" />
    <glyph glyph-name="oslash" unicode="&#xf8;" horiz-adv-x="386" 
d="M332 671l-30 -94q20 -19 31.5 -45.5t11.5 -60.5v-331q0 -35 -12 -62t-32.5 -46.5t-48.5 -29.5t-59 -10q-37 0 -70 14l-21 -66h-49l29 94q-41 39 -41 106v331q0 34 12 61.5t32.5 47t48 29.5t59.5 10q36 0 69 -14l21 66h49zM193 80q29 0 47 16.5t18 48.5v291l-108 -343
q16 -13 43 -13zM127 175l108 343q-16 13 -42 13q-29 0 -47.5 -16.5t-18.5 -48.5v-291z" />
    <glyph glyph-name="ugrave" unicode="&#xf9;" horiz-adv-x="399" 
d="M44 0zM353 611v-611h-61l-15 34q-45 -42 -106 -42q-26 0 -49 9t-40.5 27.5t-27.5 46t-10 65.5v471h89v-452q0 -79 63 -79q36 0 68 31v500h89zM196 817l88 -158h-79l-106 158h97z" />
    <glyph glyph-name="uacute" unicode="&#xfa;" horiz-adv-x="399" 
d="M44 0zM353 611v-611h-61l-15 34q-45 -42 -106 -42q-26 0 -49 9t-40.5 27.5t-27.5 46t-10 65.5v471h89v-452q0 -79 63 -79q36 0 68 31v500h89zM301 817l-107 -158h-78l88 158h97z" />
    <glyph glyph-name="ucircumflex" unicode="&#xfb;" horiz-adv-x="399" 
d="M44 0zM353 611v-611h-61l-15 34q-45 -42 -106 -42q-26 0 -49 9t-40.5 27.5t-27.5 46t-10 65.5v471h89v-452q0 -79 63 -79q36 0 68 31v500h89zM247 817l99 -158h-75l-72 115l-72 -115h-74l98 158h96z" />
    <glyph glyph-name="udieresis" unicode="&#xfc;" horiz-adv-x="399" 
d="M44 0zM353 611v-611h-61l-15 34q-45 -42 -106 -42q-26 0 -49 9t-40.5 27.5t-27.5 46t-10 65.5v471h89v-452q0 -79 63 -79q36 0 68 31v500h89zM281 806q27 0 40 -15.5t13 -38.5t-13 -39.5t-40 -16.5q-26 0 -38.5 16.5t-12.5 39.5t12.5 38.5t38.5 15.5zM114 806
q27 0 40 -15.5t13 -38.5t-13 -39.5t-40 -16.5q-26 0 -38.5 16.5t-12.5 39.5t12.5 38.5t38.5 15.5z" />
    <glyph glyph-name="yacute" unicode="&#xfd;" horiz-adv-x="399" 
d="M44 0zM353 611v-782h-89v204q-41 -31 -93 -31q-26 0 -49 9t-40.5 27.5t-27.5 46t-10 65.5v461h89v-442q0 -79 63 -79q36 0 68 31v490h89zM301 817l-107 -158h-78l88 158h97z" />
    <glyph glyph-name="thorn" unicode="&#xfe;" 
d="M135 815v-231q21 17 46.5 26t51.5 9q25 0 48 -9t40 -27.5t27.5 -46.5t10.5 -65v-331q0 -38 -10.5 -65.5t-27.5 -46t-40 -27.5t-48 -9q-55 0 -98 35v-198h-89v964zM208 531q-40 0 -73 -35v-381q33 -35 73 -35q32 0 47 20.5t15 58.5v293q0 38 -15 58.5t-47 20.5z" />
    <glyph glyph-name="ydieresis" unicode="&#xff;" horiz-adv-x="399" 
d="M44 0zM353 611v-782h-89v204q-41 -31 -93 -31q-26 0 -49 9t-40.5 27.5t-27.5 46t-10 65.5v461h89v-442q0 -79 63 -79q36 0 68 31v490h89zM282 806q27 0 40 -15.5t13 -38.5t-13 -39.5t-40 -16.5q-26 0 -38.5 16.5t-12.5 39.5t12.5 38.5t38.5 15.5zM115 806q27 0 40 -15.5
t13 -38.5t-13 -39.5t-40 -16.5q-26 0 -38.5 16.5t-12.5 39.5t12.5 38.5t38.5 15.5z" />
    <glyph glyph-name="Amacron" unicode="&#x100;" 
d="M18 0zM241 783l136 -783h-89l-18 113h-146l-17 -113h-89l132 783h91zM136 190h122l-62 392zM359 951v-67h-324v67h324z" />
    <glyph glyph-name="amacron" unicode="&#x101;" horiz-adv-x="384" 
d="M27 0zM53 551q22 32 60 50t82 18q73 0 109 -46.5t36 -119.5v-453h-56l-16 34q-23 -19 -51.5 -30.5t-60.5 -11.5q-25 0 -48.5 8.5t-41.5 27t-28.5 48.5t-10.5 74q0 34 7 62t22.5 53t39.5 49t57 49q22 16 48 33.5t55 35.5v19q0 38 -18 62t-55 24q-26 0 -47 -12.5t-34 -34.5
zM182 76q21 0 39 9t35 26v235q-18 -11 -32 -20.5t-27 -19.5q-47 -37 -64 -71t-17 -72q0 -47 18 -67t48 -20zM354 779v-67h-324v67h324z" />
    <glyph glyph-name="Abreve" unicode="&#x102;" 
d="M18 0zM241 783l136 -783h-89l-18 113h-146l-17 -113h-89l132 783h91zM136 190h122l-62 392zM136 989q3 -57 19 -80t42 -23t42 23t19 80h65q-2 -30 -9.5 -58t-22.5 -49.5t-38.5 -34.5t-55.5 -13q-33 0 -56 13t-38.5 35t-23.5 49.5t-9 57.5h66z" />
    <glyph glyph-name="abreve" unicode="&#x103;" horiz-adv-x="384" 
d="M27 0zM53 551q22 32 60 50t82 18q73 0 109 -46.5t36 -119.5v-453h-56l-16 34q-23 -19 -51.5 -30.5t-60.5 -11.5q-25 0 -48.5 8.5t-41.5 27t-28.5 48.5t-10.5 74q0 34 7 62t22.5 53t39.5 49t57 49q22 16 48 33.5t55 35.5v19q0 38 -18 62t-55 24q-26 0 -47 -12.5t-34 -34.5
zM182 76q21 0 39 9t35 26v235q-18 -11 -32 -20.5t-27 -19.5q-47 -37 -64 -71t-17 -72q0 -47 18 -67t48 -20zM131 817q3 -57 19 -80t42 -23t42 23t19 80h65q-2 -30 -9.5 -58t-22.5 -49.5t-38.5 -34.5t-55.5 -13q-33 0 -56 13t-38.5 35t-23.5 49.5t-9 57.5h66z" />
    <glyph glyph-name="Aogonek" unicode="&#x104;" 
d="M290 -10l-20 123h-146l-17 -113h-89l132 783h91l136 -783l-85 -37q-34 -15 -45.5 -27t-11.5 -28q0 -19 13.5 -30t50.5 -11q23 0 42.5 4.5t32.5 13.5l29 -61q-13 -14 -43 -24t-75 -10q-39 0 -64 8t-39.5 21t-20 29t-5.5 32q0 36 25 59.5t76 39.5zM136 190h122l-62 393z
" />
    <glyph glyph-name="aogonek" unicode="&#x105;" horiz-adv-x="384" 
d="M284 -1l-16 35q-23 -19 -51.5 -30.5t-60.5 -11.5q-25 0 -48.5 8.5t-41.5 27.5t-28.5 49.5t-10.5 74.5t12.5 78t39.5 65.5t70.5 63.5t106.5 73v19q0 38 -18 62t-55 24q-26 0 -47 -12.5t-34 -34.5l-49 61q22 32 60 50t82 18q73 0 109 -46.5t36 -119.5v-453l-85 -37
q-34 -15 -45.5 -27t-11.5 -28q0 -19 13.5 -30t50.5 -11q23 0 42.5 4.5t32.5 13.5l29 -61q-13 -14 -43 -24t-75 -10q-39 0 -64 8t-39.5 21t-20 29t-5.5 32q0 36 25 59.5t76 39.5zM182 76q21 0 39 9t35 26v235q-42 -26 -69 -48.5t-43 -44t-22 -43.5t-6 -46q0 -48 18 -68
t48 -20z" />
    <glyph glyph-name="Cacute" unicode="&#x106;" horiz-adv-x="379" 
d="M41 0zM132 143q0 -34 18.5 -51t48.5 -17t49 17t19 51v16l85 22v-40q0 -36 -12.5 -64.5t-33.5 -49t-49.5 -31t-61.5 -10.5q-32 0 -60 10.5t-49 31t-33 49t-12 64.5v501q0 36 12 64.5t33 49t50 31t64 10.5q70 0 111 -41.5t41 -113.5v-26h-85v24q0 34 -17.5 51t-48.5 17
q-32 0 -50.5 -17t-18.5 -51v-497zM303 989l-107 -158h-78l88 158h97z" />
    <glyph glyph-name="cacute" unicode="&#x107;" horiz-adv-x="370" 
d="M41 0zM127 145q0 -32 18 -48.5t46 -16.5q29 0 47 16.5t18 48.5v37l81 21v-63q0 -35 -11.5 -62t-32 -46.5t-47.5 -29.5t-58 -10t-57.5 10t-46.5 29.5t-31.5 46.5t-11.5 62v331q0 34 11.5 61.5t31.5 47t46.5 29.5t57.5 10t58 -10t47.5 -29.5t32 -47t11.5 -61.5v-26h-81v21
q0 32 -18 48.5t-47 16.5q-28 0 -46 -16.5t-18 -48.5v-321zM295 817l-107 -158h-78l88 158h97z" />
    <glyph glyph-name="Cdotaccent" unicode="&#x10a;" horiz-adv-x="379" 
d="M41 0zM132 143q0 -34 18.5 -51t48.5 -17t49 17t19 51v16l85 22v-40q0 -36 -12.5 -64.5t-33.5 -49t-49.5 -31t-61.5 -10.5q-32 0 -60 10.5t-49 31t-33 49t-12 64.5v501q0 36 12 64.5t33 49t50 31t64 10.5q70 0 111 -41.5t41 -113.5v-26h-85v24q0 34 -17.5 51t-48.5 17
q-32 0 -50.5 -17t-18.5 -51v-497zM201 978q27 0 40 -15.5t13 -38.5t-13 -39.5t-40 -16.5q-26 0 -38.5 16.5t-12.5 39.5t12.5 38.5t38.5 15.5z" />
    <glyph glyph-name="cdotaccent" unicode="&#x10b;" horiz-adv-x="370" 
d="M41 0zM127 145q0 -32 18 -48.5t46 -16.5q29 0 47 16.5t18 48.5v37l81 21v-63q0 -35 -11.5 -62t-32 -46.5t-47.5 -29.5t-58 -10t-57.5 10t-46.5 29.5t-31.5 46.5t-11.5 62v331q0 34 11.5 61.5t31.5 47t46.5 29.5t57.5 10t58 -10t47.5 -29.5t32 -47t11.5 -61.5v-26h-81v21
q0 32 -18 48.5t-47 16.5q-28 0 -46 -16.5t-18 -48.5v-321zM192 806q27 0 40 -15.5t13 -38.5t-13 -39.5t-40 -16.5q-26 0 -38.5 16.5t-12.5 39.5t12.5 38.5t38.5 15.5z" />
    <glyph glyph-name="Ccaron" unicode="&#x10c;" horiz-adv-x="379" 
d="M41 0zM132 143q0 -34 18.5 -51t48.5 -17t49 17t19 51v16l85 22v-40q0 -36 -12.5 -64.5t-33.5 -49t-49.5 -31t-61.5 -10.5q-32 0 -60 10.5t-49 31t-33 49t-12 64.5v501q0 36 12 64.5t33 49t50 31t64 10.5q70 0 111 -41.5t41 -113.5v-26h-85v24q0 34 -17.5 51t-48.5 17
q-32 0 -50.5 -17t-18.5 -51v-497zM131 989l71 -116l73 116h74l-98 -158h-96l-99 158h75z" />
    <glyph glyph-name="ccaron" unicode="&#x10d;" horiz-adv-x="370" 
d="M41 0zM127 145q0 -32 18 -48.5t46 -16.5q29 0 47 16.5t18 48.5v37l81 21v-63q0 -35 -11.5 -62t-32 -46.5t-47.5 -29.5t-58 -10t-57.5 10t-46.5 29.5t-31.5 46.5t-11.5 62v331q0 34 11.5 61.5t31.5 47t46.5 29.5t57.5 10t58 -10t47.5 -29.5t32 -47t11.5 -61.5v-26h-81v21
q0 32 -18 48.5t-47 16.5q-28 0 -46 -16.5t-18 -48.5v-321zM121 817l71 -116l73 116h74l-98 -158h-96l-99 158h75z" />
    <glyph glyph-name="Dcaron" unicode="&#x10e;" horiz-adv-x="405" 
d="M36 0zM208 783q72 0 114 -44t42 -136v-423q0 -92 -42 -136t-114 -44h-162v783h162zM138 89h63q72 0 72 85v435q0 85 -72 85h-63v-605zM111 989l71 -116l73 116h74l-98 -158h-96l-99 158h75z" />
    <glyph glyph-name="dcaron" unicode="&#x10f;" horiz-adv-x="505" 
d="M41 0zM354 815v-815h-61l-15 38q-23 -22 -52 -34t-59 -12q-25 0 -48 9t-40 27.5t-27.5 46t-10.5 65.5v331q0 37 10.5 65t27.5 46.5t40 27.5t48 9q26 0 51 -9t47 -26v209zM130 159q0 -38 14.5 -58.5t47.5 -20.5q40 0 73 35v381q-33 35 -73 35q-33 0 -47.5 -20.5
t-14.5 -58.5v-293zM514 806l-44 -190h-70l26 190h88z" />
    <glyph glyph-name="Dcroat" unicode="&#x110;" horiz-adv-x="417" 
d="M9 0zM220 783q72 0 114 -44t42 -136v-423q0 -92 -42 -136t-114 -44h-162v359h-49v89h49v335h162zM150 448h82v-89h-82v-270h63q72 0 72 85v435q0 85 -72 85h-63v-246z" />
    <glyph glyph-name="dmacron" unicode="&#x111;" horiz-adv-x="400" 
d="M265 739v54l89 22v-76h40v-67h-40v-672h-61l-15 38q-23 -22 -52 -34t-59 -12q-25 0 -48 9t-40 27.5t-27.5 46t-10.5 65.5v331q0 37 10.5 65t27.5 46.5t40 27.5t48 9q26 0 51 -9t47 -26v88h-195v67h195zM130 159q0 -38 14.5 -58.5t47.5 -20.5q40 0 73 35v381
q-33 35 -73 35q-33 0 -47.5 -20.5t-14.5 -58.5v-293z" />
    <glyph glyph-name="Emacron" unicode="&#x112;" horiz-adv-x="334" 
d="M15 0zM305 783v-89h-167v-246h118v-89h-118v-270h167v-89h-259v783h259zM339 951v-67h-324v67h324z" />
    <glyph glyph-name="emacron" unicode="&#x113;" horiz-adv-x="375" 
d="M26 0zM241 274q-21 -18 -49.5 -38.5t-64.5 -43.5v-49q0 -32 18 -48.5t46 -16.5q29 0 47 16.5t18 48.5v39l81 21v-63q0 -35 -11.5 -62t-32 -46.5t-47.5 -29.5t-58 -10t-57.5 10t-46.5 29.5t-31.5 46.5t-11.5 62v331q0 34 11.5 61.5t31.5 47t47 29.5t58 10q27 0 54 -8
t48 -27t34.5 -49.5t13.5 -76.5q0 -57 -23.5 -99.5t-74.5 -84.5zM127 278q45 29 69 52q31 29 44 57t13 65q0 48 -19.5 66.5t-45.5 18.5q-29 0 -45 -18.5t-16 -51.5v-189zM350 779v-67h-324v67h324z" />
    <glyph glyph-name="Ebreve" unicode="&#x114;" horiz-adv-x="334" 
d="M46 0zM305 783v-89h-167v-246h118v-89h-118v-270h167v-89h-259v783h259zM116 989q3 -57 19 -80t42 -23t42 23t19 80h65q-2 -30 -9.5 -58t-22.5 -49.5t-38.5 -34.5t-55.5 -13q-33 0 -56 13t-38.5 35t-23.5 49.5t-9 57.5h66z" />
    <glyph glyph-name="ebreve" unicode="&#x115;" horiz-adv-x="375" 
d="M41 0zM241 274q-21 -18 -49.5 -38.5t-64.5 -43.5v-49q0 -32 18 -48.5t46 -16.5q29 0 47 16.5t18 48.5v39l81 21v-63q0 -35 -11.5 -62t-32 -46.5t-47.5 -29.5t-58 -10t-57.5 10t-46.5 29.5t-31.5 46.5t-11.5 62v331q0 34 11.5 61.5t31.5 47t47 29.5t58 10q27 0 54 -8
t48 -27t34.5 -49.5t13.5 -76.5q0 -57 -23.5 -99.5t-74.5 -84.5zM127 278q45 29 69 52q31 29 44 57t13 65q0 48 -19.5 66.5t-45.5 18.5q-29 0 -45 -18.5t-16 -51.5v-189zM126 817q3 -57 19 -80t42 -23t42 23t19 80h65q-2 -30 -9.5 -58t-22.5 -49.5t-38.5 -34.5t-55.5 -13
q-33 0 -56 13t-38.5 35t-23.5 49.5t-9 57.5h66z" />
    <glyph glyph-name="Edotaccent" unicode="&#x116;" horiz-adv-x="334" 
d="M46 0zM305 783v-89h-167v-246h118v-89h-118v-270h167v-89h-259v783h259zM177 978q27 0 40 -15.5t13 -38.5t-13 -39.5t-40 -16.5q-26 0 -38.5 16.5t-12.5 39.5t12.5 38.5t38.5 15.5z" />
    <glyph glyph-name="edotaccent" unicode="&#x117;" horiz-adv-x="375" 
d="M41 0zM241 274q-21 -18 -49.5 -38.5t-64.5 -43.5v-49q0 -32 18 -48.5t46 -16.5q29 0 47 16.5t18 48.5v39l81 21v-63q0 -35 -11.5 -62t-32 -46.5t-47.5 -29.5t-58 -10t-57.5 10t-46.5 29.5t-31.5 46.5t-11.5 62v331q0 34 11.5 61.5t31.5 47t47 29.5t58 10q27 0 54 -8
t48 -27t34.5 -49.5t13.5 -76.5q0 -57 -23.5 -99.5t-74.5 -84.5zM127 278q45 29 69 52q31 29 44 57t13 65q0 48 -19.5 66.5t-45.5 18.5q-29 0 -45 -18.5t-16 -51.5v-189zM187 806q27 0 40 -15.5t13 -38.5t-13 -39.5t-40 -16.5q-26 0 -38.5 16.5t-12.5 39.5t12.5 38.5
t38.5 15.5z" />
    <glyph glyph-name="Eogonek" unicode="&#x118;" horiz-adv-x="334" 
d="M252 0h-206v783h259v-89h-167v-246h118v-89h-118v-270h167v-89l-85 -37q-34 -15 -45.5 -27t-11.5 -28q0 -19 13.5 -30t50.5 -11q23 0 42.5 4.5t32.5 13.5l29 -61q-13 -14 -43 -24t-75 -10q-39 0 -64 8t-39.5 21t-20 29t-5.5 32q0 36 25 59.5t76 39.5z" />
    <glyph glyph-name="eogonek" unicode="&#x119;" horiz-adv-x="375" 
d="M164 -6q-54 7 -88.5 45t-34.5 101v331q0 34 11.5 61.5t31.5 47t47 29.5t58 10q27 0 54 -8t48 -27t34.5 -49.5t13.5 -76.5q0 -57 -23.5 -99.5t-74.5 -84.5q-21 -18 -49.5 -38.5t-64.5 -43.5v-49q0 -32 18 -48.5t46 -16.5q29 0 47 16.5t18 48.5v39l81 21v-63
q0 -57 -29.5 -93.5t-74.5 -48.5l-80 -35q-34 -15 -45.5 -27t-11.5 -28q0 -19 13.5 -30t50.5 -11q23 0 42.5 4.5t32.5 13.5l29 -61q-13 -14 -43 -24t-75 -10q-39 0 -64 8t-39.5 21t-20 29t-5.5 32q0 36 25 59.5t76 39.5zM127 278q45 29 69 52q31 29 44 57t13 65
q0 48 -19.5 66.5t-45.5 18.5q-29 0 -45 -18.5t-16 -51.5v-189z" />
    <glyph glyph-name="Ecaron" unicode="&#x11a;" horiz-adv-x="334" 
d="M31 0zM305 783v-89h-167v-246h118v-89h-118v-270h167v-89h-259v783h259zM106 989l71 -116l73 116h74l-98 -158h-96l-99 158h75z" />
    <glyph glyph-name="ecaron" unicode="&#x11b;" horiz-adv-x="375" 
d="M41 0zM241 274q-21 -18 -49.5 -38.5t-64.5 -43.5v-49q0 -32 18 -48.5t46 -16.5q29 0 47 16.5t18 48.5v39l81 21v-63q0 -35 -11.5 -62t-32 -46.5t-47.5 -29.5t-58 -10t-57.5 10t-46.5 29.5t-31.5 46.5t-11.5 62v331q0 34 11.5 61.5t31.5 47t47 29.5t58 10q27 0 54 -8
t48 -27t34.5 -49.5t13.5 -76.5q0 -57 -23.5 -99.5t-74.5 -84.5zM127 278q45 29 69 52q31 29 44 57t13 65q0 48 -19.5 66.5t-45.5 18.5q-29 0 -45 -18.5t-16 -51.5v-189zM116 817l71 -116l73 116h74l-98 -158h-96l-99 158h75z" />
    <glyph glyph-name="Gbreve" unicode="&#x11e;" horiz-adv-x="393" 
d="M41 0zM130 143q0 -34 18.5 -51t48.5 -17t51 17t21 51v208h-78v83h158v-434h-57l-4 34q-19 -21 -46 -34.5t-62 -13.5q-60 0 -99.5 41.5t-39.5 113.5v501q0 36 11.5 64.5t32.5 49t50 31t64 10.5q69 0 111 -41.5t42 -113.5v-26h-85v24q0 34 -18.5 51t-48.5 17q-32 0 -51 -17
t-19 -51v-497zM138 989q3 -57 19 -80t42 -23t42 23t19 80h65q-2 -30 -9.5 -58t-22.5 -49.5t-38.5 -34.5t-55.5 -13q-33 0 -56 13t-38.5 35t-23.5 49.5t-9 57.5h66z" />
    <glyph glyph-name="gbreve" unicode="&#x11f;" horiz-adv-x="392" 
d="M3 0zM42 471q0 34 12 61.5t32.5 47t48 29.5t59.5 10q46 0 81 -21l111 6l-50 -77q10 -28 10 -56v-162q0 -35 -12 -62t-32.5 -46.5t-48.5 -29.5t-59 -10q-19 0 -35 3q-24 -20 -24 -48q0 -19 12 -30.5t39 -11.5h175l-35 -76h-171q-33 0 -47 -13.5t-14 -33.5t12.5 -33.5
t37.5 -13.5h140l-35 -75h-122q-31 0 -54 9.5t-38.5 26t-23.5 38t-8 44.5q0 36 18 65.5t56 44.5q-14 20 -14 50q0 26 12 44.5t32 32.5q-30 18 -47.5 50t-17.5 75v162zM126 310q0 -33 19 -50t49 -17q29 0 48.5 17t19.5 50v160q0 34 -19.5 50.5t-48.5 16.5q-30 0 -49 -16.5
t-19 -50.5v-160zM135 817q3 -57 19 -80t42 -23t42 23t19 80h65q-2 -30 -9.5 -58t-22.5 -49.5t-38.5 -34.5t-55.5 -13q-33 0 -56 13t-38.5 35t-23.5 49.5t-9 57.5h66z" />
    <glyph glyph-name="Gdotaccent" unicode="&#x120;" horiz-adv-x="393" 
d="M41 0zM130 143q0 -34 18.5 -51t48.5 -17t51 17t21 51v208h-78v83h158v-434h-57l-4 34q-19 -21 -46 -34.5t-62 -13.5q-60 0 -99.5 41.5t-39.5 113.5v501q0 36 11.5 64.5t32.5 49t50 31t64 10.5q69 0 111 -41.5t42 -113.5v-26h-85v24q0 34 -18.5 51t-48.5 17q-32 0 -51 -17
t-19 -51v-497zM199 978q27 0 40 -15.5t13 -38.5t-13 -39.5t-40 -16.5q-26 0 -38.5 16.5t-12.5 39.5t12.5 38.5t38.5 15.5z" />
    <glyph glyph-name="gdotaccent" unicode="&#x121;" horiz-adv-x="392" 
d="M3 0zM42 471q0 34 12 61.5t32.5 47t48 29.5t59.5 10q46 0 81 -21l111 6l-50 -77q10 -28 10 -56v-162q0 -35 -12 -62t-32.5 -46.5t-48.5 -29.5t-59 -10q-19 0 -35 3q-24 -20 -24 -48q0 -19 12 -30.5t39 -11.5h175l-35 -76h-171q-33 0 -47 -13.5t-14 -33.5t12.5 -33.5
t37.5 -13.5h140l-35 -75h-122q-31 0 -54 9.5t-38.5 26t-23.5 38t-8 44.5q0 36 18 65.5t56 44.5q-14 20 -14 50q0 26 12 44.5t32 32.5q-30 18 -47.5 50t-17.5 75v162zM126 310q0 -33 19 -50t49 -17q29 0 48.5 17t19.5 50v160q0 34 -19.5 50.5t-48.5 16.5q-30 0 -49 -16.5
t-19 -50.5v-160zM195 806q27 0 40 -15.5t13 -38.5t-13 -39.5t-40 -16.5q-26 0 -38.5 16.5t-12.5 39.5t12.5 38.5t38.5 15.5z" />
    <glyph glyph-name="Gcommaaccent" unicode="&#x122;" horiz-adv-x="393" 
d="M41 0zM130 143q0 -34 18.5 -51t48.5 -17t51 17t21 51v208h-78v83h158v-434h-57l-4 34q-19 -21 -46 -34.5t-62 -13.5q-60 0 -99.5 41.5t-39.5 113.5v501q0 36 11.5 64.5t32.5 49t50 31t64 10.5q69 0 111 -41.5t42 -113.5v-26h-85v24q0 34 -18.5 51t-48.5 17q-32 0 -51 -17
t-19 -51v-497zM236 -20l-44 -190h-70l26 190h88z" />
    <glyph glyph-name="gcommaaccent" unicode="&#x123;" horiz-adv-x="392" 
d="M3 0zM42 471q0 34 12 61.5t32.5 47t48 29.5t59.5 10q46 0 81 -21l111 6l-50 -77q10 -28 10 -56v-162q0 -35 -12 -62t-32.5 -46.5t-48.5 -29.5t-59 -10q-19 0 -35 3q-24 -20 -24 -48q0 -19 12 -30.5t39 -11.5h175l-35 -76h-171q-33 0 -47 -13.5t-14 -33.5t12.5 -33.5
t37.5 -13.5h140l-35 -75h-122q-31 0 -54 9.5t-38.5 26t-23.5 38t-8 44.5q0 36 18 65.5t56 44.5q-14 20 -14 50q0 26 12 44.5t32 32.5q-30 18 -47.5 50t-17.5 75v162zM126 310q0 -33 19 -50t49 -17q29 0 48.5 17t19.5 50v160q0 34 -19.5 50.5t-48.5 16.5q-30 0 -49 -16.5
t-19 -50.5v-160zM264 932l-9 -202q-1 -24 -13 -39.5t-38 -15.5q-27 0 -40 16t-13 38q0 17 11 42l70 161h32z" />
    <glyph glyph-name="Hbar" unicode="&#x126;" horiz-adv-x="471" 
d="M74 651v132h92v-132h139v132h92v-132h60v-67h-60v-584h-92v354h-139v-354h-92v584h-61v67h61zM305 442v142h-139v-142h139z" />
    <glyph glyph-name="hbar" unicode="&#x127;" horiz-adv-x="403" 
d="M135 815v-76h195v-67h-195v-85q43 32 96 32q26 0 49.5 -9t41 -27.5t27.5 -46.5t10 -65v-471h-89v452q0 38 -15 58.5t-49 20.5q-37 0 -71 -32v-499h-89v672h-40v67h40v54z" />
    <glyph glyph-name="Itilde" unicode="&#x128;" horiz-adv-x="282" 
d="M0 0zM187 783v-783h-92v783h92zM-30 899q18 37 42.5 56.5t61.5 19.5q24 0 41 -7.5t32 -16.5t29.5 -16.5t33.5 -7.5t35.5 10t30.5 39l36 -32q-19 -38 -43.5 -57.5t-57.5 -19.5q-23 0 -39.5 7.5t-32 16.5t-31.5 16.5t-36 7.5q-19 0 -35.5 -9.5t-30.5 -38.5z" />
    <glyph glyph-name="itilde" unicode="&#x129;" horiz-adv-x="296" 
d="M0 0zM-23 727q18 37 42.5 56.5t61.5 19.5q24 0 41 -7.5t32 -16.5t29.5 -16.5t33.5 -7.5t35.5 10t30.5 39l36 -32q-19 -38 -43.5 -57.5t-57.5 -19.5q-23 0 -39.5 7.5t-32 16.5t-31.5 16.5t-36 7.5q-19 0 -35.5 -9.5t-30.5 -38.5zM193 611v-611h-89v611h89z" />
    <glyph glyph-name="Imacron" unicode="&#x12a;" horiz-adv-x="259" 
d="M0 0zM175 783v-783h-92v783h92zM292 951v-67h-324v67h324z" />
    <glyph glyph-name="imacron" unicode="&#x12b;" horiz-adv-x="285" 
d="M0 0zM304 779v-67h-324v67h324zM187 611v-611h-89v611h89z" />
    <glyph glyph-name="Ibreve" unicode="&#x12c;" horiz-adv-x="214" 
d="M0 0zM153 783v-783h-92v783h92zM46 989q3 -57 19 -80t42 -23t42 23t19 80h65q-2 -30 -9.5 -58t-22.5 -49.5t-38.5 -34.5t-55.5 -13q-33 0 -56 13t-38.5 35t-23.5 49.5t-9 57.5h66z" />
    <glyph glyph-name="ibreve" unicode="&#x12d;" horiz-adv-x="229" 
d="M0 0zM53 817q3 -57 19 -80t42 -23t42 23t19 80h65q-2 -30 -9.5 -58t-22.5 -49.5t-38.5 -34.5t-55.5 -13q-33 0 -56 13t-38.5 35t-23.5 49.5t-9 57.5h66zM159 611v-611h-89v611h89z" />
    <glyph glyph-name="Iogonek" unicode="&#x12e;" horiz-adv-x="198" 
d="M60 783h92v-783l-85 -37q-34 -15 -45.5 -27t-11.5 -28q0 -19 13.5 -30t50.5 -11q23 0 42.5 4.5t32.5 13.5l29 -61q-13 -14 -43 -24t-75 -10q-39 0 -64 8t-39.5 21t-20 29t-5.5 32q0 36 29 60.5t100 47.5v795z" />
    <glyph glyph-name="iogonek" unicode="&#x12f;" horiz-adv-x="197" 
d="M151 611v-611l-85 -37q-34 -15 -45.5 -27t-11.5 -28q0 -19 13.5 -30t50.5 -11q23 0 42.5 4.5t32.5 13.5l29 -61q-13 -14 -43 -24t-75 -10q-39 0 -64 8t-39.5 21t-20 29t-5.5 32q0 36 29 61t103 48v622h89zM106 806q27 0 40 -15.5t13 -38.5t-13 -39.5t-40 -16.5
q-26 0 -38.5 16.5t-12.5 39.5t12.5 38.5t38.5 15.5z" />
    <glyph glyph-name="Idotaccent" unicode="&#x130;" horiz-adv-x="184" 
d="M40 0zM138 783v-783h-92v783h92zM91 978q27 0 40 -15.5t13 -38.5t-13 -39.5t-40 -16.5q-26 0 -38.5 16.5t-12.5 39.5t12.5 38.5t38.5 15.5z" />
    <glyph glyph-name="dotlessi" unicode="&#x131;" horiz-adv-x="181" 
d="M135 611v-611h-89v611h89z" />
    <glyph glyph-name="IJ" unicode="&#x132;" horiz-adv-x="549" 
d="M46 0zM138 783v-783h-92v783h92zM505 783v-642q0 -36 -11.5 -64.5t-32.5 -49t-49.5 -31t-62.5 -10.5t-62.5 10.5t-49 31t-32 49t-11.5 64.5v40l85 -22v-16q0 -34 18.5 -51t48.5 -17q31 0 49.5 17t18.5 51v640h91z" />
    <glyph glyph-name="ij" unicode="&#x133;" horiz-adv-x="381" 
d="M38 0zM135 611v-611h-89v611h89zM334 611v-637q0 -32 -8 -60.5t-24.5 -50t-42.5 -34t-62 -12.5q-23 0 -44 6t-38 18l24 77q23 -17 45 -17q29 0 46.5 19.5t17.5 53.5v637h86zM291 806q27 0 40 -15.5t13 -38.5t-13 -39.5t-40 -16.5q-26 0 -38.5 16.5t-12.5 39.5t12.5 38.5
t38.5 15.5zM89 806q27 0 40 -15.5t13 -38.5t-13 -39.5t-40 -16.5q-26 0 -38.5 16.5t-12.5 39.5t12.5 38.5t38.5 15.5z" />
    <glyph glyph-name="Kcommaaccent" unicode="&#x136;" horiz-adv-x="387" 
d="M46 0zM362 783l-146 -320l158 -463h-96l-140 423v-423h-92v783h92v-291l130 291h94zM244 -20l-44 -190h-70l26 190h88z" />
    <glyph glyph-name="kcommaaccent" unicode="&#x137;" horiz-adv-x="375" 
d="M46 0zM350 611l-140 -250l152 -361h-92l-135 329v-329h-89v793l89 22v-431l124 227h91zM241 -20l-44 -190h-70l26 190h88z" />
    <glyph glyph-name="Lacute" unicode="&#x139;" horiz-adv-x="305" 
d="M46 0zM138 783v-694h147v-89h-239v783h92zM232 989l-107 -158h-78l88 158h97z" />
    <glyph glyph-name="lacute" unicode="&#x13a;" horiz-adv-x="181" 
d="M12 0zM135 815v-815h-89v793zM197 989l-107 -158h-78l88 158h97z" />
    <glyph glyph-name="Lcommaaccent" unicode="&#x13b;" horiz-adv-x="305" 
d="M46 0zM138 783v-694h147v-89h-239v783h92zM208 -20l-44 -190h-70l26 190h88z" />
    <glyph glyph-name="lcommaaccent" unicode="&#x13c;" horiz-adv-x="181" 
d="M21 0zM135 815v-815h-89v793zM135 -20l-44 -190h-70l26 190h88z" />
    <glyph glyph-name="Lcaron" unicode="&#x13d;" horiz-adv-x="332" 
d="M46 0zM138 783v-694h147v-89h-239v783h92zM315 806l-44 -190h-70l26 190h88z" />
    <glyph glyph-name="lcaron" unicode="&#x13e;" horiz-adv-x="285" 
d="M46 0zM135 815v-815h-89v793zM294 806l-44 -190h-70l26 190h88z" />
    <glyph glyph-name="Lslash" unicode="&#x141;" horiz-adv-x="352" 
d="M159 783v-280l130 75l32 -55l-162 -94v-340h147v-89h-239v375l-35 -20l-32 56l67 38v334h92z" />
    <glyph glyph-name="lslash" unicode="&#x142;" horiz-adv-x="311" 
d="M201 815v-257l83 48l32 -55l-115 -67v-484h-89v432l-85 -49l-32 56l117 67v287z" />
    <glyph glyph-name="Nacute" unicode="&#x143;" horiz-adv-x="405" 
d="M46 0zM146 783l133 -540v540h80v-783h-82l-151 576v-576h-80v783h100zM301 989l-107 -158h-78l88 158h97z" />
    <glyph glyph-name="nacute" unicode="&#x144;" horiz-adv-x="403" 
d="M46 0zM107 611l14 -35q23 21 52 32t58 11q26 0 49.5 -9t41 -27.5t27.5 -46.5t10 -65v-471h-89v452q0 38 -15 58.5t-49 20.5q-37 0 -71 -32v-499h-89v611h61zM303 817l-107 -158h-78l88 158h97z" />
    <glyph glyph-name="Ncommaaccent" unicode="&#x145;" horiz-adv-x="405" 
d="M46 0zM146 783l133 -540v540h80v-783h-82l-151 576v-576h-80v783h100zM246 -20l-44 -190h-70l26 190h88z" />
    <glyph glyph-name="ncommaaccent" unicode="&#x146;" horiz-adv-x="403" 
d="M46 0zM107 611l14 -35q23 21 52 32t58 11q26 0 49.5 -9t41 -27.5t27.5 -46.5t10 -65v-471h-89v452q0 38 -15 58.5t-49 20.5q-37 0 -71 -32v-499h-89v611h61zM247 -20l-44 -190h-70l26 190h88z" />
    <glyph glyph-name="Ncaron" unicode="&#x147;" horiz-adv-x="405" 
d="M46 0zM146 783l133 -540v540h80v-783h-82l-151 576v-576h-80v783h100zM131 989l71 -116l73 116h74l-98 -158h-96l-99 158h75z" />
    <glyph glyph-name="ncaron" unicode="&#x148;" horiz-adv-x="403" 
d="M46 0zM107 611l14 -35q23 21 52 32t58 11q26 0 49.5 -9t41 -27.5t27.5 -46.5t10 -65v-471h-89v452q0 38 -15 58.5t-49 20.5q-37 0 -71 -32v-499h-89v611h61zM130 817l71 -116l73 116h74l-98 -158h-96l-99 158h75z" />
    <glyph glyph-name="Eng" unicode="&#x14a;" horiz-adv-x="405" 
d="M146 783l133 -540v540h80v-809q0 -32 -8 -60.5t-24.5 -50t-42.5 -34t-62 -12.5q-23 0 -44 6t-38 18l24 77q23 -17 45 -17q29 0 49.5 19.5t20.5 53.5v24l-153 578v-576h-80v783h100z" />
    <glyph glyph-name="eng" unicode="&#x14b;" horiz-adv-x="403" 
d="M270 452q0 38 -15 58.5t-49 20.5q-37 0 -71 -32v-499h-89v611h61l14 -35q23 21 52 32t58 11q26 0 49.5 -9t41 -27.5t27.5 -46.5t10 -65v-497q0 -32 -8 -60.5t-24.5 -50t-42.5 -34t-62 -12.5q-23 0 -44 6t-38 18l24 77q23 -17 45 -17q29 0 45 19.5t16 53.5v478v0z" />
    <glyph glyph-name="Omacron" unicode="&#x14c;" horiz-adv-x="404" 
d="M40 0zM363 143q0 -37 -12.5 -66t-34.5 -49.5t-51.5 -31t-62.5 -10.5q-34 0 -63.5 10.5t-51 31t-34 49.5t-12.5 66v497q0 37 12.5 66t34 49t51 31t63.5 11q33 0 62.5 -11t51.5 -31t34.5 -49t12.5 -66v-497zM132 144q0 -34 19.5 -51.5t50.5 -17.5t50.5 17.5t19.5 51.5v495
q0 34 -19.5 51.5t-50.5 17.5t-50.5 -17.5t-19.5 -51.5v-495zM364 951v-67h-324v67h324z" />
    <glyph glyph-name="omacron" unicode="&#x14d;" horiz-adv-x="386" 
d="M31 0zM345 140q0 -35 -12 -62t-32.5 -46.5t-48.5 -29.5t-59 -10q-32 0 -59.5 10t-48 29.5t-32.5 46.5t-12 62v331q0 34 12 61.5t32.5 47t48 29.5t59.5 10q31 0 59 -10t48.5 -29.5t32.5 -47t12 -61.5v-331zM127 145q0 -32 18.5 -48.5t47.5 -16.5t47 16.5t18 48.5v321
q0 32 -18 48.5t-47 16.5t-47.5 -16.5t-18.5 -48.5v-321zM355 779v-67h-324v67h324z" />
    <glyph glyph-name="Obreve" unicode="&#x14e;" horiz-adv-x="404" 
d="M41 0zM363 143q0 -37 -12.5 -66t-34.5 -49.5t-51.5 -31t-62.5 -10.5q-34 0 -63.5 10.5t-51 31t-34 49.5t-12.5 66v497q0 37 12.5 66t34 49t51 31t63.5 11q33 0 62.5 -11t51.5 -31t34.5 -49t12.5 -66v-497zM132 144q0 -34 19.5 -51.5t50.5 -17.5t50.5 17.5t19.5 51.5v495
q0 34 -19.5 51.5t-50.5 17.5t-50.5 -17.5t-19.5 -51.5v-495zM141 989q3 -57 19 -80t42 -23t42 23t19 80h65q-2 -30 -9.5 -58t-22.5 -49.5t-38.5 -34.5t-55.5 -13q-33 0 -56 13t-38.5 35t-23.5 49.5t-9 57.5h66z" />
    <glyph glyph-name="obreve" unicode="&#x14f;" horiz-adv-x="386" 
d="M41 0zM345 140q0 -35 -12 -62t-32.5 -46.5t-48.5 -29.5t-59 -10q-32 0 -59.5 10t-48 29.5t-32.5 46.5t-12 62v331q0 34 12 61.5t32.5 47t48 29.5t59.5 10q31 0 59 -10t48.5 -29.5t32.5 -47t12 -61.5v-331zM127 145q0 -32 18.5 -48.5t47.5 -16.5t47 16.5t18 48.5v321
q0 32 -18 48.5t-47 16.5t-47.5 -16.5t-18.5 -48.5v-321zM132 817q3 -57 19 -80t42 -23t42 23t19 80h65q-2 -30 -9.5 -58t-22.5 -49.5t-38.5 -34.5t-55.5 -13q-33 0 -56 13t-38.5 35t-23.5 49.5t-9 57.5h66z" />
    <glyph glyph-name="Ohungarumlaut" unicode="&#x150;" horiz-adv-x="404" 
d="M41 0zM363 143q0 -37 -12.5 -66t-34.5 -49.5t-51.5 -31t-62.5 -10.5q-34 0 -63.5 10.5t-51 31t-34 49.5t-12.5 66v497q0 37 12.5 66t34 49t51 31t63.5 11q33 0 62.5 -11t51.5 -31t34.5 -49t12.5 -66v-497zM132 144q0 -34 19.5 -51.5t50.5 -17.5t50.5 17.5t19.5 51.5v495
q0 34 -19.5 51.5t-50.5 17.5t-50.5 -17.5t-19.5 -51.5v-495zM381 989l-106 -158h-79l88 158h97zM226 989l-107 -158h-78l88 158h97z" />
    <glyph glyph-name="ohungarumlaut" unicode="&#x151;" horiz-adv-x="386" 
d="M32 0zM345 140q0 -35 -12 -62t-32.5 -46.5t-48.5 -29.5t-59 -10q-32 0 -59.5 10t-48 29.5t-32.5 46.5t-12 62v331q0 34 12 61.5t32.5 47t48 29.5t59.5 10q31 0 59 -10t48.5 -29.5t32.5 -47t12 -61.5v-331zM127 145q0 -32 18.5 -48.5t47.5 -16.5t47 16.5t18 48.5v321
q0 32 -18 48.5t-47 16.5t-47.5 -16.5t-18.5 -48.5v-321zM372 817l-106 -158h-79l88 158h97zM217 817l-107 -158h-78l88 158h97z" />
    <glyph glyph-name="OE" unicode="&#x152;" horiz-adv-x="560" 
d="M272 0q-33 -14 -70 -14q-34 0 -63.5 10.5t-51 31t-34 49.5t-12.5 66v497q0 37 12.5 66t34 49t51 31t63.5 11q37 0 70 -14h259v-89h-167v-246h118v-89h-118v-270h167v-89h-259zM132 144q0 -34 19.5 -51.5t50.5 -17.5q29 0 48.5 16t21.5 46v502q0 34 -19.5 51.5t-50.5 17.5
t-50.5 -17.5t-19.5 -51.5v-495z" />
    <glyph glyph-name="oe" unicode="&#x153;" horiz-adv-x="593" 
d="M459 274q-21 -18 -49.5 -38.5t-64.5 -43.5v-49q0 -33 19 -49t45 -16q29 0 47 16.5t18 48.5v39l81 21v-63q0 -35 -11.5 -62t-32 -46.5t-47.5 -29.5t-58 -10q-65 0 -105 40q-43 -40 -108 -40q-32 0 -59.5 10t-48 29.5t-32.5 46.5t-12 62v331q0 34 12 61.5t32.5 47t48 29.5
t59.5 10q64 0 108 -41q41 41 106 41q27 0 54 -8t48 -27t34.5 -49.5t13.5 -76.5q0 -57 -23.5 -99.5t-74.5 -84.5zM345 278q45 29 69 52q31 29 44 57t13 65q0 48 -19.5 66.5t-45.5 18.5q-29 0 -45 -18.5t-16 -51.5v-189zM127 145q0 -32 18.5 -48.5t47.5 -16.5t47 16.5t18 48.5
v321q0 32 -18 48.5t-47 16.5t-47.5 -16.5t-18.5 -48.5v-321z" />
    <glyph glyph-name="Racute" unicode="&#x154;" horiz-adv-x="404" 
d="M46 0zM205 783q72 0 113.5 -41t41.5 -114v-109q0 -47 -14 -73t-41 -38q29 -12 45 -39t16 -75v-294h-91v297q0 37 -14.5 52.5t-56.5 15.5h-68v-365h-90v783h159zM136 444h62q41 0 56.5 16.5t15.5 54.5v102q0 79 -72 79h-62v-252zM302 989l-107 -158h-78l88 158h97z" />
    <glyph glyph-name="racute" unicode="&#x155;" horiz-adv-x="312" 
d="M46 0zM276 514q-28 17 -56 17q-50 0 -85 -52v-479h-89v611h61l17 -51q39 59 103 59q20 0 39 -6t35 -20zM259 817l-107 -158h-78l88 158h97z" />
    <glyph glyph-name="Rcommaaccent" unicode="&#x156;" horiz-adv-x="404" 
d="M46 0zM205 783q72 0 113.5 -41t41.5 -114v-109q0 -47 -14 -73t-41 -38q29 -12 45 -39t16 -75v-294h-91v297q0 37 -14.5 52.5t-56.5 15.5h-68v-365h-90v783h159zM136 444h62q41 0 56.5 16.5t15.5 54.5v102q0 79 -72 79h-62v-252zM245 -20l-44 -190h-70l26 190h88z" />
    <glyph glyph-name="rcommaaccent" unicode="&#x157;" horiz-adv-x="312" 
d="M19 0zM276 514q-28 17 -56 17q-50 0 -85 -52v-479h-89v611h61l17 -51q39 59 103 59q20 0 39 -6t35 -20zM133 -20l-44 -190h-70l26 190h88z" />
    <glyph glyph-name="Rcaron" unicode="&#x158;" horiz-adv-x="404" 
d="M46 0zM205 783q72 0 113.5 -41t41.5 -114v-109q0 -47 -14 -73t-41 -38q29 -12 45 -39t16 -75v-294h-91v297q0 37 -14.5 52.5t-56.5 15.5h-68v-365h-90v783h159zM136 444h62q41 0 56.5 16.5t15.5 54.5v102q0 79 -72 79h-62v-252zM130 989l71 -116l73 116h74l-98 -158h-96
l-99 158h75z" />
    <glyph glyph-name="rcaron" unicode="&#x159;" horiz-adv-x="312" 
d="M10 0zM276 514q-28 17 -56 17q-50 0 -85 -52v-479h-89v611h61l17 -51q39 59 103 59q20 0 39 -6t35 -20zM85 817l71 -116l73 116h74l-98 -158h-96l-99 158h75z" />
    <glyph glyph-name="Sacute" unicode="&#x15a;" horiz-adv-x="376" 
d="M25 0zM191 797q71 0 111 -42t40 -111v-28h-85v21q0 34 -18 54t-50 20q-37 0 -54.5 -24.5t-17.5 -59.5q0 -29 10.5 -54.5t30.5 -53.5q13 -19 32.5 -44t40 -52.5t39.5 -54t33 -48.5q23 -37 33.5 -70t10.5 -76q0 -87 -38 -137.5t-119 -50.5q-39 0 -69.5 12t-51.5 32.5
t-32.5 48.5t-11.5 60v42l85 -22v-19q0 -28 19.5 -49t54.5 -21q38 0 56.5 24t18.5 68q0 27 -8.5 55t-30.5 62q-11 17 -27.5 38t-34.5 44t-35.5 46.5t-31.5 45.5q-34 54 -46.5 95.5t-12.5 79.5q0 78 43.5 123.5t115.5 45.5zM290 989l-107 -158h-78l88 158h97z" />
    <glyph glyph-name="sacute" unicode="&#x15b;" horiz-adv-x="365" 
d="M27 0zM187 619q38 0 66 -10.5t46 -28.5t26.5 -42.5t8.5 -52.5v-40h-81v28q0 62 -67 62q-35 0 -51.5 -16t-16.5 -43q0 -16 7 -33t30 -41q14 -15 32.5 -32t38 -34.5t37.5 -35.5t31 -34q25 -31 34 -62t9 -61q0 -67 -37 -109t-117 -42q-73 0 -114.5 37.5t-41.5 104.5v69
l81 -21v-41q0 -29 18.5 -46.5t56.5 -17.5q71 0 71 69q0 21 -7.5 37.5t-27.5 39.5q-17 19 -36 37t-37.5 35t-35.5 33t-30 31q-27 32 -37.5 62.5t-10.5 59.5q0 67 42 102.5t113 35.5zM284 817l-107 -158h-78l88 158h97z" />
    <glyph glyph-name="Scedilla" unicode="&#x15e;" horiz-adv-x="376" 
d="M25 0zM191 797q71 0 111 -42t40 -111v-28h-85v21q0 34 -18 54t-50 20q-37 0 -54.5 -24.5t-17.5 -59.5q0 -29 10.5 -54.5t30.5 -53.5q13 -19 32.5 -44t40 -52.5t39.5 -54t33 -48.5q23 -37 33.5 -70t10.5 -76q0 -87 -38 -137.5t-119 -50.5q-39 0 -69.5 12t-51.5 32.5
t-32.5 48.5t-11.5 60v42l85 -22v-19q0 -28 19.5 -49t54.5 -21q38 0 56.5 24t18.5 68q0 27 -8.5 55t-30.5 62q-11 17 -27.5 38t-34.5 44t-35.5 46.5t-31.5 45.5q-34 54 -46.5 95.5t-12.5 79.5q0 78 43.5 123.5t115.5 45.5zM227 -20l-44 -190h-70l26 190h88z" />
    <glyph glyph-name="scedilla" unicode="&#x15f;" horiz-adv-x="365" 
d="M27 0zM187 619q38 0 66 -10.5t46 -28.5t26.5 -42.5t8.5 -52.5v-40h-81v28q0 62 -67 62q-35 0 -51.5 -16t-16.5 -43q0 -16 7 -33t30 -41q14 -15 32.5 -32t38 -34.5t37.5 -35.5t31 -34q25 -31 34 -62t9 -61q0 -67 -37 -109t-117 -42q-73 0 -114.5 37.5t-41.5 104.5v69
l81 -21v-41q0 -29 18.5 -46.5t56.5 -17.5q71 0 71 69q0 21 -7.5 37.5t-27.5 39.5q-17 19 -36 37t-37.5 35t-35.5 33t-30 31q-27 32 -37.5 62.5t-10.5 59.5q0 67 42 102.5t113 35.5zM225 -20l-44 -190h-70l26 190h88z" />
    <glyph glyph-name="Scaron" unicode="&#x160;" horiz-adv-x="376" 
d="M25 0zM191 797q71 0 111 -42t40 -111v-28h-85v21q0 34 -18 54t-50 20q-37 0 -54.5 -24.5t-17.5 -59.5q0 -29 10.5 -54.5t30.5 -53.5q13 -19 32.5 -44t40 -52.5t39.5 -54t33 -48.5q23 -37 33.5 -70t10.5 -76q0 -87 -38 -137.5t-119 -50.5q-39 0 -69.5 12t-51.5 32.5
t-32.5 48.5t-11.5 60v42l85 -22v-19q0 -28 19.5 -49t54.5 -21q38 0 56.5 24t18.5 68q0 27 -8.5 55t-30.5 62q-11 17 -27.5 38t-34.5 44t-35.5 46.5t-31.5 45.5q-34 54 -46.5 95.5t-12.5 79.5q0 78 43.5 123.5t115.5 45.5zM116 989l71 -116l73 116h74l-98 -158h-96l-99 158
h75z" />
    <glyph glyph-name="scaron" unicode="&#x161;" horiz-adv-x="365" 
d="M27 0zM187 619q38 0 66 -10.5t46 -28.5t26.5 -42.5t8.5 -52.5v-40h-81v28q0 62 -67 62q-35 0 -51.5 -16t-16.5 -43q0 -16 7 -33t30 -41q14 -15 32.5 -32t38 -34.5t37.5 -35.5t31 -34q25 -31 34 -62t9 -61q0 -67 -37 -109t-117 -42q-73 0 -114.5 37.5t-41.5 104.5v69
l81 -21v-41q0 -29 18.5 -46.5t56.5 -17.5q71 0 71 69q0 21 -7.5 37.5t-27.5 39.5q-17 19 -36 37t-37.5 35t-35.5 33t-30 31q-27 32 -37.5 62.5t-10.5 59.5q0 67 42 102.5t113 35.5zM111 817l71 -116l73 116h74l-98 -158h-96l-99 158h75z" />
    <glyph glyph-name="Tcedilla" unicode="&#x162;" horiz-adv-x="308" 
d="M20 0zM288 783v-89h-88v-694h-92v694h-88v89h268zM196 -20l-44 -190h-70l26 190h88z" />
    <glyph glyph-name="tcedilla" unicode="&#x163;" horiz-adv-x="308" 
d="M12 0zM78 611v107l86 36v-143h102v-75h-102v-386q0 -35 18 -54.5t47 -19.5q23 0 45 16l24 -76q-17 -12 -38.5 -18t-44.5 -6q-36 0 -62 12.5t-42.5 34t-24.5 50.5t-8 61v386h-66v75h66zM215 -20l-44 -190h-70l26 190h88z" />
    <glyph glyph-name="Tcaron" unicode="&#x164;" horiz-adv-x="308" 
d="M8 0zM288 783v-89h-88v-694h-92v694h-88v89h268zM83 989l71 -116l73 116h74l-98 -158h-96l-99 158h75z" />
    <glyph glyph-name="tcaron" unicode="&#x165;" horiz-adv-x="381" 
d="M12 0zM78 611v107l86 36v-143h102v-75h-102v-386q0 -35 18 -54.5t47 -19.5q23 0 45 16l24 -76q-17 -12 -38.5 -18t-44.5 -6q-36 0 -62 12.5t-42.5 34t-24.5 50.5t-8 61v386h-66v75h66zM390 802l-44 -190h-70l26 190h88z" />
    <glyph glyph-name="Tbar" unicode="&#x166;" horiz-adv-x="338" 
d="M123 451v243h-88v89h268v-89h-88v-243h116v-67h-116v-384h-92v384h-116v67h116z" />
    <glyph glyph-name="tbar" unicode="&#x167;" horiz-adv-x="348" 
d="M109 611v107l86 36v-143h102v-75h-102v-162h132v-67h-132v-157q0 -35 18 -54.5t47 -19.5q23 0 45 16l24 -76q-17 -12 -38.5 -18t-44.5 -6q-36 0 -62 12.5t-42.5 34t-24.5 50.5t-8 61v157h-106v67h106v162h-66v75h66z" />
    <glyph glyph-name="Utilde" unicode="&#x168;" horiz-adv-x="410" 
d="M34 0zM136 783v-639q0 -34 19.5 -51.5t49.5 -17.5q32 0 51.5 17.5t19.5 51.5v639h90v-640q0 -37 -12.5 -66t-34.5 -49.5t-51.5 -31t-63.5 -10.5t-63 10.5t-50.5 31t-34 49.5t-12.5 66v640h92zM34 899q18 37 42.5 56.5t61.5 19.5q24 0 41 -7.5t32 -16.5t29.5 -16.5
t33.5 -7.5t35.5 10t30.5 39l36 -32q-19 -38 -43.5 -57.5t-57.5 -19.5q-23 0 -39.5 7.5t-32 16.5t-31.5 16.5t-36 7.5q-19 0 -35.5 -9.5t-30.5 -38.5z" />
    <glyph glyph-name="utilde" unicode="&#x169;" horiz-adv-x="399" 
d="M28 0zM353 611v-611h-61l-15 34q-45 -42 -106 -42q-26 0 -49 9t-40.5 27.5t-27.5 46t-10 65.5v471h89v-452q0 -79 63 -79q36 0 68 31v500h89zM28 727q18 37 42.5 56.5t61.5 19.5q24 0 41 -7.5t32 -16.5t29.5 -16.5t33.5 -7.5t35.5 10t30.5 39l36 -32q-19 -38 -43.5 -57.5
t-57.5 -19.5q-23 0 -39.5 7.5t-32 16.5t-31.5 16.5t-36 7.5q-19 0 -35.5 -9.5t-30.5 -38.5z" />
    <glyph glyph-name="Umacron" unicode="&#x16a;" horiz-adv-x="410" 
d="M43 0zM136 783v-639q0 -34 19.5 -51.5t49.5 -17.5q32 0 51.5 17.5t19.5 51.5v639h90v-640q0 -37 -12.5 -66t-34.5 -49.5t-51.5 -31t-63.5 -10.5t-63 10.5t-50.5 31t-34 49.5t-12.5 66v640h92zM367 951v-67h-324v67h324z" />
    <glyph glyph-name="umacron" unicode="&#x16b;" horiz-adv-x="399" 
d="M37 0zM353 611v-611h-61l-15 34q-45 -42 -106 -42q-26 0 -49 9t-40.5 27.5t-27.5 46t-10 65.5v471h89v-452q0 -79 63 -79q36 0 68 31v500h89zM361 779v-67h-324v67h324z" />
    <glyph glyph-name="Uring" unicode="&#x16e;" horiz-adv-x="410" 
d="M44 0zM136 783v-639q0 -34 19.5 -51.5t49.5 -17.5q32 0 51.5 17.5t19.5 51.5v639h90v-640q0 -37 -12.5 -66t-34.5 -49.5t-51.5 -31t-63.5 -10.5t-63 10.5t-50.5 31t-34 49.5t-12.5 66v640h92zM218 989q42 0 65 -25.5t23 -63.5t-23 -64t-65 -26h-28q-41 0 -64 26t-23 64
t23 63.5t64 25.5h28zM190 940q-17 0 -27.5 -11t-10.5 -30q0 -18 10.5 -29t27.5 -11h28q17 0 28 11t11 29q0 19 -11 30t-28 11h-28z" />
    <glyph glyph-name="uring" unicode="&#x16f;" horiz-adv-x="399" 
d="M44 0zM353 611v-611h-61l-15 34q-45 -42 -106 -42q-26 0 -49 9t-40.5 27.5t-27.5 46t-10 65.5v471h89v-452q0 -79 63 -79q36 0 68 31v500h89zM213 817q42 0 65 -25.5t23 -63.5t-23 -64t-65 -26h-28q-41 0 -64 26t-23 64t23 63.5t64 25.5h28zM185 768q-17 0 -27.5 -11
t-10.5 -30q0 -18 10.5 -29t27.5 -11h28q17 0 28 11t11 29q0 19 -11 30t-28 11h-28z" />
    <glyph glyph-name="Uhungarumlaut" unicode="&#x170;" horiz-adv-x="410" 
d="M44 0zM136 783v-639q0 -34 19.5 -51.5t49.5 -17.5q32 0 51.5 17.5t19.5 51.5v639h90v-640q0 -37 -12.5 -66t-34.5 -49.5t-51.5 -31t-63.5 -10.5t-63 10.5t-50.5 31t-34 49.5t-12.5 66v640h92zM386 989l-106 -158h-79l88 158h97zM231 989l-107 -158h-78l88 158h97z" />
    <glyph glyph-name="uhungarumlaut" unicode="&#x171;" horiz-adv-x="399" 
d="M39 0zM353 611v-611h-61l-15 34q-45 -42 -106 -42q-26 0 -49 9t-40.5 27.5t-27.5 46t-10 65.5v471h89v-452q0 -79 63 -79q36 0 68 31v500h89zM379 817l-106 -158h-79l88 158h97zM224 817l-107 -158h-78l88 158h97z" />
    <glyph glyph-name="Uogonek" unicode="&#x172;" horiz-adv-x="410" 
d="M178 -12q-58 8 -96 48t-38 107v640h92v-639q0 -34 19.5 -51.5t49.5 -17.5q32 0 51.5 17.5t19.5 51.5v639h90v-640q0 -60 -31.5 -98.5t-81.5 -51.5l-67 -30q-34 -15 -45.5 -27t-11.5 -28q0 -19 13.5 -30t50.5 -11q23 0 42.5 4.5t32.5 13.5l29 -61q-13 -14 -43 -24t-75 -10
q-39 0 -64 8t-39.5 21t-20 29t-5.5 32q0 18 7 33t22 28t39.5 24.5t59.5 22.5z" />
    <glyph glyph-name="uogonek" unicode="&#x173;" horiz-adv-x="399" 
d="M293 -2l-16 36q-23 -21 -49.5 -31.5t-55.5 -10.5q-26 0 -49.5 9t-41 27.5t-27.5 46t-10 65.5v471h89v-452q0 -79 62 -79q37 0 69 31v500h89v-611l-85 -37q-34 -15 -45.5 -27t-11.5 -28q0 -19 13.5 -30t50.5 -11q23 0 42.5 4.5t32.5 13.5l29 -61q-13 -14 -43 -24t-75 -10
q-39 0 -64 8t-39.5 21t-20 29t-5.5 32q0 36 25 59.5t76 39.5z" />
    <glyph glyph-name="Wcircumflex" unicode="&#x174;" horiz-adv-x="577" 
d="M22 0zM110 783l48 -551l85 551h88l79 -554l56 554h89l-89 -783h-92l-87 590l-95 -590h-89l-81 783h88zM336 989l99 -158h-75l-72 115l-72 -115h-74l98 158h96z" />
    <glyph glyph-name="wcircumflex" unicode="&#x175;" horiz-adv-x="542" 
d="M22 0zM105 611l44 -431l80 431h82l74 -432l51 432h84l-83 -611h-87l-81 461l-88 -461h-84l-75 611h83zM318 817l99 -158h-75l-72 115l-72 -115h-74l98 158h96z" />
    <glyph glyph-name="Ycircumflex" unicode="&#x176;" horiz-adv-x="412" 
d="M13 0zM106 783l101 -304l103 304h89l-147 -417v-366h-92v366l-147 417h93zM253 989l99 -158h-75l-72 115l-72 -115h-74l98 158h96z" />
    <glyph glyph-name="ycircumflex" unicode="&#x177;" horiz-adv-x="399" 
d="M44 0zM353 611v-782h-89v204q-41 -31 -93 -31q-26 0 -49 9t-40.5 27.5t-27.5 46t-10 65.5v461h89v-442q0 -79 63 -79q36 0 68 31v490h89zM247 817l99 -158h-75l-72 115l-72 -115h-74l98 158h96z" />
    <glyph glyph-name="Ydieresis" unicode="&#x178;" horiz-adv-x="412" 
d="M13 0zM106 783l101 -304l103 304h89l-147 -417v-366h-92v366l-147 417h93zM288 978q27 0 40 -15.5t13 -38.5t-13 -39.5t-40 -16.5q-26 0 -38.5 16.5t-12.5 39.5t12.5 38.5t38.5 15.5zM121 978q27 0 40 -15.5t13 -38.5t-13 -39.5t-40 -16.5q-26 0 -38.5 16.5t-12.5 39.5
t12.5 38.5t38.5 15.5z" />
    <glyph glyph-name="Zacute" unicode="&#x179;" horiz-adv-x="360" 
d="M28 0zM332 783v-71l-210 -623h210v-89h-304v85l209 609h-205v89h300zM290 989l-107 -158h-78l88 158h97z" />
    <glyph glyph-name="zacute" unicode="&#x17a;" horiz-adv-x="348" 
d="M27 0zM321 611v-62l-200 -474h200v-75h-294v73l200 463h-196v75h290zM283 817l-107 -158h-78l88 158h97z" />
    <glyph glyph-name="Zdotaccent" unicode="&#x17b;" horiz-adv-x="360" 
d="M28 0zM332 783v-71l-210 -623h210v-89h-304v85l209 609h-205v89h300zM187 978q27 0 40 -15.5t13 -38.5t-13 -39.5t-40 -16.5q-26 0 -38.5 16.5t-12.5 39.5t12.5 38.5t38.5 15.5z" />
    <glyph glyph-name="zdotaccent" unicode="&#x17c;" horiz-adv-x="348" 
d="M27 0zM321 611v-62l-200 -474h200v-75h-294v73l200 463h-196v75h290zM180 806q27 0 40 -15.5t13 -38.5t-13 -39.5t-40 -16.5q-26 0 -38.5 16.5t-12.5 39.5t12.5 38.5t38.5 15.5z" />
    <glyph glyph-name="Zcaron" unicode="&#x17d;" horiz-adv-x="360" 
d="M28 0zM332 783v-71l-210 -623h210v-89h-304v85l209 609h-205v89h300zM117 989l71 -116l73 116h74l-98 -158h-96l-99 158h75z" />
    <glyph glyph-name="zcaron" unicode="&#x17e;" horiz-adv-x="348" 
d="M27 0zM321 611v-62l-200 -474h200v-75h-294v73l200 463h-196v75h290zM109 817l71 -116l73 116h74l-98 -158h-96l-99 158h75z" />
    <glyph glyph-name="uni0180" unicode="&#x180;" 
d="M46 739v54l89 22v-76h195v-67h-195v-88q21 17 46.5 26t51.5 9q25 0 48 -9t40 -27.5t27.5 -46.5t10.5 -65v-331q0 -38 -10.5 -65.5t-27.5 -46t-40 -27.5t-48 -9q-31 0 -59.5 12t-51.5 34l-15 -38h-61v672h-40v67h40zM208 531q-40 0 -73 -35v-381q33 -35 73 -35
q32 0 47 20.5t15 58.5v293q0 38 -15 58.5t-47 20.5z" />
    <glyph glyph-name="uni0181" unicode="&#x181;" horiz-adv-x="556" 
d="M359 783q72 0 113.5 -41t41.5 -114v-109q0 -48 -14 -74.5t-43 -38.5q32 -12 49 -40t17 -80v-125q0 -78 -42 -119.5t-114 -41.5h-167v699h-35q-34 0 -56 -15.5t-22 -50.5q0 -26 17 -49l-78 -25q-21 37 -21 85q0 35 12 61t33.5 43.5t50.5 26t63 8.5h195zM290 87h70
q72 0 72 80v120q0 42 -16 59.5t-56 17.5h-70v-277zM290 443h64q38 0 54 16t16 57v101q0 37 -17 58t-55 21h-62v-253z" />
    <glyph glyph-name="uni0187" unicode="&#x187;" horiz-adv-x="491" 
d="M132 143q0 -34 18.5 -51t48.5 -17t49 17t19 51v16l85 22v-40q0 -36 -12.5 -64.5t-33.5 -49t-49.5 -31t-61.5 -10.5q-32 0 -60 10.5t-49 31t-33 49t-12 64.5v501q0 36 11.5 64.5t31.5 49t46.5 31t57.5 10.5q37 0 66 -14t44 -37q14 35 40.5 56t70.5 21q20 0 42 -5t40 -16
l-24 -78q-24 17 -50 17q-33 0 -49 -22t-16 -57v-51h-85v35q0 31 -18.5 46.5t-47.5 15.5q-32 0 -50.5 -17t-18.5 -51v-497z" />
    <glyph glyph-name="uni0188" unicode="&#x188;" horiz-adv-x="480" 
d="M127 145q0 -32 18 -48.5t46 -16.5q29 0 47 16.5t18 48.5v37l81 21v-63q0 -35 -11.5 -62t-32 -46.5t-47.5 -29.5t-58 -10t-57.5 10t-46.5 29.5t-31.5 46.5t-11.5 62v331q0 34 11 61.5t30.5 47t45 29.5t55.5 10q23 0 49 -7t42 -25q2 28 9.5 52.5t22 42.5t37 28.5t53.5 10.5
q22 0 43.5 -5t39.5 -16l-24 -78q-24 17 -50 17q-33 0 -49 -22t-16 -57v-115h-84v27q0 29 -19 44t-46 15q-28 0 -46 -16.5t-18 -48.5v-321z" />
    <glyph glyph-name="uni018A" unicode="&#x18a;" horiz-adv-x="559" 
d="M362 783q72 0 114 -44t42 -136v-423q0 -92 -42 -136t-114 -44h-162v699h-35q-34 0 -56 -15.5t-22 -50.5q0 -26 17 -49l-78 -25q-21 37 -21 85q0 35 12 61t33.5 43.5t50.5 26t63 8.5h198zM292 89h63q72 0 72 85v435q0 85 -72 85h-63v-605z" />
    <glyph glyph-name="uni018E" unicode="&#x18e;" horiz-adv-x="334" 
d="M288 783v-783h-259v89h167v270h-118v89h118v246h-167v89h259z" />
    <glyph glyph-name="uni018F" unicode="&#x18f;" horiz-adv-x="404" 
d="M204 797q33 0 62 -11t50.5 -31.5t34 -50.5t12.5 -68v-489q0 -38 -12.5 -68t-34 -50.5t-50.5 -31.5t-63 -11q-29 0 -58 9t-52 30t-37.5 54.5t-14.5 82.5q0 63 25.5 118t76.5 107t129 108v142q0 35 -19.5 53t-49.5 18q-32 0 -51.5 -18t-19.5 -53v-46l-89 -23v68
q0 38 12.5 68t34 50.5t51 31.5t63.5 11zM206 74q31 0 48.5 20t17.5 56v250q-51 -40 -80 -73q-60 -69 -60 -157q0 -53 22.5 -74.5t51.5 -21.5z" />
    <glyph glyph-name="florin" unicode="&#x192;" horiz-adv-x="360" 
d="M120 611v54q0 69 34.5 113.5t104.5 44.5q46 0 84 -20l-24 -78q-24 16 -50 16q-32 0 -48 -21t-16 -56v-53h101v-75h-101v-562q0 -32 -8 -60.5t-24.5 -50t-42.5 -34t-62 -12.5q-23 0 -44 6t-38 18l24 77q23 -17 45 -17q29 0 47 19.5t18 53.5v562h-68v75h68z" />
    <glyph glyph-name="uni0198" unicode="&#x198;" horiz-adv-x="464" 
d="M138 783v-292l123 264q15 32 45 50t74 18q23 0 44.5 -5t39.5 -16l-24 -78q-24 17 -50 17q-20 0 -33.5 -8.5t-20.5 -22.5l-120 -247l158 -463h-96l-140 423v-423h-92v783h92z" />
    <glyph glyph-name="uni0199" unicode="&#x199;" horiz-adv-x="386" 
d="M350 611l-140 -250l152 -361h-92l-135 329v-329h-89v664q0 34 9 63t27 50.5t45 33.5t62 12q23 0 44.5 -5t39.5 -16l-24 -78q-24 17 -50 17q-33 0 -48.5 -22t-15.5 -57v-278l124 227h91z" />
    <glyph glyph-name="uni019D" unicode="&#x19d;" horiz-adv-x="405" 
d="M146 783l133 -540v540h80v-783h-82l-151 576v-602q0 -32 -7 -60.5t-22.5 -50t-40.5 -34t-61 -12.5q-23 0 -44 6t-38 18l24 77q23 -17 45 -17q29 0 46.5 19.5t17.5 53.5v809h100z" />
    <glyph glyph-name="uni01A0" unicode="&#x1a0;" horiz-adv-x="509" 
d="M363 143q0 -37 -12.5 -66t-34.5 -49.5t-51.5 -31t-62.5 -10.5q-34 0 -63.5 10.5t-51 31t-34 49.5t-12.5 66v497q0 37 12.5 66t34 49t51 31t63.5 11q42 0 77.5 -17.5t57.5 -49.5q15 -5 28 -5q27 0 42.5 17.5t15.5 46.5v88h80v-62q0 -29 -7.5 -55t-22.5 -45.5t-38.5 -31
t-55.5 -11.5h-9.5t-9.5 1q3 -17 3 -33v-497zM132 144q0 -34 19.5 -51.5t50.5 -17.5t50.5 17.5t19.5 51.5v495q0 34 -19.5 51.5t-50.5 17.5t-50.5 -17.5t-19.5 -51.5v-495z" />
    <glyph glyph-name="uni01A1" unicode="&#x1a1;" horiz-adv-x="458" 
d="M345 140q0 -35 -12 -62t-32.5 -46.5t-48.5 -29.5t-59 -10q-32 0 -59.5 10t-48 29.5t-32.5 46.5t-12 62v331q0 34 12 61.5t32.5 47t48 29.5t59.5 10q61 0 103 -36q5 -2 9 -2h9q27 0 42.5 17.5t15.5 46.5v88h80v-62q0 -28 -7 -53.5t-21 -45t-36.5 -31.5t-52.5 -13
q10 -28 10 -57v-331zM127 145q0 -32 18.5 -48.5t47.5 -16.5t47 16.5t18 48.5v321q0 32 -18 48.5t-47 16.5t-47.5 -16.5t-18.5 -48.5v-321z" />
    <glyph glyph-name="uni01AF" unicode="&#x1af;" horiz-adv-x="532" 
d="M136 783v-639q0 -34 19.5 -51.5t49.5 -17.5q32 0 51.5 17.5t19.5 51.5v639h90v-27q10 -3 22 -3q27 0 42.5 17.5t15.5 46.5v88h80v-62q0 -29 -7.5 -55t-22.5 -45.5t-38.5 -31t-55.5 -11.5q-18 0 -36 5v-562q0 -37 -12.5 -66t-34.5 -49.5t-51.5 -31t-63.5 -10.5t-63 10.5
t-50.5 31t-34 49.5t-12.5 66v640h92z" />
    <glyph glyph-name="uni01B0" unicode="&#x1b0;" horiz-adv-x="504" 
d="M353 611v-30q32 0 48.5 17.5t16.5 46.5v88h80v-62q0 -29 -7.5 -55t-22.5 -45.5t-38.5 -31t-55.5 -11.5h-10.5t-10.5 1v-529h-61l-15 34q-45 -42 -106 -42q-26 0 -49 9t-40.5 27.5t-27.5 46t-10 65.5v471h89v-452q0 -79 63 -79q36 0 68 31v500h89z" />
    <glyph glyph-name="uni01B3" unicode="&#x1b3;" horiz-adv-x="504" 
d="M106 783l100 -304l78 231q20 59 52.5 86t83.5 27q23 0 44.5 -5t39.5 -16l-24 -78q-24 17 -50 17q-21 0 -37 -11.5t-28 -45.5l-113 -318v-366h-92v366l-147 417h93z" />
    <glyph glyph-name="uni01B4" unicode="&#x1b4;" horiz-adv-x="492" 
d="M264 33q-41 -31 -93 -31q-26 0 -49 9t-40.5 27.5t-27.5 46t-10 65.5v461h89v-442q0 -79 63 -79q36 0 68 31v441q0 34 9.5 63t27.5 50.5t45 33.5t62 12q23 0 44.5 -5t39.5 -16l-24 -78q-24 17 -50 17q-33 0 -49 -22t-16 -57v-731h-89v204z" />
    <glyph glyph-name="uni01C4" unicode="&#x1c4;" horiz-adv-x="765" 
d="M46 0zM208 783q72 0 114 -44t42 -136v-423q0 -92 -42 -136t-114 -44h-162v783h162zM138 89h63q72 0 72 85v435q0 85 -72 85h-63v-605zM737 783v-71l-210 -623h210v-89h-304v85l209 609h-205v89h300zM522 989l71 -116l73 116h74l-98 -158h-96l-99 158h75z" />
    <glyph glyph-name="uni01C5" unicode="&#x1c5;" horiz-adv-x="753" 
d="M46 0zM208 783q72 0 114 -44t42 -136v-423q0 -92 -42 -136t-114 -44h-162v783h162zM138 89h63q72 0 72 85v435q0 85 -72 85h-63v-605zM726 611v-62l-200 -474h200v-75h-294v73l200 463h-196v75h290zM514 817l71 -116l73 116h74l-98 -158h-96l-99 158h75z" />
    <glyph glyph-name="uni01C6" unicode="&#x1c6;" horiz-adv-x="748" 
d="M41 0zM354 815v-815h-61l-15 38q-23 -22 -52 -34t-59 -12q-25 0 -48 9t-40 27.5t-27.5 46t-10.5 65.5v331q0 37 10.5 65t27.5 46.5t40 27.5t48 9q26 0 51 -9t47 -26v209zM130 159q0 -38 14.5 -58.5t47.5 -20.5q40 0 73 35v381q-33 35 -73 35q-33 0 -47.5 -20.5
t-14.5 -58.5v-293zM721 611v-62l-200 -474h200v-75h-294v73l200 463h-196v75h290zM509 817l71 -116l73 116h74l-98 -158h-96l-99 158h75z" />
    <glyph glyph-name="uni01DD" unicode="&#x1dd;" horiz-adv-x="375" 
d="M41 149q0 49 17.5 87.5t47 70t68 58.5t79.5 53v50q0 32 -18 48.5t-46 16.5q-29 0 -47 -16.5t-18 -48.5v-39l-81 -21v63q0 34 11.5 61.5t32 47t47.5 29.5t58 10t57.5 -10t46.5 -29.5t31.5 -47t11.5 -61.5v-331q0 -35 -11.5 -62t-31.5 -46.5t-47 -29.5t-58 -10
q-27 0 -54 8.5t-48 27t-34.5 48.5t-13.5 73zM253 333q-25 -17 -48 -34.5t-40 -38.5t-27.5 -46.5t-10.5 -56.5q0 -45 19.5 -64t45.5 -19q29 0 45 18.5t16 51.5v189z" />
    <glyph glyph-name="uni01E6" unicode="&#x1e6;" horiz-adv-x="393" 
d="M41 0zM130 143q0 -34 18.5 -51t48.5 -17t51 17t21 51v208h-78v83h158v-434h-57l-4 34q-19 -21 -46 -34.5t-62 -13.5q-60 0 -99.5 41.5t-39.5 113.5v501q0 36 11.5 64.5t32.5 49t50 31t64 10.5q69 0 111 -41.5t42 -113.5v-26h-85v24q0 34 -18.5 51t-48.5 17q-32 0 -51 -17
t-19 -51v-497zM128 989l71 -116l73 116h74l-98 -158h-96l-99 158h75z" />
    <glyph glyph-name="uni01E7" unicode="&#x1e7;" horiz-adv-x="392" 
d="M3 0zM42 471q0 34 12 61.5t32.5 47t48 29.5t59.5 10q46 0 81 -21l111 6l-50 -77q10 -28 10 -56v-162q0 -35 -12 -62t-32.5 -46.5t-48.5 -29.5t-59 -10q-19 0 -35 3q-24 -20 -24 -48q0 -19 12 -30.5t39 -11.5h175l-35 -76h-171q-33 0 -47 -13.5t-14 -33.5t12.5 -33.5
t37.5 -13.5h140l-35 -75h-122q-31 0 -54 9.5t-38.5 26t-23.5 38t-8 44.5q0 36 18 65.5t56 44.5q-14 20 -14 50q0 26 12 44.5t32 32.5q-30 18 -47.5 50t-17.5 75v162zM126 310q0 -33 19 -50t49 -17q29 0 48.5 17t19.5 50v160q0 34 -19.5 50.5t-48.5 16.5q-30 0 -49 -16.5
t-19 -50.5v-160zM124 817l71 -116l73 116h74l-98 -158h-96l-99 158h75z" />
    <glyph glyph-name="uni01F0" unicode="&#x1f0;" horiz-adv-x="258" 
d="M0 0zM59 817l71 -116l73 116h74l-98 -158h-96l-99 158h75zM178 611v-637q0 -32 -8 -60.5t-24.5 -50t-42.5 -34t-62 -12.5q-23 0 -44 6t-38 18l24 77q23 -17 45 -17q29 0 46.5 19.5t17.5 53.5v637h86z" />
    <glyph glyph-name="uni01F1" unicode="&#x1f1;" horiz-adv-x="765" 
d="M46 0zM208 783q72 0 114 -44t42 -136v-423q0 -92 -42 -136t-114 -44h-162v783h162zM138 89h63q72 0 72 85v435q0 85 -72 85h-63v-605zM737 783v-71l-210 -623h210v-89h-304v85l209 609h-205v89h300z" />
    <glyph glyph-name="uni01F2" unicode="&#x1f2;" horiz-adv-x="753" 
d="M46 0zM208 783q72 0 114 -44t42 -136v-423q0 -92 -42 -136t-114 -44h-162v783h162zM138 89h63q72 0 72 85v435q0 85 -72 85h-63v-605zM726 611v-62l-200 -474h200v-75h-294v73l200 463h-196v75h290z" />
    <glyph glyph-name="uni01F3" unicode="&#x1f3;" horiz-adv-x="748" 
d="M41 0zM354 815v-815h-61l-15 38q-23 -22 -52 -34t-59 -12q-25 0 -48 9t-40 27.5t-27.5 46t-10.5 65.5v331q0 37 10.5 65t27.5 46.5t40 27.5t48 9q26 0 51 -9t47 -26v209zM130 159q0 -38 14.5 -58.5t47.5 -20.5q40 0 73 35v381q-33 35 -73 35q-33 0 -47.5 -20.5
t-14.5 -58.5v-293zM721 611v-62l-200 -474h200v-75h-294v73l200 463h-196v75h290z" />
    <glyph glyph-name="uni01F4" unicode="&#x1f4;" horiz-adv-x="393" 
d="M41 0zM130 143q0 -34 18.5 -51t48.5 -17t51 17t21 51v208h-78v83h158v-434h-57l-4 34q-19 -21 -46 -34.5t-62 -13.5q-60 0 -99.5 41.5t-39.5 113.5v501q0 36 11.5 64.5t32.5 49t50 31t64 10.5q69 0 111 -41.5t42 -113.5v-26h-85v24q0 34 -18.5 51t-48.5 17q-32 0 -51 -17
t-19 -51v-497zM301 989l-107 -158h-78l88 158h97z" />
    <glyph glyph-name="uni01F5" unicode="&#x1f5;" horiz-adv-x="392" 
d="M3 0zM42 471q0 34 12 61.5t32.5 47t48 29.5t59.5 10q46 0 81 -21l111 6l-50 -77q10 -28 10 -56v-162q0 -35 -12 -62t-32.5 -46.5t-48.5 -29.5t-59 -10q-19 0 -35 3q-24 -20 -24 -48q0 -19 12 -30.5t39 -11.5h175l-35 -76h-171q-33 0 -47 -13.5t-14 -33.5t12.5 -33.5
t37.5 -13.5h140l-35 -75h-122q-31 0 -54 9.5t-38.5 26t-23.5 38t-8 44.5q0 36 18 65.5t56 44.5q-14 20 -14 50q0 26 12 44.5t32 32.5q-30 18 -47.5 50t-17.5 75v162zM126 310q0 -33 19 -50t49 -17q29 0 48.5 17t19.5 50v160q0 34 -19.5 50.5t-48.5 16.5q-30 0 -49 -16.5
t-19 -50.5v-160zM296 817l-107 -158h-78l88 158h97z" />
    <glyph glyph-name="uni01F8" unicode="&#x1f8;" horiz-adv-x="405" 
d="M46 0zM146 783l133 -540v540h80v-783h-82l-151 576v-576h-80v783h100zM199 989l88 -158h-79l-106 158h97z" />
    <glyph glyph-name="uni01F9" unicode="&#x1f9;" horiz-adv-x="403" 
d="M46 0zM107 611l14 -35q23 21 52 32t58 11q26 0 49.5 -9t41 -27.5t27.5 -46.5t10 -65v-471h-89v452q0 38 -15 58.5t-49 20.5q-37 0 -71 -32v-499h-89v611h61zM195 817l88 -158h-79l-106 158h97z" />
    <glyph glyph-name="Scommaaccent" unicode="&#x218;" horiz-adv-x="376" 
d="M25 0zM191 797q71 0 111 -42t40 -111v-28h-85v21q0 34 -18 54t-50 20q-37 0 -54.5 -24.5t-17.5 -59.5q0 -29 10.5 -54.5t30.5 -53.5q13 -19 32.5 -44t40 -52.5t39.5 -54t33 -48.5q23 -37 33.5 -70t10.5 -76q0 -87 -38 -137.5t-119 -50.5q-39 0 -69.5 12t-51.5 32.5
t-32.5 48.5t-11.5 60v42l85 -22v-19q0 -28 19.5 -49t54.5 -21q38 0 56.5 24t18.5 68q0 27 -8.5 55t-30.5 62q-11 17 -27.5 38t-34.5 44t-35.5 46.5t-31.5 45.5q-34 54 -46.5 95.5t-12.5 79.5q0 78 43.5 123.5t115.5 45.5zM226 -20l-44 -190h-70l26 190h88z" />
    <glyph glyph-name="scommaaccent" unicode="&#x219;" horiz-adv-x="365" 
d="M27 0zM187 619q38 0 66 -10.5t46 -28.5t26.5 -42.5t8.5 -52.5v-40h-81v28q0 62 -67 62q-35 0 -51.5 -16t-16.5 -43q0 -16 7 -33t30 -41q14 -15 32.5 -32t38 -34.5t37.5 -35.5t31 -34q25 -31 34 -62t9 -61q0 -67 -37 -109t-117 -42q-73 0 -114.5 37.5t-41.5 104.5v69
l81 -21v-41q0 -29 18.5 -46.5t56.5 -17.5q71 0 71 69q0 21 -7.5 37.5t-27.5 39.5q-17 19 -36 37t-37.5 35t-35.5 33t-30 31q-27 32 -37.5 62.5t-10.5 59.5q0 67 42 102.5t113 35.5zM225 -20l-44 -190h-70l26 190h88z" />
    <glyph glyph-name="uni021A" unicode="&#x21a;" horiz-adv-x="308" 
d="M20 0zM288 783v-89h-88v-694h-92v694h-88v89h268zM196 -20l-44 -190h-70l26 190h88z" />
    <glyph glyph-name="uni021B" unicode="&#x21b;" horiz-adv-x="308" 
d="M12 0zM78 611v107l86 36v-143h102v-75h-102v-386q0 -35 18 -54.5t47 -19.5q23 0 45 16l24 -76q-17 -12 -38.5 -18t-44.5 -6q-36 0 -62 12.5t-42.5 34t-24.5 50.5t-8 61v386h-66v75h66zM209 -20l-44 -190h-70l26 190h88z" />
    <glyph glyph-name="dotlessj" unicode="&#x237;" horiz-adv-x="194" 
d="M148 611v-637q0 -32 -8 -60.5t-24.5 -50t-42.5 -34t-62 -12.5q-23 0 -44 6t-38 18l24 77q23 -17 45 -17q29 0 46.5 19.5t17.5 53.5v637h86z" />
    <glyph glyph-name="uni0241" unicode="&#x241;" horiz-adv-x="357" 
d="M183 803q32 0 59.5 -9.5t47 -29t30.5 -50t11 -73.5q0 -27 -4.5 -50t-13 -45t-20 -45t-25.5 -50q-14 -25 -24.5 -45.5t-17.5 -40.5t-10 -42t-3 -49v-274h-88v274q0 30 4.5 56.5t13.5 51t21 49.5t27 52q13 24 23 43t16.5 37t10 35.5t3.5 37.5q0 43 -16.5 61t-48.5 18
t-52 -16.5t-20 -48.5v-34h-81v39q0 69 43 108.5t114 39.5z" />
    <glyph glyph-name="uni0243" unicode="&#x243;" horiz-adv-x="451" 
d="M95 271v512h159q72 0 113.5 -41t41.5 -114v-109q0 -48 -14 -74.5t-43 -38.5q32 -12 49 -40t17 -80v-125q0 -78 -42 -119.5t-114 -41.5h-167v204h-90v67h90zM185 443h64q38 0 54 16t16 57v101q0 37 -17 58t-55 21h-62v-253zM182 271h117v-67h-117v-117h73q72 0 72 80v120
q0 42 -16 59.5t-56 17.5h-73v-93z" />
    <glyph glyph-name="uni024C" unicode="&#x24c;" horiz-adv-x="441" 
d="M83 440v343h159q72 0 113.5 -41t41.5 -114v-109q0 -47 -14 -73t-41 -38q29 -12 45 -39t16 -75v-294h-91v305q0 37 -14.5 52.5t-56.5 15.5h-68v-373h-90v373h-80v67h80zM173 440h62q41 0 56.5 16.5t15.5 54.5v106q0 79 -72 79h-62v-256z" />
    <glyph glyph-name="uni024D" unicode="&#x24d;" horiz-adv-x="352" 
d="M72 381v230h61l17 -51q39 59 103 59q20 0 39 -6t35 -20l-25 -79q-28 17 -56 17q-50 0 -85 -52v-98h129v-67h-129v-314h-89v314h-66v67h66z" />
    <glyph glyph-name="uni0253" unicode="&#x253;" horiz-adv-x="629" 
d="M46 664q0 34 9 63t27 50.5t45 33.5t62 12q23 0 44.5 -5t39.5 -16l-24 -78q-24 17 -50 17q-33 0 -48.5 -22t-15.5 -57v-78q21 17 46.5 26t51.5 9q25 0 48 -9t40 -27.5t27.5 -46.5t10.5 -65v-331q0 -38 -10.5 -65.5t-27.5 -46t-40 -27.5t-48 -9q-31 0 -59.5 12t-51.5 34
l-15 -38h-61v664zM208 531q-40 0 -73 -35v-381q33 -35 73 -35q32 0 47 20.5t15 58.5v293q0 38 -15 58.5t-47 20.5z" />
    <glyph glyph-name="uni0257" unicode="&#x257;" horiz-adv-x="493" 
d="M278 38q-23 -22 -52 -34t-59 -12q-25 0 -48 9t-40 27.5t-27.5 46t-10.5 65.5v331q0 37 10.5 65t27.5 46.5t40 27.5t48 9q26 0 51 -9t47 -26v80q0 34 9.5 63t27.5 50.5t45 33.5t62 12q23 0 44.5 -5t39.5 -16l-24 -78q-24 17 -50 17q-33 0 -49 -22t-16 -57v-662h-61z
M130 159q0 -38 14.5 -58.5t47.5 -20.5q40 0 73 35v381q-33 35 -73 35q-33 0 -47.5 -20.5t-14.5 -58.5v-293z" />
    <glyph glyph-name="uni0272" unicode="&#x272;" horiz-adv-x="403" 
d="M107 611l14 -35q23 21 52 32t58 11q26 0 49.5 -9t41 -27.5t27.5 -46.5t10 -65v-471h-89v452q0 38 -15 58.5t-49 20.5q-37 0 -71 -32v-525q0 -32 -8.5 -60.5t-25.5 -50t-43.5 -34t-62.5 -12.5q-23 0 -44 6t-38 18l24 77q23 -17 45 -17q29 0 46.5 19.5t17.5 53.5v637h61z
" />
    <glyph glyph-name="circumflex" unicode="&#x2c6;" horiz-adv-x="367" 
d="M231 817l99 -158h-75l-72 115l-72 -115h-74l98 158h96z" />
    <glyph glyph-name="caron" unicode="&#x2c7;" horiz-adv-x="367" 
d="M112 817l71 -116l73 116h74l-98 -158h-96l-99 158h75z" />
    <glyph glyph-name="breve" unicode="&#x2d8;" horiz-adv-x="318" 
d="M98 817q3 -57 19 -80t42 -23t42 23t19 80h65q-2 -30 -9.5 -58t-22.5 -49.5t-38.5 -34.5t-55.5 -13q-33 0 -56 13t-38.5 35t-23.5 49.5t-9 57.5h66z" />
    <glyph glyph-name="dotaccent" unicode="&#x2d9;" horiz-adv-x="160" 
d="M79 806q27 0 40 -15.5t13 -38.5t-13 -39.5t-40 -16.5q-26 0 -38.5 16.5t-12.5 39.5t12.5 38.5t38.5 15.5z" />
    <glyph glyph-name="ring" unicode="&#x2da;" horiz-adv-x="259" 
d="M143 817q42 0 65 -25.5t23 -63.5t-23 -64t-65 -26h-28q-41 0 -64 26t-23 64t23 63.5t64 25.5h28zM115 768q-17 0 -27.5 -11t-10.5 -30q0 -18 10.5 -29t27.5 -11h28q17 0 28 11t11 29q0 19 -11 30t-28 11h-28z" />
    <glyph glyph-name="ogonek" unicode="&#x2db;" horiz-adv-x="303" 
d="M196 0h53l-85 -37q-35 -14 -46 -26.5t-11 -28.5q0 -19 13.5 -30t50.5 -11q23 0 42.5 4.5t32.5 13.5l29 -61q-13 -14 -43 -24t-75 -10q-39 0 -64 8t-39.5 21t-20 29t-5.5 32q0 36 25 59.5t76 39.5z" />
    <glyph glyph-name="tilde" unicode="&#x2dc;" horiz-adv-x="398" 
d="M28 727q18 37 42.5 56.5t61.5 19.5q24 0 41 -7.5t32 -16.5t29.5 -16.5t33.5 -7.5t35.5 10t30.5 39l36 -32q-19 -38 -43.5 -57.5t-57.5 -19.5q-23 0 -39.5 7.5t-32 16.5t-31.5 16.5t-36 7.5q-19 0 -35.5 -9.5t-30.5 -38.5z" />
    <glyph glyph-name="hungarumlaut" unicode="&#x2dd;" horiz-adv-x="410" 
d="M352 817l-106 -158h-79l88 158h97zM197 817l-107 -158h-78l88 158h97z" />
    <glyph glyph-name="gravecomb" unicode="&#x300;" horiz-adv-x="12" 
d="M-114 659zM-202 817l88 -158h-79l-106 158h97z" />
    <glyph glyph-name="acutecomb" unicode="&#x301;" horiz-adv-x="12" 
d="M-99 659zM-99 817l-107 -158h-78l88 158h97z" />
    <glyph glyph-name="uni0302" unicode="&#x302;" horiz-adv-x="12" 
d="M-53 659zM-152 817l99 -158h-75l-72 115l-72 -115h-74l98 158h96z" />
    <glyph glyph-name="tildecomb" unicode="&#x303;" horiz-adv-x="12" 
d="M-30 695zM-372 727q18 37 42.5 56.5t61.5 19.5q24 0 41 -7.5t32 -16.5t29.5 -16.5t33.5 -7.5t35.5 10t30.5 39l36 -32q-19 -38 -43.5 -57.5t-57.5 -19.5q-23 0 -39.5 7.5t-32 16.5t-31.5 16.5t-36 7.5q-19 0 -35.5 -9.5t-30.5 -38.5z" />
    <glyph glyph-name="uni0304" unicode="&#x304;" horiz-adv-x="12" 
d="M-38 712zM-38 779v-67h-324v67h324z" />
    <glyph glyph-name="uni0306" unicode="&#x306;" horiz-adv-x="12" 
d="M-75 662zM-262 817q3 -57 19 -80t42 -23t42 23t19 80h65q-2 -30 -9.5 -58t-22.5 -49.5t-38.5 -34.5t-55.5 -13q-33 0 -56 13t-38.5 35t-23.5 49.5t-9 57.5h66z" />
    <glyph glyph-name="uni0307" unicode="&#x307;" horiz-adv-x="12" 
d="M-150 696zM-203 806q27 0 40 -15.5t13 -38.5t-13 -39.5t-40 -16.5q-26 0 -38.5 16.5t-12.5 39.5t12.5 38.5t38.5 15.5z" />
    <glyph glyph-name="uni0308" unicode="&#x308;" horiz-adv-x="12" 
d="M-65 696zM-118 806q27 0 40 -15.5t13 -38.5t-13 -39.5t-40 -16.5q-26 0 -38.5 16.5t-12.5 39.5t12.5 38.5t38.5 15.5zM-285 806q27 0 40 -15.5t13 -38.5t-13 -39.5t-40 -16.5q-26 0 -38.5 16.5t-12.5 39.5t12.5 38.5t38.5 15.5z" />
    <glyph glyph-name="hookabovecomb" unicode="&#x309;" horiz-adv-x="12" 
d="M-301 757q0 78 97 78q48 0 70.5 -17.5t22.5 -47.5q0 -27 -13 -45.5t-28 -33.5t-27 -28.5t-10 -30.5h-40q-6 22 2 37.5t20 29.5t23 28.5t11 34.5q0 13 -8.5 19.5t-28.5 6.5q-22 0 -30 -7.5t-8 -23.5v-16h-53v16z" />
    <glyph glyph-name="uni030A" unicode="&#x30a;" horiz-adv-x="12" 
d="M-100 638zM-188 817q42 0 65 -25.5t23 -63.5t-23 -64t-65 -26h-28q-41 0 -64 26t-23 64t23 63.5t64 25.5h28zM-216 768q-17 0 -27.5 -11t-10.5 -30q0 -18 10.5 -29t27.5 -11h28q17 0 28 11t11 29q0 19 -11 30t-28 11h-28z" />
    <glyph glyph-name="uni030B" unicode="&#x30b;" horiz-adv-x="12" 
d="M-20 659zM-20 817l-106 -158h-79l88 158h97zM-175 817l-107 -158h-78l88 158h97z" />
    <glyph glyph-name="uni030C" unicode="&#x30c;" horiz-adv-x="12" 
d="M-58 659zM-276 817l71 -116l73 116h74l-98 -158h-96l-99 158h75z" />
    <glyph glyph-name="uni0313" unicode="&#x313;" horiz-adv-x="12" 
d="M-145 675zM-145 932l-9 -202q-1 -24 -13 -39.5t-38 -15.5q-27 0 -40 16t-13 38q0 17 11 42l70 161h32z" />
    <glyph glyph-name="uni031B" unicode="&#x31b;" horiz-adv-x="97" 
d="M84 733v-62q0 -29 -7.5 -55t-22.5 -45.5t-38.5 -31t-55.5 -11.5q-22 0 -41.5 6t-34.5 17l22 42q8 -6 18.5 -9t20.5 -3q28 0 43.5 17.5t15.5 46.5v88h80z" />
    <glyph glyph-name="dotbelowcomb" unicode="&#x323;" horiz-adv-x="186" 
d="M-151 -57zM-204 -57q27 0 40 -15.5t13 -38.5t-13 -39.5t-40 -16.5q-26 0 -38.5 16.5t-12.5 39.5t12.5 38.5t38.5 15.5z" />
    <glyph glyph-name="uni0326" unicode="&#x326;" horiz-adv-x="12" 
d="M-156 -20zM-156 -20l-44 -190h-70l26 190h88z" />
    <glyph glyph-name="uni0328" unicode="&#x328;" horiz-adv-x="12" 
d="M-124 0zM-203 0h53l-85 -37q-35 -14 -46 -26.5t-11 -28.5q0 -19 13.5 -30t50.5 -11q23 0 42.5 4.5t32.5 13.5l29 -61q-13 -14 -43 -24t-75 -10q-39 0 -64 8t-39.5 21t-20 29t-5.5 32q0 36 25 59.5t76 39.5z" />
    <glyph glyph-name="uni0337" unicode="&#x337;" horiz-adv-x="12" 
d="M-36 843l-298 -903h-53l298 903h53z" />
    <glyph glyph-name="uni0338" unicode="&#x338;" horiz-adv-x="12" 
d="M-66 671l-230 -731h-49l230 731h49z" />
    <glyph glyph-name="tonos" unicode="&#x384;" horiz-adv-x="146" 
d="M135 867l-50 -208h-73l31 208h92z" />
    <glyph glyph-name="dieresistonos" unicode="&#x385;" horiz-adv-x="376" 
d="M6 659zM255 867l-50 -208h-73l31 208h92zM317 806q27 0 40 -15.5t13 -38.5t-13 -39.5t-40 -16.5q-26 0 -38.5 16.5t-12.5 39.5t12.5 38.5t38.5 15.5zM57 806q27 0 40 -15.5t13 -38.5t-13 -39.5t-40 -16.5q-26 0 -38.5 16.5t-12.5 39.5t12.5 38.5t38.5 15.5z" />
    <glyph glyph-name="Alphatonos" unicode="&#x386;" horiz-adv-x="435" 
d="M18 0zM281 783l136 -783h-89l-18 113h-146l-17 -113h-89l132 783h91zM176 190h122l-62 392zM141 867l-50 -208h-73l31 208h92z" />
    <glyph glyph-name="anoteleia" unicode="&#x387;" horiz-adv-x="160" 
d="M28 332zM79 442q27 0 40 -16t13 -39t-13 -39t-40 -16q-26 0 -38.5 16t-12.5 39t12.5 39t38.5 16z" />
    <glyph glyph-name="Epsilontonos" unicode="&#x388;" horiz-adv-x="459" 
d="M18 0zM430 783v-89h-167v-246h118v-89h-118v-270h167v-89h-259v783h259zM141 867l-50 -208h-73l31 208h92z" />
    <glyph glyph-name="Etatonos" unicode="&#x389;" horiz-adv-x="540" 
d="M18 0zM263 783v-341h139v341h92v-783h-92v354h-139v-354h-92v783h92zM141 867l-50 -208h-73l31 208h92z" />
    <glyph glyph-name="Iotatonos" unicode="&#x38a;" horiz-adv-x="309" 
d="M18 0zM263 783v-783h-92v783h92zM141 867l-50 -208h-73l31 208h92z" />
    <glyph glyph-name="Omicrontonos" unicode="&#x38c;" horiz-adv-x="497" 
d="M18 0zM456 143q0 -37 -12.5 -66t-34.5 -49.5t-51.5 -31t-62.5 -10.5q-34 0 -63.5 10.5t-51 31t-34 49.5t-12.5 66v497q0 37 12.5 66t34 49t51 31t63.5 11q33 0 62.5 -11t51.5 -31t34.5 -49t12.5 -66v-497zM225 144q0 -34 19.5 -51.5t50.5 -17.5t50.5 17.5t19.5 51.5v495
q0 34 -19.5 51.5t-50.5 17.5t-50.5 -17.5t-19.5 -51.5v-495zM141 867l-50 -208h-73l31 208h92z" />
    <glyph glyph-name="Upsilontonos" unicode="&#x38e;" horiz-adv-x="540" 
d="M18 0zM234 783l101 -304l103 304h89l-147 -417v-366h-92v366l-147 417h93zM141 867l-50 -208h-73l31 208h92z" />
    <glyph glyph-name="Omegatonos" unicode="&#x38f;" horiz-adv-x="489" 
d="M18 0zM212 286q0 -29 10 -44t31 -23v-219h-129v89h64v72q-31 20 -48 53.5t-17 78.5v347q0 37 12.5 66t34 49t51 31t63.5 11t63 -11t51 -31t34.5 -49t12.5 -66v-347q0 -45 -17.5 -78.5t-47.5 -53.5v-72h65v-89h-130v219q20 8 30.5 23t10.5 44v353q0 34 -21.5 51.5
t-50.5 17.5t-50.5 -17.5t-21.5 -51.5v-353zM141 867l-50 -208h-73l31 208h92z" />
    <glyph glyph-name="iotadieresistonos" unicode="&#x390;" horiz-adv-x="339" 
d="M0 0zM191 611v-474q0 -28 13.5 -44.5t37.5 -16.5q21 0 41 16l22 -76q-15 -12 -35 -18t-42 -6q-33 0 -56.5 11.5t-38.5 31.5t-21.5 46.5t-6.5 55.5v474h86zM235 867l-50 -208h-73l31 208h92zM298 806q27 0 40 -15.5t13 -38.5t-13 -39.5t-40 -16.5q-26 0 -38.5 16.5
t-12.5 39.5t12.5 38.5t38.5 15.5zM35 806q27 0 40 -15.5t13 -38.5t-13 -39.5t-40 -16.5q-26 0 -38.5 16.5t-12.5 39.5t12.5 38.5t38.5 15.5z" />
    <glyph glyph-name="Alpha" unicode="&#x391;" 
d="M18 0zM241 783l136 -783h-89l-18 113h-146l-17 -113h-89l132 783h91zM136 190h122l-62 392z" />
    <glyph glyph-name="Beta" unicode="&#x392;" horiz-adv-x="402" 
d="M46 0zM205 783q72 0 113.5 -41t41.5 -114v-109q0 -48 -14 -74.5t-43 -38.5q32 -12 49 -40t17 -80v-125q0 -78 -42 -119.5t-114 -41.5h-167v783h159zM136 87h70q72 0 72 80v120q0 42 -16 59.5t-56 17.5h-70v-277zM136 443h64q38 0 54 16t16 57v101q0 37 -17 58t-55 21h-62
v-253z" />
    <glyph glyph-name="Gamma" unicode="&#x393;" horiz-adv-x="305" 
d="M46 0zM285 783v-89h-147v-694h-92v783h239z" />
    <glyph glyph-name="Delta" unicode="&#x394;" 
d="M241 783l136 -783h-359l132 783h91zM120 89h154l-78 494z" />
    <glyph glyph-name="Epsilon" unicode="&#x395;" horiz-adv-x="334" 
d="M46 0zM305 783v-89h-167v-246h118v-89h-118v-270h167v-89h-259v783h259z" />
    <glyph glyph-name="Zeta" unicode="&#x396;" horiz-adv-x="360" 
d="M28 0zM332 783v-71l-210 -623h210v-89h-304v85l209 609h-205v89h300z" />
    <glyph glyph-name="Eta" unicode="&#x397;" horiz-adv-x="415" 
d="M46 0zM138 783v-341h139v341h92v-783h-92v354h-139v-354h-92v783h92z" />
    <glyph glyph-name="Theta" unicode="&#x398;" horiz-adv-x="404" 
d="M257 448v-89h-110v89h110zM363 143q0 -37 -12.5 -66t-34.5 -49.5t-51.5 -31t-62.5 -10.5q-34 0 -63.5 10.5t-51 31t-34 49.5t-12.5 66v497q0 37 12.5 66t34 49t51 31t63.5 11q33 0 62.5 -11t51.5 -31t34.5 -49t12.5 -66v-497zM132 144q0 -34 19.5 -51.5t50.5 -17.5
t50.5 17.5t19.5 51.5v495q0 34 -19.5 51.5t-50.5 17.5t-50.5 -17.5t-19.5 -51.5v-495z" />
    <glyph glyph-name="Iota" unicode="&#x399;" horiz-adv-x="184" 
d="M46 0zM138 783v-783h-92v783h92z" />
    <glyph glyph-name="Kappa" unicode="&#x39a;" horiz-adv-x="387" 
d="M46 0zM362 783l-146 -320l158 -463h-96l-140 423v-423h-92v783h92v-291l130 291h94z" />
    <glyph glyph-name="Lambda" unicode="&#x39b;" 
d="M287 0l-89 582l-91 -582h-89l135 783h91l133 -783h-90z" />
    <glyph glyph-name="Mu" unicode="&#x39c;" horiz-adv-x="535" 
d="M46 0zM146 783l122 -621l129 621h92v-783h-82v505l-96 -505h-85l-98 512v-512h-82v783h100z" />
    <glyph glyph-name="Nu" unicode="&#x39d;" horiz-adv-x="405" 
d="M46 0zM146 783l133 -540v540h80v-783h-82l-151 576v-576h-80v783h100z" />
    <glyph glyph-name="Xi" unicode="&#x39e;" horiz-adv-x="353" 
d="M324 783v-89h-295v89h295zM324 89v-89h-295v89h295zM275 448v-89h-197v89h197z" />
    <glyph glyph-name="Omicron" unicode="&#x39f;" horiz-adv-x="404" 
d="M41 0zM363 143q0 -37 -12.5 -66t-34.5 -49.5t-51.5 -31t-62.5 -10.5q-34 0 -63.5 10.5t-51 31t-34 49.5t-12.5 66v497q0 37 12.5 66t34 49t51 31t63.5 11q33 0 62.5 -11t51.5 -31t34.5 -49t12.5 -66v-497zM132 144q0 -34 19.5 -51.5t50.5 -17.5t50.5 17.5t19.5 51.5v495
q0 34 -19.5 51.5t-50.5 17.5t-50.5 -17.5t-19.5 -51.5v-495z" />
    <glyph glyph-name="Pi" unicode="&#x3a0;" horiz-adv-x="415" 
d="M46 0zM369 783v-783h-92v694h-139v-694h-92v783h323z" />
    <glyph glyph-name="Rho" unicode="&#x3a1;" 
d="M46 0zM208 783q72 0 114 -44t42 -136v-114q0 -92 -42 -136t-114 -44h-70v-309h-92v783h162zM138 398h63q72 0 72 85v126q0 85 -72 85h-63v-296z" />
    <glyph glyph-name="Sigma" unicode="&#x3a3;" horiz-adv-x="337" 
d="M316 783v-89h-200l107 -291l-120 -314h215v-89h-302v72l120 320l-120 319v72h300z" />
    <glyph glyph-name="Tau" unicode="&#x3a4;" horiz-adv-x="308" 
d="M20 0zM288 783v-89h-88v-694h-92v694h-88v89h268z" />
    <glyph glyph-name="Upsilon" unicode="&#x3a5;" horiz-adv-x="412" 
d="M13 0zM106 783l101 -304l103 304h89l-147 -417v-366h-92v366l-147 417h93z" />
    <glyph glyph-name="Phi" unicode="&#x3a6;" horiz-adv-x="564" 
d="M41 0zM328 783v-87q59 -3 97 -15.5t59.5 -32.5t30 -47t8.5 -61v-297q0 -34 -8.5 -61t-30 -47t-59.5 -32.5t-97 -15.5v-87h-92v87q-59 3 -97 15.5t-59.5 32.5t-30 47t-8.5 61v297q0 34 8.5 61t30 47t59.5 32.5t97 15.5v87h92zM132 244q0 -15 4 -26.5t15 -20t31.5 -14
t53.5 -7.5v431q-33 -2 -53.5 -7.5t-31.5 -14t-15 -20t-4 -26.5v-295zM432 539q0 15 -4 26.5t-15.5 20t-31.5 14t-53 7.5v-431q33 2 53 7.5t31.5 14t15.5 20t4 26.5v295z" />
    <glyph glyph-name="Chi" unicode="&#x3a7;" horiz-adv-x="408" 
d="M13 0zM383 783l-134 -376l146 -407h-97l-100 286l-98 -286h-87l139 416l-128 367h93l87 -248l90 248h89z" />
    <glyph glyph-name="Psi" unicode="&#x3a8;" horiz-adv-x="596" 
d="M346 783v-427q60 5 88 22t28 46v359h90v-360q0 -66 -53 -106.5t-153 -48.5v-268h-92v267q-101 8 -155.5 48.5t-54.5 107.5v360h92v-359q0 -59 118 -68v427h92z" />
    <glyph glyph-name="Omega" unicode="&#x3a9;" horiz-adv-x="410" 
d="M133 286q0 -29 10 -44t31 -23v-219h-129v89h64v72q-31 20 -48 53.5t-17 78.5v347q0 37 12.5 66t34 49t51 31t63.5 11t63 -11t51 -31t34.5 -49t12.5 -66v-347q0 -45 -17.5 -78.5t-47.5 -53.5v-72h65v-89h-130v219q20 8 30.5 23t10.5 44v353q0 34 -21.5 51.5t-50.5 17.5
t-50.5 -17.5t-21.5 -51.5v-353z" />
    <glyph glyph-name="Iotadieresis" unicode="&#x3aa;" horiz-adv-x="189" 
d="M0 0zM141 783v-783h-92v783h92zM177 978q27 0 40 -15.5t13 -38.5t-13 -39.5t-40 -16.5q-26 0 -38.5 16.5t-12.5 39.5t12.5 38.5t38.5 15.5zM10 978q27 0 40 -15.5t13 -38.5t-13 -39.5t-40 -16.5q-26 0 -38.5 16.5t-12.5 39.5t12.5 38.5t38.5 15.5z" />
    <glyph glyph-name="Upsilondieresis" unicode="&#x3ab;" horiz-adv-x="412" 
d="M13 0zM106 783l101 -304l103 304h89l-147 -417v-366h-92v366l-147 417h93zM288 978q27 0 40 -15.5t13 -38.5t-13 -39.5t-40 -16.5q-26 0 -38.5 16.5t-12.5 39.5t12.5 38.5t38.5 15.5zM121 978q27 0 40 -15.5t13 -38.5t-13 -39.5t-40 -16.5q-26 0 -38.5 16.5t-12.5 39.5
t12.5 38.5t38.5 15.5z" />
    <glyph glyph-name="alphatonos" unicode="&#x3ac;" horiz-adv-x="486" 
d="M41 0zM384 -8q-36 0 -60 14.5t-38 41.5q-51 -56 -119 -56q-60 0 -93 38.5t-33 109.5v331q0 71 42 109.5t116 38.5q69 0 100 -36t31 -109v-157q15 58 28.5 131t27.5 163h82q-31 -158 -62 -283.5t-72 -206.5q7 -26 24 -35.5t37 -9.5q31 0 47 18l24 -77q-33 -25 -82 -25z
M127 145q0 -33 14.5 -49t39.5 -16q46 0 84 63v320q0 37 -17 52.5t-51 15.5q-37 0 -53.5 -16t-16.5 -49v-321zM290 867l-50 -208h-73l31 208h92z" />
    <glyph glyph-name="epsilontonos" unicode="&#x3ad;" horiz-adv-x="376" 
d="M31 0zM256 867l-50 -208h-73l31 208h92zM195 619q69 0 109.5 -31.5t40.5 -88.5v-54h-81v32q0 54 -68 54q-36 0 -52 -15.5t-16 -44.5v-64q0 -32 15.5 -43.5t53.5 -11.5h115v-73h-121q-39 0 -55 -13.5t-16 -45.5v-89q0 -26 19.5 -38.5t51.5 -12.5t52.5 13t20.5 39v50l81 21
v-91q0 -29 -11.5 -51t-32 -37.5t-49 -23.5t-62.5 -8q-33 0 -62 8t-50.5 23.5t-34 37.5t-12.5 50v112q0 41 16.5 62.5t46.5 31.5q-28 9 -41.5 29.5t-13.5 58.5v84q0 57 39.5 93.5t116.5 36.5z" />
    <glyph glyph-name="etatonos" unicode="&#x3ae;" horiz-adv-x="428" 
d="M20 0zM60 611q61 0 85 -36q23 22 52 33t59 11q26 0 49.5 -9t41 -27.5t27.5 -46.5t10 -65v-642h-89v623q0 38 -15 58.5t-49 20.5q-37 0 -71 -32v-499h-89v490q0 46 -38 46h-13v75h40zM283 867l-50 -208h-73l31 208h92z" />
    <glyph glyph-name="iotatonos" unicode="&#x3af;" horiz-adv-x="256" 
d="M46 0zM132 611v-474q0 -28 13.5 -44.5t37.5 -16.5q21 0 41 16l22 -76q-15 -12 -35 -18t-42 -6q-33 0 -56.5 11.5t-38.5 31.5t-21.5 46.5t-6.5 55.5v474h86zM179 867l-50 -208h-73l31 208h92z" />
    <glyph glyph-name="upsilondieresistonos" unicode="&#x3b0;" horiz-adv-x="428" 
d="M20 0zM278 867l-50 -208h-73l31 208h92zM54 611q97 0 97 -99v-367q0 -32 19 -48.5t46 -16.5q18 0 34 9t27.5 33.5t18.5 68.5t7 114q0 37 -2 77.5t-5 80t-7.5 77.5t-9.5 71h88q8 -60 15.5 -135.5t7.5 -154.5q0 -93 -12 -156.5t-34.5 -101.5t-54 -54.5t-70.5 -16.5
q-33 0 -61 10t-48.5 29.5t-32.5 46.5t-12 62v350q0 46 -38 46h-7v75h34zM341 806q27 0 40 -15.5t13 -38.5t-13 -39.5t-40 -16.5q-26 0 -38.5 16.5t-12.5 39.5t12.5 38.5t38.5 15.5zM78 806q27 0 40 -15.5t13 -38.5t-13 -39.5t-40 -16.5q-26 0 -38.5 16.5t-12.5 39.5
t12.5 38.5t38.5 15.5z" />
    <glyph glyph-name="alpha" unicode="&#x3b1;" horiz-adv-x="486" 
d="M384 -8q-36 0 -60 14.5t-38 41.5q-51 -56 -119 -56q-60 0 -93 38.5t-33 109.5v331q0 71 42 109.5t116 38.5q69 0 100 -36t31 -109v-157q15 58 28.5 131t27.5 163h82q-31 -158 -62 -283.5t-72 -206.5q7 -26 24 -35.5t37 -9.5q31 0 47 18l24 -77q-33 -25 -82 -25zM127 145
q0 -33 14.5 -49t39.5 -16q46 0 84 63v320q0 37 -17 52.5t-51 15.5q-37 0 -53.5 -16t-16.5 -49v-321z" />
    <glyph glyph-name="beta" unicode="&#x3b2;" horiz-adv-x="446" 
d="M258 -8q-47 0 -77.5 17t-50.5 41v-221h-84v828q0 36 8.5 66.5t27 52.5t48 34.5t70.5 12.5t68.5 -12t44 -32.5t23.5 -48t7 -57.5v-141q0 -69 -21 -99q42 -11 63.5 -41t21.5 -90v-146q0 -33 -8 -63t-26 -52.5t-46.5 -35.5t-68.5 -13zM130 139q22 -27 51 -45t63 -18
q36 0 56 21.5t20 58.5v142q0 51 -22 68t-77 17h-29v71h9q38 0 49 16.5t11 54.5v142q0 30 -15 49t-49 19t-50.5 -19t-16.5 -53v-524z" />
    <glyph glyph-name="gamma" unicode="&#x3b3;" horiz-adv-x="378" 
d="M105 611q14 -56 27 -116t24 -120.5t19.5 -120.5t13.5 -114q39 118 63 235t24 236h84q0 -78 -13 -155.5t-33.5 -154.5t-46.5 -152.5t-54 -148.5v-171h-89v171q0 44 -9 116.5t-23.5 157.5t-33.5 173t-39 164h86z" />
    <glyph glyph-name="delta" unicode="&#x3b4;" horiz-adv-x="386" 
d="M41 375q0 66 17 106t46 63q-29 25 -45 57t-16 74q0 77 42 112.5t111 35.5q41 0 69.5 -11.5t46 -31t25.5 -44.5t8 -53v-34h-81v21q0 30 -16 49.5t-53 19.5q-66 0 -66 -65q0 -20 7 -38t30 -38q13 -12 30 -24t35 -24.5t35.5 -27t32.5 -31.5q29 -32 37.5 -64t8.5 -63v-224
q0 -35 -12 -62t-32.5 -46.5t-48.5 -29.5t-59 -10q-32 0 -59.5 10t-48 29.5t-32.5 46.5t-12 62v235zM258 367q0 23 -8 42t-21 35t-30 30t-36 28q-19 -20 -27.5 -50t-8.5 -77v-230q0 -32 18.5 -48.5t47.5 -16.5t47 16.5t18 48.5v222z" />
    <glyph glyph-name="epsilon" unicode="&#x3b5;" horiz-adv-x="376" 
d="M195 619q69 0 109.5 -31.5t40.5 -88.5v-54h-81v32q0 54 -68 54q-36 0 -52 -15.5t-16 -44.5v-64q0 -32 15.5 -43.5t53.5 -11.5h115v-73h-121q-39 0 -55 -13.5t-16 -45.5v-89q0 -26 19.5 -38.5t51.5 -12.5t52.5 13t20.5 39v50l81 21v-91q0 -29 -11.5 -51t-32 -37.5
t-49 -23.5t-62.5 -8q-33 0 -62 8t-50.5 23.5t-34 37.5t-12.5 50v112q0 41 16.5 62.5t46.5 31.5q-28 9 -41.5 29.5t-13.5 58.5v84q0 57 39.5 93.5t116.5 36.5z" />
    <glyph glyph-name="zeta" unicode="&#x3b6;" horiz-adv-x="370" 
d="M332 815v-62q-48 -112 -81.5 -192t-56.5 -136.5t-36 -93.5t-20 -62.5t-9 -43.5t-2 -36q0 -32 4 -50.5t15.5 -29.5t31 -18t49.5 -16q24 -8 44.5 -17t35 -24t23 -37t8.5 -54q0 -35 -9.5 -60t-26.5 -54h-87q18 26 28 53.5t10 56.5q0 18 -4.5 29.5t-13.5 19t-22 12t-30 9.5
q-39 10 -66 20t-44 27t-24.5 46.5t-7.5 79.5q0 24 2.5 47t9.5 51t20 65.5t35 91.5t53.5 128t75.5 175h-195v75h290z" />
    <glyph glyph-name="eta" unicode="&#x3b7;" horiz-adv-x="428" 
d="M60 611q61 0 85 -36q23 22 52 33t59 11q26 0 49.5 -9t41 -27.5t27.5 -46.5t10 -65v-642h-89v623q0 38 -15 58.5t-49 20.5q-37 0 -71 -32v-499h-89v490q0 46 -38 46h-13v75h40z" />
    <glyph glyph-name="theta" unicode="&#x3b8;" horiz-adv-x="386" 
d="M193 823q31 0 59 -10t48.5 -29.5t32.5 -47t12 -61.5v-535q0 -35 -12 -62t-32.5 -46.5t-48.5 -29.5t-59 -10q-32 0 -59.5 10t-48 29.5t-32.5 46.5t-12 62v535q0 34 12 61.5t32.5 47t48 29.5t59.5 10zM193 80q29 0 47 16.5t18 48.5v229h-131v-229q0 -32 18.5 -48.5
t47.5 -16.5zM193 735q-29 0 -47.5 -16.5t-18.5 -48.5v-221h131v221q0 32 -18 48.5t-47 16.5z" />
    <glyph glyph-name="iota" unicode="&#x3b9;" horiz-adv-x="256" 
d="M132 611v-474q0 -28 13.5 -44.5t37.5 -16.5q21 0 41 16l22 -76q-15 -12 -35 -18t-42 -6q-33 0 -56.5 11.5t-38.5 31.5t-21.5 46.5t-6.5 55.5v474h86z" />
    <glyph glyph-name="kappa" unicode="&#x3ba;" horiz-adv-x="375" 
d="M46 0zM350 611l-140 -250l152 -361h-92l-135 329v-329h-89v611h89v-227l124 227h91z" />
    <glyph glyph-name="lambda" unicode="&#x3bb;" horiz-adv-x="388" 
d="M43 815q73 0 113 -32.5t59 -111.5l154 -671h-85l-93 400l-86 -400h-86l133 572l-20 87q-6 26 -14.5 42t-19.5 24.5t-26 11.5t-35 3h-21v75h27z" />
    <glyph glyph-name="mu" unicode="&#x3bc;" horiz-adv-x="454" 
d="M354 611v-478q0 -57 39 -57q18 0 35 16l15 -76q-14 -12 -31.5 -18t-37.5 -6q-33 0 -54.5 13.5t-34.5 36.5q-23 -25 -52.5 -37.5t-61.5 -12.5q-26 0 -50 9l13 -172h-90v782h89v-452q0 -79 63 -79q37 0 70 33v10v488h88z" />
    <glyph glyph-name="nu" unicode="&#x3bd;" horiz-adv-x="378" 
d="M105 611q14 -56 27 -116t24 -120.5t19.5 -120.5t13.5 -114q39 118 63 235t24 236h84q0 -78 -13 -155.5t-34 -154.5t-47.5 -152.5t-54.5 -148.5h-86q0 44 -9 116.5t-24 157.5t-34 173t-39 164h86z" />
    <glyph glyph-name="xi" unicode="&#x3be;" horiz-adv-x="370" 
d="M332 815v-61q-73 -84 -113.5 -134t-59.5 -79.5t-22.5 -44.5t-3.5 -28q0 -34 14 -50.5t62 -16.5h110v-73h-110q-46 0 -64 -31t-18 -103q0 -33 4 -52.5t14.5 -31t30 -19t51.5 -16.5q24 -8 44.5 -17t35 -24t23 -37t8.5 -54q0 -35 -9.5 -60t-26.5 -54h-87q18 26 28 53.5
t10 56.5q0 18 -4.5 29.5t-13.5 19t-22 12t-30 9.5q-38 10 -64.5 19.5t-44 28t-25.5 50t-8 85.5q0 73 18 114t58 58q-38 9 -52 30t-14 58q0 21 5 41.5t23 51t53.5 76.5t96.5 119h-187v75h290z" />
    <glyph glyph-name="omicron" unicode="&#x3bf;" horiz-adv-x="386" 
d="M41 0zM345 140q0 -35 -12 -62t-32.5 -46.5t-48.5 -29.5t-59 -10q-32 0 -59.5 10t-48 29.5t-32.5 46.5t-12 62v331q0 34 12 61.5t32.5 47t48 29.5t59.5 10q31 0 59 -10t48.5 -29.5t32.5 -47t12 -61.5v-331zM127 145q0 -32 18.5 -48.5t47.5 -16.5t47 16.5t18 48.5v321
q0 32 -18 48.5t-47 16.5t-47.5 -16.5t-18.5 -48.5v-321z" />
    <glyph glyph-name="pi" unicode="&#x3c0;" horiz-adv-x="522" 
d="M478 611v-75h-83v-399q0 -28 13.5 -44.5t36.5 -16.5q21 0 41 16l23 -76q-32 -24 -78 -24q-33 0 -56.5 11.5t-38 31.5t-21.5 46.5t-7 55.5v399h-133v-536h-89v536h-66v75h458z" />
    <glyph glyph-name="rho" unicode="&#x3c1;" horiz-adv-x="394" 
d="M235 -8q-32 0 -57.5 9.5t-45.5 26.5v-199h-86v642q0 34 12 61.5t32.5 47t48 29.5t59.5 10q31 0 59.5 -10t49.5 -29.5t33.5 -47t12.5 -61.5v-331q0 -40 -11.5 -68t-29.5 -46t-38.5 -26t-38.5 -8zM132 117q34 -37 70 -37q27 0 45.5 16t18.5 49v321q0 32 -19.5 48.5
t-48.5 16.5t-47.5 -16.5t-18.5 -48.5v-349z" />
    <glyph glyph-name="sigma1" unicode="&#x3c2;" horiz-adv-x="370" 
d="M127 191q0 -32 4.5 -51t15.5 -30.5t30.5 -18.5t49.5 -16q24 -8 44.5 -17t35 -24t23 -37t8.5 -54q0 -35 -9.5 -60t-26.5 -54h-87q18 26 28 53.5t10 56.5q0 18 -4.5 29.5t-13.5 19t-22 12t-30 9.5q-36 9 -63 18.5t-44.5 28t-26 50t-8.5 84.5v281q0 34 11.5 61.5t31.5 47
t46.5 29.5t57.5 10t58 -10t47.5 -29.5t32 -47t11.5 -61.5v-26h-81v21q0 32 -18 48.5t-47 16.5q-28 0 -46 -16.5t-18 -48.5v-275z" />
    <glyph glyph-name="sigma" unicode="&#x3c3;" horiz-adv-x="425" 
d="M405 611v-75h-97q16 -21 26.5 -53.5t10.5 -77.5v-265q0 -35 -12 -62t-32.5 -46.5t-48.5 -29.5t-59 -10q-32 0 -59.5 10t-48 29.5t-32.5 46.5t-12 62v331q0 34 12 60.5t32.5 44t48 26.5t59.5 9h212zM258 405q0 51 -6 81.5t-17 49.5h-42q-29 0 -47.5 -15.5t-18.5 -47.5
v-328q0 -32 18.5 -48.5t47.5 -16.5t47 16.5t18 48.5v260z" />
    <glyph glyph-name="tau" unicode="&#x3c4;" horiz-adv-x="359" 
d="M340 611v-75h-132v-399q0 -28 13.5 -44.5t37.5 -16.5q21 0 40 16l23 -76q-15 -12 -35 -18t-43 -6q-33 0 -56 11.5t-38 31.5t-21.5 46.5t-6.5 55.5v399h-102v75h320z" />
    <glyph glyph-name="upsilon" unicode="&#x3c5;" horiz-adv-x="428" 
d="M54 611q97 0 97 -99v-367q0 -32 19 -48.5t46 -16.5q18 0 34 9t27.5 33.5t18.5 68.5t7 114q0 37 -2 77.5t-5 80t-7.5 77.5t-9.5 71h88q8 -60 15.5 -135.5t7.5 -154.5q0 -93 -12 -156.5t-34.5 -101.5t-54 -54.5t-70.5 -16.5q-33 0 -61 10t-48.5 29.5t-32.5 46.5t-12 62v350
q0 46 -38 46h-7v75h34z" />
    <glyph glyph-name="phi" unicode="&#x3c6;" horiz-adv-x="556" 
d="M41 0zM322 815v-197q60 -3 97.5 -14.5t59 -30.5t29 -45t7.5 -57v-331q0 -32 -7.5 -58t-29 -44.5t-59 -30t-97.5 -14.5v-164h-88v164q-60 3 -97.5 14.5t-59 30t-29 44.5t-7.5 58v331q0 31 7.5 57t29 45t59 30.5t97.5 14.5v175zM127 145q0 -14 4 -25t15.5 -19t32.5 -13
t55 -7v449q-34 -2 -55 -7t-32.5 -13.5t-15.5 -19.5t-4 -24v-321zM428 466q0 13 -4 24t-15.5 19.5t-32 13.5t-54.5 7v-449q34 2 54.5 7t32 13t15.5 19t4 25v321z" />
    <glyph glyph-name="chi" unicode="&#x3c7;" horiz-adv-x="417" 
d="M399 611l-161 -381l57 -216q10 -35 18.5 -56.5t18 -33.5t21.5 -16t29 -4h18v-75h-24q-34 0 -55.5 6.5t-36 22.5t-24.5 43t-21 67l-43 163l-127 -302h-89l182 433l-43 164q-9 34 -17.5 55.5t-18.5 33.5t-22 16.5t-28 4.5h-18v75h24q34 0 55 -6.5t35.5 -22.5t24.5 -43
t22 -67l28 -109l104 248h91z" />
    <glyph glyph-name="psi" unicode="&#x3c8;" horiz-adv-x="580" 
d="M333 762v-677q22 6 44 19.5t38.5 39.5t27 66t10.5 98q0 35 -2 74.5t-5 79t-7.5 78t-9.5 71.5h88q8 -59 15.5 -132t7.5 -149q0 -88 -17.5 -149t-46 -100.5t-66 -59.5t-77.5 -26v-166h-88v167q-40 7 -77 27.5t-65.5 59.5t-45.5 98.5t-17 143.5q0 75 7.5 150.5t15.5 135.5
h88q-5 -33 -9.5 -72t-8 -78.5t-5.5 -78.5t-2 -73q0 -57 10 -97t27 -66t38 -40t44 -20v654z" />
    <glyph glyph-name="omega" unicode="&#x3c9;" horiz-adv-x="571" 
d="M149 611q-11 -66 -17.5 -148t-6.5 -179q0 -64 4 -104t12.5 -62t20.5 -30t27 -8q17 0 28 10t18 41.5t9.5 89t2.5 152.5h77q0 -95 2.5 -152.5t9.5 -89t18 -41.5t28 -10q15 0 27 8t20.5 30t12.5 62t4 104q0 97 -6.5 179t-17.5 148h88q9 -59 16 -134.5t7 -168.5
q0 -89 -9 -149.5t-28 -97.5t-47 -53t-65 -16q-38 0 -61.5 15.5t-37.5 47.5q-26 -63 -99 -63q-37 0 -65 16t-46.5 53t-27.5 97.5t-9 149.5q0 93 7 168.5t16 134.5h88z" />
    <glyph glyph-name="iotadieresis" unicode="&#x3ca;" horiz-adv-x="288" 
d="M0 0zM164 611v-474q0 -28 13.5 -44.5t37.5 -16.5q21 0 41 16l22 -76q-15 -12 -35 -18t-42 -6q-33 0 -56.5 11.5t-38.5 31.5t-21.5 46.5t-6.5 55.5v474h86zM204 806q27 0 40 -15.5t13 -38.5t-13 -39.5t-40 -16.5q-26 0 -38.5 16.5t-12.5 39.5t12.5 38.5t38.5 15.5zM37 806
q27 0 40 -15.5t13 -38.5t-13 -39.5t-40 -16.5q-26 0 -38.5 16.5t-12.5 39.5t12.5 38.5t38.5 15.5z" />
    <glyph glyph-name="upsilondieresis" unicode="&#x3cb;" horiz-adv-x="428" 
d="M20 0zM54 611q97 0 97 -99v-367q0 -32 19 -48.5t46 -16.5q18 0 34 9t27.5 33.5t18.5 68.5t7 114q0 37 -2 77.5t-5 80t-7.5 77.5t-9.5 71h88q8 -60 15.5 -135.5t7.5 -154.5q0 -93 -12 -156.5t-34.5 -101.5t-54 -54.5t-70.5 -16.5q-33 0 -61 10t-48.5 29.5t-32.5 46.5
t-12 62v350q0 46 -38 46h-7v75h34zM283 806q27 0 40 -15.5t13 -38.5t-13 -39.5t-40 -16.5q-26 0 -38.5 16.5t-12.5 39.5t12.5 38.5t38.5 15.5zM116 806q27 0 40 -15.5t13 -38.5t-13 -39.5t-40 -16.5q-26 0 -38.5 16.5t-12.5 39.5t12.5 38.5t38.5 15.5z" />
    <glyph glyph-name="omicrontonos" unicode="&#x3cc;" horiz-adv-x="386" 
d="M41 0zM345 140q0 -35 -12 -62t-32.5 -46.5t-48.5 -29.5t-59 -10q-32 0 -59.5 10t-48 29.5t-32.5 46.5t-12 62v331q0 34 12 61.5t32.5 47t48 29.5t59.5 10q31 0 59 -10t48.5 -29.5t32.5 -47t12 -61.5v-331zM127 145q0 -32 18.5 -48.5t47.5 -16.5t47 16.5t18 48.5v321
q0 32 -18 48.5t-47 16.5t-47.5 -16.5t-18.5 -48.5v-321zM261 867l-50 -208h-73l31 208h92z" />
    <glyph glyph-name="upsilontonos" unicode="&#x3cd;" horiz-adv-x="428" 
d="M20 0zM279 867l-50 -208h-73l31 208h92zM54 611q97 0 97 -99v-367q0 -32 19 -48.5t46 -16.5q18 0 34 9t27.5 33.5t18.5 68.5t7 114q0 37 -2 77.5t-5 80t-7.5 77.5t-9.5 71h88q8 -60 15.5 -135.5t7.5 -154.5q0 -93 -12 -156.5t-34.5 -101.5t-54 -54.5t-70.5 -16.5
q-33 0 -61 10t-48.5 29.5t-32.5 46.5t-12 62v350q0 46 -38 46h-7v75h34z" />
    <glyph glyph-name="omegatonos" unicode="&#x3ce;" horiz-adv-x="571" 
d="M38 0zM149 611q-11 -66 -17.5 -148t-6.5 -179q0 -64 4 -104t12.5 -62t20.5 -30t27 -8q17 0 28 10t18 41.5t9.5 89t2.5 152.5h77q0 -95 2.5 -152.5t9.5 -89t18 -41.5t28 -10q15 0 27 8t20.5 30t12.5 62t4 104q0 97 -6.5 179t-17.5 148h88q9 -59 16 -134.5t7 -168.5
q0 -89 -9 -149.5t-28 -97.5t-47 -53t-65 -16q-38 0 -61.5 15.5t-37.5 47.5q-26 -63 -99 -63q-37 0 -65 16t-46.5 53t-27.5 97.5t-9 149.5q0 93 7 168.5t16 134.5h88zM353 867l-50 -208h-73l31 208h92z" />
    <glyph glyph-name="uni0400" unicode="&#x400;" horiz-adv-x="334" 
d="M46 0zM305 783v-89h-167v-246h118v-89h-118v-270h167v-89h-259v783h259zM170 989l88 -158h-79l-106 158h97z" />
    <glyph glyph-name="uni0401" unicode="&#x401;" horiz-adv-x="334" 
d="M40 0zM305 783v-89h-167v-246h118v-89h-118v-270h167v-89h-259v783h259zM258 978q27 0 40 -15.5t13 -38.5t-13 -39.5t-40 -16.5q-26 0 -38.5 16.5t-12.5 39.5t12.5 38.5t38.5 15.5zM91 978q27 0 40 -15.5t13 -38.5t-13 -39.5t-40 -16.5q-26 0 -38.5 16.5t-12.5 39.5
t12.5 38.5t38.5 15.5z" />
    <glyph glyph-name="uni0402" unicode="&#x402;" horiz-adv-x="548" 
d="M404 783v-89h-158v-231q20 11 44.5 17t51.5 6q34 0 64.5 -11t53.5 -31t36 -49.5t13 -65.5v-290q0 -33 -7.5 -63t-23.5 -52.5t-42.5 -35.5t-63.5 -13q-24 0 -46.5 6t-39.5 19l23 76q22 -17 49 -17q32 0 45.5 21.5t13.5 58.5v289q0 34 -28.5 51.5t-66.5 17.5
q-24 0 -43 -2.5t-33 -7.5v-387h-92v694h-134v89h384z" />
    <glyph glyph-name="uni0403" unicode="&#x403;" horiz-adv-x="305" 
d="M46 0zM271 989l-107 -158h-78l88 158h97zM285 783v-89h-147v-694h-92v783h239z" />
    <glyph glyph-name="uni0404" unicode="&#x404;" horiz-adv-x="379" 
d="M132 448h146v-89h-146v-216q0 -34 18.5 -51t48.5 -17t49 17t19 51v16l85 22v-40q0 -36 -12.5 -64.5t-33.5 -49t-49.5 -31t-61.5 -10.5q-32 0 -60 10.5t-49 31t-33 49t-12 64.5v501q0 36 12 64.5t33 49t50 31t64 10.5q70 0 111 -41.5t41 -113.5v-26h-85v24q0 34 -17.5 51
t-48.5 17q-32 0 -50.5 -17t-18.5 -51v-192z" />
    <glyph glyph-name="uni0405" unicode="&#x405;" horiz-adv-x="376" 
d="M25 0zM191 797q71 0 111 -42t40 -111v-28h-85v21q0 34 -18 54t-50 20q-37 0 -54.5 -24.5t-17.5 -59.5q0 -29 10.5 -54.5t30.5 -53.5q13 -19 32.5 -44t40 -52.5t39.5 -54t33 -48.5q23 -37 33.5 -70t10.5 -76q0 -87 -38 -137.5t-119 -50.5q-39 0 -69.5 12t-51.5 32.5
t-32.5 48.5t-11.5 60v42l85 -22v-19q0 -28 19.5 -49t54.5 -21q38 0 56.5 24t18.5 68q0 27 -8.5 55t-30.5 62q-11 17 -27.5 38t-34.5 44t-35.5 46.5t-31.5 45.5q-34 54 -46.5 95.5t-12.5 79.5q0 78 43.5 123.5t115.5 45.5z" />
    <glyph glyph-name="uni0406" unicode="&#x406;" horiz-adv-x="184" 
d="M46 0zM138 783v-783h-92v783h92z" />
    <glyph glyph-name="uni0407" unicode="&#x407;" horiz-adv-x="241" 
d="M0 0zM166 783v-783h-92v783h92zM203 978q27 0 40 -15.5t13 -38.5t-13 -39.5t-40 -16.5q-26 0 -38.5 16.5t-12.5 39.5t12.5 38.5t38.5 15.5zM36 978q27 0 40 -15.5t13 -38.5t-13 -39.5t-40 -16.5q-26 0 -38.5 16.5t-12.5 39.5t12.5 38.5t38.5 15.5z" />
    <glyph glyph-name="uni0408" unicode="&#x408;" horiz-adv-x="375" 
d="M20 0zM331 783v-642q0 -36 -11.5 -64.5t-32.5 -49t-49.5 -31t-62.5 -10.5t-62.5 10.5t-49 31t-32 49t-11.5 64.5v40l85 -22v-16q0 -34 18.5 -51t48.5 -17q31 0 49.5 17t18.5 51v640h91z" />
    <glyph glyph-name="uni0409" unicode="&#x409;" horiz-adv-x="697" 
d="M440 783v-340h70q72 0 114 -44t42 -136v-83q0 -92 -42 -136t-114 -44h-162v694h-81q-2 -128 -11.5 -227.5t-25.5 -184.5q-16 -83 -35 -137.5t-41.5 -86.5t-49.5 -45t-58 -13h-26v89h19q13 0 28.5 6.5t31.5 28.5t31 63.5t29 111.5q9 49 16.5 106.5t13 119.5t8 127.5
t2.5 130.5h241zM440 89h63q72 0 72 85v94q0 86 -72 86h-63v-265z" />
    <glyph glyph-name="uni040A" unicode="&#x40a;" horiz-adv-x="626" 
d="M138 783v-341h139v341h92v-340h70q72 0 114 -44t42 -136v-83q0 -92 -42 -136t-114 -44h-162v354h-139v-354h-92v783h92zM369 89h63q72 0 72 85v94q0 86 -72 86h-63v-265z" />
    <glyph glyph-name="uni040B" unicode="&#x40b;" horiz-adv-x="505" 
d="M404 783v-89h-158v-232q19 11 43 17.5t53 6.5q71 0 101.5 -41.5t30.5 -115.5v-329h-92v328q0 34 -16.5 51.5t-55.5 17.5t-64 -11v-386h-92v694h-134v89h384z" />
    <glyph glyph-name="uni040C" unicode="&#x40c;" horiz-adv-x="387" 
d="M46 0zM362 783l-146 -320l158 -463h-96l-140 423v-423h-92v783h92v-291l130 291h94zM298 989l-107 -158h-78l88 158h97z" />
    <glyph glyph-name="uni040D" unicode="&#x40d;" horiz-adv-x="415" 
d="M46 0zM203 989l88 -158h-79l-106 158h97zM133 783v-530l138 530h98v-783h-88v582l-157 -582h-78v783h87z" />
    <glyph glyph-name="uni040E" unicode="&#x40e;" horiz-adv-x="432" 
d="M20 0zM155 989q3 -57 19 -80t42 -23t42 23t19 80h65q-2 -30 -9.5 -58t-22.5 -49.5t-38.5 -34.5t-55.5 -13q-33 0 -56 13t-38.5 35t-23.5 49.5t-9 57.5h66zM113 783l104 -400l110 400h89l-187 -666q-10 -35 -22.5 -57.5t-29.5 -36t-41 -18.5t-56 -5h-51v88h43q19 0 32 2.5
t22 9.5t15 18.5t11 29.5l20 74l-152 561h93z" />
    <glyph glyph-name="uni040F" unicode="&#x40f;" horiz-adv-x="415" 
d="M247 0v-171h-80v171h-121v783h92v-694h139v694h92v-783h-122z" />
    <glyph glyph-name="uni0410" unicode="&#x410;" 
d="M18 0zM241 783l136 -783h-89l-18 113h-146l-17 -113h-89l132 783h91zM136 190h122l-62 392z" />
    <glyph glyph-name="uni0411" unicode="&#x411;" 
d="M285 783v-89h-147v-251h70q72 0 114 -44t42 -136v-83q0 -92 -42 -136t-114 -44h-162v783h239zM138 89h63q72 0 72 85v94q0 86 -72 86h-63v-265z" />
    <glyph glyph-name="uni0412" unicode="&#x412;" horiz-adv-x="402" 
d="M46 0zM205 783q72 0 113.5 -41t41.5 -114v-109q0 -48 -14 -74.5t-43 -38.5q32 -12 49 -40t17 -80v-125q0 -78 -42 -119.5t-114 -41.5h-167v783h159zM136 87h70q72 0 72 80v120q0 42 -16 59.5t-56 17.5h-70v-277zM136 443h64q38 0 54 16t16 57v101q0 37 -17 58t-55 21h-62
v-253z" />
    <glyph glyph-name="uni0413" unicode="&#x413;" horiz-adv-x="305" 
d="M285 783v-89h-147v-694h-92v783h239z" />
    <glyph glyph-name="uni0414" unicode="&#x414;" horiz-adv-x="584" 
d="M458 783v-694h106v-260h-80v171h-384v-171h-80v260h37q13 0 28.5 6.5t31.5 28.5t31 63.5t29 111.5q9 49 16.5 106.5t13 119.5t8 127.5t2.5 130.5h241zM366 89v605h-81q-2 -128 -11.5 -227.5t-25.5 -184.5q-12 -64 -25.5 -109t-33.5 -84h177z" />
    <glyph glyph-name="uni0415" unicode="&#x415;" horiz-adv-x="334" 
d="M46 0zM305 783v-89h-167v-246h118v-89h-118v-270h167v-89h-259v783h259z" />
    <glyph glyph-name="uni0416" unicode="&#x416;" horiz-adv-x="590" 
d="M341 783v-291l130 291h94l-146 -320l158 -463h-96l-140 423v-423h-92v423l-140 -423h-96l158 463l-146 320h94l130 -291v291h92z" />
    <glyph glyph-name="uni0417" unicode="&#x417;" horiz-adv-x="385" 
d="M33 0zM185 797q39 0 68.5 -13t49.5 -35.5t30 -53.5t10 -67v-109q0 -48 -14 -74.5t-43 -38.5q32 -12 49 -40t17 -80v-146q0 -36 -12.5 -64.5t-34.5 -48.5t-51.5 -30.5t-63.5 -10.5t-63 10.5t-50 31t-32.5 49t-11.5 64.5v40l85 -22v-16q0 -34 19.5 -51t51.5 -17
q33 0 52.5 17t19.5 51v144q0 42 -16 59.5t-56 17.5h-55v79h49q38 0 54 16t16 57v113q0 37 -16 58t-53 21q-34 0 -50 -18.5t-16 -53.5v-20h-85v26q0 72 41 113.5t111 41.5z" />
    <glyph glyph-name="uni0418" unicode="&#x418;" horiz-adv-x="415" 
d="M133 783v-530l138 530h98v-783h-88v582l-157 -582h-78v783h87z" />
    <glyph glyph-name="uni0419" unicode="&#x419;" horiz-adv-x="415" 
d="M46 0zM146 989q3 -57 19 -80t42 -23t42 23t19 80h65q-2 -30 -9.5 -58t-22.5 -49.5t-38.5 -34.5t-55.5 -13q-33 0 -56 13t-38.5 35t-23.5 49.5t-9 57.5h66zM133 783v-530l138 530h98v-783h-88v582l-157 -582h-78v783h87z" />
    <glyph glyph-name="uni041A" unicode="&#x41a;" horiz-adv-x="387" 
d="M46 0zM362 783l-146 -320l158 -463h-96l-140 423v-423h-92v783h92v-291l130 291h94z" />
    <glyph glyph-name="uni041B" unicode="&#x41b;" horiz-adv-x="486" 
d="M440 783v-783h-92v694h-81q-2 -128 -11.5 -227.5t-25.5 -184.5q-16 -83 -35 -137.5t-41.5 -86.5t-49.5 -45t-58 -13h-26v89h19q13 0 28.5 6.5t31.5 28.5t31 63.5t29 111.5q9 49 16.5 106.5t13 119.5t8 127.5t2.5 130.5h241z" />
    <glyph glyph-name="uni041C" unicode="&#x41c;" horiz-adv-x="535" 
d="M46 0zM146 783l122 -621l129 621h92v-783h-82v505l-96 -505h-85l-98 512v-512h-82v783h100z" />
    <glyph glyph-name="uni041D" unicode="&#x41d;" horiz-adv-x="415" 
d="M46 0zM138 783v-341h139v341h92v-783h-92v354h-139v-354h-92v783h92z" />
    <glyph glyph-name="uni041E" unicode="&#x41e;" horiz-adv-x="404" 
d="M41 0zM363 143q0 -37 -12.5 -66t-34.5 -49.5t-51.5 -31t-62.5 -10.5q-34 0 -63.5 10.5t-51 31t-34 49.5t-12.5 66v497q0 37 12.5 66t34 49t51 31t63.5 11q33 0 62.5 -11t51.5 -31t34.5 -49t12.5 -66v-497zM132 144q0 -34 19.5 -51.5t50.5 -17.5t50.5 17.5t19.5 51.5v495
q0 34 -19.5 51.5t-50.5 17.5t-50.5 -17.5t-19.5 -51.5v-495z" />
    <glyph glyph-name="uni041F" unicode="&#x41f;" horiz-adv-x="415" 
d="M369 783v-783h-92v694h-139v-694h-92v783h323z" />
    <glyph glyph-name="uni0420" unicode="&#x420;" 
d="M46 0zM208 783q72 0 114 -44t42 -136v-114q0 -92 -42 -136t-114 -44h-70v-309h-92v783h162zM138 398h63q72 0 72 85v126q0 85 -72 85h-63v-296z" />
    <glyph glyph-name="uni0421" unicode="&#x421;" horiz-adv-x="379" 
d="M41 0zM132 143q0 -34 18.5 -51t48.5 -17t49 17t19 51v16l85 22v-40q0 -36 -12.5 -64.5t-33.5 -49t-49.5 -31t-61.5 -10.5q-32 0 -60 10.5t-49 31t-33 49t-12 64.5v501q0 36 12 64.5t33 49t50 31t64 10.5q70 0 111 -41.5t41 -113.5v-26h-85v24q0 34 -17.5 51t-48.5 17
q-32 0 -50.5 -17t-18.5 -51v-497z" />
    <glyph glyph-name="uni0422" unicode="&#x422;" horiz-adv-x="308" 
d="M20 0zM288 783v-89h-88v-694h-92v694h-88v89h268z" />
    <glyph glyph-name="uni0423" unicode="&#x423;" horiz-adv-x="432" 
d="M113 783l104 -400l110 400h89l-187 -666q-10 -35 -22.5 -57.5t-29.5 -36t-41 -18.5t-56 -5h-51v88h43q19 0 32 2.5t22 9.5t15 18.5t11 29.5l20 74l-152 561h93z" />
    <glyph glyph-name="uni0424" unicode="&#x424;" horiz-adv-x="564" 
d="M328 783v-87q59 -3 97 -15.5t59.5 -32.5t30 -47t8.5 -61v-297q0 -34 -8.5 -61t-30 -47t-59.5 -32.5t-97 -15.5v-87h-92v87q-59 3 -97 15.5t-59.5 32.5t-30 47t-8.5 61v297q0 34 8.5 61t30 47t59.5 32.5t97 15.5v87h92zM132 244q0 -15 4 -26.5t15 -20t31.5 -14t53.5 -7.5
v431q-33 -2 -53.5 -7.5t-31.5 -14t-15 -20t-4 -26.5v-295zM432 539q0 15 -4 26.5t-15.5 20t-31.5 14t-53 7.5v-431q33 2 53 7.5t31.5 14t15.5 20t4 26.5v295z" />
    <glyph glyph-name="uni0425" unicode="&#x425;" horiz-adv-x="408" 
d="M13 0zM383 783l-134 -376l146 -407h-97l-100 286l-98 -286h-87l139 416l-128 367h93l87 -248l90 248h89z" />
    <glyph glyph-name="uni0426" unicode="&#x426;" horiz-adv-x="495" 
d="M475 89v-260h-80v171h-349v783h92v-694h139v694h92v-694h106z" />
    <glyph glyph-name="uni0427" unicode="&#x427;" horiz-adv-x="404" 
d="M358 783v-783h-92v321q-19 -11 -43 -17.5t-53 -6.5q-71 0 -101.5 41.5t-30.5 115.5v329h92v-328q0 -35 16.5 -52t57.5 -17q34 0 62 10v387h92z" />
    <glyph glyph-name="uni0428" unicode="&#x428;" horiz-adv-x="621" 
d="M138 783v-694h127v694h92v-694h126v694h92v-783h-529v783h92z" />
    <glyph glyph-name="uni0429" unicode="&#x429;" horiz-adv-x="701" 
d="M138 783v-694h127v694h92v-694h126v694h92v-694h106v-260h-80v171h-555v783h92z" />
    <glyph glyph-name="uni042A" unicode="&#x42a;" horiz-adv-x="503" 
d="M246 783v-340h70q72 0 114 -44t42 -136v-83q0 -92 -42 -136t-114 -44h-162v694h-134v89h226zM246 89h63q72 0 72 85v94q0 86 -72 86h-63v-265z" />
    <glyph glyph-name="uni042B" unicode="&#x42b;" horiz-adv-x="558" 
d="M46 0zM512 783v-783h-92v783h92zM138 783v-340h70q72 0 114 -44t42 -136v-83q0 -92 -42 -136t-114 -44h-162v783h92zM138 89h63q72 0 72 85v94q0 86 -72 86h-63v-265z" />
    <glyph glyph-name="uni042C" unicode="&#x42c;" 
d="M138 783v-340h70q72 0 114 -44t42 -136v-83q0 -92 -42 -136t-114 -44h-162v783h92zM138 89h63q72 0 72 85v94q0 86 -72 86h-63v-265z" />
    <glyph glyph-name="uni042D" unicode="&#x42d;" horiz-adv-x="379" 
d="M179 797q35 0 64 -10.5t50 -31t33 -49t12 -64.5v-501q0 -36 -12 -64.5t-33 -49t-49 -31t-60 -10.5q-33 0 -61.5 10.5t-49.5 31t-33.5 49t-12.5 64.5v40l85 -22v-16q0 -34 19 -51t49 -17t48.5 17t18.5 51v216h-146v89h146v192q0 34 -18.5 51t-50.5 17q-31 0 -48.5 -17
t-17.5 -51v-24h-85v26q0 72 41 113.5t111 41.5z" />
    <glyph glyph-name="uni042E" unicode="&#x42e;" horiz-adv-x="573" 
d="M532 143q0 -37 -12.5 -66t-34.5 -49.5t-51.5 -31t-62.5 -10.5q-34 0 -63.5 10.5t-51 31t-34 49.5t-12.5 66v216h-72v-359h-92v783h92v-335h72v192q0 37 12.5 66t34 49t51 31t63.5 11q33 0 62.5 -11t51.5 -31t34.5 -49t12.5 -66v-497zM301 144q0 -34 19.5 -51.5
t50.5 -17.5t50.5 17.5t19.5 51.5v495q0 34 -19.5 51.5t-50.5 17.5t-50.5 -17.5t-19.5 -51.5v-495z" />
    <glyph glyph-name="uni042F" unicode="&#x42f;" horiz-adv-x="410" 
d="M364 783v-783h-90v351h-61l-104 -351h-96l112 369q-36 20 -55.5 57t-19.5 89v113q0 73 41.5 114t113.5 41h159zM140 511q0 -39 17.5 -60t54.5 -21h62v266h-62q-72 0 -72 -79v-106z" />
    <glyph glyph-name="uni0430" unicode="&#x430;" horiz-adv-x="384" 
d="M27 0zM53 551q22 32 60 50t82 18q73 0 109 -46.5t36 -119.5v-453h-56l-16 34q-23 -19 -51.5 -30.5t-60.5 -11.5q-25 0 -48.5 8.5t-41.5 27t-28.5 48.5t-10.5 74q0 34 7 62t22.5 53t39.5 49t57 49q22 16 48 33.5t55 35.5v19q0 38 -18 62t-55 24q-26 0 -47 -12.5t-34 -34.5
zM182 76q21 0 39 9t35 26v235q-18 -11 -32 -20.5t-27 -19.5q-47 -37 -64 -71t-17 -72q0 -47 18 -67t48 -20z" />
    <glyph glyph-name="uni0431" unicode="&#x431;" horiz-adv-x="386" 
d="M254 777q35 0 49.5 11t14.5 37v11h44v-11q-2 -74 -25.5 -105t-77.5 -31h-67q-46 0 -66.5 -13.5t-20.5 -59.5v-48q38 24 88 24q31 0 59 -10t48.5 -29.5t32.5 -47t12 -61.5v-304q0 -35 -12 -62t-32.5 -46.5t-48.5 -29.5t-59 -10q-32 0 -59.5 10t-48 29.5t-32.5 46.5t-12 62
v487q0 80 34 115t111 35h68zM127 145q0 -32 18.5 -48.5t47.5 -16.5t47 16.5t18 48.5v294q0 32 -18 48.5t-47 16.5t-47.5 -16.5t-18.5 -48.5v-294z" />
    <glyph glyph-name="uni0432" unicode="&#x432;" horiz-adv-x="397" 
d="M204 611q72 0 112.5 -32t40.5 -89v-84q0 -38 -14 -59t-42 -30q31 -10 48 -31.5t17 -62.5v-97q0 -61 -41 -93.5t-113 -32.5h-166v611h158zM135 72h70q72 0 72 62v89q0 32 -16 46t-56 14h-70v-211zM135 348h64q38 0 54 12t16 43v76q0 29 -17 44t-55 15h-62v-190z" />
    <glyph glyph-name="uni0433" unicode="&#x433;" horiz-adv-x="312" 
d="M292 611v-75h-157v-536h-89v611h246z" />
    <glyph glyph-name="uni0434" unicode="&#x434;" horiz-adv-x="541" 
d="M423 611v-536h98v-246h-75v171h-351v-171h-75v246h18q13 0 28 5t30.5 21.5t30.5 47.5t27 84q8 35 15 79.5t12 94t8 101.5t3 103h231zM334 75v461h-76q-3 -97 -12 -174t-24 -142q-11 -48 -24 -83.5t-28 -61.5h164z" />
    <glyph glyph-name="uni0435" unicode="&#x435;" horiz-adv-x="375" 
d="M41 0zM241 274q-21 -18 -49.5 -38.5t-64.5 -43.5v-49q0 -32 18 -48.5t46 -16.5q29 0 47 16.5t18 48.5v39l81 21v-63q0 -35 -11.5 -62t-32 -46.5t-47.5 -29.5t-58 -10t-57.5 10t-46.5 29.5t-31.5 46.5t-11.5 62v331q0 34 11.5 61.5t31.5 47t47 29.5t58 10q27 0 54 -8
t48 -27t34.5 -49.5t13.5 -76.5q0 -57 -23.5 -99.5t-74.5 -84.5zM127 278q45 29 69 52q31 29 44 57t13 65q0 48 -19.5 66.5t-45.5 18.5q-29 0 -45 -18.5t-16 -51.5v-189z" />
    <glyph glyph-name="uni0436" unicode="&#x436;" horiz-adv-x="570" 
d="M330 611v-227l124 227h91l-140 -250l152 -361h-92l-135 329v-329h-89v331l-136 -331h-92l152 361l-140 250h91l125 -228v228h89z" />
    <glyph glyph-name="uni0437" unicode="&#x437;" horiz-adv-x="376" 
d="M183 619q77 0 116.5 -36.5t39.5 -93.5v-84q0 -38 -14 -58.5t-42 -29.5q31 -10 47.5 -31.5t16.5 -62.5v-112q0 -28 -12.5 -50t-34 -37.5t-50.5 -23.5t-62 -8q-34 0 -62.5 8t-49 23.5t-32 37.5t-11.5 51v91l81 -21v-50q0 -26 20.5 -39t52.5 -13t51.5 12.5t19.5 38.5v89
q0 32 -16 45.5t-55 13.5h-73v73h67q38 0 53.5 11.5t15.5 43.5v64q0 29 -16 44.5t-52 15.5q-68 0 -68 -54v-32h-81v54q0 57 40.5 88.5t109.5 31.5z" />
    <glyph glyph-name="uni0438" unicode="&#x438;" horiz-adv-x="408" 
d="M135 611v-400l129 400h98v-611h-89v442l-147 -442h-80v611h89z" />
    <glyph glyph-name="uni0439" unicode="&#x439;" horiz-adv-x="408" 
d="M46 0zM143 817q3 -57 19 -80t42 -23t42 23t19 80h65q-2 -30 -9.5 -58t-22.5 -49.5t-38.5 -34.5t-55.5 -13q-33 0 -56 13t-38.5 35t-23.5 49.5t-9 57.5h66zM135 611v-400l129 400h98v-611h-89v442l-147 -442h-80v611h89z" />
    <glyph glyph-name="uni043A" unicode="&#x43a;" horiz-adv-x="375" 
d="M350 611l-140 -250l152 -361h-92l-135 329v-329h-89v611h89v-227l124 227h91z" />
    <glyph glyph-name="uni043B" unicode="&#x43b;" horiz-adv-x="469" 
d="M423 611v-611h-89v536h-76q-3 -97 -12 -174t-24 -142q-15 -67 -34 -109.5t-41 -67t-47.5 -34t-54.5 -9.5h-25v75h18q13 0 28 5t30.5 21.5t30.5 47.5t27 84q9 38 16 82.5t12 93.5t7.5 100t2.5 102h231z" />
    <glyph glyph-name="uni043C" unicode="&#x43c;" horiz-adv-x="538" 
d="M146 611l124 -484l129 484h93v-611h-82v397l-98 -397h-85l-99 401v-401h-82v611h100z" />
    <glyph glyph-name="uni043D" unicode="&#x43d;" horiz-adv-x="408" 
d="M135 611v-251h138v251h89v-611h-89v285h-138v-285h-89v611h89z" />
    <glyph glyph-name="uni043E" unicode="&#x43e;" horiz-adv-x="386" 
d="M41 0zM345 140q0 -35 -12 -62t-32.5 -46.5t-48.5 -29.5t-59 -10q-32 0 -59.5 10t-48 29.5t-32.5 46.5t-12 62v331q0 34 12 61.5t32.5 47t48 29.5t59.5 10q31 0 59 -10t48.5 -29.5t32.5 -47t12 -61.5v-331zM127 145q0 -32 18.5 -48.5t47.5 -16.5t47 16.5t18 48.5v321
q0 32 -18 48.5t-47 16.5t-47.5 -16.5t-18.5 -48.5v-321z" />
    <glyph glyph-name="uni043F" unicode="&#x43f;" horiz-adv-x="408" 
d="M362 611v-611h-89v536h-138v-536h-89v611h316z" />
    <glyph glyph-name="uni0440" unicode="&#x440;" horiz-adv-x="400" 
d="M46 0zM107 611l15 -38q23 22 51.5 34t59.5 12q25 0 48 -9t40 -27.5t27.5 -46.5t10.5 -65v-331q0 -38 -10.5 -65.5t-27.5 -46t-40 -27.5t-48 -9q-55 0 -98 35v-198h-89v782h61zM208 531q-40 0 -73 -35v-381q33 -35 73 -35q32 0 47 20.5t15 58.5v293q0 38 -15 58.5
t-47 20.5z" />
    <glyph glyph-name="uni0441" unicode="&#x441;" horiz-adv-x="370" 
d="M41 0zM127 145q0 -32 18 -48.5t46 -16.5q29 0 47 16.5t18 48.5v37l81 21v-63q0 -35 -11.5 -62t-32 -46.5t-47.5 -29.5t-58 -10t-57.5 10t-46.5 29.5t-31.5 46.5t-11.5 62v331q0 34 11.5 61.5t31.5 47t46.5 29.5t57.5 10t58 -10t47.5 -29.5t32 -47t11.5 -61.5v-26h-81v21
q0 32 -18 48.5t-47 16.5q-28 0 -46 -16.5t-18 -48.5v-321z" />
    <glyph glyph-name="uni0442" unicode="&#x442;" horiz-adv-x="359" 
d="M339 611v-75h-114v-536h-89v536h-116v75h319z" />
    <glyph glyph-name="uni0443" unicode="&#x443;" horiz-adv-x="388" 
d="M105 611l79 -399l100 399h85l-193 -782h-87l52 210l-122 572h86z" />
    <glyph glyph-name="uni0444" unicode="&#x444;" horiz-adv-x="556" 
d="M322 815v-197q60 -3 97.5 -14.5t59 -30.5t29 -45t7.5 -57v-331q0 -32 -7.5 -58t-29 -44.5t-59 -30t-97.5 -14.5v-164h-88v164q-60 3 -97.5 14.5t-59 30t-29 44.5t-7.5 58v331q0 31 7.5 57t29 45t59 30.5t97.5 14.5v175zM127 145q0 -14 4 -25t15.5 -19t32.5 -13t55 -7v449
q-34 -2 -55 -7t-32.5 -13.5t-15.5 -19.5t-4 -24v-321zM428 466q0 13 -4 24t-15.5 19.5t-32 13.5t-54.5 7v-449q34 2 54.5 7t32 13t15.5 19t4 25v321z" />
    <glyph glyph-name="uni0445" unicode="&#x445;" horiz-adv-x="417" 
d="M13 0zM392 611l-137 -293l149 -318h-99l-103 223l-100 -223h-89l143 324l-132 287h95l89 -193l92 193h92z" />
    <glyph glyph-name="uni0446" unicode="&#x446;" horiz-adv-x="480" 
d="M385 -171v171h-339v611h89v-536h138v536h89v-536h98v-246h-75z" />
    <glyph glyph-name="uni0447" unicode="&#x447;" horiz-adv-x="402" 
d="M356 611v-611h-89v248q-20 -11 -43.5 -18t-51.5 -7q-68 0 -97 40t-29 111v237h89v-236q0 -35 18 -51t50 -16q19 0 34.5 3.5t29.5 8.5v291h89z" />
    <glyph glyph-name="uni0448" unicode="&#x448;" horiz-adv-x="606" 
d="M135 611v-536h124v536h89v-536h123v536h89v-611h-514v611h89z" />
    <glyph glyph-name="uni0449" unicode="&#x449;" horiz-adv-x="678" 
d="M135 611v-536h124v536h89v-536h123v536h89v-536h98v-246h-75v171h-537v611h89z" />
    <glyph glyph-name="uni044A" unicode="&#x44a;" horiz-adv-x="485" 
d="M227 611v-245h66q69 0 109.5 -36.5t40.5 -113.5v-65q0 -77 -40.5 -114t-109.5 -37h-155v536h-118v75h207zM227 75h60q69 0 69 71v75q0 70 -69 70h-60v-216z" />
    <glyph glyph-name="uni044B" unicode="&#x44b;" horiz-adv-x="547" 
d="M46 0zM135 611v-245h66q69 0 109.5 -36.5t40.5 -113.5v-65q0 -77 -40.5 -114t-109.5 -37h-155v611h89zM135 75h60q69 0 69 71v75q0 70 -69 70h-60v-216zM501 611v-611h-89v611h89z" />
    <glyph glyph-name="uni044C" unicode="&#x44c;" horiz-adv-x="393" 
d="M135 611v-245h66q69 0 109.5 -36.5t40.5 -113.5v-65q0 -77 -40.5 -114t-109.5 -37h-155v611h89zM135 75h60q69 0 69 71v75q0 70 -69 70h-60v-216z" />
    <glyph glyph-name="uni044D" unicode="&#x44d;" horiz-adv-x="370" 
d="M182 619q31 0 57.5 -10t46.5 -29.5t31.5 -47t11.5 -61.5v-331q0 -35 -11.5 -62t-31.5 -46.5t-46.5 -29.5t-57.5 -10t-58 10t-47.5 29.5t-32 46.5t-11.5 62v63l81 -21v-37q0 -32 18 -48.5t46 -16.5q29 0 46.5 16.5t17.5 48.5v133h-132v73h132v115q0 32 -17.5 48.5
t-46.5 16.5q-28 0 -46 -16.5t-18 -48.5v-21h-81v26q0 34 11.5 61.5t32 47t47.5 29.5t58 10z" />
    <glyph glyph-name="uni044E" unicode="&#x44e;" horiz-adv-x="547" 
d="M135 611v-266h67v126q0 34 12 61.5t32.5 47t48 29.5t59.5 10q31 0 59 -10t48.5 -29.5t32.5 -47t12 -61.5v-331q0 -35 -12 -62t-32.5 -46.5t-48.5 -29.5t-59 -10q-32 0 -59.5 10t-48 29.5t-32.5 46.5t-12 62v130h-67v-270h-89v611h89zM288 145q0 -32 18.5 -48.5
t47.5 -16.5t47 16.5t18 48.5v321q0 32 -18 48.5t-47 16.5t-47.5 -16.5t-18.5 -48.5v-321z" />
    <glyph glyph-name="uni044F" unicode="&#x44f;" horiz-adv-x="410" 
d="M364 611v-611h-89v273h-63l-103 -273h-96l112 287q-73 31 -73 114v89q0 57 40 89t112 32h160zM140 400q0 -62 71 -62h64v200h-64q-71 0 -71 -59v-79z" />
    <glyph glyph-name="uni0450" unicode="&#x450;" horiz-adv-x="375" 
d="M41 0zM241 274q-21 -18 -49.5 -38.5t-64.5 -43.5v-49q0 -32 18 -48.5t46 -16.5q29 0 47 16.5t18 48.5v39l81 21v-63q0 -35 -11.5 -62t-32 -46.5t-47.5 -29.5t-58 -10t-57.5 10t-46.5 29.5t-31.5 46.5t-11.5 62v331q0 34 11.5 61.5t31.5 47t47 29.5t58 10q27 0 54 -8
t48 -27t34.5 -49.5t13.5 -76.5q0 -57 -23.5 -99.5t-74.5 -84.5zM127 278q45 29 69 52q31 29 44 57t13 65q0 48 -19.5 66.5t-45.5 18.5q-29 0 -45 -18.5t-16 -51.5v-189zM194 817l88 -158h-79l-106 158h97z" />
    <glyph glyph-name="uni0451" unicode="&#x451;" horiz-adv-x="375" 
d="M41 0zM241 274q-21 -18 -49.5 -38.5t-64.5 -43.5v-49q0 -32 18 -48.5t46 -16.5q29 0 47 16.5t18 48.5v39l81 21v-63q0 -35 -11.5 -62t-32 -46.5t-47.5 -29.5t-58 -10t-57.5 10t-46.5 29.5t-31.5 46.5t-11.5 62v331q0 34 11.5 61.5t31.5 47t47 29.5t58 10q27 0 54 -8
t48 -27t34.5 -49.5t13.5 -76.5q0 -57 -23.5 -99.5t-74.5 -84.5zM127 278q45 29 69 52q31 29 44 57t13 65q0 48 -19.5 66.5t-45.5 18.5q-29 0 -45 -18.5t-16 -51.5v-189zM271 806q27 0 40 -15.5t13 -38.5t-13 -39.5t-40 -16.5q-26 0 -38.5 16.5t-12.5 39.5t12.5 38.5
t38.5 15.5zM104 806q27 0 40 -15.5t13 -38.5t-13 -39.5t-40 -16.5q-26 0 -38.5 16.5t-12.5 39.5t12.5 38.5t38.5 15.5z" />
    <glyph glyph-name="uni0452" unicode="&#x452;" horiz-adv-x="403" 
d="M135 815v-76h195v-67h-195v-85q43 32 96 32q26 0 49.5 -9t41 -27.5t27.5 -46.5t10 -65v-497q0 -32 -8 -60.5t-24.5 -50t-42.5 -34t-62 -12.5q-23 0 -44 6t-38 18l24 77q23 -17 45 -17q29 0 45 19.5t16 53.5v478q0 38 -15 58.5t-49 20.5q-37 0 -71 -32v-499h-89v672h-40
v67h40v54z" />
    <glyph glyph-name="uni0453" unicode="&#x453;" horiz-adv-x="312" 
d="M46 0zM275 817l-107 -158h-78l88 158h97zM292 611v-75h-157v-536h-89v611h246z" />
    <glyph glyph-name="uni0454" unicode="&#x454;" horiz-adv-x="370" 
d="M127 351h133v-73h-133v-133q0 -32 18 -48.5t46 -16.5q29 0 47 16.5t18 48.5v37l81 21v-63q0 -35 -11.5 -62t-32 -46.5t-47.5 -29.5t-58 -10t-57.5 10t-46.5 29.5t-31.5 46.5t-11.5 62v331q0 34 11.5 61.5t31.5 47t46.5 29.5t57.5 10t58 -10t47.5 -29.5t32 -47t11.5 -61.5
v-26h-81v21q0 32 -18 48.5t-47 16.5q-28 0 -46 -16.5t-18 -48.5v-115z" />
    <glyph glyph-name="uni0455" unicode="&#x455;" horiz-adv-x="365" 
d="M27 0zM187 619q38 0 66 -10.5t46 -28.5t26.5 -42.5t8.5 -52.5v-40h-81v28q0 62 -67 62q-35 0 -51.5 -16t-16.5 -43q0 -16 7 -33t30 -41q14 -15 32.5 -32t38 -34.5t37.5 -35.5t31 -34q25 -31 34 -62t9 -61q0 -67 -37 -109t-117 -42q-73 0 -114.5 37.5t-41.5 104.5v69
l81 -21v-41q0 -29 18.5 -46.5t56.5 -17.5q71 0 71 69q0 21 -7.5 37.5t-27.5 39.5q-17 19 -36 37t-37.5 35t-35.5 33t-30 31q-27 32 -37.5 62.5t-10.5 59.5q0 67 42 102.5t113 35.5z" />
    <glyph glyph-name="uni0456" unicode="&#x456;" horiz-adv-x="181" 
d="M40 0zM135 611v-611h-89v611h89zM91 806q27 0 40 -15.5t13 -38.5t-13 -39.5t-40 -16.5q-26 0 -38.5 16.5t-12.5 39.5t12.5 38.5t38.5 15.5z" />
    <glyph glyph-name="uni0457" unicode="&#x457;" horiz-adv-x="263" 
d="M0 0zM214 806q27 0 40 -15.5t13 -38.5t-13 -39.5t-40 -16.5q-26 0 -38.5 16.5t-12.5 39.5t12.5 38.5t38.5 15.5zM47 806q27 0 40 -15.5t13 -38.5t-13 -39.5t-40 -16.5q-26 0 -38.5 16.5t-12.5 39.5t12.5 38.5t38.5 15.5zM177 611v-611h-89v611h89z" />
    <glyph glyph-name="uni0458" unicode="&#x458;" horiz-adv-x="194" 
d="M0 0zM148 611v-637q0 -32 -8 -60.5t-24.5 -50t-42.5 -34t-62 -12.5q-23 0 -44 6t-38 18l24 77q23 -17 45 -17q29 0 46.5 19.5t17.5 53.5v637h86zM105 806q27 0 40 -15.5t13 -38.5t-13 -39.5t-40 -16.5q-26 0 -38.5 16.5t-12.5 39.5t12.5 38.5t38.5 15.5z" />
    <glyph glyph-name="uni0459" unicode="&#x459;" horiz-adv-x="681" 
d="M423 611v-245h66q69 0 109.5 -36.5t40.5 -113.5v-65q0 -77 -40.5 -114t-109.5 -37h-155v536h-76q-3 -97 -12 -174t-24 -142q-15 -67 -34 -109.5t-41 -67t-47.5 -34t-54.5 -9.5h-25v75h18q13 0 28 5t30.5 21.5t30.5 47.5t27 84q9 38 16 82.5t12 93.5t7.5 100t2.5 102h231z
M423 75h60q69 0 69 71v75q0 70 -69 70h-60v-216z" />
    <glyph glyph-name="uni045A" unicode="&#x45a;" horiz-adv-x="620" 
d="M135 611v-251h138v251h89v-251h66q69 0 109.5 -33.5t40.5 -110.5v-65q0 -77 -40.5 -114t-109.5 -37h-155v285h-138v-285h-89v611h89zM362 75h60q69 0 69 71v75q0 35 -17 49.5t-52 14.5h-60v-210z" />
    <glyph glyph-name="uni045B" unicode="&#x45b;" horiz-adv-x="403" 
d="M135 815v-76h195v-67h-195v-85q43 32 96 32q26 0 49.5 -9t41 -27.5t27.5 -46.5t10 -65v-471h-89v452q0 38 -15 58.5t-49 20.5q-37 0 -71 -32v-499h-89v672h-40v67h40v54z" />
    <glyph glyph-name="uni045C" unicode="&#x45c;" horiz-adv-x="375" 
d="M46 0zM293 817l-107 -158h-78l88 158h97zM350 611l-140 -250l152 -361h-92l-135 329v-329h-89v611h89v-227l124 227h91z" />
    <glyph glyph-name="uni045D" unicode="&#x45d;" horiz-adv-x="408" 
d="M46 0zM201 817l88 -158h-79l-106 158h97zM135 611v-400l129 400h98v-611h-89v442l-147 -442h-80v611h89z" />
    <glyph glyph-name="uni045E" unicode="&#x45e;" horiz-adv-x="388" 
d="M19 0zM126 817q3 -57 19 -80t42 -23t42 23t19 80h65q-2 -30 -9.5 -58t-22.5 -49.5t-38.5 -34.5t-55.5 -13q-33 0 -56 13t-38.5 35t-23.5 49.5t-9 57.5h66zM105 611l79 -399l100 399h85l-193 -782h-87l52 210l-122 572h86z" />
    <glyph glyph-name="uni045F" unicode="&#x45f;" horiz-adv-x="408" 
d="M242 0v-171h-75v171h-121v611h89v-536h138v536h89v-611h-120z" />
    <glyph glyph-name="uni0490" unicode="&#x490;" horiz-adv-x="305" 
d="M205 783v171h80v-260h-147v-694h-92v783h159z" />
    <glyph glyph-name="uni0491" unicode="&#x491;" horiz-adv-x="312" 
d="M217 611v171h75v-246h-157v-536h-89v611h171z" />
    <glyph glyph-name="uni0492" unicode="&#x492;" horiz-adv-x="340" 
d="M320 783v-89h-147v-243h157v-67h-157v-384h-92v384h-75v67h75v332h239z" />
    <glyph glyph-name="uni0493" unicode="&#x493;" horiz-adv-x="347" 
d="M327 611v-75h-157v-197h160v-67h-160v-272h-89v272h-75v67h75v272h246z" />
    <glyph glyph-name="uni0496" unicode="&#x496;" horiz-adv-x="664" 
d="M341 783v-291l130 291h94l-146 -320l127 -374h98v-260h-80v171h-83l-140 423v-423h-92v423l-140 -423h-96l158 463l-146 320h94l130 -291v291h92z" />
    <glyph glyph-name="uni0497" unicode="&#x497;" horiz-adv-x="634" 
d="M330 611v-227l124 227h91l-140 -250l120 -286h90v-246h-75v171h-75l-135 329v-329h-89v331l-136 -331h-92l152 361l-140 250h91l125 -228v228h89z" />
    <glyph glyph-name="uni049A" unicode="&#x49a;" horiz-adv-x="459" 
d="M362 783l-146 -320l127 -374h95v-260h-80v171h-80l-140 423v-423h-92v783h92v-291l130 291h94z" />
    <glyph glyph-name="uni049B" unicode="&#x49b;" horiz-adv-x="440" 
d="M350 611l-140 -250l120 -286h90v-246h-75v171h-75l-135 329v-329h-89v611h89v-227l124 227h91z" />
    <glyph glyph-name="uni04A2" unicode="&#x4a2;" horiz-adv-x="495" 
d="M138 783v-341h139v341h92v-694h106v-260h-80v171h-118v354h-139v-354h-92v783h92z" />
    <glyph glyph-name="uni04A3" unicode="&#x4a3;" horiz-adv-x="480" 
d="M135 611v-251h138v251h89v-536h98v-246h-75v171h-112v285h-138v-285h-89v611h89z" />
    <glyph glyph-name="uni04AE" unicode="&#x4ae;" horiz-adv-x="412" 
d="M13 0zM106 783l101 -304l103 304h89l-147 -417v-366h-92v366l-147 417h93z" />
    <glyph glyph-name="uni04AF" unicode="&#x4af;" horiz-adv-x="378" 
d="M105 611l83 -453l87 453h85l-127 -611v-171h-89v171l-125 611h86z" />
    <glyph glyph-name="uni04B0" unicode="&#x4b0;" horiz-adv-x="412" 
d="M160 365v1l-147 417h93l101 -304l103 304h89l-147 -417v-1h116v-67h-116v-298h-92v298h-116v67h116z" />
    <glyph glyph-name="uni04B1" unicode="&#x4b1;" horiz-adv-x="378" 
d="M105 611l83 -452l87 452h85l-113 -544h104v-67h-118v-171h-89v171h-117v67h103l-111 544h86z" />
    <glyph glyph-name="uni04B2" unicode="&#x4b2;" horiz-adv-x="479" 
d="M383 783l-134 -376l114 -318h96v-260h-80v171h-81l-100 286l-98 -286h-87l139 416l-128 367h93l87 -248l90 248h89z" />
    <glyph glyph-name="uni04B3" unicode="&#x4b3;" horiz-adv-x="473" 
d="M392 611l-137 -293l114 -243h84v-246h-75v171h-73l-103 223l-100 -223h-89l143 324l-132 287h95l89 -193l92 193h92z" />
    <glyph glyph-name="uni04B6" unicode="&#x4b6;" horiz-adv-x="484" 
d="M358 783v-694h106v-260h-80v171h-118v321q-19 -11 -43 -17.5t-53 -6.5q-71 0 -101.5 41.5t-30.5 115.5v329h92v-328q0 -34 16.5 -51.5t55.5 -17.5q20 0 35.5 2.5t28.5 7.5v387h92z" />
    <glyph glyph-name="uni04B7" unicode="&#x4b7;" horiz-adv-x="474" 
d="M356 611v-536h98v-246h-75v171h-112v248q-20 -11 -43.5 -18t-51.5 -7q-68 0 -97 40t-29 111v237h89v-236q0 -35 18 -51t50 -16q19 0 34.5 3.5t29.5 8.5v291h89z" />
    <glyph glyph-name="uni04BA" unicode="&#x4ba;" horiz-adv-x="402" 
d="M38 0v783h92v-321q19 11 43 17.5t53 6.5q71 0 101.5 -41.5t30.5 -115.5v-329h-92v328q0 34 -16.5 51.5t-55.5 17.5t-64 -11v-386h-92z" />
    <glyph glyph-name="uni04BB" unicode="&#x4bb;" horiz-adv-x="402" 
d="M46 0v611h89v-249q19 11 42.5 18.5t52.5 7.5q68 0 97 -40t29 -111v-237h-89v236q0 35 -18 51t-50 16q-35 0 -64 -13v-290h-89z" />
    <glyph glyph-name="uni04C0" unicode="&#x4c0;" horiz-adv-x="184" 
d="M46 0zM138 783v-783h-92v783h92z" />
    <glyph glyph-name="uni04C3" unicode="&#x4c3;" horiz-adv-x="387" 
d="M362 783l-146 -320l158 -463q0 -84 -32.5 -133.5t-104.5 -49.5q-23 0 -44 6t-38 18l24 77q23 -17 45 -17q29 0 45.5 18.5t18.5 50.5l-150 453v-423h-92v783h92v-291l130 291h94z" />
    <glyph glyph-name="uni04C4" unicode="&#x4c4;" horiz-adv-x="375" 
d="M350 611l-140 -250l152 -361q0 -84 -32.5 -133.5t-104.5 -49.5q-23 0 -44 6t-38 18l24 77q23 -17 45 -17q29 0 46.5 21t17.5 65l-141 342v-329h-89v611h89v-227l124 227h91z" />
    <glyph glyph-name="uni04C7" unicode="&#x4c7;" horiz-adv-x="415" 
d="M138 783v-341h139v341h92v-809q0 -32 -8 -60.5t-24.5 -50t-42.5 -34t-62 -12.5q-23 0 -44 6t-38 18l24 77q23 -17 45 -17q29 0 43.5 19.5t14.5 53.5v380h-139v-354h-92v783h92z" />
    <glyph glyph-name="uni04C8" unicode="&#x4c8;" horiz-adv-x="408" 
d="M135 611v-251h138v251h89v-637q0 -32 -8 -60.5t-24.5 -50t-42.5 -34t-62 -12.5q-23 0 -44 6t-38 18l24 77q23 -17 45 -17q29 0 45 19.5t16 53.5v311h-138v-285h-89v611h89z" />
    <glyph glyph-name="uni04CF" unicode="&#x4cf;" horiz-adv-x="181" 
d="M46 0zM135 815v-815h-89v793z" />
    <glyph glyph-name="uni04D8" unicode="&#x4d8;" horiz-adv-x="404" 
d="M41 0zM204 797q33 0 62 -11t50.5 -31.5t34 -50.5t12.5 -68v-489q0 -38 -12.5 -68t-34 -50.5t-50.5 -31.5t-63 -11q-29 0 -58 9t-52 30t-37.5 54.5t-14.5 82.5q0 63 25.5 118t76.5 107t129 108v142q0 35 -19.5 53t-49.5 18q-32 0 -51.5 -18t-19.5 -53v-46l-89 -23v68
q0 38 12.5 68t34 50.5t51 31.5t63.5 11zM206 74q31 0 48.5 20t17.5 56v250q-51 -40 -80 -73q-60 -69 -60 -157q0 -53 22.5 -74.5t51.5 -21.5z" />
    <glyph glyph-name="uni04D9" unicode="&#x4d9;" horiz-adv-x="375" 
d="M41 0zM41 149q0 49 17.5 87.5t47 70t68 58.5t79.5 53v50q0 32 -18 48.5t-46 16.5q-29 0 -47 -16.5t-18 -48.5v-39l-81 -21v63q0 34 11.5 61.5t32 47t47.5 29.5t58 10t57.5 -10t46.5 -29.5t31.5 -47t11.5 -61.5v-331q0 -35 -11.5 -62t-31.5 -46.5t-47 -29.5t-58 -10
q-27 0 -54 8.5t-48 27t-34.5 48.5t-13.5 73zM253 333q-25 -17 -48 -34.5t-40 -38.5t-27.5 -46.5t-10.5 -56.5q0 -45 19.5 -64t45.5 -19q29 0 45 18.5t16 51.5v189z" />
    <glyph glyph-name="uni04E8" unicode="&#x4e8;" horiz-adv-x="404" 
d="M363 143q0 -37 -12.5 -66t-34.5 -49.5t-51.5 -31t-62.5 -10.5q-34 0 -63.5 10.5t-51 31t-34 49.5t-12.5 66v497q0 37 12.5 66t34 49t51 31t63.5 11q33 0 62.5 -11t51.5 -31t34.5 -49t12.5 -66v-497zM202 75q31 0 50.5 17.5t19.5 51.5v215h-140v-215q0 -34 19.5 -51.5
t50.5 -17.5zM132 448h140v191q0 34 -19.5 51.5t-50.5 17.5t-50.5 -17.5t-19.5 -51.5v-191z" />
    <glyph glyph-name="uni04E9" unicode="&#x4e9;" horiz-adv-x="386" 
d="M345 140q0 -35 -12 -62t-32.5 -46.5t-48.5 -29.5t-59 -10q-32 0 -59.5 10t-48 29.5t-32.5 46.5t-12 62v331q0 34 12 61.5t32.5 47t48 29.5t59.5 10q31 0 59 -10t48.5 -29.5t32.5 -47t12 -61.5v-331zM193 80q29 0 47 16.5t18 48.5v133h-131v-133q0 -32 18.5 -48.5
t47.5 -16.5zM127 345h131v121q0 32 -18 48.5t-47 16.5t-47.5 -16.5t-18.5 -48.5v-121z" />
    <glyph glyph-name="uni04EE" unicode="&#x4ee;" horiz-adv-x="432" 
d="M20 0zM378 951v-67h-324v67h324zM113 783l104 -400l110 400h89l-187 -666q-10 -35 -22.5 -57.5t-29.5 -36t-41 -18.5t-56 -5h-51v88h43q19 0 32 2.5t22 9.5t15 18.5t11 29.5l20 74l-152 561h93z" />
    <glyph glyph-name="uni04EF" unicode="&#x4ef;" horiz-adv-x="388" 
d="M19 0zM349 779v-67h-324v67h324zM105 611l79 -399l100 399h85l-193 -782h-87l52 210l-122 572h86z" />
    <glyph glyph-name="uni0512" unicode="&#x512;" horiz-adv-x="486" 
d="M440 783v-809q0 -32 -8 -60t-25 -50t-42.5 -34.5t-61.5 -12.5q-23 0 -44.5 6t-38.5 18l24 77q23 -17 47 -17q27 0 42 19t15 54v720h-81q-2 -128 -11.5 -227.5t-25.5 -184.5q-16 -83 -35 -137.5t-41.5 -86.5t-49.5 -45t-58 -13h-26v89h19q13 0 28.5 6.5t31.5 28.5t31 63.5
t29 111.5q9 49 16.5 106.5t13 119.5t8 127.5t2.5 130.5h241z" />
    <glyph glyph-name="uni0513" unicode="&#x513;" horiz-adv-x="469" 
d="M423 611v-637q0 -32 -8 -60.5t-24.5 -50t-42.5 -34t-62 -12.5q-23 0 -44 6t-38 18l24 77q23 -17 45 -17q29 0 45 19.5t16 53.5v562h-76q-3 -97 -12 -174t-24 -142q-15 -67 -34 -109.5t-41 -67t-47.5 -34t-54.5 -9.5h-25v75h18q13 0 28 5t30.5 21.5t30.5 47.5t27 84
q9 38 16 82.5t12 93.5t7.5 100t2.5 102h231z" />
    <glyph glyph-name="uni1E62" unicode="&#x1e62;" horiz-adv-x="376" 
d="M25 0zM191 797q71 0 111 -42t40 -111v-28h-85v21q0 34 -18 54t-50 20q-37 0 -54.5 -24.5t-17.5 -59.5q0 -29 10.5 -54.5t30.5 -53.5q13 -19 32.5 -44t40 -52.5t39.5 -54t33 -48.5q23 -37 33.5 -70t10.5 -76q0 -87 -38 -137.5t-119 -50.5q-39 0 -69.5 12t-51.5 32.5
t-32.5 48.5t-11.5 60v42l85 -22v-19q0 -28 19.5 -49t54.5 -21q38 0 56.5 24t18.5 68q0 27 -8.5 55t-30.5 62q-11 17 -27.5 38t-34.5 44t-35.5 46.5t-31.5 45.5q-34 54 -46.5 95.5t-12.5 79.5q0 78 43.5 123.5t115.5 45.5zM184 -57q27 0 40 -15.5t13 -38.5t-13 -39.5
t-40 -16.5q-26 0 -38.5 16.5t-12.5 39.5t12.5 38.5t38.5 15.5z" />
    <glyph glyph-name="uni1E63" unicode="&#x1e63;" horiz-adv-x="365" 
d="M27 0zM187 619q38 0 66 -10.5t46 -28.5t26.5 -42.5t8.5 -52.5v-40h-81v28q0 62 -67 62q-35 0 -51.5 -16t-16.5 -43q0 -16 7 -33t30 -41q14 -15 32.5 -32t38 -34.5t37.5 -35.5t31 -34q25 -31 34 -62t9 -61q0 -67 -37 -109t-117 -42q-73 0 -114.5 37.5t-41.5 104.5v69
l81 -21v-41q0 -29 18.5 -46.5t56.5 -17.5q71 0 71 69q0 21 -7.5 37.5t-27.5 39.5q-17 19 -36 37t-37.5 35t-35.5 33t-30 31q-27 32 -37.5 62.5t-10.5 59.5q0 67 42 102.5t113 35.5zM178 -57q27 0 40 -15.5t13 -38.5t-13 -39.5t-40 -16.5q-26 0 -38.5 16.5t-12.5 39.5
t12.5 38.5t38.5 15.5z" />
    <glyph glyph-name="Wgrave" unicode="&#x1e80;" horiz-adv-x="577" 
d="M22 0zM110 783l48 -551l85 551h88l79 -554l56 554h89l-89 -783h-92l-87 590l-95 -590h-89l-81 783h88zM284 989l88 -158h-79l-106 158h97z" />
    <glyph glyph-name="wgrave" unicode="&#x1e81;" horiz-adv-x="542" 
d="M22 0zM105 611l44 -431l80 431h82l74 -432l51 432h84l-83 -611h-87l-81 461l-88 -461h-84l-75 611h83zM266 817l88 -158h-79l-106 158h97z" />
    <glyph glyph-name="Wacute" unicode="&#x1e82;" horiz-adv-x="577" 
d="M22 0zM110 783l48 -551l85 551h88l79 -554l56 554h89l-89 -783h-92l-87 590l-95 -590h-89l-81 783h88zM390 989l-107 -158h-78l88 158h97z" />
    <glyph glyph-name="wacute" unicode="&#x1e83;" horiz-adv-x="542" 
d="M22 0zM105 611l44 -431l80 431h82l74 -432l51 432h84l-83 -611h-87l-81 461l-88 -461h-84l-75 611h83zM372 817l-107 -158h-78l88 158h97z" />
    <glyph glyph-name="Wdieresis" unicode="&#x1e84;" horiz-adv-x="577" 
d="M22 0zM110 783l48 -551l85 551h88l79 -554l56 554h89l-89 -783h-92l-87 590l-95 -590h-89l-81 783h88zM370 978q27 0 40 -15.5t13 -38.5t-13 -39.5t-40 -16.5q-26 0 -38.5 16.5t-12.5 39.5t12.5 38.5t38.5 15.5zM203 978q27 0 40 -15.5t13 -38.5t-13 -39.5t-40 -16.5
q-26 0 -38.5 16.5t-12.5 39.5t12.5 38.5t38.5 15.5z" />
    <glyph glyph-name="wdieresis" unicode="&#x1e85;" horiz-adv-x="542" 
d="M22 0zM105 611l44 -431l80 431h82l74 -432l51 432h84l-83 -611h-87l-81 461l-88 -461h-84l-75 611h83zM353 806q27 0 40 -15.5t13 -38.5t-13 -39.5t-40 -16.5q-26 0 -38.5 16.5t-12.5 39.5t12.5 38.5t38.5 15.5zM186 806q27 0 40 -15.5t13 -38.5t-13 -39.5t-40 -16.5
q-26 0 -38.5 16.5t-12.5 39.5t12.5 38.5t38.5 15.5z" />
    <glyph glyph-name="uni1EA0" unicode="&#x1ea0;" 
d="M18 0zM241 783l136 -783h-89l-18 113h-146l-17 -113h-89l132 783h91zM136 190h122l-62 392zM196 -57q27 0 40 -15.5t13 -38.5t-13 -39.5t-40 -16.5q-26 0 -38.5 16.5t-12.5 39.5t12.5 38.5t38.5 15.5z" />
    <glyph glyph-name="uni1EA1" unicode="&#x1ea1;" horiz-adv-x="384" 
d="M27 0zM53 551q22 32 60 50t82 18q73 0 109 -46.5t36 -119.5v-453h-56l-16 34q-23 -19 -51.5 -30.5t-60.5 -11.5q-25 0 -48.5 8.5t-41.5 27t-28.5 48.5t-10.5 74q0 34 7 62t22.5 53t39.5 49t57 49q22 16 48 33.5t55 35.5v19q0 38 -18 62t-55 24q-26 0 -47 -12.5t-34 -34.5
zM182 76q21 0 39 9t35 26v235q-18 -11 -32 -20.5t-27 -19.5q-47 -37 -64 -71t-17 -72q0 -47 18 -67t48 -20zM187 -57q27 0 40 -15.5t13 -38.5t-13 -39.5t-40 -16.5q-26 0 -38.5 16.5t-12.5 39.5t12.5 38.5t38.5 15.5z" />
    <glyph glyph-name="uni1EA2" unicode="&#x1ea2;" 
d="M18 0zM241 783l136 -783h-89l-18 113h-146l-17 -113h-89l132 783h91zM136 190h122l-62 392zM103 929q0 78 97 78q48 0 70.5 -17.5t22.5 -47.5q0 -27 -13 -45.5t-28 -33.5t-27 -28.5t-10 -30.5h-40q-6 22 2 37.5t20 29.5t23 28.5t11 34.5q0 13 -8.5 19.5t-28.5 6.5
q-22 0 -30 -7.5t-8 -23.5v-16h-53v16z" />
    <glyph glyph-name="uni1EA3" unicode="&#x1ea3;" horiz-adv-x="384" 
d="M27 0zM53 551q22 32 60 50t82 18q73 0 109 -46.5t36 -119.5v-453h-56l-16 34q-23 -19 -51.5 -30.5t-60.5 -11.5q-25 0 -48.5 8.5t-41.5 27t-28.5 48.5t-10.5 74q0 34 7 62t22.5 53t39.5 49t57 49q22 16 48 33.5t55 35.5v19q0 38 -18 62t-55 24q-26 0 -47 -12.5t-34 -34.5
zM182 76q21 0 39 9t35 26v235q-18 -11 -32 -20.5t-27 -19.5q-47 -37 -64 -71t-17 -72q0 -47 18 -67t48 -20zM100 757q0 78 97 78q48 0 70.5 -17.5t22.5 -47.5q0 -27 -13 -45.5t-28 -33.5t-27 -28.5t-10 -30.5h-40q-6 22 2 37.5t20 29.5t23 28.5t11 34.5q0 13 -8.5 19.5
t-28.5 6.5q-22 0 -30 -7.5t-8 -23.5v-16h-53v16z" />
    <glyph glyph-name="uni1EA4" unicode="&#x1ea4;" 
d="M18 0zM241 783l136 -783h-89l-18 113h-146l-17 -113h-89l132 783h91zM136 190h122l-62 392zM498 1089l-107 -158h-78l88 158h97zM245 989l99 -158h-75l-72 115l-72 -115h-74l98 158h96z" />
    <glyph glyph-name="uni1EA5" unicode="&#x1ea5;" horiz-adv-x="384" 
d="M27 0zM53 551q22 32 60 50t82 18q73 0 109 -46.5t36 -119.5v-453h-56l-16 34q-23 -19 -51.5 -30.5t-60.5 -11.5q-25 0 -48.5 8.5t-41.5 27t-28.5 48.5t-10.5 74q0 34 7 62t22.5 53t39.5 49t57 49q22 16 48 33.5t55 35.5v19q0 38 -18 62t-55 24q-26 0 -47 -12.5t-34 -34.5
zM182 76q21 0 39 9t35 26v235q-18 -11 -32 -20.5t-27 -19.5q-47 -37 -64 -71t-17 -72q0 -47 18 -67t48 -20zM283 989l-107 -158h-78l88 158h97zM239 817l99 -158h-75l-72 115l-72 -115h-74l98 158h96z" />
    <glyph glyph-name="uni1EA6" unicode="&#x1ea6;" 
d="M0 0zM241 783l136 -783h-89l-18 113h-146l-17 -113h-89l132 783h91zM136 190h122l-62 392zM-14 1089l88 -158h-79l-106 158h97zM245 989l99 -158h-75l-72 115l-72 -115h-74l98 158h96z" />
    <glyph glyph-name="uni1EA7" unicode="&#x1ea7;" horiz-adv-x="384" 
d="M27 0zM53 551q22 32 60 50t82 18q73 0 109 -46.5t36 -119.5v-453h-56l-16 34q-23 -19 -51.5 -30.5t-60.5 -11.5q-25 0 -48.5 8.5t-41.5 27t-28.5 48.5t-10.5 74q0 34 7 62t22.5 53t39.5 49t57 49q22 16 48 33.5t55 35.5v19q0 38 -18 62t-55 24q-26 0 -47 -12.5t-34 -34.5
zM182 76q21 0 39 9t35 26v235q-18 -11 -32 -20.5t-27 -19.5q-47 -37 -64 -71t-17 -72q0 -47 18 -67t48 -20zM196 989l88 -158h-79l-106 158h97zM239 817l99 -158h-75l-72 115l-72 -115h-74l98 158h96z" />
    <glyph glyph-name="uni1EA8" unicode="&#x1ea8;" 
d="M18 0zM241 783l136 -783h-89l-18 113h-146l-17 -113h-89l132 783h91zM136 190h122l-62 392zM245 989l99 -158h-75l-72 115l-72 -115h-74l98 158h96zM297 999q0 78 97 78q48 0 70.5 -17.5t22.5 -47.5q0 -27 -13 -45.5t-28 -33.5t-27 -28.5t-10 -30.5h-40q-6 22 2 37.5
t20 29.5t23 28.5t11 34.5q0 13 -8.5 19.5t-28.5 6.5q-22 0 -30 -7.5t-8 -23.5v-16h-53v16z" />
    <glyph glyph-name="uni1EA9" unicode="&#x1ea9;" horiz-adv-x="384" 
d="M27 0zM53 551q22 32 60 50t82 18q73 0 109 -46.5t36 -119.5v-453h-56l-16 34q-23 -19 -51.5 -30.5t-60.5 -11.5q-25 0 -48.5 8.5t-41.5 27t-28.5 48.5t-10.5 74q0 34 7 62t22.5 53t39.5 49t57 49q22 16 48 33.5t55 35.5v19q0 38 -18 62t-55 24q-26 0 -47 -12.5t-34 -34.5
zM182 76q21 0 39 9t35 26v235q-18 -11 -32 -20.5t-27 -19.5q-47 -37 -64 -71t-17 -72q0 -47 18 -67t48 -20zM239 817l99 -158h-75l-72 115l-72 -115h-74l98 158h96zM219 929q0 78 97 78q48 0 70.5 -17.5t22.5 -47.5q0 -27 -13 -45.5t-28 -33.5t-27 -28.5t-10 -30.5h-40
q-6 22 2 37.5t20 29.5t23 28.5t11 34.5q0 13 -8.5 19.5t-28.5 6.5q-22 0 -30 -7.5t-8 -23.5v-16h-53v16z" />
    <glyph glyph-name="uni1EAA" unicode="&#x1eaa;" 
d="M18 0zM241 783l136 -783h-89l-18 113h-146l-17 -113h-89l132 783h91zM136 190h122l-62 392zM27 1079q18 37 42.5 56.5t61.5 19.5q24 0 41 -7.5t32 -16.5t29.5 -16.5t33.5 -7.5t35.5 10t30.5 39l36 -32q-19 -38 -43.5 -57.5t-57.5 -19.5q-23 0 -39.5 7.5t-32 16.5
t-31.5 16.5t-36 7.5q-19 0 -35.5 -9.5t-30.5 -38.5zM245 989l99 -158h-75l-72 115l-72 -115h-74l98 158h96z" />
    <glyph glyph-name="uni1EAB" unicode="&#x1eab;" horiz-adv-x="384" 
d="M21 0zM53 551q22 32 60 50t82 18q73 0 109 -46.5t36 -119.5v-453h-56l-16 34q-23 -19 -51.5 -30.5t-60.5 -11.5q-25 0 -48.5 8.5t-41.5 27t-28.5 48.5t-10.5 74q0 34 7 62t22.5 53t39.5 49t57 49q22 16 48 33.5t55 35.5v19q0 38 -18 62t-55 24q-26 0 -47 -12.5t-34 -34.5
zM182 76q21 0 39 9t35 26v235q-18 -11 -32 -20.5t-27 -19.5q-47 -37 -64 -71t-17 -72q0 -47 18 -67t48 -20zM21 899q18 37 42.5 56.5t61.5 19.5q24 0 41 -7.5t32 -16.5t29.5 -16.5t33.5 -7.5t35.5 10t30.5 39l36 -32q-19 -38 -43.5 -57.5t-57.5 -19.5q-23 0 -39.5 7.5
t-32 16.5t-31.5 16.5t-36 7.5q-19 0 -35.5 -9.5t-30.5 -38.5zM239 817l99 -158h-75l-72 115l-72 -115h-74l98 158h96z" />
    <glyph glyph-name="uni1EAC" unicode="&#x1eac;" 
d="M18 0zM241 783l136 -783h-89l-18 113h-146l-17 -113h-89l132 783h91zM136 190h122l-62 392zM195 -57q27 0 40 -15.5t13 -38.5t-13 -39.5t-40 -16.5q-26 0 -38.5 16.5t-12.5 39.5t12.5 38.5t38.5 15.5zM245 989l99 -158h-75l-72 115l-72 -115h-74l98 158h96z" />
    <glyph glyph-name="uni1EAD" unicode="&#x1ead;" horiz-adv-x="384" 
d="M27 0zM53 551q22 32 60 50t82 18q73 0 109 -46.5t36 -119.5v-453h-56l-16 34q-23 -19 -51.5 -30.5t-60.5 -11.5q-25 0 -48.5 8.5t-41.5 27t-28.5 48.5t-10.5 74q0 34 7 62t22.5 53t39.5 49t57 49q22 16 48 33.5t55 35.5v19q0 38 -18 62t-55 24q-26 0 -47 -12.5t-34 -34.5
zM182 76q21 0 39 9t35 26v235q-18 -11 -32 -20.5t-27 -19.5q-47 -37 -64 -71t-17 -72q0 -47 18 -67t48 -20zM190 -57q27 0 40 -15.5t13 -38.5t-13 -39.5t-40 -16.5q-26 0 -38.5 16.5t-12.5 39.5t12.5 38.5t38.5 15.5zM239 817l99 -158h-75l-72 115l-72 -115h-74l98 158h96z
" />
    <glyph glyph-name="uni1EAE" unicode="&#x1eae;" 
d="M18 0zM241 783l136 -783h-89l-18 113h-146l-17 -113h-89l132 783h91zM136 190h122l-62 392zM299 1189l-107 -158h-78l88 158h97zM136 989q3 -57 19 -80t42 -23t42 23t19 80h65q-2 -30 -9.5 -58t-22.5 -49.5t-38.5 -34.5t-55.5 -13q-33 0 -56 13t-38.5 35t-23.5 49.5
t-9 57.5h66z" />
    <glyph glyph-name="uni1EAF" unicode="&#x1eaf;" horiz-adv-x="384" 
d="M27 0zM53 551q22 32 60 50t82 18q73 0 109 -46.5t36 -119.5v-453h-56l-16 34q-23 -19 -51.5 -30.5t-60.5 -11.5q-25 0 -48.5 8.5t-41.5 27t-28.5 48.5t-10.5 74q0 34 7 62t22.5 53t39.5 49t57 49q22 16 48 33.5t55 35.5v19q0 38 -18 62t-55 24q-26 0 -47 -12.5t-34 -34.5
zM182 76q21 0 39 9t35 26v235q-18 -11 -32 -20.5t-27 -19.5q-47 -37 -64 -71t-17 -72q0 -47 18 -67t48 -20zM293 989l-107 -158h-78l88 158h97zM131 817q3 -57 19 -80t42 -23t42 23t19 80h65q-2 -30 -9.5 -58t-22.5 -49.5t-38.5 -34.5t-55.5 -13q-33 0 -56 13t-38.5 35
t-23.5 49.5t-9 57.5h66z" />
    <glyph glyph-name="uni1EB0" unicode="&#x1eb0;" 
d="M18 0zM241 783l136 -783h-89l-18 113h-146l-17 -113h-89l132 783h91zM136 190h122l-62 392zM136 989q3 -57 19 -80t42 -23t42 23t19 80h65q-2 -30 -9.5 -58t-22.5 -49.5t-38.5 -34.5t-55.5 -13q-33 0 -56 13t-38.5 35t-23.5 49.5t-9 57.5h66zM194 1189l88 -158h-79
l-106 158h97z" />
    <glyph glyph-name="uni1EB1" unicode="&#x1eb1;" horiz-adv-x="384" 
d="M27 0zM53 551q22 32 60 50t82 18q73 0 109 -46.5t36 -119.5v-453h-56l-16 34q-23 -19 -51.5 -30.5t-60.5 -11.5q-25 0 -48.5 8.5t-41.5 27t-28.5 48.5t-10.5 74q0 34 7 62t22.5 53t39.5 49t57 49q22 16 48 33.5t55 35.5v19q0 38 -18 62t-55 24q-26 0 -47 -12.5t-34 -34.5
zM182 76q21 0 39 9t35 26v235q-18 -11 -32 -20.5t-27 -19.5q-47 -37 -64 -71t-17 -72q0 -47 18 -67t48 -20zM131 817q3 -57 19 -80t42 -23t42 23t19 80h65q-2 -30 -9.5 -58t-22.5 -49.5t-38.5 -34.5t-55.5 -13q-33 0 -56 13t-38.5 35t-23.5 49.5t-9 57.5h66zM187 989
l88 -158h-79l-106 158h97z" />
    <glyph glyph-name="uni1EB2" unicode="&#x1eb2;" 
d="M18 0zM241 783l136 -783h-89l-18 113h-146l-17 -113h-89l132 783h91zM136 190h122l-62 392zM136 989q3 -57 19 -80t42 -23t42 23t19 80h65q-2 -30 -9.5 -58t-22.5 -49.5t-38.5 -34.5t-55.5 -13q-33 0 -56 13t-38.5 35t-23.5 49.5t-9 57.5h66zM103 1129q0 78 97 78
q48 0 70.5 -17.5t22.5 -47.5q0 -27 -13 -45.5t-28 -33.5t-27 -28.5t-10 -30.5h-40q-6 22 2 37.5t20 29.5t23 28.5t11 34.5q0 13 -8.5 19.5t-28.5 6.5q-22 0 -30 -7.5t-8 -23.5v-16h-53v16z" />
    <glyph glyph-name="uni1EB3" unicode="&#x1eb3;" horiz-adv-x="384" 
d="M27 0zM53 551q22 32 60 50t82 18q73 0 109 -46.5t36 -119.5v-453h-56l-16 34q-23 -19 -51.5 -30.5t-60.5 -11.5q-25 0 -48.5 8.5t-41.5 27t-28.5 48.5t-10.5 74q0 34 7 62t22.5 53t39.5 49t57 49q22 16 48 33.5t55 35.5v19q0 38 -18 62t-55 24q-26 0 -47 -12.5t-34 -34.5
zM182 76q21 0 39 9t35 26v235q-18 -11 -32 -20.5t-27 -19.5q-47 -37 -64 -71t-17 -72q0 -47 18 -67t48 -20zM131 817q3 -57 19 -80t42 -23t42 23t19 80h65q-2 -30 -9.5 -58t-22.5 -49.5t-38.5 -34.5t-55.5 -13q-33 0 -56 13t-38.5 35t-23.5 49.5t-9 57.5h66zM98 929
q0 78 97 78q48 0 70.5 -17.5t22.5 -47.5q0 -27 -13 -45.5t-28 -33.5t-27 -28.5t-10 -30.5h-40q-6 22 2 37.5t20 29.5t23 28.5t11 34.5q0 13 -8.5 19.5t-28.5 6.5q-22 0 -30 -7.5t-8 -23.5v-16h-53v16z" />
    <glyph glyph-name="uni1EB4" unicode="&#x1eb4;" 
d="M18 0zM241 783l136 -783h-89l-18 113h-146l-17 -113h-89l132 783h91zM136 190h122l-62 392zM136 989q3 -57 19 -80t42 -23t42 23t19 80h65q-2 -30 -9.5 -58t-22.5 -49.5t-38.5 -34.5t-55.5 -13q-33 0 -56 13t-38.5 35t-23.5 49.5t-9 57.5h66zM27 1099q18 37 42.5 56.5
t61.5 19.5q24 0 41 -7.5t32 -16.5t29.5 -16.5t33.5 -7.5t35.5 10t30.5 39l36 -32q-19 -38 -43.5 -57.5t-57.5 -19.5q-23 0 -39.5 7.5t-32 16.5t-31.5 16.5t-36 7.5q-19 0 -35.5 -9.5t-30.5 -38.5z" />
    <glyph glyph-name="uni1EB5" unicode="&#x1eb5;" horiz-adv-x="384" 
d="M21 0zM53 551q22 32 60 50t82 18q73 0 109 -46.5t36 -119.5v-453h-56l-16 34q-23 -19 -51.5 -30.5t-60.5 -11.5q-25 0 -48.5 8.5t-41.5 27t-28.5 48.5t-10.5 74q0 34 7 62t22.5 53t39.5 49t57 49q22 16 48 33.5t55 35.5v19q0 38 -18 62t-55 24q-26 0 -47 -12.5t-34 -34.5
zM182 76q21 0 39 9t35 26v235q-18 -11 -32 -20.5t-27 -19.5q-47 -37 -64 -71t-17 -72q0 -47 18 -67t48 -20zM131 817q3 -57 19 -80t42 -23t42 23t19 80h65q-2 -30 -9.5 -58t-22.5 -49.5t-38.5 -34.5t-55.5 -13q-33 0 -56 13t-38.5 35t-23.5 49.5t-9 57.5h66zM21 899
q18 37 42.5 56.5t61.5 19.5q24 0 41 -7.5t32 -16.5t29.5 -16.5t33.5 -7.5t35.5 10t30.5 39l36 -32q-19 -38 -43.5 -57.5t-57.5 -19.5q-23 0 -39.5 7.5t-32 16.5t-31.5 16.5t-36 7.5q-19 0 -35.5 -9.5t-30.5 -38.5z" />
    <glyph glyph-name="uni1EB6" unicode="&#x1eb6;" 
d="M18 0zM241 783l136 -783h-89l-18 113h-146l-17 -113h-89l132 783h91zM136 190h122l-62 392zM136 989q3 -57 19 -80t42 -23t42 23t19 80h65q-2 -30 -9.5 -58t-22.5 -49.5t-38.5 -34.5t-55.5 -13q-33 0 -56 13t-38.5 35t-23.5 49.5t-9 57.5h66zM196 -57q27 0 40 -15.5
t13 -38.5t-13 -39.5t-40 -16.5q-26 0 -38.5 16.5t-12.5 39.5t12.5 38.5t38.5 15.5z" />
    <glyph glyph-name="uni1EB7" unicode="&#x1eb7;" horiz-adv-x="384" 
d="M27 0zM53 551q22 32 60 50t82 18q73 0 109 -46.5t36 -119.5v-453h-56l-16 34q-23 -19 -51.5 -30.5t-60.5 -11.5q-25 0 -48.5 8.5t-41.5 27t-28.5 48.5t-10.5 74q0 34 7 62t22.5 53t39.5 49t57 49q22 16 48 33.5t55 35.5v19q0 38 -18 62t-55 24q-26 0 -47 -12.5t-34 -34.5
zM182 76q21 0 39 9t35 26v235q-18 -11 -32 -20.5t-27 -19.5q-47 -37 -64 -71t-17 -72q0 -47 18 -67t48 -20zM131 817q3 -57 19 -80t42 -23t42 23t19 80h65q-2 -30 -9.5 -58t-22.5 -49.5t-38.5 -34.5t-55.5 -13q-33 0 -56 13t-38.5 35t-23.5 49.5t-9 57.5h66zM190 -57
q27 0 40 -15.5t13 -38.5t-13 -39.5t-40 -16.5q-26 0 -38.5 16.5t-12.5 39.5t12.5 38.5t38.5 15.5z" />
    <glyph glyph-name="uni1EB8" unicode="&#x1eb8;" horiz-adv-x="334" 
d="M46 0zM305 783v-89h-167v-246h118v-89h-118v-270h167v-89h-259v783h259zM166 -57q27 0 40 -15.5t13 -38.5t-13 -39.5t-40 -16.5q-26 0 -38.5 16.5t-12.5 39.5t12.5 38.5t38.5 15.5z" />
    <glyph glyph-name="uni1EB9" unicode="&#x1eb9;" horiz-adv-x="375" 
d="M41 0zM241 274q-21 -18 -49.5 -38.5t-64.5 -43.5v-49q0 -32 18 -48.5t46 -16.5q29 0 47 16.5t18 48.5v39l81 21v-63q0 -35 -11.5 -62t-32 -46.5t-47.5 -29.5t-58 -10t-57.5 10t-46.5 29.5t-31.5 46.5t-11.5 62v331q0 34 11.5 61.5t31.5 47t47 29.5t58 10q27 0 54 -8
t48 -27t34.5 -49.5t13.5 -76.5q0 -57 -23.5 -99.5t-74.5 -84.5zM127 278q45 29 69 52q31 29 44 57t13 65q0 48 -19.5 66.5t-45.5 18.5q-29 0 -45 -18.5t-16 -51.5v-189zM187 -57q27 0 40 -15.5t13 -38.5t-13 -39.5t-40 -16.5q-26 0 -38.5 16.5t-12.5 39.5t12.5 38.5
t38.5 15.5z" />
    <glyph glyph-name="uni1EBA" unicode="&#x1eba;" horiz-adv-x="334" 
d="M46 0zM305 783v-89h-167v-246h118v-89h-118v-270h167v-89h-259v783h259zM80 929q0 78 97 78q48 0 70.5 -17.5t22.5 -47.5q0 -27 -13 -45.5t-28 -33.5t-27 -28.5t-10 -30.5h-40q-6 22 2 37.5t20 29.5t23 28.5t11 34.5q0 13 -8.5 19.5t-28.5 6.5q-22 0 -30 -7.5t-8 -23.5
v-16h-53v16z" />
    <glyph glyph-name="uni1EBB" unicode="&#x1ebb;" horiz-adv-x="375" 
d="M41 0zM241 274q-21 -18 -49.5 -38.5t-64.5 -43.5v-49q0 -32 18 -48.5t46 -16.5q29 0 47 16.5t18 48.5v39l81 21v-63q0 -35 -11.5 -62t-32 -46.5t-47.5 -29.5t-58 -10t-57.5 10t-46.5 29.5t-31.5 46.5t-11.5 62v331q0 34 11.5 61.5t31.5 47t47 29.5t58 10q27 0 54 -8
t48 -27t34.5 -49.5t13.5 -76.5q0 -57 -23.5 -99.5t-74.5 -84.5zM127 278q45 29 69 52q31 29 44 57t13 65q0 48 -19.5 66.5t-45.5 18.5q-29 0 -45 -18.5t-16 -51.5v-189zM94 757q0 78 97 78q48 0 70.5 -17.5t22.5 -47.5q0 -27 -13 -45.5t-28 -33.5t-27 -28.5t-10 -30.5h-40
q-6 22 2 37.5t20 29.5t23 28.5t11 34.5q0 13 -8.5 19.5t-28.5 6.5q-22 0 -30 -7.5t-8 -23.5v-16h-53v16z" />
    <glyph glyph-name="uni1EBC" unicode="&#x1ebc;" horiz-adv-x="334" 
d="M6 0zM305 783v-89h-167v-246h118v-89h-118v-270h167v-89h-259v783h259zM6 899q18 37 42.5 56.5t61.5 19.5q24 0 41 -7.5t32 -16.5t29.5 -16.5t33.5 -7.5t35.5 10t30.5 39l36 -32q-19 -38 -43.5 -57.5t-57.5 -19.5q-23 0 -39.5 7.5t-32 16.5t-31.5 16.5t-36 7.5
q-19 0 -35.5 -9.5t-30.5 -38.5z" />
    <glyph glyph-name="uni1EBD" unicode="&#x1ebd;" horiz-adv-x="375" 
d="M17 0zM241 274q-21 -18 -49.5 -38.5t-64.5 -43.5v-49q0 -32 18 -48.5t46 -16.5q29 0 47 16.5t18 48.5v39l81 21v-63q0 -35 -11.5 -62t-32 -46.5t-47.5 -29.5t-58 -10t-57.5 10t-46.5 29.5t-31.5 46.5t-11.5 62v331q0 34 11.5 61.5t31.5 47t47 29.5t58 10q27 0 54 -8
t48 -27t34.5 -49.5t13.5 -76.5q0 -57 -23.5 -99.5t-74.5 -84.5zM127 278q45 29 69 52q31 29 44 57t13 65q0 48 -19.5 66.5t-45.5 18.5q-29 0 -45 -18.5t-16 -51.5v-189zM17 727q18 37 42.5 56.5t61.5 19.5q24 0 41 -7.5t32 -16.5t29.5 -16.5t33.5 -7.5t35.5 10t30.5 39
l36 -32q-19 -38 -43.5 -57.5t-57.5 -19.5q-23 0 -39.5 7.5t-32 16.5t-31.5 16.5t-36 7.5q-19 0 -35.5 -9.5t-30.5 -38.5z" />
    <glyph glyph-name="uni1EBE" unicode="&#x1ebe;" horiz-adv-x="334" 
d="M31 0zM305 783v-89h-167v-246h118v-89h-118v-270h167v-89h-259v783h259zM486 1089l-107 -158h-78l88 158h97zM225 989l99 -158h-75l-72 115l-72 -115h-74l98 158h96z" />
    <glyph glyph-name="uni1EBF" unicode="&#x1ebf;" horiz-adv-x="375" 
d="M41 0zM241 274q-21 -18 -49.5 -38.5t-64.5 -43.5v-49q0 -32 18 -48.5t46 -16.5q29 0 47 16.5t18 48.5v39l81 21v-63q0 -35 -11.5 -62t-32 -46.5t-47.5 -29.5t-58 -10t-57.5 10t-46.5 29.5t-31.5 46.5t-11.5 62v331q0 34 11.5 61.5t31.5 47t47 29.5t58 10q27 0 54 -8
t48 -27t34.5 -49.5t13.5 -76.5q0 -57 -23.5 -99.5t-74.5 -84.5zM127 278q45 29 69 52q31 29 44 57t13 65q0 48 -19.5 66.5t-45.5 18.5q-29 0 -45 -18.5t-16 -51.5v-189zM280 989l-107 -158h-78l88 158h97zM235 817l99 -158h-75l-72 115l-72 -115h-74l98 158h96z" />
    <glyph glyph-name="uni1EC0" unicode="&#x1ec0;" horiz-adv-x="334" 
d="M0 0zM305 783v-89h-167v-246h118v-89h-118v-270h167v-89h-259v783h259zM-34 1089l88 -158h-79l-106 158h97zM225 989l99 -158h-75l-72 115l-72 -115h-74l98 158h96z" />
    <glyph glyph-name="uni1EC1" unicode="&#x1ec1;" horiz-adv-x="375" 
d="M41 0zM241 274q-21 -18 -49.5 -38.5t-64.5 -43.5v-49q0 -32 18 -48.5t46 -16.5q29 0 47 16.5t18 48.5v39l81 21v-63q0 -35 -11.5 -62t-32 -46.5t-47.5 -29.5t-58 -10t-57.5 10t-46.5 29.5t-31.5 46.5t-11.5 62v331q0 34 11.5 61.5t31.5 47t47 29.5t58 10q27 0 54 -8
t48 -27t34.5 -49.5t13.5 -76.5q0 -57 -23.5 -99.5t-74.5 -84.5zM127 278q45 29 69 52q31 29 44 57t13 65q0 48 -19.5 66.5t-45.5 18.5q-29 0 -45 -18.5t-16 -51.5v-189zM192 989l88 -158h-79l-106 158h97zM235 817l99 -158h-75l-72 115l-72 -115h-74l98 158h96z" />
    <glyph glyph-name="uni1EC2" unicode="&#x1ec2;" horiz-adv-x="334" 
d="M31 0zM305 783v-89h-167v-246h118v-89h-118v-270h167v-89h-259v783h259zM225 989l99 -158h-75l-72 115l-72 -115h-74l98 158h96zM276 999q0 78 97 78q48 0 70.5 -17.5t22.5 -47.5q0 -27 -13 -45.5t-28 -33.5t-27 -28.5t-10 -30.5h-40q-6 22 2 37.5t20 29.5t23 28.5
t11 34.5q0 13 -8.5 19.5t-28.5 6.5q-22 0 -30 -7.5t-8 -23.5v-16h-53v16z" />
    <glyph glyph-name="uni1EC3" unicode="&#x1ec3;" horiz-adv-x="375" 
d="M41 0zM241 274q-21 -18 -49.5 -38.5t-64.5 -43.5v-49q0 -32 18 -48.5t46 -16.5q29 0 47 16.5t18 48.5v39l81 21v-63q0 -35 -11.5 -62t-32 -46.5t-47.5 -29.5t-58 -10t-57.5 10t-46.5 29.5t-31.5 46.5t-11.5 62v331q0 34 11.5 61.5t31.5 47t47 29.5t58 10q27 0 54 -8
t48 -27t34.5 -49.5t13.5 -76.5q0 -57 -23.5 -99.5t-74.5 -84.5zM127 278q45 29 69 52q31 29 44 57t13 65q0 48 -19.5 66.5t-45.5 18.5q-29 0 -45 -18.5t-16 -51.5v-189zM235 817l99 -158h-75l-72 115l-72 -115h-74l98 158h96zM216 929q0 78 97 78q48 0 70.5 -17.5
t22.5 -47.5q0 -27 -13 -45.5t-28 -33.5t-27 -28.5t-10 -30.5h-40q-6 22 2 37.5t20 29.5t23 28.5t11 34.5q0 13 -8.5 19.5t-28.5 6.5q-22 0 -30 -7.5t-8 -23.5v-16h-53v16z" />
    <glyph glyph-name="uni1EC4" unicode="&#x1ec4;" horiz-adv-x="334" 
d="M0 0zM305 783v-89h-167v-246h118v-89h-118v-270h167v-89h-259v783h259zM-4 1099q18 37 42.5 56.5t61.5 19.5q24 0 41 -7.5t32 -16.5t29.5 -16.5t33.5 -7.5t35.5 10t30.5 39l36 -32q-19 -38 -43.5 -57.5t-57.5 -19.5q-23 0 -39.5 7.5t-32 16.5t-31.5 16.5t-36 7.5
q-19 0 -35.5 -9.5t-30.5 -38.5zM225 989l99 -158h-75l-72 115l-72 -115h-74l98 158h96z" />
    <glyph glyph-name="uni1EC5" unicode="&#x1ec5;" horiz-adv-x="375" 
d="M17 0zM241 274q-21 -18 -49.5 -38.5t-64.5 -43.5v-49q0 -32 18 -48.5t46 -16.5q29 0 47 16.5t18 48.5v39l81 21v-63q0 -35 -11.5 -62t-32 -46.5t-47.5 -29.5t-58 -10t-57.5 10t-46.5 29.5t-31.5 46.5t-11.5 62v331q0 34 11.5 61.5t31.5 47t47 29.5t58 10q27 0 54 -8
t48 -27t34.5 -49.5t13.5 -76.5q0 -57 -23.5 -99.5t-74.5 -84.5zM127 278q45 29 69 52q31 29 44 57t13 65q0 48 -19.5 66.5t-45.5 18.5q-29 0 -45 -18.5t-16 -51.5v-189zM17 899q18 37 42.5 56.5t61.5 19.5q24 0 41 -7.5t32 -16.5t29.5 -16.5t33.5 -7.5t35.5 10t30.5 39
l36 -32q-19 -38 -43.5 -57.5t-57.5 -19.5q-23 0 -39.5 7.5t-32 16.5t-31.5 16.5t-36 7.5q-19 0 -35.5 -9.5t-30.5 -38.5zM235 817l99 -158h-75l-72 115l-72 -115h-74l98 158h96z" />
    <glyph glyph-name="uni1EC6" unicode="&#x1ec6;" horiz-adv-x="334" 
d="M31 0zM305 783v-89h-167v-246h118v-89h-118v-270h167v-89h-259v783h259zM163 -57q27 0 40 -15.5t13 -38.5t-13 -39.5t-40 -16.5q-26 0 -38.5 16.5t-12.5 39.5t12.5 38.5t38.5 15.5zM225 989l99 -158h-75l-72 115l-72 -115h-74l98 158h96z" />
    <glyph glyph-name="uni1EC7" unicode="&#x1ec7;" horiz-adv-x="375" 
d="M41 0zM241 274q-21 -18 -49.5 -38.5t-64.5 -43.5v-49q0 -32 18 -48.5t46 -16.5q29 0 47 16.5t18 48.5v39l81 21v-63q0 -35 -11.5 -62t-32 -46.5t-47.5 -29.5t-58 -10t-57.5 10t-46.5 29.5t-31.5 46.5t-11.5 62v331q0 34 11.5 61.5t31.5 47t47 29.5t58 10q27 0 54 -8
t48 -27t34.5 -49.5t13.5 -76.5q0 -57 -23.5 -99.5t-74.5 -84.5zM127 278q45 29 69 52q31 29 44 57t13 65q0 48 -19.5 66.5t-45.5 18.5q-29 0 -45 -18.5t-16 -51.5v-189zM173 -57q27 0 40 -15.5t13 -38.5t-13 -39.5t-40 -16.5q-26 0 -38.5 16.5t-12.5 39.5t12.5 38.5
t38.5 15.5zM235 817l99 -158h-75l-72 115l-72 -115h-74l98 158h96z" />
    <glyph glyph-name="uni1EC8" unicode="&#x1ec8;" horiz-adv-x="184" 
d="M0 0zM138 783v-783h-92v783h92zM-2 929q0 78 97 78q48 0 70.5 -17.5t22.5 -47.5q0 -27 -13 -45.5t-28 -33.5t-27 -28.5t-10 -30.5h-40q-6 22 2 37.5t20 29.5t23 28.5t11 34.5q0 13 -8.5 19.5t-28.5 6.5q-22 0 -30 -7.5t-8 -23.5v-16h-53v16z" />
    <glyph glyph-name="uni1EC9" unicode="&#x1ec9;" horiz-adv-x="190" 
d="M1 0zM139 611v-611h-89v611h89zM1 757q0 78 97 78q48 0 70.5 -17.5t22.5 -47.5q0 -27 -13 -45.5t-28 -33.5t-27 -28.5t-10 -30.5h-40q-6 22 2 37.5t20 29.5t23 28.5t11 34.5q0 13 -8.5 19.5t-28.5 6.5q-22 0 -30 -7.5t-8 -23.5v-16h-53v16z" />
    <glyph glyph-name="uni1ECA" unicode="&#x1eca;" horiz-adv-x="184" 
d="M40 0zM138 783v-783h-92v783h92zM91 -57q27 0 40 -15.5t13 -38.5t-13 -39.5t-40 -16.5q-26 0 -38.5 16.5t-12.5 39.5t12.5 38.5t38.5 15.5z" />
    <glyph glyph-name="uni1ECB" unicode="&#x1ecb;" horiz-adv-x="181" 
d="M39 0zM135 611v-611h-89v611h89zM90 -57q27 0 40 -15.5t13 -38.5t-13 -39.5t-40 -16.5q-26 0 -38.5 16.5t-12.5 39.5t12.5 38.5t38.5 15.5zM90 806q27 0 40 -15.5t13 -38.5t-13 -39.5t-40 -16.5q-26 0 -38.5 16.5t-12.5 39.5t12.5 38.5t38.5 15.5z" />
    <glyph glyph-name="uni1ECC" unicode="&#x1ecc;" horiz-adv-x="404" 
d="M41 0zM363 143q0 -37 -12.5 -66t-34.5 -49.5t-51.5 -31t-62.5 -10.5q-34 0 -63.5 10.5t-51 31t-34 49.5t-12.5 66v497q0 37 12.5 66t34 49t51 31t63.5 11q33 0 62.5 -11t51.5 -31t34.5 -49t12.5 -66v-497zM132 144q0 -34 19.5 -51.5t50.5 -17.5t50.5 17.5t19.5 51.5v495
q0 34 -19.5 51.5t-50.5 17.5t-50.5 -17.5t-19.5 -51.5v-495zM201 -57q27 0 40 -15.5t13 -38.5t-13 -39.5t-40 -16.5q-26 0 -38.5 16.5t-12.5 39.5t12.5 38.5t38.5 15.5z" />
    <glyph glyph-name="uni1ECD" unicode="&#x1ecd;" horiz-adv-x="386" 
d="M41 0zM345 140q0 -35 -12 -62t-32.5 -46.5t-48.5 -29.5t-59 -10q-32 0 -59.5 10t-48 29.5t-32.5 46.5t-12 62v331q0 34 12 61.5t32.5 47t48 29.5t59.5 10q31 0 59 -10t48.5 -29.5t32.5 -47t12 -61.5v-331zM127 145q0 -32 18.5 -48.5t47.5 -16.5t47 16.5t18 48.5v321
q0 32 -18 48.5t-47 16.5t-47.5 -16.5t-18.5 -48.5v-321zM193 -57q27 0 40 -15.5t13 -38.5t-13 -39.5t-40 -16.5q-26 0 -38.5 16.5t-12.5 39.5t12.5 38.5t38.5 15.5z" />
    <glyph glyph-name="uni1ECE" unicode="&#x1ece;" horiz-adv-x="404" 
d="M41 0zM363 143q0 -37 -12.5 -66t-34.5 -49.5t-51.5 -31t-62.5 -10.5q-34 0 -63.5 10.5t-51 31t-34 49.5t-12.5 66v497q0 37 12.5 66t34 49t51 31t63.5 11q33 0 62.5 -11t51.5 -31t34.5 -49t12.5 -66v-497zM132 144q0 -34 19.5 -51.5t50.5 -17.5t50.5 17.5t19.5 51.5v495
q0 34 -19.5 51.5t-50.5 17.5t-50.5 -17.5t-19.5 -51.5v-495zM108 929q0 78 97 78q48 0 70.5 -17.5t22.5 -47.5q0 -27 -13 -45.5t-28 -33.5t-27 -28.5t-10 -30.5h-40q-6 22 2 37.5t20 29.5t23 28.5t11 34.5q0 13 -8.5 19.5t-28.5 6.5q-22 0 -30 -7.5t-8 -23.5v-16h-53v16z
" />
    <glyph glyph-name="uni1ECF" unicode="&#x1ecf;" horiz-adv-x="386" 
d="M41 0zM345 140q0 -35 -12 -62t-32.5 -46.5t-48.5 -29.5t-59 -10q-32 0 -59.5 10t-48 29.5t-32.5 46.5t-12 62v331q0 34 12 61.5t32.5 47t48 29.5t59.5 10q31 0 59 -10t48.5 -29.5t32.5 -47t12 -61.5v-331zM127 145q0 -32 18.5 -48.5t47.5 -16.5t47 16.5t18 48.5v321
q0 32 -18 48.5t-47 16.5t-47.5 -16.5t-18.5 -48.5v-321zM100 757q0 78 97 78q48 0 70.5 -17.5t22.5 -47.5q0 -27 -13 -45.5t-28 -33.5t-27 -28.5t-10 -30.5h-40q-6 22 2 37.5t20 29.5t23 28.5t11 34.5q0 13 -8.5 19.5t-28.5 6.5q-22 0 -30 -7.5t-8 -23.5v-16h-53v16z" />
    <glyph glyph-name="uni1ED0" unicode="&#x1ed0;" horiz-adv-x="404" 
d="M41 0zM363 143q0 -37 -12.5 -66t-34.5 -49.5t-51.5 -31t-62.5 -10.5q-34 0 -63.5 10.5t-51 31t-34 49.5t-12.5 66v497q0 37 12.5 66t34 49t51 31t63.5 11q33 0 62.5 -11t51.5 -31t34.5 -49t12.5 -66v-497zM132 144q0 -34 19.5 -51.5t50.5 -17.5t50.5 17.5t19.5 51.5v495
q0 34 -19.5 51.5t-50.5 17.5t-50.5 -17.5t-19.5 -51.5v-495zM511 1089l-107 -158h-78l88 158h97zM249 989l99 -158h-75l-72 115l-72 -115h-74l98 158h96z" />
    <glyph glyph-name="uni1ED1" unicode="&#x1ed1;" horiz-adv-x="386" 
d="M41 0zM345 140q0 -35 -12 -62t-32.5 -46.5t-48.5 -29.5t-59 -10q-32 0 -59.5 10t-48 29.5t-32.5 46.5t-12 62v331q0 34 12 61.5t32.5 47t48 29.5t59.5 10q31 0 59 -10t48.5 -29.5t32.5 -47t12 -61.5v-331zM127 145q0 -32 18.5 -48.5t47.5 -16.5t47 16.5t18 48.5v321
q0 32 -18 48.5t-47 16.5t-47.5 -16.5t-18.5 -48.5v-321zM285 989l-107 -158h-78l88 158h97zM240 817l99 -158h-75l-72 115l-72 -115h-74l98 158h96z" />
    <glyph glyph-name="uni1ED2" unicode="&#x1ed2;" horiz-adv-x="404" 
d="M0 0zM363 143q0 -37 -12.5 -66t-34.5 -49.5t-51.5 -31t-62.5 -10.5q-34 0 -63.5 10.5t-51 31t-34 49.5t-12.5 66v497q0 37 12.5 66t34 49t51 31t63.5 11q33 0 62.5 -11t51.5 -31t34.5 -49t12.5 -66v-497zM132 144q0 -34 19.5 -51.5t50.5 -17.5t50.5 17.5t19.5 51.5v495
q0 34 -19.5 51.5t-50.5 17.5t-50.5 -17.5t-19.5 -51.5v-495zM-10 1089l88 -158h-79l-106 158h97zM249 989l99 -158h-75l-72 115l-72 -115h-74l98 158h96z" />
    <glyph glyph-name="uni1ED3" unicode="&#x1ed3;" horiz-adv-x="386" 
d="M41 0zM345 140q0 -35 -12 -62t-32.5 -46.5t-48.5 -29.5t-59 -10q-32 0 -59.5 10t-48 29.5t-32.5 46.5t-12 62v331q0 34 12 61.5t32.5 47t48 29.5t59.5 10q31 0 59 -10t48.5 -29.5t32.5 -47t12 -61.5v-331zM127 145q0 -32 18.5 -48.5t47.5 -16.5t47 16.5t18 48.5v321
q0 32 -18 48.5t-47 16.5t-47.5 -16.5t-18.5 -48.5v-321zM197 989l88 -158h-79l-106 158h97zM240 817l99 -158h-75l-72 115l-72 -115h-74l98 158h96z" />
    <glyph glyph-name="uni1ED4" unicode="&#x1ed4;" horiz-adv-x="404" 
d="M41 0zM363 143q0 -37 -12.5 -66t-34.5 -49.5t-51.5 -31t-62.5 -10.5q-34 0 -63.5 10.5t-51 31t-34 49.5t-12.5 66v497q0 37 12.5 66t34 49t51 31t63.5 11q33 0 62.5 -11t51.5 -31t34.5 -49t12.5 -66v-497zM132 144q0 -34 19.5 -51.5t50.5 -17.5t50.5 17.5t19.5 51.5v495
q0 34 -19.5 51.5t-50.5 17.5t-50.5 -17.5t-19.5 -51.5v-495zM249 989l99 -158h-75l-72 115l-72 -115h-74l98 158h96zM290 999q0 78 97 78q48 0 70.5 -17.5t22.5 -47.5q0 -27 -13 -45.5t-28 -33.5t-27 -28.5t-10 -30.5h-40q-6 22 2 37.5t20 29.5t23 28.5t11 34.5
q0 13 -8.5 19.5t-28.5 6.5q-22 0 -30 -7.5t-8 -23.5v-16h-53v16z" />
    <glyph glyph-name="uni1ED5" unicode="&#x1ed5;" horiz-adv-x="386" 
d="M41 0zM345 140q0 -35 -12 -62t-32.5 -46.5t-48.5 -29.5t-59 -10q-32 0 -59.5 10t-48 29.5t-32.5 46.5t-12 62v331q0 34 12 61.5t32.5 47t48 29.5t59.5 10q31 0 59 -10t48.5 -29.5t32.5 -47t12 -61.5v-331zM127 145q0 -32 18.5 -48.5t47.5 -16.5t47 16.5t18 48.5v321
q0 32 -18 48.5t-47 16.5t-47.5 -16.5t-18.5 -48.5v-321zM240 817l99 -158h-75l-72 115l-72 -115h-74l98 158h96zM218 929q0 78 97 78q48 0 70.5 -17.5t22.5 -47.5q0 -27 -13 -45.5t-28 -33.5t-27 -28.5t-10 -30.5h-40q-6 22 2 37.5t20 29.5t23 28.5t11 34.5q0 13 -8.5 19.5
t-28.5 6.5q-22 0 -30 -7.5t-8 -23.5v-16h-53v16z" />
    <glyph glyph-name="uni1ED6" unicode="&#x1ed6;" horiz-adv-x="404" 
d="M31 0zM363 143q0 -37 -12.5 -66t-34.5 -49.5t-51.5 -31t-62.5 -10.5q-34 0 -63.5 10.5t-51 31t-34 49.5t-12.5 66v497q0 37 12.5 66t34 49t51 31t63.5 11q33 0 62.5 -11t51.5 -31t34.5 -49t12.5 -66v-497zM132 144q0 -34 19.5 -51.5t50.5 -17.5t50.5 17.5t19.5 51.5v495
q0 34 -19.5 51.5t-50.5 17.5t-50.5 -17.5t-19.5 -51.5v-495zM31 1079q18 37 42.5 56.5t61.5 19.5q24 0 41 -7.5t32 -16.5t29.5 -16.5t33.5 -7.5t35.5 10t30.5 39l36 -32q-19 -38 -43.5 -57.5t-57.5 -19.5q-23 0 -39.5 7.5t-32 16.5t-31.5 16.5t-36 7.5q-19 0 -35.5 -9.5
t-30.5 -38.5zM249 989l99 -158h-75l-72 115l-72 -115h-74l98 158h96z" />
    <glyph glyph-name="uni1ED7" unicode="&#x1ed7;" horiz-adv-x="386" 
d="M22 0zM345 140q0 -35 -12 -62t-32.5 -46.5t-48.5 -29.5t-59 -10q-32 0 -59.5 10t-48 29.5t-32.5 46.5t-12 62v331q0 34 12 61.5t32.5 47t48 29.5t59.5 10q31 0 59 -10t48.5 -29.5t32.5 -47t12 -61.5v-331zM127 145q0 -32 18.5 -48.5t47.5 -16.5t47 16.5t18 48.5v321
q0 32 -18 48.5t-47 16.5t-47.5 -16.5t-18.5 -48.5v-321zM22 899q18 37 42.5 56.5t61.5 19.5q24 0 41 -7.5t32 -16.5t29.5 -16.5t33.5 -7.5t35.5 10t30.5 39l36 -32q-19 -38 -43.5 -57.5t-57.5 -19.5q-23 0 -39.5 7.5t-32 16.5t-31.5 16.5t-36 7.5q-19 0 -35.5 -9.5
t-30.5 -38.5zM240 817l99 -158h-75l-72 115l-72 -115h-74l98 158h96z" />
    <glyph glyph-name="uni1ED8" unicode="&#x1ed8;" horiz-adv-x="404" 
d="M41 0zM363 143q0 -37 -12.5 -66t-34.5 -49.5t-51.5 -31t-62.5 -10.5q-34 0 -63.5 10.5t-51 31t-34 49.5t-12.5 66v497q0 37 12.5 66t34 49t51 31t63.5 11q33 0 62.5 -11t51.5 -31t34.5 -49t12.5 -66v-497zM132 144q0 -34 19.5 -51.5t50.5 -17.5t50.5 17.5t19.5 51.5v495
q0 34 -19.5 51.5t-50.5 17.5t-50.5 -17.5t-19.5 -51.5v-495zM201 -57q27 0 40 -15.5t13 -38.5t-13 -39.5t-40 -16.5q-26 0 -38.5 16.5t-12.5 39.5t12.5 38.5t38.5 15.5zM249 989l99 -158h-75l-72 115l-72 -115h-74l98 158h96z" />
    <glyph glyph-name="uni1ED9" unicode="&#x1ed9;" horiz-adv-x="386" 
d="M41 0zM345 140q0 -35 -12 -62t-32.5 -46.5t-48.5 -29.5t-59 -10q-32 0 -59.5 10t-48 29.5t-32.5 46.5t-12 62v331q0 34 12 61.5t32.5 47t48 29.5t59.5 10q31 0 59 -10t48.5 -29.5t32.5 -47t12 -61.5v-331zM127 145q0 -32 18.5 -48.5t47.5 -16.5t47 16.5t18 48.5v321
q0 32 -18 48.5t-47 16.5t-47.5 -16.5t-18.5 -48.5v-321zM192 -57q27 0 40 -15.5t13 -38.5t-13 -39.5t-40 -16.5q-26 0 -38.5 16.5t-12.5 39.5t12.5 38.5t38.5 15.5zM240 817l99 -158h-75l-72 115l-72 -115h-74l98 158h96z" />
    <glyph glyph-name="uni1EDA" unicode="&#x1eda;" horiz-adv-x="509" 
d="M41 0zM302 989l-107 -158h-78l88 158h97zM363 143q0 -37 -12.5 -66t-34.5 -49.5t-51.5 -31t-62.5 -10.5q-34 0 -63.5 10.5t-51 31t-34 49.5t-12.5 66v497q0 37 12.5 66t34 49t51 31t63.5 11q42 0 77.5 -17.5t57.5 -49.5q15 -5 28 -5q27 0 42.5 17.5t15.5 46.5v88h80v-62
q0 -29 -7.5 -55t-22.5 -45.5t-38.5 -31t-55.5 -11.5h-9.5t-9.5 1q3 -17 3 -33v-497zM132 144q0 -34 19.5 -51.5t50.5 -17.5t50.5 17.5t19.5 51.5v495q0 34 -19.5 51.5t-50.5 17.5t-50.5 -17.5t-19.5 -51.5v-495z" />
    <glyph glyph-name="uni1EDB" unicode="&#x1edb;" horiz-adv-x="458" 
d="M41 0zM294 817l-107 -158h-78l88 158h97zM345 140q0 -35 -12 -62t-32.5 -46.5t-48.5 -29.5t-59 -10q-32 0 -59.5 10t-48 29.5t-32.5 46.5t-12 62v331q0 34 12 61.5t32.5 47t48 29.5t59.5 10q61 0 103 -36q5 -2 9 -2h9q27 0 42.5 17.5t15.5 46.5v88h80v-62q0 -28 -7 -53.5
t-21 -45t-36.5 -31.5t-52.5 -13q10 -28 10 -57v-331zM127 145q0 -32 18.5 -48.5t47.5 -16.5t47 16.5t18 48.5v321q0 32 -18 48.5t-47 16.5t-47.5 -16.5t-18.5 -48.5v-321z" />
    </font>
</defs>
</svg>
